<svg width="64" height="33" viewBox="0 0 64 33" fill="none" xmlns="http://www.w3.org/2000/svg">
<path d="M0 3.95344C0 1.81486 1.71758 0.0795898 3.83847 0.0795898H60.1525C62.2716 0.0795898 63.9909 1.81486 63.9909 3.95344V28.4577C63.9909 30.5963 62.2716 32.3298 60.1525 32.3298H3.83847C1.71758 32.3298 0 30.5963 0 28.4577V3.95344Z" fill="white"/>
<path d="M0.0449219 3.56252C0.0449219 1.59552 1.6263 0 3.5756 0H60.4716C62.4209 0 64.0005 1.59552 64.0005 3.56252V3.67573H0.0449219V3.56252Z" fill="#FBB110"/>
<path d="M64.0005 28.7814V28.8698C64.0005 30.8368 62.4209 32.4323 60.4716 32.4323H3.5756C1.6263 32.4323 0.0449219 30.8368 0.0449219 28.8698V28.7814H64.0005Z" fill="#FBB110"/>
<path d="M44.3076 16.1782C44.3076 21.1575 48.307 25.1941 53.2422 25.1941C58.1756 25.1941 62.1768 21.1575 62.1768 16.1782C62.1768 11.197 58.1756 7.16041 53.2422 7.16041C48.307 7.16041 44.3076 11.197 44.3076 16.1782ZM1.70944 16.1782C1.70944 21.1575 5.71064 25.1941 10.6458 25.1941C15.5792 25.1941 19.5804 21.1575 19.5804 16.1782C19.5804 11.197 15.5792 7.16041 10.6458 7.16041C5.71064 7.16041 1.70944 11.197 1.70944 16.1782ZM64.0005 27.0744H19.9466C20.7408 26.5119 21.4802 25.7425 22.2868 24.7041L26.7744 18.9252L28.7344 21.4246L30.9154 18.4972L29.0085 16.0473L33.5758 10.164C35.0262 8.2978 32.2527 6.10439 30.8022 7.97056L26.7656 13.1711L22.6618 7.90157C21.2095 6.04071 18.4413 8.23943 19.8935 10.1021L24.5315 16.049L19.5132 22.5107C17.7302 24.8067 15.9507 26.9117 12.4182 27.0744H0.0449219V5.38269H43.8671C43.1136 5.93812 42.4025 6.68281 41.6312 7.67692L37.1454 13.4541L35.1837 10.9564L33.0044 13.8839L34.9113 16.332L30.3423 22.2153C28.8936 24.0815 31.6672 26.2749 33.1159 24.4087L37.1542 19.21L41.258 24.4777C42.7103 26.3404 45.4785 24.1416 44.0263 22.279L39.3883 16.3303L44.4066 9.87033C46.0446 7.75829 47.6808 5.80899 50.6773 5.38269H64.0005V27.0744ZM47.8931 16.1782C47.8931 13.1958 50.2881 10.7795 53.2422 10.7795C56.1962 10.7795 58.5895 13.1958 58.5895 16.1782C58.5895 19.1587 56.1962 21.575 53.2422 21.575C50.2881 21.575 47.8931 19.1587 47.8931 16.1782ZM5.29672 16.1782C5.29672 13.1958 7.69178 10.7795 10.6458 10.7795C13.5981 10.7795 15.9931 13.1958 15.9931 16.1782C15.9931 19.1587 13.5981 21.575 10.6458 21.575C7.69178 21.575 5.29672 19.1587 5.29672 16.1782Z" fill="#E70020"/>
</svg>
