<svg width="37" height="37" viewBox="0 0 37 37" fill="none" xmlns="http://www.w3.org/2000/svg">
<path d="M18.5007 24.6666C19.7203 24.6666 20.9126 24.305 21.9267 23.6274C22.9408 22.9498 23.7312 21.9866 24.198 20.8598C24.6647 19.733 24.7868 18.4931 24.5489 17.2969C24.3109 16.1007 23.7236 15.0019 22.8612 14.1394C21.9988 13.277 20.9 12.6897 19.7037 12.4517C18.5075 12.2138 17.2676 12.3359 16.1408 12.8027C15.014 13.2694 14.0509 14.0598 13.3733 15.0739C12.6957 16.088 12.334 17.2803 12.334 18.4999C12.3358 20.1349 12.9861 21.7024 14.1421 22.8585C15.2982 24.0146 16.8657 24.6648 18.5007 24.6666ZM18.5007 13.5666C19.4764 13.5666 20.4302 13.8559 21.2415 14.398C22.0528 14.9401 22.6851 15.7106 23.0585 16.612C23.4319 17.5135 23.5296 18.5054 23.3392 19.4624C23.1489 20.4194 22.679 21.2984 21.9891 21.9883C21.2991 22.6783 20.4201 23.1481 19.4631 23.3385C18.5061 23.5289 17.5142 23.4312 16.6128 23.0578C15.7113 22.6844 14.9408 22.0521 14.3987 21.2408C13.8567 20.4295 13.5673 19.4757 13.5673 18.4999C13.5688 17.192 14.089 15.938 15.0139 15.0132C15.9388 14.0883 17.1927 13.5681 18.5007 13.5666Z" fill="black"/>
<path d="M18.5004 20.3501C18.3368 20.3501 18.18 20.2851 18.0643 20.1695C17.9487 20.0538 17.8837 19.897 17.8837 19.7334H16.6504C16.652 20.1147 16.7713 20.4861 16.9921 20.797C17.2128 21.1078 17.5243 21.3429 17.8837 21.4699V22.2001H19.1171V21.4699C19.5282 21.3251 19.8748 21.0395 20.0955 20.6636C20.3162 20.2878 20.3968 19.8459 20.3229 19.4163C20.249 18.9867 20.0255 18.5972 19.692 18.3166C19.3584 18.036 18.9363 17.8826 18.5004 17.8834C18.3784 17.8834 18.2592 17.8472 18.1578 17.7795C18.0564 17.7117 17.9773 17.6154 17.9307 17.5027C17.884 17.39 17.8718 17.266 17.8956 17.1464C17.9194 17.0268 17.9781 16.9169 18.0643 16.8307C18.1506 16.7444 18.2605 16.6857 18.3801 16.6619C18.4997 16.6381 18.6237 16.6503 18.7364 16.697C18.8491 16.7437 18.9454 16.8227 19.0131 16.9241C19.0809 17.0255 19.1171 17.1448 19.1171 17.2667H20.3504C20.3488 16.8855 20.2295 16.514 20.0087 16.2032C19.7879 15.8923 19.4765 15.6573 19.1171 15.5302V14.8H17.8837V15.5302C17.4726 15.675 17.126 15.9606 16.9053 16.3365C16.6846 16.7124 16.604 17.1542 16.6779 17.5838C16.7518 18.0134 16.9753 18.4029 17.3088 18.6835C17.6424 18.9641 18.0645 19.1176 18.5004 19.1167C18.6639 19.1167 18.8208 19.1817 18.9364 19.2973C19.0521 19.413 19.1171 19.5698 19.1171 19.7334C19.1171 19.897 19.0521 20.0538 18.9364 20.1695C18.8208 20.2851 18.6639 20.3501 18.5004 20.3501Z" fill="black"/>
<path d="M28.9833 33.9169C28.9833 34.4075 28.7884 34.8781 28.4414 35.225C28.0945 35.572 27.6239 35.7669 27.1333 35.7669H9.86655C9.3759 35.7669 8.90534 35.572 8.5584 35.225C8.21145 34.8781 8.01654 34.4075 8.01654 33.9169V21.5835H6.7832V33.9169C6.78418 34.7343 7.10935 35.518 7.68738 36.096C8.2654 36.6741 9.04909 36.9992 9.86655 37.0002H27.1333C27.9507 36.9992 28.7344 36.6741 29.3124 36.096C29.8905 35.518 30.2156 34.7343 30.2166 33.9169V25.9002H28.9833V33.9169Z" fill="black"/>
<path d="M29.6005 17.8833H28.3672V19.1166H29.6005V17.8833Z" fill="black"/>
<path d="M8.01654 3.08334C8.01654 2.59269 8.21145 2.12214 8.5584 1.77519C8.90534 1.42825 9.3759 1.23334 9.86655 1.23334H27.1333C27.6239 1.23334 28.0945 1.42825 28.4414 1.77519C28.7884 2.12214 28.9833 2.59269 28.9833 3.08334V11.1H30.2166V3.08334C30.2156 2.26589 29.8905 1.4822 29.3124 0.904172C28.7344 0.326145 27.9507 0.000979182 27.1333 0H9.86655C9.04909 0.000979182 8.2654 0.326145 7.68738 0.904172C7.10935 1.4822 6.78418 2.26589 6.7832 3.08334V15.4167H8.01654V3.08334Z" fill="black"/>
<path d="M28.3662 12.3335V3.08344C28.3662 2.75633 28.2363 2.44263 28.005 2.21133C27.7737 1.98004 27.46 1.8501 27.1329 1.8501H23.7628C23.5746 1.85009 23.3889 1.89316 23.2199 1.976C23.0509 2.05883 22.9031 2.17925 22.7878 2.32802L21.9603 3.08344H15.0388L14.2112 2.32802C14.0959 2.17925 13.9481 2.05883 13.7791 1.976C13.6102 1.89316 13.4244 1.85009 13.2362 1.8501H9.86615C9.53905 1.8501 9.22534 1.98004 8.99405 2.21133C8.76275 2.44263 8.63281 2.75633 8.63281 3.08344V15.4168H9.86615V3.08344H13.2362C13.2639 3.12512 13.2967 3.16323 13.3337 3.1969L14.382 4.15582C14.4961 4.25985 14.6451 4.31728 14.7995 4.31677H22.1995C22.3533 4.31682 22.5015 4.25942 22.6152 4.15582L23.6635 3.1969C23.701 3.16318 23.7343 3.12508 23.7628 3.08344H27.1329V12.3335H28.3662Z" fill="black"/>
<path d="M27.1337 17.8833H25.9004V19.1166H27.1337V17.8833Z" fill="black"/>
<path d="M28.3662 30.8335V24.6668H27.1329V30.8335H9.86615V21.5835H8.63281V30.8335C8.63281 31.1606 8.76275 31.4743 8.99405 31.7056C9.22534 31.9369 9.53905 32.0669 9.86615 32.0669H27.1329C27.46 32.0669 27.7737 31.9369 28.005 31.7056C28.2363 31.4743 28.3662 31.1606 28.3662 30.8335Z" fill="black"/>
<path d="M20.3504 33.3H16.6504V34.5334H20.3504V33.3Z" fill="black"/>
<path d="M8.19762 19.9141L9.06959 20.7861L10.9196 18.9361C11.0352 18.8204 11.1002 18.6636 11.1002 18.5001C11.1002 18.3366 11.0352 18.1798 10.9196 18.0641L9.06959 16.2141L8.19762 17.0861L8.99498 17.8834H4.93359V19.1168H8.99498L8.19762 19.9141Z" fill="black"/>
<path d="M36.82 18.0641L34.97 16.2141L34.098 17.0861L34.8954 17.8834H30.834V19.1168H34.8954L34.098 19.9141L34.97 20.7861L36.82 18.9361C36.9356 18.8204 37.0005 18.6636 37.0005 18.5001C37.0005 18.3366 36.9356 18.1798 36.82 18.0641Z" fill="black"/>
<path d="M27.1328 13.5668V14.8001H31.1942L30.3968 15.5975L31.2688 16.4694L33.1188 14.6194C33.2344 14.5038 33.2994 14.347 33.2994 14.1835C33.2994 14.0199 33.2344 13.8631 33.1188 13.7475L31.2688 11.8975L30.3968 12.7694L31.1942 13.5668H27.1328Z" fill="black"/>
<path d="M31.2688 20.5308L30.3968 21.4027L31.1942 22.2001H27.1328V23.4334H31.1942L30.3968 24.2308L31.2688 25.1027L33.1188 23.2527C33.2344 23.1371 33.2994 22.9803 33.2994 22.8168C33.2994 22.6532 33.2344 22.4964 33.1188 22.3808L31.2688 20.5308Z" fill="black"/>
<path d="M3.70013 17.8833H2.4668V19.1166H3.70013V17.8833Z" fill="black"/>
<path d="M1.23334 17.8833H0V19.1166H1.23334V17.8833Z" fill="black"/>
<path d="M25.8994 22.2002H24.666V23.4335H25.8994V22.2002Z" fill="black"/>
<path d="M25.8994 13.5667H24.666V14.8H25.8994V13.5667Z" fill="black"/>
<path d="M19.1162 8.0166H17.8828V9.24994H19.1162V8.0166Z" fill="black"/>
<path d="M21.5829 8.0166H20.3496V9.24994H21.5829V8.0166Z" fill="black"/>
<path d="M16.6494 8.0166H15.416V9.24994H16.6494V8.0166Z" fill="black"/>
</svg>
