<svg width="26" height="31" viewBox="0 0 26 31" fill="none" xmlns="http://www.w3.org/2000/svg">
<path d="M21.9449 2.27629C20.5381 0.682699 17.9921 0 14.7351 0H5.28294C4.61721 0 4.05144 0.480907 3.94583 1.13154L0.00999986 25.8954C-0.0673224 26.3839 0.313631 26.8252 0.811511 26.8252H6.64651L8.11186 17.6031L8.0666 17.8935C8.17032 17.2429 8.73421 16.7619 9.39993 16.7619H12.1722C17.6206 16.7619 21.8846 14.5668 23.1312 8.2169C23.1689 8.02831 23.2274 7.66622 23.2274 7.66622C23.5819 5.31637 23.2255 3.72278 21.9449 2.27629Z" fill="black"/>
<path d="M24.7052 8.86938C23.3512 15.1212 19.0306 18.4291 12.1734 18.4291H9.68776L7.83203 30.1745H11.8641C12.4468 30.1745 12.9428 29.7539 13.0334 29.1825L13.0805 28.9336L14.0084 23.1042L14.0687 22.7836C14.1593 22.2122 14.6552 21.7916 15.2361 21.7916H15.9735C20.7392 21.7916 24.4695 19.8718 25.5596 14.3178C25.9971 12.0886 25.7859 10.2197 24.7052 8.86938Z" fill="black"/>
</svg>
