<svg width="64" height="40" viewBox="0 0 64 40" fill="none" xmlns="http://www.w3.org/2000/svg">
<path fill-rule="evenodd" clip-rule="evenodd" d="M23.7952 16.305L21.7593 12.7786L15.9592 22.8242H37.0822L29.1522 9.08996L24.9873 16.305C24.9285 16.4072 24.843 16.4958 24.7333 16.5586C24.4049 16.7476 23.984 16.6341 23.7952 16.305ZM22.3553 11.0615L24.3911 14.5881L28.5575 7.37153C28.747 7.04245 29.1669 6.92912 29.4956 7.11793C29.6049 7.1805 29.6902 7.268 29.7483 7.36953L29.7496 7.36864L38.8721 23.1696C39.0629 23.4987 38.9509 23.9204 38.6216 24.111C38.5132 24.174 38.3941 24.204 38.2763 24.2038V24.2054H14.7678C14.386 24.2054 14.0771 23.8961 14.0771 23.5149C14.0771 23.3662 14.1239 23.2281 14.2043 23.1155L21.1637 11.0615C21.3525 10.7325 21.7731 10.6189 22.102 10.8082C22.2111 10.871 22.2963 10.9593 22.3553 11.0615Z" fill="black"/>
<path fill-rule="evenodd" clip-rule="evenodd" d="M43.3568 7.70932C43.1558 7.38603 43.2549 6.96099 43.5779 6.76016C43.901 6.5591 44.3265 6.65818 44.5269 6.98147C45.2454 8.13414 45.8089 9.39235 46.1901 10.7265C46.5583 12.0192 46.7558 13.3825 46.7558 14.7901C46.7558 18.8738 45.1006 22.5716 42.4237 25.2478C39.7483 27.9239 36.0498 29.5795 31.9662 29.5795C29.6577 29.5795 27.4704 29.0487 25.52 28.1025C23.4972 27.121 21.7311 25.6909 20.3509 23.9411C20.1162 23.6434 20.1665 23.211 20.4644 22.9757C20.7623 22.7403 21.1952 22.7911 21.4299 23.0888C22.6805 24.6741 24.2825 25.971 26.1187 26.8616C27.8839 27.7182 29.8679 28.1986 31.9662 28.1986C35.6696 28.1984 39.0218 26.6975 41.448 24.2713C43.8743 21.8448 45.3754 18.4926 45.3754 14.7897C45.3754 13.5096 45.1966 12.273 44.8629 11.1037C44.5175 9.89265 44.0063 8.75245 43.3568 7.70932ZM40.329 4.30564C40.0311 4.06896 39.9817 3.63524 40.2183 3.33755C40.4552 3.03965 40.8881 2.99022 41.186 3.22712C41.4171 3.41125 41.6547 3.61431 41.898 3.83473H41.9002C42.1256 4.03935 42.3493 4.25621 42.572 4.48532C42.8369 4.75785 42.8312 5.1938 42.5591 5.45876C42.2863 5.72393 41.8499 5.71792 41.585 5.44517C41.3928 5.24746 41.188 5.04997 40.9727 4.85426L40.9742 4.85292C40.7774 4.67458 40.5623 4.492 40.329 4.30564ZM18.8306 17.508C18.9068 17.8803 18.6661 18.2437 18.2945 18.3196C17.922 18.3955 17.5586 18.1553 17.4825 17.783C17.382 17.2947 17.3059 16.798 17.2542 16.2952C17.2033 15.7867 17.1768 15.2842 17.1768 14.7897C17.1768 10.7056 18.8322 7.00819 21.5082 4.33192C24.1852 1.65542 27.8828 0 31.9664 0C33.1019 0 34.2125 0.129807 35.2835 0.374946C36.3809 0.626543 37.4321 1.0006 38.4211 1.48086C38.7635 1.64607 38.9071 2.05819 38.7419 2.40063C38.5769 2.74307 38.1648 2.88668 37.8226 2.7217C36.9253 2.2853 35.9712 1.9462 34.9762 1.7182C34.0137 1.49756 33.0057 1.38089 31.9664 1.38089C28.263 1.38089 24.9115 2.88179 22.4846 5.30802C20.0583 7.73426 18.5581 11.0865 18.5581 14.7897C18.5581 15.2659 18.5804 15.7232 18.6249 16.1603C18.6712 16.6174 18.74 17.0669 18.8306 17.508Z" fill="black"/>
<path d="M62.9571 36.9671C62.9571 37.224 62.913 37.4669 62.8248 37.6963C62.7366 37.9254 62.6144 38.1244 62.4583 38.2932C62.3022 38.462 62.1145 38.5953 61.8955 38.6938C61.6766 38.7919 61.4359 38.8409 61.1741 38.8409C60.9122 38.8409 60.6704 38.7906 60.4487 38.69C60.2271 38.5891 60.037 38.4533 59.8782 38.2819C59.7197 38.1106 59.5961 37.9102 59.5082 37.6811C59.42 37.452 59.3757 37.2089 59.3757 36.952C59.3757 36.695 59.42 36.4519 59.5082 36.2228C59.5963 35.9934 59.7186 35.7944 59.8744 35.6256C60.0305 35.4568 60.2184 35.3235 60.4375 35.2253C60.6566 35.1269 60.8971 35.0779 61.1591 35.0779C61.4212 35.0779 61.6628 35.1282 61.8845 35.2291C62.1061 35.3297 62.2962 35.4657 62.455 35.637C62.6135 35.8082 62.7371 36.0086 62.825 36.2377C62.913 36.467 62.9571 36.7102 62.9571 36.9671ZM63.9318 36.952C63.9318 36.5792 63.8639 36.2266 63.7279 35.8941C63.5918 35.5615 63.4028 35.272 63.161 35.0251C62.9192 34.7784 62.6298 34.5832 62.2922 34.4395C61.9547 34.2959 61.582 34.2242 61.1741 34.2242C60.7659 34.2242 60.3932 34.2973 60.0557 34.4433C59.7184 34.5894 59.4262 34.7871 59.1791 35.0365C58.9324 35.2858 58.7407 35.5769 58.6049 35.909C58.4688 36.2417 58.4009 36.5941 58.4009 36.9669C58.4009 37.3396 58.4688 37.6923 58.6049 38.0249C58.7409 38.3573 58.9299 38.647 59.1717 38.8937C59.4138 39.1404 59.7032 39.3357 60.0408 39.4793C60.3783 39.6229 60.751 39.6946 61.1589 39.6946C61.567 39.6946 61.9398 39.6215 62.2773 39.4755C62.6146 39.3294 62.907 39.1317 63.1537 38.8823C63.4004 38.633 63.5921 38.342 63.7279 38.0098C63.8639 37.6774 63.9318 37.3247 63.9318 36.952ZM57.4262 38.8712V36.6496H55.1745V37.458H56.5269V38.4531C56.3657 38.5753 56.1755 38.6722 55.9564 38.7465C55.7373 38.8196 55.502 38.8561 55.25 38.8561C54.9781 38.8561 54.7325 38.8082 54.5132 38.7125C54.2939 38.6167 54.1053 38.4834 53.9466 38.3146C53.788 38.1458 53.6658 37.9456 53.5801 37.7128C53.4944 37.481 53.4516 37.2278 53.4516 36.956C53.4516 36.699 53.4957 36.4561 53.5839 36.2292C53.672 36.0012 53.7929 35.8024 53.9466 35.631C54.1002 35.4597 54.2814 35.3237 54.4907 35.2255C54.6998 35.1271 54.9253 35.0781 55.1671 35.0781C55.3332 35.0781 55.4857 35.0919 55.6242 35.1197C55.7627 35.1474 55.8899 35.1852 56.0056 35.2329C56.1214 35.2807 56.2323 35.34 56.3381 35.4105C56.4438 35.4811 56.5471 35.5593 56.648 35.645L57.2374 34.9423C57.1013 34.8263 56.9615 34.7243 56.8181 34.6361C56.6745 34.5482 56.5222 34.4738 56.361 34.4133C56.1998 34.3529 56.0248 34.3062 55.836 34.2737C55.6469 34.2409 55.4368 34.2245 55.205 34.2245C54.8073 34.2245 54.4406 34.2975 54.1058 34.4436C53.7707 34.5896 53.4823 34.7873 53.2405 35.0367C52.9987 35.2861 52.811 35.5771 52.6777 35.9093C52.5443 36.2419 52.4775 36.5944 52.4775 36.9671C52.4775 37.355 52.543 37.7152 52.6739 38.0476C52.8048 38.38 52.99 38.6686 53.2292 38.9126C53.4685 39.1571 53.7569 39.3484 54.0944 39.4868C54.4319 39.6253 54.8073 39.6946 55.2201 39.6946C55.4519 39.6946 55.6734 39.6732 55.885 39.6305C56.0965 39.5877 56.2942 39.5285 56.4783 39.4528C56.662 39.3773 56.8332 39.2891 56.992 39.1883C57.1503 39.0879 57.2952 38.9821 57.4262 38.8712ZM50.6103 36.9671C50.6103 37.224 50.5663 37.4669 50.4781 37.6963C50.3899 37.9254 50.2677 38.1244 50.1116 38.2932C49.9555 38.462 49.7678 38.5953 49.5487 38.6938C49.3296 38.7919 49.0892 38.8409 48.8271 38.8409C48.5651 38.8409 48.3235 38.7906 48.1017 38.69C47.8802 38.5891 47.69 38.4533 47.5313 38.2819C47.3725 38.1106 47.2492 37.9102 47.161 37.6811C47.0728 37.452 47.0288 37.2089 47.0288 36.952C47.0288 36.695 47.0728 36.4519 47.161 36.2228C47.2492 35.9934 47.3714 35.7944 47.5275 35.6256C47.6838 35.4568 47.8715 35.3235 48.0906 35.2253C48.3097 35.1269 48.5501 35.0779 48.8122 35.0779C49.0743 35.0779 49.3158 35.1282 49.5376 35.2291C49.7591 35.3297 49.9493 35.4657 50.108 35.637C50.2666 35.8082 50.3899 36.0086 50.4781 36.2377C50.5663 36.4668 50.6103 36.7102 50.6103 36.9671ZM51.5853 36.952C51.5853 36.5792 51.5174 36.2266 51.3814 35.8941C51.2453 35.5615 51.0565 35.272 50.8147 35.0251C50.5727 34.7784 50.2833 34.5832 49.9457 34.4395C49.6084 34.2959 49.2355 34.2242 48.8276 34.2242C48.4194 34.2242 48.0467 34.2973 47.7094 34.4433C47.3719 34.5894 47.0797 34.7871 46.8328 35.0365C46.5861 35.2858 46.3946 35.5769 46.2586 35.909C46.1223 36.2417 46.0544 36.5941 46.0544 36.9669C46.0544 37.3396 46.1223 37.6923 46.2586 38.0249C46.3946 38.3573 46.5835 38.647 46.8253 38.8937C47.0671 39.1404 47.3565 39.3357 47.694 39.4793C48.0316 39.6229 48.4043 39.6946 48.8122 39.6946C49.2203 39.6946 49.593 39.6215 49.9306 39.4755C50.2679 39.3294 50.5602 39.1317 50.8069 38.8823C51.0536 38.633 51.2453 38.342 51.3812 38.0098C51.5172 37.6774 51.5853 37.3247 51.5853 36.952ZM41.9133 39.6042H45.616V38.7655H42.8353V34.3149H41.9136V39.6042H41.9133ZM38.4981 34.3149H34.5841V39.6042H38.5359V38.7655H35.5061V37.3523H38.1583V36.5136H35.5061V35.1536H38.4981V34.3149ZM31.0858 38.38L29.4914 34.3149H28.4636L30.6625 39.642H31.4785L33.6774 34.3149H32.6724L31.0858 38.38ZM26.5746 34.3149V39.6042H27.4966V34.3149H26.5746ZM23.8621 35.1763H25.5395V34.3149H21.2477V35.1763H22.9251V39.6042H23.8621V35.1763ZM19.5399 37.5035H17.7189L18.6257 35.3878L19.5399 37.5035ZM19.0715 34.277H18.21L15.8827 39.6042H16.8347L17.3786 38.3273H19.8797L20.4161 39.6042H21.3984L19.0715 34.277ZM15.1878 34.3149H11.2738V39.6042H15.2256V38.7655H12.1958V37.3523H14.8478V36.5136H12.1958V35.1536H15.1878V34.3149ZM9.18818 36.0413C9.18818 36.3147 9.08999 36.5327 8.89227 36.6937C8.69589 36.856 8.43005 36.9366 8.09629 36.9366H6.73255V35.1534H8.08894C8.43784 35.1534 8.70859 35.2275 8.89984 35.3776C9.09266 35.5263 9.18818 35.7481 9.18818 36.0413ZM10.299 39.6042L8.8709 37.6016C9.05726 37.5513 9.22714 37.4796 9.38099 37.3863C9.53462 37.2933 9.66688 37.1799 9.77754 37.0464C9.88842 36.9128 9.97525 36.7591 10.0383 36.5855C10.101 36.4118 10.1327 36.2139 10.1327 35.9923C10.1327 35.7354 10.0875 35.5025 9.99663 35.2934C9.90601 35.0843 9.7762 34.908 9.60743 34.7644C9.43866 34.6208 9.23204 34.5099 8.98779 34.4318C8.74354 34.3538 8.47012 34.3146 8.16798 34.3146H5.81077V39.604H6.73255V37.7602H7.89991L9.20332 39.604H10.299V39.6042ZM4.836 38.7579L4.23907 38.1534C4.01241 38.3649 3.78308 38.5323 3.55152 38.6559C3.31974 38.7793 3.04254 38.8409 2.72036 38.8409C2.46854 38.8409 2.23565 38.7919 2.02146 38.6938C1.80749 38.5953 1.62224 38.4609 1.46616 38.2894C1.31008 38.118 1.18896 37.9178 1.10346 37.6887C1.01774 37.4596 0.974992 37.214 0.974992 36.952C0.974992 36.6899 1.01774 36.4456 1.10346 36.219C1.18896 35.9923 1.31008 35.7946 1.46616 35.6258C1.62224 35.4571 1.80749 35.3237 2.02146 35.2255C2.23565 35.1271 2.46854 35.0781 2.72036 35.0781C3.02272 35.0781 3.29213 35.1385 3.52881 35.2596C3.76549 35.3805 3.9897 35.5392 4.20122 35.7356L4.79815 35.0481C4.67213 34.9272 4.53876 34.8163 4.39782 34.7154C4.25666 34.6146 4.10303 34.5279 3.93693 34.4547C3.77061 34.3817 3.58804 34.3251 3.38899 34.2848C3.18993 34.2445 2.96973 34.2245 2.72793 34.2245C2.32493 34.2245 1.95733 34.2962 1.62469 34.4398C1.29227 34.5834 1.00527 34.7798 0.763251 35.0291C0.521451 35.2785 0.333755 35.5695 0.200387 35.9017C0.0667956 36.2343 0 36.5895 0 36.9671C0 37.3501 0.0681311 37.7076 0.204171 38.04C0.340212 38.3727 0.527685 38.661 0.767036 38.9053C1.00639 39.1495 1.2896 39.3421 1.61712 39.4833C1.94442 39.6242 2.30222 39.6948 2.69008 39.6948C2.937 39.6948 3.16233 39.6734 3.36627 39.6307C3.57022 39.5879 3.75792 39.5249 3.92914 39.4416C4.10036 39.3586 4.26022 39.2602 4.40895 39.1471C4.55769 39.0337 4.69996 38.9039 4.836 38.7579Z" fill="black"/>
</svg>
