<svg width="50" height="46" viewBox="0 0 50 46" fill="none" xmlns="http://www.w3.org/2000/svg">
<path d="M26.0794 23.2346L26.2774 23.5394C27.1271 24.8478 26.9459 26.5723 25.8427 27.6751L25.2872 28.2305C23.8412 29.6765 23.8096 32.011 25.2163 33.4953L29.3375 37.8447L29.0001 37.2859C28.2112 35.9794 28.4197 34.3034 29.5043 33.2298L30.0459 32.694C31.5168 31.2385 31.5412 28.8704 30.1015 27.3846L26.0794 23.2346Z" fill="#1A6EA0"/>
<path d="M33.4387 9.0592C32.4629 8.04746 31.4809 7.04147 30.5018 6.03308C30.7601 7.94633 30.0862 9.25426 28.9015 10.4294C25.3736 13.9286 21.8639 17.4455 18.3594 20.9677C16.9657 22.3686 16.5214 24.0983 17.5058 25.4431C18.5396 26.856 19.8801 28.0441 21.0865 29.331C21.1109 27.2883 22.0666 26.0216 23.306 24.8095C26.7189 21.4714 30.0834 18.0844 33.4421 14.6911C35.2672 12.8474 35.2432 10.9308 33.4387 9.0592Z" fill="#1A6EA0"/>
<path d="M27.1989 8.65852C29.0245 6.81428 29.0005 4.89768 27.1966 3.02612C26.2208 2.01438 25.2387 1.00839 24.2596 0C24.5179 1.91325 23.844 3.22118 22.6593 4.39636C19.1314 7.89552 15.6217 11.4124 12.1172 14.9346C10.7235 16.3355 10.2792 18.0652 11.2636 19.41C12.2974 20.8229 13.638 22.011 14.8443 23.2979C14.8687 21.2552 15.8244 19.9885 17.0633 18.7764C20.4757 15.4388 23.8407 12.0513 27.1989 8.65852Z" fill="#1A6EA0"/>
<path d="M0.80997 45.0447L2.4764 45.049L2.47496 45.7013L0 45.6951L0.0124615 40.7667L0.820992 40.7686L0.80997 45.0447Z" fill="#333333"/>
<path d="M4.85324 41.4313L4.8494 42.8777L6.5513 42.882L6.54938 43.5415L4.84749 43.5372L4.84365 45.0479L6.75834 45.0527L6.75642 45.7121L4.0332 45.7049L4.04566 40.7694L6.76889 40.7766L6.76697 41.4361L4.85324 41.4313Z" fill="#333333"/>
<path d="M11.8338 40.7971L11.8318 41.4566L10.5201 41.4532L10.509 45.7221L9.70051 45.7202L9.71153 41.4513L8.39258 41.4479L8.3945 40.7885L11.8338 40.7971Z" fill="#333333"/>
<path d="M16.7195 40.8093L16.7176 41.4688L15.4058 41.4654L15.3948 45.7343L14.5863 45.7324L14.5973 41.4635L13.2783 41.4601L13.2802 40.8007L16.7195 40.8093Z" fill="#333333"/>
<path d="M19.2278 41.4683L19.2239 42.9147L20.9258 42.919L20.9239 43.5785L19.222 43.5742L19.2187 45.0848L21.1333 45.0896L21.1314 45.7491L18.4082 45.7419L18.4207 40.8064L21.1439 40.8136L21.142 41.4731L19.2278 41.4683Z" fill="#333333"/>
<path d="M25.57 45.7606L24.4404 43.7865L23.8236 43.7851L23.8183 45.7563L23.0098 45.7544L23.0222 40.826L24.7241 40.8304C25.1023 40.8313 25.4224 40.8984 25.6846 41.0312C25.9467 41.1644 26.1423 41.3422 26.2717 41.5646C26.4011 41.787 26.4653 42.0357 26.4648 42.3099C26.4639 42.6315 26.3699 42.9229 26.1825 43.185C25.9952 43.4467 25.7076 43.6245 25.3194 43.718L26.5339 45.7635L25.57 45.7606ZM23.8255 43.139L24.7188 43.1414C25.0213 43.1424 25.2499 43.0671 25.4037 42.9162C25.5576 42.7652 25.6352 42.562 25.6357 42.307C25.6362 42.0515 25.5609 41.8517 25.4104 41.7074C25.2595 41.5627 25.0304 41.4903 24.7232 41.4894L23.8298 41.487L23.8255 43.139Z" fill="#333333"/>
<path d="M29.1894 45.1175L30.8558 45.1218L30.8539 45.7741L28.3789 45.7678L28.3914 40.8395L29.1999 40.8414L29.1894 45.1175Z" fill="#333333"/>
<path d="M33.3975 45.5077C33.0126 45.2915 32.7083 44.9905 32.485 44.6047C32.2611 44.2189 32.1499 43.7847 32.1514 43.3025C32.1528 42.8204 32.2659 42.3881 32.4917 42.0056C32.7169 41.6232 33.0227 41.3251 33.4085 41.1108C33.7943 40.8966 34.2166 40.7902 34.6752 40.7911C35.1387 40.7926 35.5624 40.9009 35.9472 41.1171C36.3321 41.3332 36.635 41.6327 36.8564 42.0166C37.0773 42.4001 37.1876 42.8328 37.1861 43.315C37.1847 43.7971 37.0725 44.2309 36.8497 44.6153C36.6263 45.0001 36.322 45.2997 35.9362 45.5134C35.5504 45.7276 35.1257 45.834 34.6623 45.8326C34.2041 45.8321 33.7823 45.7238 33.3975 45.5077ZM35.537 44.91C35.7924 44.7619 35.9927 44.5496 36.138 44.2735C36.2827 43.9975 36.356 43.6773 36.357 43.3131C36.3579 42.9493 36.2865 42.6296 36.1432 42.355C35.9995 42.0804 35.8006 41.8695 35.5456 41.7224C35.2906 41.5752 35.0002 41.5009 34.6738 41.5005C34.3474 41.4995 34.0565 41.5724 33.801 41.7181C33.5456 41.8638 33.3452 42.0737 33.2 42.3478C33.0553 42.6215 32.9824 42.9407 32.9815 43.3044C32.9805 43.6687 33.0519 43.9888 33.1952 44.2659C33.3385 44.5429 33.5379 44.7562 33.7929 44.9057C34.0479 45.0552 34.3383 45.1305 34.6647 45.1314C34.9906 45.1324 35.2815 45.0586 35.537 44.91Z" fill="#333333"/>
<path d="M42.4362 42.2937C42.3092 42.0479 42.1323 41.8614 41.9056 41.7359C41.6789 41.6103 41.4167 41.5465 41.1191 41.5461C40.7927 41.5451 40.5018 41.618 40.2464 41.7637C39.9909 41.9094 39.7906 42.1169 39.6454 42.3862C39.5006 42.6556 39.4278 42.9671 39.4268 43.3218C39.4259 43.6764 39.4973 43.9899 39.6406 44.2621C39.7839 44.5343 39.9832 44.7443 40.2382 44.8914C40.4932 45.0385 40.7836 45.1128 41.11 45.1133C41.5495 45.1142 41.907 44.9925 42.1817 44.7471C42.4563 44.5022 42.625 44.1691 42.6878 43.7483L40.8368 43.7435L40.8383 43.0984L43.5543 43.1051L43.5529 43.7363C43.4997 44.1193 43.3631 44.4711 43.1426 44.7922C42.9221 45.1133 42.6351 45.3687 42.2828 45.5595C41.93 45.7502 41.5385 45.8447 41.1086 45.8437C40.6451 45.8427 40.2224 45.7339 39.8399 45.5178C39.4575 45.3016 39.1546 45.0021 38.9312 44.6182C38.7074 44.2348 38.5962 43.802 38.5977 43.3194C38.5991 42.8372 38.7122 42.4049 38.938 42.0225C39.1632 41.64 39.469 41.3419 39.8548 41.1277C40.2406 40.9134 40.6629 40.807 41.1215 40.808C41.6463 40.8094 42.1126 40.9393 42.521 41.1981C42.9293 41.4569 43.225 41.8226 43.4081 42.2961L42.4362 42.2937Z" fill="#333333"/>
<path d="M46.2119 45.54C45.8271 45.3238 45.5228 45.0229 45.2994 44.6371C45.0756 44.2512 44.9644 43.817 44.9658 43.3349C44.9673 42.8527 45.0804 42.4204 45.3061 42.038C45.5314 41.6555 45.8372 41.3574 46.223 41.1432C46.6088 40.9289 47.031 40.8225 47.4897 40.8235C47.9531 40.8249 48.3768 40.9332 48.7617 41.1494C49.1465 41.3655 49.4494 41.6651 49.6708 42.049C49.8918 42.4324 50.002 42.8652 50.0006 43.3473C49.9991 43.8295 49.887 44.2632 49.6641 44.6476C49.4408 45.0325 49.1365 45.332 48.7506 45.5458C48.3648 45.76 47.9402 45.8664 47.4767 45.8649C47.0181 45.8649 46.5963 45.7562 46.2119 45.54ZM48.3514 44.9428C48.6069 44.7947 48.8072 44.5824 48.9524 44.3064C49.0972 44.0303 49.1705 43.7101 49.1714 43.3459C49.1724 42.9821 49.101 42.6625 48.9577 42.3878C48.8139 42.1132 48.615 41.9023 48.36 41.7552C48.1051 41.6081 47.8146 41.5338 47.4882 41.5333C47.1619 41.5323 46.8709 41.6052 46.6155 41.7509C46.36 41.8966 46.1597 42.1065 46.0145 42.3806C45.8697 42.6543 45.7969 42.9735 45.7959 43.3373C45.795 43.7015 45.8664 44.0217 46.0097 44.2987C46.153 44.5757 46.3524 44.789 46.6073 44.9385C46.8623 45.0881 47.1528 45.1633 47.4791 45.1643C47.8046 45.1647 48.096 45.0909 48.3514 44.9428Z" fill="#333333"/>
</svg>
