<svg width="47" height="40" viewBox="0 0 47 40" fill="none" xmlns="http://www.w3.org/2000/svg">
<path d="M11.7334 30.6614L22.1426 11.057L24.6694 15.7852L16.7776 30.6614H11.7334Z" fill="#FF2424"/>
<path d="M27.1907 11.0413C28.9455 7.63711 32.4818 5.40433 36.4379 5.40433C39.2225 5.40433 41.938 6.54902 43.8862 8.54594L44.6174 9.29597L46.8203 5.17319L46.3737 4.77223C43.6394 2.31303 40.1109 0.957642 36.4379 0.957642C33.6154 0.957642 30.8685 1.75641 28.4926 3.26589C27.0838 4.16058 25.8447 5.28169 24.8164 6.57418L27.1907 11.0413Z" fill="#FF2424"/>
<path d="M17.9766 18.9016L20.4955 14.1593L23.0145 18.9032L20.4971 23.6486L17.9766 18.9016Z" fill="#991A5A"/>
<path d="M36.4383 30.6614C31.5199 30.6614 26.8625 28.1613 24.114 24.0904C24.114 24.0904 23.2099 22.5699 23.0417 22.2193L16.2804 9.48459L5.02847 30.6598H0L16.2804 0L27.4585 21.051C29.3249 24.2351 32.7637 26.2116 36.4383 26.2116C39.3142 26.2116 42.0895 25.004 44.0518 22.897L44.7829 22.1124L47 26.2635L46.5692 26.666C43.8081 29.2431 40.2105 30.6614 36.4383 30.6614Z" fill="#434A5B"/>
<path d="M7.33496 37.8895V34.4884H7.85385V34.9727C8.10386 34.5985 8.46393 34.413 8.93564 34.413C9.14005 34.413 9.32874 34.4491 9.50013 34.523C9.67152 34.5969 9.80045 34.6928 9.88536 34.8123C9.97027 34.9318 10.03 35.0734 10.0646 35.2385C10.0866 35.3454 10.0961 35.5325 10.0961 35.7982V37.8895H9.519V35.8202C9.519 35.586 9.49698 35.4099 9.45138 35.2935C9.40578 35.1771 9.32717 35.0844 9.21238 35.0152C9.0976 34.946 8.96395 34.9114 8.80985 34.9114C8.56456 34.9114 8.35229 34.99 8.17461 35.1457C7.99693 35.3014 7.90731 35.597 7.90731 36.0325V37.8895H7.33496Z" fill="#3B4051"/>
<path d="M13.2017 37.4697C12.9878 37.6505 12.7834 37.7794 12.5853 37.8533C12.3872 37.9272 12.1765 37.965 11.9501 37.965C11.5758 37.965 11.2897 37.8738 11.0884 37.6914C10.8871 37.509 10.7881 37.2763 10.7881 36.9917C10.7881 36.825 10.8258 36.6725 10.9013 36.5357C10.9768 36.3973 11.0758 36.2872 11.1985 36.2039C11.3211 36.1206 11.4595 36.0577 11.6136 36.0152C11.7268 35.9853 11.8982 35.957 12.1262 35.9287C12.5916 35.8737 12.9344 35.8077 13.1545 35.7306C13.1561 35.652 13.1577 35.6017 13.1577 35.5797C13.1577 35.3454 13.1026 35.1787 12.9941 35.0828C12.8463 34.9523 12.6278 34.8878 12.3385 34.8878C12.068 34.8878 11.8667 34.935 11.7378 35.0309C11.6089 35.1252 11.513 35.2935 11.4516 35.5356L10.8887 35.4586C10.9406 35.218 11.0239 35.023 11.1419 34.8737C11.2598 34.7259 11.4296 34.6111 11.6513 34.5309C11.873 34.4507 12.1309 34.4114 12.4234 34.4114C12.7143 34.4114 12.9501 34.446 13.1309 34.5136C13.3118 34.5812 13.4454 34.6677 13.5319 34.7715C13.6184 34.8752 13.6765 35.0057 13.7111 35.163C13.73 35.2605 13.7394 35.4381 13.7394 35.6944V36.4633C13.7394 36.9995 13.752 37.3376 13.7756 37.4807C13.8008 37.6222 13.8479 37.759 13.9218 37.8895H13.3196C13.2567 37.77 13.219 37.63 13.2017 37.4697ZM13.1529 36.1834C12.9438 36.2684 12.6293 36.3407 12.2111 36.4004C11.9737 36.435 11.807 36.4728 11.7079 36.5152C11.6104 36.5577 11.5334 36.6206 11.4799 36.7023C11.4265 36.7841 11.3997 36.8753 11.3997 36.9759C11.3997 37.13 11.4579 37.2574 11.5743 37.3596C11.6906 37.4618 11.8604 37.5137 12.0853 37.5137C12.307 37.5137 12.5051 37.4649 12.6781 37.3674C12.851 37.27 12.9784 37.1379 13.0586 36.9681C13.1199 36.8376 13.1514 36.6457 13.1514 36.391V36.1834H13.1529Z" fill="#3B4051"/>
<path d="M14.6289 37.8895V34.4884H15.1446V34.9648C15.2516 34.7982 15.3931 34.6645 15.5708 34.5623C15.7484 34.4617 15.9497 34.4098 16.1761 34.4098C16.4277 34.4098 16.6353 34.4617 16.7956 34.567C16.9576 34.6724 17.0708 34.8186 17.1369 35.0057C17.4057 34.6095 17.7564 34.4098 18.1872 34.4098C18.5237 34.4098 18.7831 34.5026 18.9655 34.6897C19.1464 34.8768 19.2376 35.1645 19.2376 35.5529V37.8879H18.6636V35.7463C18.6636 35.5152 18.6448 35.3501 18.607 35.2479C18.5693 35.1457 18.5017 35.0655 18.4042 35.0026C18.3067 34.9413 18.1903 34.9098 18.0583 34.9098C17.8193 34.9098 17.6211 34.99 17.4623 35.1488C17.3051 35.3076 17.2249 35.5623 17.2249 35.913V37.8879H16.6478V35.6787C16.6478 35.4224 16.6007 35.2306 16.5063 35.1016C16.412 34.9727 16.2579 34.9098 16.0456 34.9098C15.8837 34.9098 15.7327 34.9523 15.5959 35.0372C15.4575 35.1221 15.3585 35.2479 15.2972 35.4114C15.2358 35.5749 15.2044 35.8124 15.2044 36.1221V37.8863H14.6289V37.8895Z" fill="#3B4051"/>
<path d="M22.4203 36.7951L23.0163 36.869C22.9219 37.2165 22.7489 37.487 22.4942 37.6788C22.2395 37.8706 21.9156 37.9665 21.5209 37.9665C21.024 37.9665 20.6294 37.814 20.3385 37.5074C20.0476 37.2008 19.9014 36.7715 19.9014 36.2181C19.9014 35.6457 20.0492 35.2023 20.3432 34.8862C20.6372 34.5702 21.0193 34.413 21.4895 34.413C21.9439 34.413 22.315 34.5671 22.6043 34.8768C22.892 35.1866 23.0367 35.6221 23.0367 36.1835C23.0367 36.2181 23.0351 36.2684 23.0335 36.3376H20.4973C20.5193 36.7118 20.6247 36.998 20.8149 37.1961C21.0052 37.3942 21.2426 37.4933 21.5256 37.4933C21.7363 37.4933 21.9172 37.4382 22.0665 37.3266C22.2159 37.2149 22.3323 37.0373 22.4203 36.7951ZM20.5272 35.8627H22.4266C22.4015 35.5765 22.3291 35.3627 22.2096 35.2196C22.0257 34.9979 21.7882 34.8862 21.4958 34.8862C21.2316 34.8862 21.0083 34.9743 20.8275 35.152C20.6467 35.3297 20.5476 35.5655 20.5272 35.8627Z" fill="#3B4051"/>
<path d="M24.1504 37.8895V33.1959H24.7275V37.8895H24.1504Z" fill="#FF2424"/>
<path d="M25.4053 36.1896C25.4053 35.5607 25.5798 35.0937 25.9305 34.7902C26.2229 34.5386 26.5798 34.4128 26.9997 34.4128C27.4667 34.4128 27.8488 34.5654 28.1459 34.872C28.4431 35.1786 28.5909 35.6016 28.5909 36.1409C28.5909 36.578 28.5249 36.9224 28.3944 37.1739C28.2639 37.4255 28.072 37.6189 27.8205 37.7589C27.5704 37.8972 27.2953 37.9664 26.9997 37.9664C26.5232 37.9664 26.138 37.8139 25.8455 37.5089C25.5531 37.2038 25.4053 36.7635 25.4053 36.1896ZM25.9981 36.1896C25.9981 36.6252 26.0924 36.9507 26.2827 37.1676C26.4729 37.3846 26.7119 37.4931 26.9997 37.4931C27.2858 37.4931 27.5233 37.3846 27.7135 37.1661C27.9038 36.9491 27.9981 36.6157 27.9981 36.1708C27.9981 35.7509 27.9022 35.4317 27.712 35.2148C27.5217 34.9978 27.2827 34.8893 26.9997 34.8893C26.7119 34.8893 26.4729 34.9978 26.2827 35.2132C26.094 35.4286 25.9981 35.7541 25.9981 36.1896Z" fill="#FF2424"/>
<path d="M29.1623 38.1708L29.722 38.2542C29.7456 38.4271 29.8101 38.5529 29.917 38.6315C30.0601 38.7385 30.2551 38.7919 30.5035 38.7919C30.7708 38.7919 30.9768 38.7385 31.1214 38.6315C31.2661 38.5246 31.3652 38.3752 31.4155 38.1834C31.4453 38.0655 31.4595 37.8202 31.4564 37.4444C31.2048 37.7416 30.8903 37.8894 30.5145 37.8894C30.0475 37.8894 29.6859 37.7211 29.4296 37.3831C29.1733 37.0466 29.0459 36.6409 29.0459 36.1692C29.0459 35.8453 29.1041 35.545 29.222 35.2714C29.3399 34.9978 29.5097 34.7855 29.733 34.6361C29.9563 34.4867 30.2173 34.4128 30.5192 34.4128C30.9202 34.4128 31.2519 34.5748 31.5114 34.8987V34.4883H32.0429V37.4271C32.0429 37.957 31.9894 38.3312 31.8809 38.5529C31.7724 38.7746 31.6026 38.9476 31.3683 39.0765C31.134 39.2055 30.8463 39.2684 30.5051 39.2684C30.0994 39.2684 29.7723 39.1771 29.5223 38.9948C29.2739 38.8139 29.1544 38.5388 29.1623 38.1708ZM29.6403 36.1283C29.6403 36.5749 29.7283 36.9003 29.906 37.1048C30.0837 37.3092 30.3054 37.4129 30.5727 37.4129C30.8368 37.4129 31.0585 37.3107 31.2394 37.1063C31.4186 36.9019 31.5082 36.5827 31.5082 36.1472C31.5082 35.7305 31.4155 35.4176 31.2315 35.2053C31.0475 34.9946 30.8243 34.8877 30.5632 34.8877C30.3069 34.8877 30.09 34.9915 29.9107 35.2006C29.7315 35.4097 29.6403 35.7179 29.6403 36.1283Z" fill="#FF2424"/>
<path d="M32.7002 36.1896C32.7002 35.5607 32.8747 35.0937 33.2254 34.7902C33.5178 34.5386 33.8748 34.4128 34.2946 34.4128C34.7616 34.4128 35.1437 34.5654 35.4409 34.872C35.738 35.1786 35.8858 35.6016 35.8858 36.1409C35.8858 36.578 35.8198 36.9224 35.6893 37.1739C35.5588 37.4255 35.3669 37.6189 35.1154 37.7589C34.8654 37.8972 34.5902 37.9664 34.2946 37.9664C33.8182 37.9664 33.4329 37.8139 33.1405 37.5089C32.848 37.2038 32.7002 36.7635 32.7002 36.1896ZM33.293 36.1896C33.293 36.6252 33.3873 36.9507 33.5776 37.1676C33.7678 37.3846 34.0068 37.4931 34.2946 37.4931C34.5808 37.4931 34.8182 37.3846 35.0084 37.1661C35.1987 36.9491 35.293 36.6157 35.293 36.1708C35.293 35.7509 35.1971 35.4317 35.0069 35.2148C34.8166 34.9978 34.5776 34.8893 34.2946 34.8893C34.0068 34.8893 33.7678 34.9978 33.5776 35.2132C33.3889 35.4286 33.293 35.7541 33.293 36.1896Z" fill="#FF2424"/>
</svg>
