<svg width="659" height="377" viewBox="0 0 659 377" fill="none" xmlns="http://www.w3.org/2000/svg">
<path opacity="0.28" d="M502.841 256.489C502.841 291.899 493.087 325.016 476.118 353.313H152.484C135.504 325.016 125.75 291.887 125.75 256.489C125.75 152.349 210.167 67.9429 314.295 67.9429C418.424 67.9429 502.841 152.36 502.841 256.489Z" fill="#4FD1D9"/>
<path d="M216.629 120.625H114.208C110.129 120.625 106.825 117.322 106.825 113.242C106.825 109.163 110.129 105.859 114.208 105.859H216.629C220.708 105.859 224.012 109.163 224.012 113.242C224.012 117.322 220.708 120.625 216.629 120.625Z" fill="white"/>
<path d="M444.248 96.9025H341.828C337.748 96.9025 334.444 93.5987 334.444 89.5194C334.444 85.4401 337.748 82.1362 341.828 82.1362H444.248C448.327 82.1362 451.631 85.4401 451.631 89.5194C451.631 93.5987 448.327 96.9025 444.248 96.9025Z" fill="white"/>
<path d="M535.385 205.256H432.965C428.886 205.256 425.582 201.952 425.582 197.873C425.582 193.794 428.886 190.49 432.965 190.49H535.385C539.465 190.49 542.769 193.794 542.769 197.873C542.769 201.952 539.465 205.256 535.385 205.256Z" fill="white"/>
<path d="M578.201 228.743H475.781C471.701 228.743 468.397 225.439 468.397 221.36C468.397 217.281 471.701 213.977 475.781 213.977H578.201C582.28 213.977 585.584 217.281 585.584 221.36C585.584 225.439 582.28 228.743 578.201 228.743Z" fill="white"/>
<path d="M223.495 189.704H121.075C116.995 189.704 113.691 186.4 113.691 182.32C113.691 178.241 116.995 174.937 121.075 174.937H223.495C227.574 174.937 230.878 178.241 230.878 182.32C230.867 186.4 227.563 189.704 223.495 189.704Z" fill="white"/>
<path d="M494.986 349.346C494.301 350.683 493.604 351.998 492.885 353.313H488.39" stroke="#4FD1D9" stroke-width="2" stroke-miterlimit="10" stroke-linecap="round"/>
<path d="M479.456 353.313H144.663" stroke="#4FD1D9" stroke-width="2" stroke-miterlimit="10" stroke-linecap="round" stroke-dasharray="7.94 7.94"/>
<path d="M140.201 353.313H135.706C134.987 351.998 134.29 350.672 133.604 349.346" stroke="#4FD1D9" stroke-width="2" stroke-miterlimit="10" stroke-linecap="round"/>
<path d="M129.694 341.311C117.815 315.498 111.185 286.763 111.185 256.489C111.185 144.314 202.12 53.3677 314.295 53.3677C426.47 53.3677 517.416 144.314 517.416 256.489C517.416 288.359 510.078 318.51 496.997 345.345" stroke="#4FD1D9" stroke-width="2" stroke-miterlimit="10" stroke-linecap="round" stroke-dasharray="7.95 7.95"/>
<path d="M95.588 119.67L85.4854 129.784" stroke="#4FD1D9" stroke-width="2" stroke-miterlimit="10" stroke-linecap="round"/>
<path d="M85.4854 119.67L95.588 129.784" stroke="#4FD1D9" stroke-width="2" stroke-miterlimit="10" stroke-linecap="round"/>
<path d="M11.1139 325.971L1 336.074" stroke="#4FD1D9" stroke-width="2" stroke-miterlimit="10" stroke-linecap="round"/>
<path d="M1 325.971L11.1139 336.074" stroke="#4FD1D9" stroke-width="2" stroke-miterlimit="10" stroke-linecap="round"/>
<path d="M274.514 95.1943L264.4 105.297" stroke="#4FD1D9" stroke-width="2" stroke-miterlimit="10" stroke-linecap="round"/>
<path d="M264.4 95.1943L274.514 105.297" stroke="#4FD1D9" stroke-width="2" stroke-miterlimit="10" stroke-linecap="round"/>
<path d="M581.64 293.034L571.538 303.136" stroke="#4FD1D9" stroke-width="2" stroke-miterlimit="10" stroke-linecap="round"/>
<path d="M571.538 293.034L581.64 303.136" stroke="#4FD1D9" stroke-width="2" stroke-miterlimit="10" stroke-linecap="round"/>
<path d="M568.975 119.67L558.861 129.784" stroke="#4FD1D9" stroke-width="2" stroke-miterlimit="10" stroke-linecap="round"/>
<path d="M558.861 119.67L568.975 129.784" stroke="#4FD1D9" stroke-width="2" stroke-miterlimit="10" stroke-linecap="round"/>
<path d="M475.455 58.0088L465.353 68.1115" stroke="#4FD1D9" stroke-width="2" stroke-miterlimit="10" stroke-linecap="round"/>
<path d="M465.353 58.0088L475.455 68.1115" stroke="#4FD1D9" stroke-width="2" stroke-miterlimit="10" stroke-linecap="round"/>
<path d="M45.2873 203.189C48.7939 203.189 51.6366 200.346 51.6366 196.839C51.6366 193.333 48.7939 190.49 45.2873 190.49C41.7807 190.49 38.938 193.333 38.938 196.839C38.938 200.346 41.7807 203.189 45.2873 203.189Z" stroke="#4FD1D9" stroke-width="2" stroke-miterlimit="10" stroke-linecap="round"/>
<path d="M80.5177 280.369C83.1586 282.684 83.4171 286.696 81.0909 289.336C78.7759 291.977 74.764 292.236 72.1232 289.91C69.4823 287.595 69.2239 283.583 71.5501 280.942C73.865 278.312 77.8769 278.054 80.5177 280.369Z" stroke="#4FD1D9" stroke-width="2" stroke-miterlimit="10" stroke-linecap="round"/>
<path d="M651.651 343.727C655.157 343.727 658 340.884 658 337.377C658 333.871 655.157 331.028 651.651 331.028C648.144 331.028 645.301 333.871 645.301 337.377C645.301 340.884 648.144 343.727 651.651 343.727Z" stroke="#4FD1D9" stroke-width="2" stroke-miterlimit="10" stroke-linecap="round"/>
<path d="M408.49 117.4C408.49 120.906 405.646 123.749 402.14 123.749C398.634 123.749 395.791 120.906 395.791 117.4C395.791 113.894 398.634 111.051 402.14 111.051C405.646 111.039 408.49 113.882 408.49 117.4Z" stroke="#4FD1D9" stroke-width="2" stroke-miterlimit="10" stroke-linecap="round"/>
<path d="M243.498 13.6986C247.005 13.6986 249.847 10.8559 249.847 7.34929C249.847 3.84268 247.005 1 243.498 1C239.992 1 237.149 3.84268 237.149 7.34929C237.149 10.8559 239.992 13.6986 243.498 13.6986Z" stroke="#4FD1D9" stroke-width="2" stroke-miterlimit="10" stroke-linecap="round"/>
<path d="M554.063 229.473C557.569 229.473 560.412 226.631 560.412 223.124C560.412 219.617 557.569 216.775 554.063 216.775C550.556 216.775 547.713 219.617 547.713 223.124C547.713 226.631 550.556 229.473 554.063 229.473Z" stroke="#4FD1D9" stroke-width="2" stroke-miterlimit="10" stroke-linecap="round"/>
<g opacity="0.48">
<path d="M402.128 271.345C402.128 272.873 401.623 274.166 400.622 275.2C399.611 276.233 398.161 276.75 396.251 276.75H393.385V284.864C393.385 289.28 391.127 291.494 386.598 291.494C382.777 291.494 380.867 289.112 380.867 284.325V276.75H355.672C349.839 276.75 346.917 275.177 346.917 272.019C346.917 270.761 347.389 269.333 348.356 267.76C349.311 266.187 350.086 264.94 350.693 264.041L370.607 233.204C372.214 230.957 373.899 229.282 375.663 228.204C377.417 227.125 379.462 226.585 381.777 226.585C385.496 226.585 388.362 227.529 390.374 229.428C392.385 231.316 393.385 234.474 393.385 238.891V265.94H396.251C398.161 265.94 399.622 266.479 400.622 267.558C401.623 268.648 402.128 269.907 402.128 271.345ZM380.867 265.94V238.081L363.369 265.94H380.867Z" fill="#4FD1D9"/>
<path d="M262.782 271.345C262.782 272.873 262.276 274.166 261.276 275.2C260.264 276.233 258.815 276.75 256.904 276.75H254.039V284.864C254.039 289.28 251.78 291.494 247.251 291.494C243.43 291.494 241.52 289.112 241.52 284.325V276.75H216.314C210.481 276.75 207.56 275.177 207.56 272.019C207.56 270.761 208.032 269.333 208.998 267.76C209.953 266.187 210.729 264.94 211.335 264.041L231.249 233.204C232.856 230.957 234.541 229.282 236.306 228.204C238.059 227.125 240.104 226.585 242.419 226.585C246.139 226.585 249.004 227.529 251.016 229.428C253.027 231.316 254.027 234.474 254.027 238.891V265.94H256.893C258.803 265.94 260.264 266.479 261.264 267.558C262.276 268.648 262.782 269.907 262.782 271.345ZM241.509 265.94V238.081L224.012 265.94H241.509Z" fill="#4FD1D9"/>
<path d="M330.579 252.578H326.567C325.915 249.971 324.893 247.521 323.544 245.274L326.376 242.442C327.32 241.498 327.32 239.969 326.376 239.037L320.532 233.193C319.588 232.249 318.06 232.249 317.127 233.193L314.295 236.025C312.059 234.676 309.598 233.654 306.991 233.002V228.99C306.991 227.664 305.912 226.585 304.586 226.585H296.326C295 226.585 293.921 227.664 293.921 228.99V233.002C291.314 233.654 288.865 234.676 286.617 236.025L283.785 233.193C282.841 232.249 281.313 232.249 280.38 233.193L274.536 239.037C273.593 239.981 273.593 241.509 274.536 242.442L277.368 245.274C276.02 247.51 274.997 249.971 274.345 252.578H270.334C269.008 252.578 267.929 253.657 267.929 254.983V263.243C267.929 264.569 269.008 265.648 270.334 265.648H274.345C274.997 268.255 276.02 270.704 277.368 272.952L274.536 275.784C273.593 276.728 273.593 278.256 274.536 279.189L280.38 285.033C281.324 285.977 282.852 285.977 283.785 285.033L286.617 282.201C288.853 283.549 291.314 284.572 293.921 285.224V289.235C293.921 290.561 295 291.64 296.326 291.64H304.586C305.912 291.64 306.991 290.561 306.991 289.235V285.224C309.598 284.572 312.048 283.549 314.295 282.201L317.127 285.033C318.071 285.977 319.6 285.977 320.532 285.033L326.376 279.189C327.32 278.245 327.32 276.717 326.376 275.784L323.544 272.952C324.893 270.716 325.915 268.255 326.567 265.648H330.579C331.905 265.648 332.984 264.569 332.984 263.243V254.983C332.995 253.657 331.916 252.578 330.579 252.578ZM300.462 275.402C291.46 275.402 284.167 268.109 284.167 259.107C284.167 250.106 291.46 242.813 300.462 242.813C309.463 242.813 316.756 250.106 316.756 259.107C316.756 268.109 309.463 275.402 300.462 275.402Z" fill="#4FD1D9"/>
<path d="M357.954 232.744L355.852 232.553C355.627 231.159 355.212 229.822 354.605 228.586L356.223 227.237C356.762 226.788 356.83 225.99 356.38 225.45L353.593 222.124C353.144 221.585 352.346 221.517 351.807 221.967L350.188 223.315C349.076 222.506 347.84 221.854 346.502 221.394L346.693 219.292C346.761 218.595 346.244 217.977 345.547 217.921L341.221 217.539C340.524 217.472 339.906 217.988 339.85 218.685L339.659 220.787C338.265 221.011 336.928 221.427 335.692 222.034L334.343 220.416C333.894 219.876 333.096 219.809 332.556 220.258L329.23 223.045C328.691 223.495 328.623 224.293 329.073 224.832L330.432 226.45C329.623 227.563 328.972 228.799 328.511 230.136L326.409 229.945C325.713 229.878 325.095 230.395 325.038 231.092L324.656 235.418C324.589 236.115 325.106 236.733 325.803 236.789L327.904 236.98C328.129 238.374 328.545 239.711 329.151 240.947L327.533 242.296C326.994 242.745 326.926 243.543 327.376 244.082L330.163 247.409C330.612 247.948 331.41 248.016 331.95 247.566L333.568 246.218C334.68 247.027 335.916 247.678 337.254 248.139L337.063 250.241C336.995 250.937 337.512 251.555 338.209 251.612L342.535 251.994C343.232 252.061 343.85 251.544 343.906 250.847L344.097 248.746C345.491 248.521 346.828 248.106 348.064 247.499L349.413 249.117C349.862 249.656 350.66 249.724 351.2 249.274L354.526 246.487C355.066 246.038 355.133 245.24 354.683 244.7L353.335 243.082C354.144 241.97 354.796 240.734 355.257 239.396L357.358 239.587C358.055 239.655 358.673 239.138 358.729 238.441L359.111 234.115C359.167 233.429 358.65 232.811 357.954 232.744ZM341.108 243.307C336.4 242.891 332.916 238.722 333.332 234.013C333.748 229.305 337.917 225.821 342.625 226.237C347.334 226.653 350.818 230.822 350.402 235.531C349.975 240.239 345.817 243.723 341.108 243.307Z" fill="#4FD1D9"/>
</g>
<path d="M245.903 267.468V239.61L228.406 267.468H245.903Z" stroke="#4FD1D9" stroke-width="2" stroke-miterlimit="10"/>
<path d="M304.855 276.784C295.854 276.784 288.561 269.491 288.561 260.489C288.561 251.488 295.854 244.195 304.855 244.195C313.857 244.195 321.15 251.488 321.15 260.489C321.15 269.491 313.845 276.784 304.855 276.784Z" stroke="#4FD1D9" stroke-width="2" stroke-miterlimit="10"/>
<path d="M362.336 234.272L360.235 234.081C360.01 232.687 359.594 231.35 358.988 230.114L360.606 228.765C361.145 228.316 361.213 227.518 360.763 226.979L357.976 223.652C357.527 223.113 356.729 223.045 356.189 223.495L354.571 224.844C353.459 224.034 352.222 223.383 350.885 222.922L351.076 220.82C351.144 220.124 350.627 219.506 349.93 219.449L345.603 219.067C344.907 219 344.289 219.517 344.232 220.214L344.041 222.315C342.648 222.54 341.311 222.956 340.075 223.562L338.726 221.944C338.276 221.405 337.479 221.337 336.939 221.787L333.613 224.574C333.073 225.023 333.006 225.821 333.456 226.361L334.804 227.979C333.995 229.091 333.343 230.328 332.882 231.665L330.781 231.474C330.084 231.406 329.466 231.923 329.41 232.62L329.028 236.946C328.96 237.643 329.477 238.261 330.174 238.317L332.276 238.509C332.5 239.902 332.916 241.239 333.523 242.475L331.905 243.824C331.365 244.273 331.298 245.071 331.747 245.611L334.534 248.937C334.984 249.477 335.782 249.544 336.321 249.094L337.939 247.746C339.052 248.555 340.288 249.207 341.625 249.668L341.434 251.769C341.367 252.466 341.884 253.084 342.581 253.14L346.907 253.522C347.604 253.589 348.222 253.073 348.278 252.376L348.469 250.274C349.863 250.05 351.2 249.634 352.436 249.027L353.784 250.645C354.234 251.185 355.032 251.252 355.571 250.803L358.898 248.016C359.437 247.566 359.504 246.768 359.055 246.229L357.706 244.611C358.516 243.498 359.167 242.262 359.628 240.925L361.73 241.116C362.426 241.183 363.044 240.666 363.101 239.969L363.483 235.643C363.55 234.957 363.033 234.339 362.336 234.272ZM345.491 244.835C340.782 244.42 337.299 240.25 337.715 235.542C338.13 230.833 342.3 227.35 347.008 227.765C351.717 228.181 355.2 232.35 354.785 237.059C354.369 241.767 350.211 245.251 345.491 244.835Z" stroke="#4FD1D9" stroke-width="2" stroke-miterlimit="10"/>
<path d="M445.799 293.034H404.489C398.848 293.034 397.668 290.831 397.668 286.404V278.29H400.533C402.444 278.29 403.905 277.773 404.905 276.739C405.905 275.705 406.411 274.424 406.411 272.885C406.411 271.446 405.905 270.176 404.905 269.098C403.893 268.019 402.444 267.479 400.533 267.479H397.668V240.43C397.668 236.014 396.656 232.856 394.656 230.968C392.644 229.08 389.779 228.125 386.059 228.125C383.744 228.125 381.71 228.664 379.946 229.743C378.182 230.822 376.496 232.496 374.889 234.744L354.976 265.58C354.369 266.479 353.594 267.727 352.638 269.3C351.683 270.873 351.2 272.3 351.2 273.559C351.2 276.717 354.11 278.29 359.954 278.29H385.149V285.864C385.149 290.64 384.565 293.034 376.788 293.034C365.753 293.034 338.614 293.034 338.614 293.034H314.262C312.037 293.034 311.396 291.955 311.396 290.629V286.617C314.003 285.965 316.453 284.943 318.701 283.594L321.532 286.426C322.476 287.37 324.005 287.37 324.937 286.426L330.781 280.582C331.725 279.639 331.725 278.11 330.781 277.177L327.949 274.346C329.298 272.109 330.32 269.648 330.972 267.041H334.984C336.31 267.041 337.389 265.962 337.389 264.636V256.376C337.389 255.05 336.31 253.972 334.984 253.972H330.972C330.32 251.364 329.298 248.915 327.949 246.667L330.781 243.835C331.725 242.891 331.725 241.363 330.781 240.43L324.937 234.587C323.993 233.643 322.465 233.643 321.532 234.587L318.701 237.419C316.464 236.07 314.003 235.047 311.396 234.396V230.384C311.396 229.058 310.317 227.979 308.991 227.979H300.731C299.405 227.979 298.327 229.058 298.327 230.384V234.396C295.719 235.047 293.27 236.07 291.022 237.419L288.19 234.587C287.246 233.643 285.718 233.643 284.785 234.587L278.942 240.43C277.998 241.374 277.998 242.903 278.942 243.835L281.774 246.667C280.425 248.903 279.402 251.364 278.751 253.972H274.739C273.413 253.972 272.334 255.05 272.334 256.376V264.636C272.334 265.962 273.413 267.041 274.739 267.041H278.751C279.402 269.648 280.425 272.098 281.774 274.346L278.942 277.177C277.998 278.121 277.998 279.65 278.942 280.582L284.785 286.426C285.729 287.37 287.257 287.37 288.19 286.426L291.022 283.594C293.258 284.943 295.719 285.965 298.327 286.617V290.629C298.327 292.562 296.203 293.034 293.742 293.034H265.254C259.613 293.034 258.433 290.831 258.433 286.404V278.29H261.298C263.209 278.29 264.67 277.773 265.67 276.739C266.67 275.705 267.176 274.424 267.176 272.885C267.176 271.446 266.67 270.176 265.67 269.098C264.659 268.019 263.209 267.479 261.298 267.479H258.433V240.43C258.433 236.014 257.421 232.856 255.421 230.968C253.41 229.08 250.544 228.125 246.824 228.125C244.509 228.125 242.475 228.664 240.711 229.743C238.947 230.822 237.261 232.496 235.654 234.744L215.741 265.58C215.134 266.479 214.359 267.727 213.403 269.3C212.448 270.873 211.965 272.3 211.965 273.559C211.965 276.717 214.876 278.29 220.719 278.29H245.914V285.864C245.914 290.64 245.33 293.034 237.553 293.034C226.518 293.034 182.803 293.034 182.803 293.034M385.138 267.468V239.61L367.641 267.468H385.138Z" stroke="#4FD1D9" stroke-width="2" stroke-miterlimit="10"/>
<path d="M470.409 353.313H158.181V157.092C158.181 149.304 164.485 143 172.273 143H456.306C464.093 143 470.398 149.304 470.398 157.092V353.313H470.409Z" stroke="#4FD1D9" stroke-width="2" stroke-miterlimit="10"/>
<path d="M456.305 156.125H172.273V339.985H456.305V156.125Z" stroke="#4FD1D9" stroke-width="2" stroke-miterlimit="10"/>
<path d="M508.449 353.313H120.13V366.978H508.449V353.313Z" stroke="#4FD1D9" stroke-width="2" stroke-miterlimit="10"/>
<path d="M491.244 375.732H137.346C133.481 375.732 129.716 374.44 126.671 372.069L120.142 366.978H508.46L501.931 372.069C498.874 374.44 495.109 375.732 491.244 375.732Z" stroke="#4FD1D9" stroke-width="2" stroke-miterlimit="10" stroke-linejoin="round"/>
</svg>
