<svg width="32" height="32" viewBox="0 0 32 32" fill="none" xmlns="http://www.w3.org/2000/svg">
<g clip-path="url(#clip0_5_4)">
<path d="M8.66687 25.3331H3.66687C3.11487 25.3331 2.66687 24.8851 2.66687 24.3331C2.66687 23.7811 3.11487 23.3331 3.66687 23.3331H8.66687C9.21887 23.3331 9.66687 23.7811 9.66687 24.3331C9.66687 24.8851 9.21887 25.3331 8.66687 25.3331ZM18.6669 25.3331H14.0002C13.4482 25.3331 13.0002 24.8851 13.0002 24.3331C13.0002 23.7811 13.4482 23.3331 14.0002 23.3331H17.8589L20.4309 11.3331H6.33354C5.78154 11.3331 5.33354 10.8851 5.33354 10.3331C5.33354 9.78113 5.78154 9.33313 6.33354 9.33313H21.6669C21.9695 9.33313 22.2549 9.47046 22.4442 9.7038C22.6349 9.9398 22.7082 10.2465 22.6442 10.5425L19.6442 24.5425C19.5455 25.0038 19.1389 25.3331 18.6669 25.3331V25.3331Z" fill="#31508C"/>
<path d="M30.0002 25.3331H28.6669C28.1149 25.3331 27.6669 24.8851 27.6669 24.3331C27.6669 23.7811 28.1149 23.3331 28.6669 23.3331H29.1922L29.9989 19.5665C29.9455 17.2225 28.0229 15.3331 25.6669 15.3331H21.6175L19.9029 23.3331H23.3335C23.8855 23.3331 24.3335 23.7811 24.3335 24.3331C24.3335 24.8851 23.8855 25.3331 23.3335 25.3331H18.6669C18.3642 25.3331 18.0789 25.1958 17.8895 24.9625C17.6989 24.7265 17.6255 24.4198 17.6895 24.1238L19.8322 14.1238C19.9309 13.6625 20.3375 13.3331 20.8095 13.3331H25.6669C29.1589 13.3331 32.0002 16.1745 32.0002 19.6665C32.0002 19.7371 31.9935 19.8065 31.9775 19.8758L30.9775 24.5425C30.8789 25.0038 30.4722 25.3331 30.0002 25.3331Z" fill="#31508C"/>
</g>
<path d="M25.8977 28C24.0693 28 22.5805 26.5053 22.5805 24.6667C22.5805 22.828 24.0693 21.3333 25.8977 21.3333C27.7261 21.3333 29.2149 22.828 29.2149 24.6667C29.2149 26.5053 27.7261 28 25.8977 28ZM25.8977 23.3333C25.1666 23.3333 24.5708 23.9307 24.5708 24.6667C24.5708 25.4027 25.1666 26 25.8977 26C26.6288 26 27.2246 25.4027 27.2246 24.6667C27.2246 23.9307 26.6288 23.3333 25.8977 23.3333ZM11.302 28C9.47355 28 7.98479 26.5053 7.98479 24.6667C7.98479 22.828 9.47355 21.3333 11.302 21.3333C13.1304 21.3333 14.6192 22.828 14.6192 24.6667C14.6192 26.5053 13.1304 28 11.302 28ZM11.302 23.3333C10.5709 23.3333 9.97511 23.9307 9.97511 24.6667C9.97511 25.4027 10.5709 26 11.302 26C12.0331 26 12.6289 25.4027 12.6289 24.6667C12.6289 23.9307 12.0331 23.3333 11.302 23.3333ZM8.31651 14H3.67242C3.1231 14 2.67726 13.552 2.67726 13C2.67726 12.448 3.1231 12 3.67242 12H8.31651C8.86584 12 9.31167 12.448 9.31167 13C9.31167 13.552 8.86584 14 8.31651 14ZM8.31651 18H2.34554C1.79621 18 1.35038 17.552 1.35038 17C1.35038 16.448 1.79621 16 2.34554 16H8.31651C8.86584 16 9.31167 16.448 9.31167 17C9.31167 17.552 8.86584 18 8.31651 18ZM8.31651 22H1.01866C0.469331 22 0.0234985 21.552 0.0234985 21C0.0234985 20.448 0.469331 20 1.01866 20H8.31651C8.86584 20 9.31167 20.448 9.31167 21C9.31167 21.552 8.86584 22 8.31651 22Z" fill="#31508C"/>
<defs>
<clipPath id="clip0_5_4">
<rect width="32" height="32" fill="white"/>
</clipPath>
</defs>
</svg>
