<svg width="141" height="60" viewBox="0 0 141 60" fill="none" xmlns="http://www.w3.org/2000/svg">
<path d="M26.6825 29.9544H7.78476C6.28986 29.9544 5.33087 28.9954 5.33087 28.0082V20.7876H26.1748C27.6415 20.7876 29.1082 19.3491 29.1082 17.8824C29.1082 15.9644 27.6697 14.9772 26.1748 14.9772H5.30266V8.23605C5.30266 7.27706 6.26165 6.28986 7.75655 6.28986H26.6543C28.0928 6.28986 29.5313 4.85137 29.5313 3.38468C29.5313 1.46669 28.0928 0 26.6543 0H7.75655C3.38468 0 0 3.86417 0 8.20784V27.98C0 32.3237 3.38468 35.7083 7.75655 35.7083H26.6543C28.0928 35.7083 29.5313 34.7494 29.5313 32.8032C29.5595 31.3929 28.121 29.9544 26.6825 29.9544Z" fill="#236092"/>
<path d="M42.1392 33.8187V8.23616C42.1392 6.76947 43.1264 5.81048 44.0572 5.81048H59.119C60.5575 5.81048 61.5165 6.76947 61.5165 8.23616V33.8187C61.5165 35.2572 62.5037 36.7239 64.4499 36.7239C65.9166 36.7239 67.3551 35.2572 67.3551 33.8187V8.23616C67.3551 3.89249 63.4627 0.0283203 59.119 0.0283203H44.0572C39.6853 0.0283203 36.3289 3.89249 36.3289 8.23616V33.8187C36.3289 35.2572 37.2879 36.7239 39.2622 36.7239C40.7007 36.7239 42.1392 35.2572 42.1392 33.8187Z" fill="#236092"/>
<path d="M118.238 1.49487H132.764C137.644 1.49487 141 4.87955 141 9.22322V35.2852C141 36.7519 140.013 37.7109 138.095 37.7109C136.657 37.7109 135.218 36.7519 135.218 35.2852V22.226H115.784V35.257C115.784 36.7237 114.825 37.6827 112.907 37.6827C111.412 37.6827 109.974 36.7237 109.974 35.257V9.22322C109.974 4.87955 113.866 1.49487 118.238 1.49487ZM135.218 16.4439V9.22322C135.218 8.26423 134.231 7.27703 132.764 7.27703H118.238C116.8 7.27703 115.784 8.23602 115.784 9.22322V16.4721H135.218V16.4439Z" fill="#236092"/>
<path d="M99.8197 28.9954C99.8197 29.9544 98.8043 30.9416 97.8453 30.9416H82.3604C81.4015 30.9416 80.4425 29.9826 80.4425 28.5159V21.7465H97.8735C98.8325 21.7465 99.8479 22.7055 99.8479 24.144V28.9954H99.8197ZM80.4425 7.27703H97.8735C98.8325 7.27703 99.8479 8.23602 99.8479 9.67451V13.5387C99.8479 15.0054 98.8325 15.9644 97.8735 15.9644H80.4425V7.27703ZM103.656 18.8695C104.643 17.4029 105.63 15.4849 105.63 13.5387V9.67451C105.63 4.85134 101.766 1.49487 97.8453 1.49487H77.5373C76.5219 1.49487 76.0706 1.49487 75.5629 2.45386C75.0834 2.93336 74.5757 3.41286 74.5757 4.40005V28.5159C74.5757 33.339 77.9604 37.2032 82.3322 37.2032H95.8992C101.738 37.2032 105.602 33.8185 105.602 28.9954V24.1722C105.63 22.226 105.151 20.308 103.656 18.8695Z" fill="#236092"/>
<path d="M39.939 46.9622V55.988H38.4723V49.8109L35.7082 55.988H34.6928L31.9286 49.8109V55.988H30.4619V46.9622H32.0696L35.2287 54.0418L38.3877 46.9622H39.939Z" fill="#236092"/>
<path d="M41.8571 50.4592C42.1673 49.8951 42.5622 49.472 43.0699 49.1617C43.5776 48.8515 44.1417 48.7104 44.7622 48.7104C45.3263 48.7104 45.8058 48.8233 46.2289 49.0489C46.652 49.2746 46.9905 49.5566 47.2443 49.8669V48.8233H48.7392V55.9593H47.2443V54.8875C46.9905 55.226 46.652 55.508 46.2289 55.7337C45.8058 55.9593 45.2981 56.0721 44.7622 56.0721C44.1417 56.0721 43.5776 55.9029 43.0699 55.5926C42.5622 55.2824 42.1673 54.8311 41.8571 54.267C41.5468 53.7028 41.4058 53.0541 41.4058 52.349C41.4058 51.6438 41.5468 51.0233 41.8571 50.4592ZM46.9623 51.1079C46.7648 50.7413 46.4828 50.4592 46.1725 50.29C45.8341 50.0925 45.4956 50.0079 45.1007 50.0079C44.7058 50.0079 44.3674 50.0925 44.0289 50.29C43.6904 50.4874 43.4366 50.7413 43.2391 51.1079C43.0417 51.4746 42.9289 51.8977 42.9289 52.3772C42.9289 52.8567 43.0417 53.308 43.2391 53.6746C43.4366 54.0413 43.7186 54.3234 44.0571 54.5208C44.3956 54.7182 44.734 54.8029 45.1007 54.8029C45.4674 54.8029 45.8341 54.7182 46.1725 54.5208C46.511 54.3234 46.7648 54.0413 46.9623 53.6746C47.1597 53.308 47.2725 52.8849 47.2725 52.3772C47.2725 51.8695 47.1597 51.4746 46.9623 51.1079Z" fill="#236092"/>
<path d="M53.0265 49.0207C53.3932 48.8233 53.8162 48.7104 54.2957 48.7104V50.2336H53.9291C53.3368 50.2336 52.9137 50.3746 52.6034 50.6848C52.2931 50.9669 52.1521 51.5028 52.1521 52.2079V55.9593H50.6854V48.8233H52.1521V49.8669C52.3778 49.5002 52.688 49.2181 53.0265 49.0207Z" fill="#236092"/>
<path d="M58.4983 52.406L61.7984 55.9881H59.7958L57.1444 52.9137V55.9881H55.6777V46.3982H57.1444V51.9829L59.7393 48.8521H61.7984L58.4983 52.406Z" fill="#236092"/>
<path d="M69.3579 52.9417H63.9142C63.9706 53.5058 64.1681 53.9571 64.5629 54.3237C64.9296 54.6622 65.4091 54.8314 65.9732 54.8314C66.763 54.8314 67.3271 54.493 67.6656 53.8443H69.2733C69.0476 54.493 68.6528 55.0289 68.0886 55.452C67.5245 55.8751 66.8194 56.0725 65.9732 56.0725C65.2963 56.0725 64.6758 55.9315 64.1399 55.6212C63.604 55.3109 63.1809 54.8879 62.8706 54.3237C62.5603 53.7596 62.4193 53.1109 62.4193 52.3776C62.4193 51.6442 62.5603 50.9955 62.8706 50.4314C63.1809 49.8673 63.5757 49.4442 64.1399 49.1339C64.6758 48.8236 65.2963 48.6826 66.0014 48.6826C66.6784 48.6826 67.2707 48.8236 67.8066 49.1339C68.3425 49.416 68.7374 49.839 69.0476 50.375C69.3297 50.9109 69.4989 51.5314 69.4989 52.2083C69.4143 52.4904 69.3861 52.7442 69.3579 52.9417ZM67.863 51.757C67.863 51.2211 67.6656 50.7698 67.2707 50.4596C66.8758 50.1211 66.4245 49.9801 65.8604 49.9801C65.3527 49.9801 64.9014 50.1493 64.5629 50.4596C64.1963 50.798 63.9706 51.2211 63.9142 51.7852H67.863V51.757Z" fill="#236092"/>
<path d="M72.6009 50.0363V53.9851C72.6009 54.2672 72.6574 54.4364 72.7984 54.5492C72.9112 54.662 73.1369 54.7184 73.4471 54.7184H74.3497V55.9595H73.1933C72.5163 55.9595 72.0086 55.7903 71.6702 55.48C71.3035 55.1697 71.1343 54.662 71.1343 53.9569V50.0081H70.2881V48.7953H71.1343V47.0183H72.6292V48.7953H74.3779V50.0081H72.6009V50.0363Z" fill="#236092"/>
<path d="M78.1857 49.0489C78.6088 48.8233 79.1165 48.7104 79.6524 48.7104C80.2729 48.7104 80.837 48.8515 81.3447 49.1617C81.8524 49.472 82.2755 49.8951 82.5576 50.4592C82.8396 51.0233 83.0089 51.6438 83.0089 52.3772C83.0089 53.0823 82.8679 53.7311 82.5576 54.2952C82.2755 54.8593 81.8524 55.3106 81.3447 55.6208C80.837 55.9311 80.2729 56.1003 79.6524 56.1003C79.1165 56.1003 78.637 55.9875 78.1857 55.7619C77.7626 55.5362 77.4242 55.2542 77.1421 54.9439V59.3722H75.6754V48.8233H77.1421V49.8669C77.4242 49.5566 77.7626 49.2746 78.1857 49.0489ZM81.2037 51.0797C81.0063 50.713 80.7242 50.4592 80.3858 50.2618C80.0473 50.0643 79.7088 49.9797 79.3139 49.9797C78.9473 49.9797 78.5806 50.0643 78.2703 50.2618C77.9319 50.4592 77.678 50.7413 77.4524 51.0797C77.2549 51.4464 77.1421 51.8695 77.1421 52.3772C77.1421 52.8849 77.2549 53.308 77.4524 53.6746C77.6498 54.0413 77.9319 54.3234 78.2703 54.5208C78.6088 54.7182 78.9473 54.8029 79.3139 54.8029C79.6806 54.8029 80.0473 54.7182 80.3858 54.5208C80.7242 54.3234 80.9781 54.0413 81.2037 53.6746C81.4012 53.308 81.514 52.8567 81.514 52.3772C81.514 51.8977 81.4294 51.4464 81.2037 51.0797Z" fill="#236092"/>
<path d="M85.9705 46.3696V55.9595H84.5038V46.3696H85.9705Z" fill="#236092"/>
<path d="M87.8603 50.4592C88.1706 49.8951 88.5655 49.472 89.0732 49.1617C89.5809 48.8515 90.145 48.7104 90.7655 48.7104C91.3296 48.7104 91.8091 48.8233 92.2322 49.0489C92.6553 49.2746 92.9938 49.5566 93.2476 49.8669V48.8233H94.7425V55.9593H93.2476V54.8875C92.9938 55.226 92.6553 55.508 92.2322 55.7337C91.8091 55.9593 91.3014 56.0721 90.7655 56.0721C90.145 56.0721 89.5809 55.9029 89.0732 55.5926C88.5655 55.2824 88.1706 54.8311 87.8603 54.267C87.5501 53.7028 87.4091 53.0541 87.4091 52.349C87.4373 51.6438 87.5783 51.0233 87.8603 50.4592ZM92.9656 51.1079C92.7681 50.7413 92.4861 50.4592 92.1758 50.29C91.8374 50.0925 91.4989 50.0079 91.104 50.0079C90.7091 50.0079 90.3707 50.0925 90.0322 50.29C89.6937 50.4874 89.4399 50.7413 89.2424 51.1079C89.045 51.4746 88.9322 51.8977 88.9322 52.3772C88.9322 52.8567 89.045 53.308 89.2424 53.6746C89.4399 54.0413 89.7219 54.3234 90.0604 54.5208C90.3989 54.7182 90.7373 54.8029 91.104 54.8029C91.4707 54.8029 91.8374 54.7182 92.1758 54.5208C92.5143 54.3234 92.7681 54.0413 92.9656 53.6746C93.163 53.308 93.2758 52.8849 93.2758 52.3772C93.2758 51.8695 93.163 51.4746 92.9656 51.1079Z" fill="#236092"/>
<path d="M96.6606 50.4592C96.9708 49.8951 97.3657 49.472 97.9016 49.1617C98.4375 48.8515 99.0298 48.7104 99.7068 48.7104C100.581 48.7104 101.286 48.9079 101.85 49.331C102.415 49.7541 102.809 50.3182 103.007 51.0797H101.427C101.286 50.713 101.089 50.4592 100.807 50.2618C100.525 50.0643 100.158 49.9515 99.735 49.9515C99.1427 49.9515 98.635 50.1771 98.2965 50.6002C97.9298 51.0233 97.7606 51.6156 97.7606 52.4054C97.7606 53.1669 97.9298 53.7875 98.2965 54.2105C98.6632 54.6336 99.1427 54.8593 99.735 54.8593C100.581 54.8593 101.145 54.4926 101.427 53.731H103.035C102.838 54.4644 102.443 55.0285 101.879 55.4516C101.314 55.8747 100.609 56.1003 99.7632 56.1003C99.0863 56.1003 98.4657 55.9593 97.958 55.649C97.4221 55.3388 97.0272 54.9157 96.717 54.3516C96.4067 53.7875 96.2657 53.1387 96.2657 52.4054C96.2093 51.672 96.3785 51.0233 96.6606 50.4592Z" fill="#236092"/>
<path d="M110.989 52.9417H105.517C105.573 53.5058 105.771 53.9571 106.166 54.3237C106.532 54.6622 107.012 54.8314 107.576 54.8314C108.366 54.8314 108.93 54.493 109.268 53.8443H110.876C110.65 54.493 110.256 55.0289 109.691 55.452C109.127 55.8751 108.422 56.0725 107.576 56.0725C106.899 56.0725 106.279 55.9315 105.743 55.6212C105.207 55.3109 104.784 54.8879 104.473 54.3237C104.163 53.7596 104.022 53.1109 104.022 52.3776C104.022 51.6442 104.163 50.9955 104.473 50.4314C104.784 49.8673 105.179 49.4442 105.743 49.1339C106.279 48.8236 106.899 48.6826 107.604 48.6826C108.281 48.6826 108.873 48.8236 109.409 49.1339C109.945 49.416 110.34 49.839 110.65 50.375C110.932 50.9109 111.102 51.5314 111.102 52.2083C111.045 52.4904 111.045 52.7442 110.989 52.9417ZM109.494 51.757C109.494 51.2211 109.297 50.7698 108.902 50.4596C108.507 50.1211 108.055 49.9801 107.491 49.9801C106.984 49.9801 106.532 50.1493 106.194 50.4596C105.827 50.798 105.602 51.2211 105.545 51.7852H109.494V51.757Z" fill="#236092"/>
</svg>
