<svg width="71" height="71" viewBox="0 0 71 71" fill="none" xmlns="http://www.w3.org/2000/svg">
<path fill-rule="evenodd" clip-rule="evenodd" d="M44.1818 41.6261C43.8157 42.6534 42.0584 43.5897 41.2131 43.7162C40.4565 43.8293 39.498 43.8759 38.4441 43.5431C37.8051 43.339 36.9864 43.0683 35.9391 42.6157C31.5282 40.712 28.6461 36.2723 28.4264 35.9794C28.2068 35.6865 26.6315 33.5965 26.6315 31.4332C26.6315 29.2699 27.7675 28.2049 28.1713 27.7656C28.5729 27.3263 29.0499 27.2154 29.3428 27.2154C29.6356 27.2154 29.9285 27.2176 30.1859 27.2309C30.4566 27.2442 30.8182 27.1288 31.1755 27.9853C31.5416 28.8661 32.4202 31.0294 32.5311 31.249C32.6398 31.4687 32.7131 31.7261 32.5666 32.0189C32.4202 32.3118 32.347 32.496 32.1273 32.7534C31.9076 33.0085 31.6658 33.3258 31.4683 33.5233C31.2487 33.7407 31.0179 33.9803 31.2753 34.4196C31.5327 34.8589 32.4135 36.2989 33.7204 37.4638C35.4 38.9614 36.8177 39.4251 37.2571 39.647C37.6964 39.8667 37.9537 39.8289 38.2089 39.5361C38.4663 39.2432 39.3094 38.2536 39.6023 37.8121C39.8951 37.3728 40.188 37.446 40.5918 37.5924C40.9934 37.7389 43.1567 38.8017 43.596 39.0235C44.0353 39.2432 44.3282 39.3519 44.4391 39.5361C44.5479 39.7202 44.5479 40.5989 44.1818 41.6261ZM35.5797 20.7211C27.5123 20.7211 20.9492 27.2797 20.947 35.3404C20.947 38.1028 21.7191 40.7941 23.1835 43.1216L23.5319 43.674L22.0542 49.07L27.59 47.619L28.1225 47.934C30.3678 49.2675 32.9416 49.9731 35.5664 49.9731H35.573C43.6337 49.9731 50.1946 43.4144 50.199 35.3515C50.199 31.4443 48.6814 27.7723 45.9191 25.0077C43.1567 22.2454 39.4847 20.7211 35.5797 20.7211Z" fill="#67D449"/>
<path fill-rule="evenodd" clip-rule="evenodd" d="M35.5732 52.9438H35.5666C32.6201 52.9438 29.7268 52.205 27.1575 50.8027L17.8277 53.25L20.326 44.1332C18.7862 41.4662 17.9741 38.4398 17.9763 35.338C17.9808 25.6399 25.8728 17.75 35.5732 17.75C40.2792 17.75 44.6989 19.5827 48.0204 22.9086C51.3419 26.2323 53.1723 30.652 53.1701 35.3536C53.1657 45.0517 45.2714 52.9438 35.5732 52.9438ZM35.5 0C15.8929 0 0 15.8929 0 35.5C0 55.1049 15.8929 71 35.5 71C55.1049 71 71 55.1049 71 35.5C71 15.8929 55.1049 0 35.5 0Z" fill="#67D449"/>
</svg>
