<?xml version="1.0" encoding="utf-8"?>
<!-- Generator: Adobe Illustrator 26.0.0, SVG Export Plug-In . SVG Version: 6.00 Build 0)  -->
<svg version="1.1" id="Capa_1" xmlns="http://www.w3.org/2000/svg" xmlns:xlink="http://www.w3.org/1999/xlink" x="0px" y="0px"
	 viewBox="0 0 16 16" style="enable-background:new 0 0 16 16;" xml:space="preserve">
<g>
	<path style="fill:#236092;" d="M3.07,9.25H0.95c-0.17,0-0.28-0.11-0.28-0.22V8.22h2.34c0.16,0,0.33-0.16,0.33-0.33
		c0-0.22-0.16-0.33-0.33-0.33H0.67V6.81c0-0.11,0.11-0.22,0.28-0.22h2.12c0.16,0,0.32-0.16,0.32-0.33c0-0.22-0.16-0.38-0.32-0.38
		H0.95c-0.49,0-0.87,0.43-0.87,0.92v2.22c0,0.49,0.38,0.87,0.87,0.87h2.12c0.16,0,0.32-0.11,0.32-0.33C3.4,9.41,3.24,9.25,3.07,9.25
		z"/>
	<path style="fill:#236092;" d="M4.81,9.68V6.8c0-0.16,0.11-0.27,0.22-0.27h1.69c0.16,0,0.27,0.11,0.27,0.27v2.88
		c0,0.16,0.11,0.33,0.33,0.33c0.16,0,0.33-0.16,0.33-0.33V6.8c0-0.49-0.44-0.92-0.93-0.92H5.03c-0.49,0-0.87,0.43-0.87,0.92v2.88
		c0,0.16,0.11,0.33,0.33,0.33C4.65,10.01,4.81,9.84,4.81,9.68z"/>
	<path style="fill:#236092;" d="M11.3,9.14c0,0.11-0.11,0.22-0.22,0.22H9.33c-0.11,0-0.22-0.11-0.22-0.27V8.32h1.96
		c0.11,0,0.22,0.11,0.22,0.27L11.3,9.14L11.3,9.14z M9.12,6.7h1.96c0.11,0,0.22,0.11,0.22,0.27V7.4c0,0.16-0.11,0.27-0.22,0.27H9.12
		V6.7z M11.73,8c0.11-0.16,0.22-0.38,0.22-0.6V6.97c0-0.54-0.43-0.92-0.88-0.92H8.79c-0.11,0-0.16,0-0.22,0.11
		C8.52,6.21,8.46,6.26,8.46,6.37v2.71c0,0.54,0.38,0.98,0.87,0.98h1.53c0.66,0,1.09-0.38,1.09-0.92V8.6
		C11.95,8.38,11.9,8.16,11.73,8z"/>
	<path style="fill:#236092;" d="M13.37,6.05H15c0.55,0,0.93,0.38,0.93,0.87v2.93c0,0.16-0.11,0.27-0.33,0.27
		c-0.16,0-0.32-0.11-0.32-0.27V8.38h-2.19v1.47c0,0.16-0.11,0.27-0.32,0.27c-0.17,0-0.33-0.11-0.33-0.27V6.92
		C12.44,6.43,12.88,6.05,13.37,6.05z M15.28,7.73V6.92c0-0.11-0.11-0.22-0.28-0.22h-1.63c-0.16,0-0.28,0.11-0.28,0.22v0.82
		L15.28,7.73L15.28,7.73z"/>
</g>
</svg>
