<svg width="50" height="55" viewBox="0 0 50 55" fill="none" xmlns="http://www.w3.org/2000/svg">
<path d="M41.9901 27.4805L48.3907 51.5354C49.3973 55.3184 46.0764 54.5875 44.5413 53.9943C43.2601 53.4992 38.1426 51.5092 38.1426 51.5092C38.1426 51.5092 34.6948 53.3796 33.763 53.8746C31.7325 54.9535 29.6624 54.6847 28.7711 52.106C28.7477 52.0383 26.5599 44.6191 24.502 37.6381V27.4805H41.9901Z" fill="#5EB2FC"/>
<path d="M7.02977 27.5234L0.619065 51.6162C-0.389096 55.4052 2.93702 54.6732 4.47458 54.079C5.7578 53.5832 10.8834 51.59 10.8834 51.59C10.8834 51.59 14.3366 53.4633 15.2698 53.9592C17.3036 55.0397 19.3769 54.7705 20.2696 52.1877C20.2931 52.1199 22.4843 44.6891 24.5455 37.6971V27.5234H7.02977Z" fill="#5EB2FC"/>
<path d="M24.5449 27.5234V37.6971C26.1224 43.0481 27.1175 46.4188 27.8173 48.7868C29.7853 48.3987 31.6429 45.0262 33.525 44.4055C35.5201 43.7475 39.3336 45.5926 41.0278 44.3503C42.7219 43.108 42.1085 38.9162 43.3358 37.2112C43.5841 36.8663 43.954 36.5609 44.3896 36.276L42.0606 27.5234H24.5449Z" fill="#0043E0"/>
<path d="M7.23126 27.5234C7.09533 27.8397 6.9374 28.1634 6.77202 28.4903L5.51758 33.2051C6.43001 35.0092 10.2977 35.732 11.4855 37.3518C12.7279 39.0459 12.1513 43.2428 13.8564 44.4702C15.5614 45.6975 19.3585 43.8188 21.3593 44.4592C21.7004 44.5683 22.0415 44.7688 22.3831 45.0239C23.1948 42.2727 23.5028 41.2324 24.545 37.6971V27.5234H7.23126Z" fill="#0043E0"/>
<path d="M38.1486 42.1187C36.4571 43.3591 32.6496 41.5168 30.6576 42.1738C28.6656 42.8308 26.7011 46.5767 24.6036 46.5859C22.5061 46.5952 20.5086 42.8668 18.5109 42.2274C16.5132 41.588 12.7221 43.4638 11.0198 42.2384C9.31741 41.013 9.89294 36.8226 8.65257 35.1311C7.4122 33.4396 3.24257 32.7288 2.5856 30.7368C1.92864 28.7448 4.85733 25.693 4.84808 23.5955C4.83883 21.498 1.88332 18.4721 2.52268 16.4744C3.16205 14.4767 7.32525 13.7291 8.55064 12.0268C9.77604 10.3244 9.16356 6.1392 10.855 4.89883C12.5465 3.65847 16.354 5.50075 18.346 4.84378C20.338 4.18681 22.3025 0.440907 24.4 0.431658C26.4975 0.422385 28.495 4.15083 30.4927 4.7902C32.4904 5.42956 36.2815 3.55375 37.9838 4.77917C39.6862 6.00456 39.1107 10.195 40.351 11.8865C41.5914 13.578 45.761 14.2888 46.418 16.2807C47.075 18.2727 44.1463 21.3246 44.1555 23.4221C44.1647 25.5196 47.1203 28.5455 46.4809 30.5432C45.8415 32.5409 41.6783 33.2885 40.4529 34.9908C39.2276 36.6932 39.84 40.8784 38.1486 42.1187Z" fill="#5EB2FC"/>
<path fill-rule="evenodd" clip-rule="evenodd" d="M2.03369 48.9961V49.4285H2.89854V48.9961H2.03369ZM4.19515 48.9961V49.4285H5.05984V48.9961H4.19515ZM6.3564 48.9961V49.4285H7.2213V48.9961H6.3564ZM8.51876 48.9961V49.4285H9.38361V48.9961H8.51876ZM10.68 48.9961V49.4285H11.5449V48.9961H10.68ZM12.8415 48.9961V49.4285H13.7064V48.9961H12.8415ZM15.0038 48.9961V49.4285H15.8687V48.9961H15.0038ZM17.1651 48.9961V49.4285H18.03V48.9961H17.1651ZM19.3265 48.9961V49.4285H20.1914V48.9961H19.3265Z" fill="#E7EDFB"/>
<path d="M38.0677 23.5092C38.0677 27.1071 36.6385 30.5576 34.0944 33.1017C31.5503 35.6458 28.0998 37.075 24.5019 37.075C20.904 37.075 17.4535 35.6458 14.9094 33.1017C12.3653 30.5576 10.936 27.1071 10.936 23.5092C10.936 21.7277 11.2869 19.9637 11.9687 18.3178C12.6504 16.6719 13.6497 15.1764 14.9094 13.9167C16.1691 12.657 17.6646 11.6577 19.3105 10.976C20.9563 10.2942 22.7204 9.94336 24.5019 9.94336C28.0998 9.94336 31.5503 11.3726 34.0944 13.9167C36.6385 16.4608 38.0677 19.9113 38.0677 23.5092Z" fill="#009FFF"/>
<path d="M32.6394 21.7725C32.0369 22.9343 30.4378 24.1907 30.0982 25.258C29.6415 26.6929 30.8465 29.5068 29.6337 30.3992C28.4208 31.2917 26.1025 29.2397 24.5967 29.2488C23.5209 29.2553 21.9331 30.3194 20.6676 30.6071C20.6098 31.5641 20.6633 32.6489 21.2283 33.0542C22.4519 33.9319 24.9618 31.8495 26.4676 31.8404C27.9735 31.8312 30.5083 33.8832 31.7212 32.9908C32.934 32.0983 31.729 29.0679 32.1857 27.633C32.6424 26.1981 35.377 24.4213 34.9031 22.992C34.6776 22.3122 33.6052 22.0041 32.6394 21.7725Z" fill="#0082FF"/>
<path d="M24.2054 6.76758L24.2094 7.20002L25.0671 7.20562L25.0767 6.77397L24.2054 6.76758ZM22.8905 6.84098L22.0248 6.9463L22.0839 7.37476L22.9352 7.27103L22.8905 6.84098ZM26.3908 6.87052L26.3397 7.29977L27.1902 7.41546L27.2533 6.9878L26.3908 6.87052ZM20.7275 7.18966L19.885 7.40908L20.0015 7.82556L20.832 7.60853L20.7275 7.18966ZM28.5458 7.25589L28.4373 7.67397L29.2639 7.90296L29.386 7.48807L28.5458 7.25589ZM18.6339 7.82157L17.8257 8.1471L17.9932 8.54604L18.7887 8.2253L18.6339 7.82157ZM30.633 7.92051L30.4679 8.31944L31.257 8.65694L31.4333 8.26279L30.633 7.92051ZM16.6384 8.72157L15.8805 9.15162L16.0999 9.52422L16.8459 9.10135L16.6384 8.72157ZM32.6094 8.85481L32.3971 9.23141L33.1376 9.66545L33.361 9.29524L32.6094 8.85481ZM14.7778 9.87449L14.0829 10.4003L14.3494 10.7402L15.0339 10.2232L14.7778 9.87449ZM34.45 10.0388L34.1899 10.3843L34.8673 10.9117L35.1378 10.5742L34.45 10.0388ZM13.0831 11.2596L12.4624 11.8716L12.7712 12.1739L13.3823 11.5724L13.0831 11.2596ZM36.1208 11.4519L35.8184 11.7606L36.4208 12.371L36.7335 12.0726L36.1208 11.4519ZM11.5824 12.8529L11.047 13.5399L11.3925 13.8L11.9199 13.1234L11.5824 12.8529ZM37.5952 13.0699L37.2545 13.3364L37.7724 14.0202L38.121 13.7649L37.5952 13.0699ZM10.3026 14.6274L9.85976 15.3774L10.2348 15.592L10.672 14.8532L10.3026 14.6274ZM38.8463 14.8652L38.4737 15.0846L38.8974 15.8306L39.2771 15.6231L38.8463 14.8652ZM9.26614 16.5534L8.92306 17.3545L9.32279 17.5197L9.66029 16.7306L9.26614 16.5534ZM39.854 16.8096L39.4551 16.9763L39.7766 17.7726L40.1803 17.617L39.854 16.8096ZM8.48822 18.6L8.25445 19.4401L8.67333 19.5486L8.90231 18.7228L8.48822 18.6ZM40.5944 18.8673L40.1779 18.9837L40.3958 19.8135L40.8154 19.7098L40.5944 18.8673ZM7.98716 20.7295L7.86349 21.5912L8.29195 21.6478L8.41402 20.7981L7.98716 20.7295ZM41.062 21.0063L40.6335 21.0654L40.7372 21.9167L41.1673 21.872L41.062 21.0063ZM7.76615 22.9085L7.75977 23.7797L8.19141 23.7756L8.19859 22.9179L7.76615 22.9085ZM41.2447 23.1877L40.8122 23.1902L40.8019 24.1508L41.2335 24.1644L41.2447 23.1877ZM8.26083 25.0499L7.83078 25.0946L7.9353 25.9603L8.36375 25.9013L8.26083 25.0499ZM40.7045 25.4225L40.5809 26.2715L41.0077 26.3409L41.133 25.4784L40.7045 25.4225ZM8.59833 27.1555L8.17785 27.2552L8.39168 28.0994L8.80976 27.9877L8.59833 27.1555ZM40.3176 27.5201L40.0862 28.3467L40.5011 28.4688L40.7356 27.6294L40.3176 27.5201ZM9.2087 29.198L8.80497 29.352L9.12971 30.1611L9.52864 29.9935L9.2087 29.198ZM39.6609 29.5475L39.3218 30.3358L39.716 30.5129L40.0606 29.7119L39.6609 29.5475ZM10.0808 31.1425L9.70098 31.3499L10.1302 32.1079L10.5028 31.8893L10.0808 31.1425ZM38.7434 31.472L38.3037 32.2084L38.6708 32.4358L39.1184 31.6882L38.7434 31.472ZM11.2002 32.9568L10.8515 33.2121L11.3765 33.9079L11.7172 33.6414L11.2002 32.9568ZM37.5833 33.26L37.0503 33.9326L37.3846 34.2063L37.9256 33.5241L37.5833 33.26ZM12.5462 34.61L12.2342 34.9092L12.8446 35.5299L13.1478 35.222L12.5462 34.61ZM36.1982 34.8821L35.583 35.4805L35.8798 35.7948L36.5038 35.1876L36.1982 34.8821ZM14.0964 36.0749L13.8252 36.4108L14.5097 36.9485L14.7722 36.6047L14.0964 36.0749ZM34.6136 36.3102L33.9282 36.8273L34.1844 37.1751L34.8793 36.6509L34.6136 36.3102ZM15.8246 37.3251L15.5972 37.6929L16.3456 38.139L16.5618 37.7648L15.8246 37.3251ZM32.8591 37.5214L32.1123 37.9435L32.3189 38.3225L33.0777 37.894L32.8591 37.5214ZM17.6996 38.34L17.5225 38.7342L18.3235 39.078L18.4871 38.6783L17.6996 38.34ZM30.9618 38.4932L30.1663 38.8124L30.3203 39.2161L31.1293 38.8913L30.9618 38.4932ZM19.6895 39.1012L19.5674 39.5161L20.4068 39.7499L20.5161 39.331L19.6895 39.1012ZM28.9551 39.2081L28.123 39.4179L28.2219 39.8392L29.0668 39.6262L28.9551 39.2081ZM21.7647 39.5927L21.6961 40.0195L22.5586 40.144L22.6145 39.7155L21.7647 39.5927ZM26.8679 39.6509L26.0166 39.753L26.0613 40.1831L26.9269 40.0794L26.8679 39.6509ZM23.8839 39.8121L23.8751 40.2445L24.7456 40.2525L24.7424 39.82L23.8839 39.8121Z" fill="#E7EDFB"/>
<path fill-rule="evenodd" clip-rule="evenodd" d="M28.7847 48.9961V49.4285H29.6495V48.9961H28.7847ZM30.9461 48.9961V49.4285H31.8108V48.9961H30.9461ZM33.1074 48.9961V49.4285H33.9723V48.9961H33.1074ZM35.2697 48.9961V49.4285H36.1346V48.9961H35.2697ZM37.431 48.9961V49.4285H38.2959V48.9961H37.431ZM39.5925 48.9961V49.4285H40.4573V48.9961H39.5925ZM41.7548 48.9961V49.4285H42.6197V48.9961H41.7548ZM43.9161 48.9961V49.4285H44.781V48.9961H43.9161ZM46.0775 48.9961V49.4285H46.9424V48.9961H46.0775Z" fill="#E7EDFB"/>
<path d="M29.7983 30.5672C28.5873 31.4582 26.0565 29.4095 24.553 29.4186C23.0496 29.4277 20.5437 31.5069 19.322 30.6305C18.1004 29.7542 19.2668 26.7141 18.7935 25.2871C18.3203 23.86 15.5685 22.1193 16.0244 20.6866C16.4804 19.254 19.7321 19.4238 20.943 18.5328C22.154 17.6417 22.9592 14.4867 24.4626 14.4776C25.9661 14.4684 26.8093 17.6135 28.031 18.4899C29.2527 19.3662 32.5021 19.157 32.9753 20.5841C33.4486 22.0111 30.718 23.785 30.2621 25.2177C29.8061 26.6504 31.0092 29.6761 29.7983 30.5672Z" fill="#E7EDFB"/>
<path d="M24.4412 2.37747e-05C23.1336 0.00578866 22.0766 1.06446 21.0633 2.09534C20.0501 3.12623 19.0493 4.1752 18.2441 4.44079C17.4388 4.70638 16.011 4.4588 14.5833 4.23295C13.1555 4.00711 11.6757 3.7849 10.6212 4.55814C9.56673 5.33138 9.33338 6.80943 9.11958 8.23901C8.90578 9.66859 8.71277 11.1052 8.21739 11.7934C7.722 12.4816 6.42141 13.1204 5.13361 13.7769C3.84581 14.4334 2.51776 15.1231 2.11918 16.3685C1.7206 17.6138 2.4012 18.9468 3.06852 20.2291C3.73584 21.5113 4.4241 22.7869 4.42784 23.6349C4.43158 24.4828 3.75495 25.7646 3.09897 27.0527C2.44299 28.3408 1.77369 29.6795 2.18324 30.9213C2.57176 32.0993 3.79267 32.7695 5.02134 33.386L0.200618 51.5052C-0.535038 54.2507 0.94925 54.7822 1.49037 54.9126C2.57261 55.1735 3.81988 54.7968 4.63082 54.4834C5.87896 54.0011 10.5725 52.1766 10.8544 52.0669C11.1126 52.207 14.1632 53.862 15.0666 54.342C16.1505 54.9179 17.2887 55.1606 18.3174 54.8638C19.3461 54.567 20.2324 53.7111 20.6965 52.2722C20.7039 52.2475 22.0176 47.8002 22.495 46.1814C23.1537 46.7118 23.8571 47.0966 24.6491 47.0931C25.3743 47.0899 26.0225 46.7621 26.6291 46.2952C27.1005 47.8932 28.3381 52.0831 28.3642 52.1708C28.8305 53.7234 29.7448 54.567 30.7735 54.8638C31.8022 55.1606 32.9404 54.9179 34.0243 54.342C34.9277 53.862 37.9783 52.207 38.2365 52.0669C38.5184 52.1766 43.2119 54.0011 44.4601 54.4834C45.271 54.7968 46.5177 55.1735 47.5999 54.9126C48.141 54.7822 49.6322 54.2926 48.8905 51.5052L44.0391 33.2735C45.3009 32.6293 46.5816 31.9431 46.9717 30.7241C47.3703 29.4787 46.6897 28.1457 46.0224 26.8635C45.3551 25.5812 44.6668 24.3054 44.6631 23.4575C44.6593 22.6095 45.336 21.3285 45.9919 20.0405C46.6479 18.7524 47.3174 17.413 46.9079 16.1712C46.4983 14.9294 45.1639 14.251 43.8704 13.6059C42.5769 12.9608 41.2703 12.3335 40.7689 11.6497C40.2674 10.9659 40.062 9.53154 39.8356 8.1039C39.6092 6.67627 39.3633 5.19983 38.302 4.43593C37.2408 3.67201 35.7625 3.90741 34.3368 4.14584C32.9111 4.38427 31.4851 4.64408 30.6775 4.38561C29.8699 4.12713 28.8606 3.08765 27.8383 2.06574C26.816 1.04383 25.7488 -0.00575753 24.4412 2.37747e-05ZM24.4452 0.866273C25.2385 0.862766 26.2228 1.67483 27.2262 2.67785C28.2297 3.68087 29.2206 4.82851 30.4138 5.21042C31.6071 5.59231 33.0804 5.23343 34.4797 4.9994C35.8791 4.76538 37.1516 4.67489 37.7954 5.13832C38.4392 5.60174 38.7575 6.83776 38.9797 8.23901C39.2019 9.64026 39.3296 11.1516 40.0705 12.162C40.8114 13.1723 42.2138 13.7478 43.4835 14.381C44.7531 15.0142 45.8363 15.6896 46.0848 16.4429C46.3332 17.1962 45.8647 18.3829 45.2208 19.6472C44.577 20.9114 43.7913 22.2086 43.7968 23.4615C43.8023 24.7143 44.5995 26.0043 45.2545 27.2629C45.9094 28.5214 46.3887 29.7039 46.1469 30.4593C45.9051 31.2148 44.8282 31.9 43.5642 32.5443C42.3002 33.1887 40.9022 33.7763 40.1703 34.7931C39.4383 35.81 39.3246 37.3224 39.1148 38.7256C38.905 40.1288 38.5973 41.3676 37.9576 41.8367C37.3179 42.3057 36.0441 42.226 34.6427 42.0043C33.2414 41.7827 31.7652 41.4371 30.5754 41.8295C29.3855 42.2219 28.4045 43.3779 27.41 44.3897C26.4154 45.4016 25.4389 46.2234 24.6457 46.2269C23.8524 46.2304 22.8683 45.4175 21.8649 44.4145C20.8615 43.4115 19.8703 42.264 18.6771 41.8821C17.4838 41.5002 16.0105 41.8591 14.6112 42.0931C13.2119 42.3271 11.9386 42.4174 11.2948 41.954C10.651 41.4906 10.3328 40.2548 10.1106 38.8535C9.88836 37.4523 9.7613 35.9409 9.02042 34.9306C8.27953 33.9202 6.87707 33.3445 5.60743 32.7113C4.3378 32.0782 3.25481 31.4038 3.00636 30.6505C2.75791 29.8972 3.22621 28.7102 3.87007 27.446C4.51393 26.1817 5.29961 24.8837 5.29409 23.6308C5.28856 22.378 4.49165 21.088 3.83666 19.8295C3.18168 18.5709 2.70219 17.3885 2.94399 16.633C3.18578 15.8775 4.26266 15.1924 5.52666 14.548C6.79066 13.9037 8.18867 13.3162 8.92062 12.2994C9.65256 11.2826 9.76647 9.77009 9.97631 8.36693C10.1862 6.96377 10.4936 5.7258 11.1333 5.25672C11.773 4.78764 13.0468 4.86632 14.4482 5.088C15.8495 5.30966 17.3259 5.65548 18.5157 5.26306C19.7056 4.87065 20.6864 3.71442 21.6809 2.70259C22.6755 1.69075 23.652 0.869771 24.4452 0.866273ZM24.545 9.52644C16.807 9.52644 10.5252 15.8082 10.5252 23.5463C10.5252 31.2843 16.807 37.5669 24.545 37.5669C32.2831 37.5669 38.5657 31.2843 38.5657 23.5463C38.5657 15.8082 32.2831 9.52644 24.545 9.52644ZM24.545 10.3918C31.815 10.3918 37.6995 16.2763 37.6995 23.5463C37.6995 30.8162 31.815 36.7007 24.545 36.7007C17.275 36.7007 11.3915 30.8162 11.3914 23.5463C11.3914 16.2763 17.275 10.3918 24.545 10.3918ZM23.1817 14.7104C22.2369 15.6611 21.5197 17.6285 20.7244 18.2137C19.9044 18.7912 17.6681 18.9441 16.6481 19.5178C15.0924 20.3307 15.6129 21.599 15.8443 22.0438C16.4545 23.2261 18.094 24.5241 18.4174 25.4633C18.5921 25.9899 18.4919 27.1061 18.3798 28.1771C18.059 31.2425 19.5289 31.9611 22.0406 30.8031C23.0315 30.3816 24.0446 29.9018 24.5994 29.8984C25.1541 29.8951 26.1726 30.3623 27.1685 30.7718C30.8329 32.3839 30.98 29.7615 30.7974 28.1021C30.7027 27.0294 30.5589 25.9176 30.7272 25.3889C30.8954 24.8603 31.6553 24.036 32.3525 23.2154C33.7971 21.6278 34.4765 19.6554 30.9342 18.9393C29.8847 18.6979 28.7828 18.4907 28.332 18.1674C27.4956 17.526 26.8242 15.6903 25.8324 14.6943C25.3044 14.1211 24.2174 13.621 23.1817 14.7104ZM25.2227 15.3088C26.035 16.1191 26.8454 18.2156 27.828 18.8714C28.6008 19.4258 29.7376 19.5526 30.7399 19.7831C32.8783 20.2706 33.2432 20.8493 31.6924 22.6553C31.0265 23.439 30.1908 24.2198 29.9024 25.1261C29.614 26.0324 29.8439 27.1535 29.9343 28.178C30.0607 30.111 29.9739 31.0042 27.4979 29.9711C26.5468 29.58 25.5449 29.0264 24.5939 29.0322C23.6428 29.0379 22.6482 29.6039 21.7019 30.0065C19.8349 30.749 19.0965 30.8664 19.2437 28.2427C19.3217 27.2172 19.5382 26.0935 19.2389 25.1908C18.9192 24.0919 17.1976 22.7393 16.613 21.6444C16.1637 20.8356 16.7134 20.4577 17.0446 20.2874C18.2178 19.7248 20.3471 19.5995 21.2376 18.9114C22.1376 18.2903 23.0983 16.0042 23.7995 15.3176C24.2505 14.8811 24.6707 14.7594 25.2227 15.3088ZM43.2507 33.678L48.0536 51.7282C48.5833 53.7188 47.7541 53.9843 47.3976 54.0703C46.6844 54.2422 45.4992 53.9563 44.7726 53.6755C43.4917 53.1806 38.3644 51.1872 38.3644 51.1872C38.2458 51.1408 38.1128 51.149 38.0008 51.2096C38.0008 51.2096 34.5425 53.0857 33.6175 53.5772C32.6676 54.0819 31.7529 54.2445 31.0133 54.0312C30.2736 53.8178 29.6201 53.2327 29.1945 51.924C29.1686 51.837 27.8746 47.4564 27.3478 45.6702C27.5778 45.4517 27.8041 45.2245 28.0276 44.9972C29.0408 43.9663 30.0409 42.9173 30.8462 42.6517C31.6515 42.3862 33.0801 42.6344 34.5079 42.8602C35.9356 43.0861 37.4153 43.3083 38.4697 42.535C39.5242 41.7618 39.7575 40.2831 39.9713 38.8535C40.1851 37.4239 40.3775 35.9879 40.8729 35.2997C41.2767 34.7388 42.2197 34.2098 43.2507 33.678ZM5.81253 33.7835C6.89356 34.326 7.89792 34.8645 8.32205 35.4429C8.82349 36.1267 9.02913 37.5616 9.25554 38.9893C9.48194 40.4169 9.72762 41.8933 10.7889 42.6572C11.8501 43.4212 13.3284 43.1858 14.7541 42.9473C16.1798 42.7089 17.6058 42.4485 18.4134 42.7069C19.221 42.9654 20.2305 44.0049 21.2528 45.0268C21.4268 45.2007 21.6028 45.3735 21.7803 45.5437C21.246 47.3553 19.8741 51.9994 19.867 52.023C19.4608 53.2035 18.8175 53.8178 18.0779 54.0312C17.3383 54.2445 16.4224 54.0819 15.4726 53.5772C14.5475 53.0857 11.0902 51.2096 11.0902 51.2096C10.9782 51.1491 10.8453 51.1409 10.7267 51.1872C10.7267 51.1872 5.59945 53.1806 4.31853 53.6755C3.5919 53.9563 2.40652 54.2422 1.69335 54.0703C1.33677 53.9843 0.511511 53.6904 1.03727 51.7282L5.81253 33.7835Z" fill="#00187B"/>
</svg>
