<svg width="42" height="55" viewBox="0 0 42 55" fill="none" xmlns="http://www.w3.org/2000/svg">
<path fill-rule="evenodd" clip-rule="evenodd" d="M37.8665 35.4244H34.0032V24.9927C34.0032 24.7541 33.8103 24.5609 33.5716 24.5609H31.8622L35.9346 19.2904L40.0074 24.5609H38.2979C38.0591 24.5609 37.8665 24.7541 37.8665 24.9927V35.4244ZM27.1057 35.4244H23.2424V20.1255C23.2424 19.8872 23.0493 19.6937 22.8108 19.6937H21.1012L25.1738 14.4237L29.2468 19.6937H27.537C27.2985 19.6937 27.1057 19.8871 27.1057 20.1255V35.4244ZM16.3451 26.9392V35.4244H12.4816V26.9392C12.4816 26.701 12.2885 26.5074 12.0502 26.5074H10.3407L14.4132 21.2368L18.4859 26.5074H16.7764C16.5381 26.5074 16.3451 26.701 16.3451 26.9392ZM6.99143 53.0771L4.5439 53.7327L1.26758 41.5059L3.71522 40.8496L6.99143 53.0771ZM22.251 10.9719L22.9716 7.89841C23.0083 7.74214 22.9549 7.57875 22.8335 7.47382L20.445 5.41065L23.5896 5.14686C23.7492 5.13349 23.8887 5.03233 23.9508 4.88469L25.1738 1.97461L26.3969 4.88469C26.459 5.03244 26.5987 5.13349 26.7583 5.14686L29.9031 5.41065L27.5144 7.47393C27.393 7.57875 27.3396 7.74225 27.3762 7.89851L28.0966 10.972L25.3973 9.33641C25.2601 9.25326 25.0876 9.25337 24.9505 9.33641L22.251 10.9719Z" fill="#5EB2FC"/>
<path fill-rule="evenodd" clip-rule="evenodd" d="M23.6255 5.57686C23.9454 5.5499 24.2242 5.34748 24.3484 5.05198L25.1738 3.08813L25.9991 5.05198C26.1237 5.34748 26.4022 5.55001 26.7221 5.57686L28.8447 5.75491L27.2324 7.14762C26.9894 7.35673 26.8829 7.68425 26.9562 7.997L27.4425 10.0713L25.6208 8.9675C25.4835 8.88467 25.3285 8.84294 25.1738 8.84294C25.0192 8.84294 24.8643 8.88467 24.727 8.9676L22.9051 10.0713L23.3915 7.997C23.4648 7.68425 23.3585 7.35662 23.1153 7.14762L21.5032 5.75502L23.6255 5.57686ZM21.5923 8.11143L20.7616 11.6532C20.7036 11.9003 20.7432 12.1664 20.8925 12.3724C21.1694 12.7534 21.6692 12.8362 22.0436 12.6098L25.1738 10.7136L28.3043 12.6098C28.442 12.6928 28.5965 12.7349 28.7511 12.7349C29.0201 12.7349 29.2881 12.6088 29.4628 12.3616C29.6069 12.1566 29.6428 11.8957 29.5858 11.6521L28.7555 8.11143L31.5258 5.72083C31.8568 5.43494 31.9313 4.93443 31.6562 4.55352C31.5074 4.34754 31.2668 4.22697 31.0136 4.20659L27.3874 3.90139L25.9775 0.547421C25.8792 0.313398 25.691 0.121219 25.4492 0.0438944C25.002 -0.100617 24.5482 0.124778 24.3785 0.528117L22.9604 3.9015L19.3343 4.2067C19.081 4.22708 18.8404 4.34754 18.6915 4.55363C18.4163 4.93454 18.4908 5.43505 18.822 5.72094L21.5923 8.11143ZM38.2977 24.1296C37.8212 24.1296 37.4349 24.5157 37.4349 24.9928V34.9931H34.4344V24.9928C34.4344 24.5157 34.0479 24.1296 33.5714 24.1296H32.7405L35.9344 19.9959L39.1287 24.1296H38.2977ZM40.9182 23.624L37.0305 18.592C36.7662 18.2502 36.3668 18.0538 35.9347 18.0538C35.9347 18.0538 35.9347 18.0538 35.9345 18.0538C35.5028 18.0538 35.1033 18.2502 34.8387 18.592L30.951 23.624C30.6252 24.0457 30.5679 24.6031 30.8018 25.0787C31.0371 25.5579 31.5142 25.8554 32.0466 25.8554H32.0474H32.7089V35.8557C32.7089 36.3323 33.0952 36.7184 33.5715 36.7184H38.2977C38.7742 36.7184 39.1604 36.3323 39.1604 35.8557V25.8554H39.8214H39.8226C40.3552 25.8554 40.8319 25.5579 41.0675 25.0787C41.3013 24.6031 41.244 24.0457 40.9182 23.624ZM25.1738 15.1292L28.3681 19.2625H27.537C27.0603 19.2625 26.6743 19.6491 26.6743 20.1256V34.9932H23.6737V20.1256C23.6737 19.6491 23.2873 19.2625 22.8108 19.2625H21.9796L25.1738 15.1292ZM22.8108 36.7185H27.537C28.0134 36.7185 28.3997 36.3324 28.3997 35.8559V20.9883H29.0611H29.0618C29.5942 20.9883 30.0713 20.6907 30.3067 20.2116C30.5405 19.735 30.4834 19.1775 30.1578 18.7558L26.2696 13.7248C26.0074 13.385 25.6028 13.1867 25.1739 13.1867C24.7422 13.1867 24.3426 13.3831 24.0782 13.7248L20.1903 18.7558C19.8646 19.1775 19.8073 19.7349 20.0412 20.2116C20.2766 20.6907 20.7535 20.9883 21.2862 20.9883H21.2866H21.9482V35.8559C21.948 36.3324 22.3343 36.7185 22.8108 36.7185ZM14.413 21.9425L17.6073 26.0762H16.7762C16.2995 26.0762 15.9136 26.4632 15.9136 26.9394V34.9932H12.9128V26.9394C12.9128 26.4632 12.5267 26.0762 12.05 26.0762H11.2189L14.413 21.9425ZM10.5252 27.802H10.5257H11.1873V35.8559C11.1873 36.3324 11.5735 36.7185 12.0499 36.7185H16.7761C17.2526 36.7185 17.6389 36.3324 17.6389 35.8559V27.802H18.3001H18.3008C18.8334 27.802 19.3104 27.5039 19.5458 27.0253C19.7796 26.5497 19.7224 25.9923 19.3965 25.5706L15.5285 20.5646C15.297 20.2655 14.9604 20.0564 14.5847 20.0111C14.0882 19.9516 13.616 20.1525 13.3171 20.5395L9.4293 25.5705C9.10351 25.9922 9.04624 26.5496 9.27994 27.0252C9.51558 27.5039 9.99258 27.802 10.5252 27.802ZM33.7036 42.9982L20.3561 50.7036C19.5187 51.1867 18.5984 51.3043 17.5426 51.0626L12.2053 49.8388C10.5463 49.4578 9.10501 49.68 7.6572 50.5626L5.49308 42.4859L8.2731 40.3573C9.06986 39.7469 9.93941 39.5074 10.9304 39.6258L20.1903 42.1461C20.6769 42.2789 21.0847 42.5957 21.3385 43.0404C21.5927 43.4844 21.6594 43.9966 21.5269 44.4833C21.3942 44.9706 21.0771 45.3791 20.6339 45.6328C20.1907 45.8862 19.678 45.9523 19.1904 45.8195L14.213 44.465C13.7127 44.3292 13.1955 44.6623 13.1293 45.196C13.076 45.6253 13.3682 46.023 13.7857 46.1364L18.7374 47.4843C19.0555 47.5708 19.3748 47.6125 19.6895 47.6125C21.1383 47.6116 22.4803 46.7362 23.0444 45.3695L32.066 40.161C32.4424 39.9438 32.8835 39.8869 33.308 40.0002C33.7324 40.1146 34.0857 40.3843 34.3031 40.7606C34.7542 41.5424 34.4857 42.5465 33.7036 42.9982ZM4.84882 53.2046L6.46293 52.7723L3.41006 41.3781L1.79574 41.811L4.84882 53.2046ZM33.7543 38.3339C32.8846 38.101 31.9785 38.2184 31.2029 38.667L23.2445 43.2611C23.1674 42.8883 23.0315 42.5245 22.8364 42.1828C22.3536 41.3394 21.5748 40.7346 20.6435 40.4818L11.3252 37.9458C11.288 37.9346 11.2502 37.9274 11.212 37.9218C9.74227 37.7275 8.40057 38.0857 7.22388 38.9874L5.01005 40.6828L4.99614 40.6309C4.79447 39.8781 4.01788 39.4295 3.2648 39.6314L1.04784 40.2255C0.294973 40.427 -0.153229 41.2037 0.0482246 41.9564L3.26286 53.9533C3.36013 54.3165 3.59426 54.6206 3.92146 54.8103C4.13985 54.9365 4.38185 55 4.62677 55C4.74939 55 4.87255 54.9852 4.99376 54.9517L7.21094 54.3585C7.57513 54.2604 7.87968 54.0264 8.06863 53.6983C8.25757 53.3718 8.30783 52.9909 8.21034 52.6261L8.12827 52.3204C9.35123 51.439 10.4488 51.206 11.8197 51.5197L17.1572 52.7441C17.6377 52.854 18.1064 52.9089 18.5617 52.9089C19.5085 52.9089 20.398 52.6718 21.2188 52.1983L34.5663 44.4918C36.1721 43.5651 36.7245 41.5041 35.7972 39.8972C35.3495 39.1223 34.6242 38.5669 33.7543 38.3339Z" fill="#4B6274"/>
</svg>
