<svg width="58" height="55" viewBox="0 0 58 55" fill="none" xmlns="http://www.w3.org/2000/svg">
<path fill-rule="evenodd" clip-rule="evenodd" d="M19.9667 10.6191C19.9667 8.83235 20.4965 7.08568 21.4892 5.60002C22.4819 4.11436 23.8929 2.95643 25.5436 2.27265C27.1944 1.58888 29.0109 1.40997 30.7633 1.75855C32.5158 2.10714 34.1255 2.96756 35.389 4.23101C36.6525 5.49447 37.5129 7.1042 37.8615 8.85666C38.21 10.6091 38.0311 12.4256 37.3474 14.0764C36.6636 15.7272 35.5057 17.1381 34.02 18.1308C32.5343 19.1235 30.7877 19.6533 29.0009 19.6533C26.6055 19.6512 24.3089 18.6987 22.6151 17.0049C20.9213 15.3111 19.9688 13.0145 19.9667 10.6191ZM43.2604 23.1595L48.4679 20.1483L56.166 33.4796L50.9586 36.4909L43.2604 23.1599V23.1595ZM14.7413 23.1595L7.04318 36.4912L1.83569 33.4799L9.5337 20.1486L14.7413 23.1599V23.1595ZM27.1052 13.2167C27.1596 13.2907 27.2285 13.353 27.3076 13.3997C27.3867 13.4464 27.4745 13.4766 27.5656 13.4886C27.595 13.4916 27.6245 13.4927 27.6541 13.492C27.8118 13.4933 27.9652 13.4396 28.0877 13.3402L33.4481 8.94709C33.5862 8.83243 33.6732 8.66779 33.6903 8.48914C33.7073 8.31049 33.6529 8.13235 33.5391 7.99366C33.4252 7.85497 33.261 7.767 33.0825 7.74896C32.9039 7.73093 32.7255 7.7843 32.5862 7.89741L27.7774 11.8333L26.2522 9.73146C26.1464 9.58591 25.9872 9.48833 25.8095 9.46019C25.6318 9.43205 25.4502 9.47566 25.3046 9.58142C25.1591 9.68717 25.0615 9.84642 25.0334 10.0241C25.0052 10.2018 25.0488 10.3834 25.1546 10.529L27.1052 13.2167Z" fill="#5EB2FC"/>
<path fill-rule="evenodd" clip-rule="evenodd" d="M24.9712 10.6623C24.9014 10.5661 24.8512 10.4572 24.8235 10.3416C24.7957 10.226 24.7911 10.1062 24.8097 9.98879C24.8283 9.87142 24.8698 9.75887 24.9319 9.65756C24.9941 9.55624 25.0755 9.46816 25.1717 9.39833C25.3659 9.2573 25.6081 9.19919 25.8452 9.23678C25.9625 9.2554 26.0751 9.29695 26.1764 9.35906C26.2777 9.42117 26.3658 9.50263 26.4356 9.59878L27.8198 11.5067L32.4428 7.72305C32.6286 7.57198 32.8667 7.50066 33.105 7.52469C33.3433 7.54873 33.5623 7.66616 33.7142 7.8513C33.8662 8.03643 33.9386 8.27421 33.9156 8.51259C33.8927 8.75098 33.7762 8.97057 33.5918 9.12334L28.2313 13.5164C28.1357 13.5946 28.0252 13.6525 27.9065 13.6866C27.7879 13.7207 27.6635 13.7303 27.541 13.7148C27.4185 13.6993 27.3005 13.6591 27.1941 13.5965C27.0876 13.5339 26.995 13.4503 26.9219 13.3508L24.9712 10.6625V10.6623ZM29.0009 1.81185C27.2589 1.81182 25.556 2.32837 24.1076 3.29616C22.6591 4.26395 21.5302 5.63952 20.8635 7.24892C20.1969 8.85832 20.0225 10.6293 20.3623 12.3378C20.7021 14.0463 21.541 15.6157 22.7728 16.8475C24.0045 18.0793 25.5739 18.9182 27.2824 19.258C28.991 19.5979 30.7619 19.4235 32.3713 18.7569C33.9807 18.0902 35.3563 16.9613 36.3241 15.5129C37.292 14.0645 37.8085 12.3616 37.8085 10.6196C37.8064 8.28428 36.8778 6.04524 35.2265 4.39393C33.5752 2.74262 31.3362 1.81398 29.0009 1.81185ZM29.0009 21.2389C31.1012 21.2389 33.1544 20.6161 34.9008 19.4493C36.6472 18.2824 38.0083 16.6239 38.8121 14.6834C39.6159 12.7429 39.8262 10.6077 39.4164 8.54773C39.0067 6.48775 37.9953 4.59553 36.5101 3.11037C35.0249 1.62521 33.1327 0.6138 31.0727 0.204049C29.0128 -0.205701 26.8775 0.00460882 24.9371 0.808384C22.9966 1.61216 21.3381 2.9733 20.1712 4.71968C19.0043 6.46605 18.3815 8.51923 18.3816 10.6196C18.3841 13.4352 19.5038 16.1348 21.4947 18.1258C23.4857 20.1167 26.1853 21.2364 29.0009 21.2389ZM9.61666 20.4586L14.432 23.2431L6.96041 36.182L2.1451 33.3975L9.61666 20.4586ZM21.4278 25.7603L15.0252 25.835L9.21575 35.904L12.9253 38.074L16.1053 34.894C16.4357 34.5618 16.8289 34.2986 17.2619 34.1197C17.695 33.9408 18.1593 33.8497 18.6278 33.8518C19.1138 33.851 19.5948 33.9497 20.0411 34.1418C20.4875 34.334 20.8898 34.6154 21.2232 34.9689C21.5567 35.3224 21.8142 35.7404 21.98 36.1972C22.1458 36.654 22.2163 37.1399 22.1872 37.625C22.6723 37.5959 23.1582 37.6664 23.615 37.8322C24.0718 37.998 24.4898 38.2555 24.8433 38.589C25.1968 38.9224 25.4782 39.3247 25.6704 39.7711C25.8625 40.2174 25.9612 40.6984 25.9604 41.1844C25.9604 41.2538 25.9604 41.318 25.9551 41.3875C26.4577 41.358 26.9608 41.4351 27.4315 41.6138C27.9021 41.7924 28.3297 42.0686 28.6861 42.4242C28.7555 42.4938 28.8197 42.5686 28.8838 42.6434C29.4525 42.3511 30.0892 42.2164 30.7276 42.2533C30.7222 42.1837 30.7169 42.1196 30.7169 42.0502C30.7154 41.5638 30.8136 41.0822 31.0054 40.6353C31.1972 40.1883 31.4786 39.7853 31.8321 39.4513C32.1857 39.1173 32.604 38.8592 33.0611 38.6931C33.5183 38.527 34.0046 38.4563 34.4901 38.4854C34.4848 38.4213 34.4848 38.3518 34.4848 38.2823C34.4833 37.5964 34.6801 36.9247 35.0517 36.3482C35.4232 35.7717 35.9535 35.3149 36.5787 35.0329L31.438 31.1796C31.2481 31.0394 31.0215 30.9577 30.7859 30.9444L29.7277 30.8538C29.4704 30.8268 29.2109 30.8757 28.9811 30.9945C28.7513 31.1133 28.5612 31.2967 28.4344 31.5221L27.0234 33.8364C26.8215 34.1741 26.5251 34.4452 26.1707 34.6162C25.8164 34.7872 25.4197 34.8505 25.0297 34.7984L22.8866 34.5312C22.5953 34.4939 22.3155 34.3942 22.0662 34.2389C21.817 34.0836 21.6042 33.8764 21.4423 33.6313C21.2805 33.3863 21.1734 33.1092 21.1284 32.819C21.0835 32.5288 21.1016 32.2323 21.1817 31.9498L22.2987 27.9789C22.4149 27.5483 22.6226 27.1478 22.9076 26.8047C23.1926 26.4616 23.5481 26.184 23.9501 25.9907L26.8364 24.5685L26.2807 24.2799C26.0884 24.1718 25.8719 24.1141 25.6514 24.1122C25.4308 24.1104 25.2134 24.1644 25.0194 24.2692L22.7853 25.4134C22.3678 25.6379 21.9019 25.7572 21.4278 25.7608V25.7603ZM31.0478 24.5149C31.2052 24.4313 31.3784 24.3819 31.5562 24.37C31.7339 24.358 31.9122 24.3837 32.0794 24.4455L39.1389 26.7971C40.0268 27.1032 40.9946 27.0843 41.8698 26.7437L43.2066 26.236L48.2468 34.9688L42.8703 38.0579L40.5775 35.7598C40.3332 35.5152 40.0541 35.3081 39.7492 35.1451L32.5282 29.7263C32.0675 29.3839 31.5188 29.1799 30.9463 29.1383L29.8827 29.0477C29.2886 28.9895 28.6902 29.1031 28.1587 29.375C27.6273 29.6469 27.185 30.0657 26.8846 30.5816L25.4735 32.8957C25.4524 32.9339 25.4201 32.9647 25.3809 32.9838C25.3417 33.0029 25.2975 33.0095 25.2544 33.0026L23.1113 32.7301C23.079 32.7268 23.0478 32.7164 23.02 32.6996C22.9922 32.6828 22.9684 32.66 22.9505 32.6329C22.9326 32.6058 22.921 32.575 22.9164 32.5429C22.9119 32.5107 22.9146 32.4779 22.9243 32.4469L24.0466 28.4706C24.0926 28.285 24.1799 28.1122 24.3021 27.965C24.4242 27.8179 24.5781 27.7003 24.7521 27.621L31.0478 24.5153V24.5149ZM48.3852 20.4586L43.5698 23.2431L51.0414 36.182L55.8567 33.3975L48.3852 20.4586ZM42.4796 42.7129C42.1496 43.0415 41.7028 43.226 41.237 43.226C40.7713 43.226 40.3245 43.0415 39.9944 42.7129L36.8091 39.5223C36.6401 39.3605 36.5051 39.1666 36.4121 38.9519C36.319 38.7372 36.2699 38.506 36.2674 38.2721C36.265 38.0381 36.3093 37.806 36.3979 37.5894C36.4864 37.3728 36.6173 37.1761 36.7829 37.0108C36.9486 36.8456 37.1456 36.7151 37.3623 36.627C37.5791 36.5389 37.8113 36.4951 38.0453 36.498C38.2793 36.501 38.5103 36.5506 38.7248 36.6441C38.9393 36.7376 39.1329 36.873 39.2943 37.0424L42.4796 40.2276C42.8082 40.5577 42.9927 41.0044 42.9927 41.4702C42.9927 41.9359 42.8082 42.3828 42.4796 42.7129ZM38.7117 46.4753C38.5497 46.6392 38.3565 46.769 38.1436 46.8571C37.9307 46.9452 37.7023 46.9898 37.4718 46.9884C37.2407 46.9894 37.0116 46.9445 36.7979 46.8564C36.5842 46.7684 36.39 46.6389 36.2266 46.4753L33.0414 43.2901C32.7188 42.9591 32.5396 42.5144 32.5425 42.0522C32.5455 41.59 32.7304 41.1477 33.0573 40.8209C33.3841 40.4941 33.8265 40.3092 34.2887 40.3063C34.7508 40.3034 35.1955 40.4827 35.5264 40.8053L38.7117 43.9906C38.8756 44.1534 39.0056 44.347 39.0944 44.5602C39.1831 44.7735 39.2288 45.0022 39.2288 45.2331C39.2288 45.4641 39.1831 45.6928 39.0944 45.9061C39.0056 46.1193 38.8756 46.3129 38.7117 46.4757V46.4753ZM34.9493 50.2432C35.2779 49.9132 35.4624 49.4664 35.4624 49.0006C35.4624 48.5349 35.2779 48.0881 34.9493 47.758L31.7587 44.5728C31.4883 44.3036 31.138 44.1294 30.7602 44.0763C30.3825 44.0231 29.9977 44.094 29.6636 44.2782C29.7545 44.7464 29.7491 45.2282 29.6476 45.6943C30.2654 45.793 30.836 46.0849 31.2777 46.528C31.684 46.9382 31.9636 47.4567 32.083 48.0216C32.2024 48.5865 32.1566 49.1738 31.951 49.7133L32.1274 49.8897C32.2129 49.9752 32.2878 50.0661 32.3626 50.1569C32.3989 50.1825 32.433 50.2111 32.4645 50.2424C32.7946 50.571 33.2414 50.7554 33.7071 50.7554C34.1728 50.7554 34.6196 50.571 34.9497 50.2424L34.9493 50.2432ZM30.8447 52.8353C30.625 53.0538 30.3283 53.1773 30.0185 53.1793C29.7086 53.1813 29.4104 53.0616 29.1879 52.8459L30.8501 51.1785C31.0665 51.4003 31.1871 51.6982 31.1861 52.008C31.1851 52.3178 31.0625 52.6149 30.8447 52.8353ZM25.837 51.9694C25.7278 51.8604 25.6411 51.7308 25.5819 51.5882C25.5228 51.4456 25.4924 51.2928 25.4924 51.1384C25.4924 50.984 25.5228 50.8312 25.5819 50.6885C25.6411 50.5459 25.7278 50.4164 25.837 50.3074L28.3276 47.8115C28.549 47.592 28.8484 47.4691 29.1602 47.4697C29.472 47.4704 29.7709 47.5946 29.9914 47.8151C30.2119 48.0356 30.3361 48.3344 30.3367 48.6463C30.3374 48.9581 30.2145 49.2575 29.995 49.4789L27.4991 51.9694C27.278 52.1885 26.9793 52.3115 26.6681 52.3115C26.3568 52.3115 26.0581 52.1885 25.837 51.9694ZM21.7325 49.3774C22.0625 49.706 22.5093 49.8905 22.9751 49.8905C23.4408 49.8905 23.8876 49.706 24.2177 49.3774C24.2459 49.3464 24.2782 49.3194 24.3138 49.2972C24.3883 49.2014 24.4686 49.1104 24.5543 49.0247L27.0449 46.5288C27.1355 46.4433 27.2263 46.3632 27.3174 46.2883C27.3441 46.2562 27.3709 46.2242 27.4029 46.1921C27.5683 46.0294 27.6997 45.8356 27.7898 45.6218C27.8798 45.4081 27.9267 45.1786 27.9276 44.9466C27.9285 44.7147 27.8835 44.4848 27.7952 44.2704C27.7068 44.0559 27.5769 43.861 27.4129 43.697C27.2489 43.533 27.054 43.4031 26.8395 43.3147C26.625 43.2264 26.3952 43.1814 26.1632 43.1823C25.9313 43.1832 25.7018 43.2301 25.488 43.3201C25.2743 43.4101 25.0805 43.5416 24.9177 43.7069L21.7325 46.8922C21.4039 47.2223 21.2194 47.6691 21.2194 48.1348C21.2194 48.6006 21.4039 49.0474 21.7325 49.3774ZM17.9647 45.6148C17.6361 45.2848 17.4516 44.838 17.4516 44.3723C17.4516 43.9066 17.6361 43.4598 17.9647 43.1298L21.1496 39.9392C21.3954 39.6931 21.7086 39.5256 22.0497 39.4579C22.3907 39.3901 22.7442 39.4251 23.0654 39.5585C23.3865 39.6919 23.6608 39.9176 23.8535 40.207C24.0462 40.4965 24.1486 40.8366 24.1478 41.1844C24.1492 41.4148 24.1046 41.6432 24.0165 41.8561C23.9283 42.069 23.7986 42.2622 23.6347 42.4242L20.4494 45.6148C20.1194 45.9434 19.6726 46.1279 19.2069 46.1279C18.7412 46.1279 18.2944 45.9434 17.9643 45.6148H17.9647ZM14.1968 41.8475C14.5269 42.1761 14.9736 42.3606 15.4394 42.3606C15.9051 42.3606 16.3519 42.1761 16.682 41.8475L19.8726 38.6622C20.1186 38.4165 20.2862 38.1032 20.354 37.7622C20.4218 37.4211 20.3867 37.0676 20.2534 36.7464C20.12 36.4252 19.8943 36.1509 19.6048 35.9582C19.3153 35.7655 18.9751 35.6631 18.6274 35.664C18.3969 35.6626 18.1685 35.7072 17.9556 35.7954C17.7426 35.8835 17.5495 36.0133 17.3874 36.1772L14.1968 39.3624C13.8714 39.6941 13.689 40.1403 13.689 40.605C13.689 41.0697 13.8714 41.5158 14.1968 41.8475ZM0.450962 34.5145C0.347567 34.4554 0.256982 34.3763 0.184493 34.2818C0.112004 34.1872 0.0590622 34.0793 0.0287578 33.9641C-0.0302148 33.7329 0.00224606 33.4878 0.119384 33.28L8.49969 18.7698C8.55891 18.6669 8.63786 18.5766 8.732 18.5042C8.82615 18.4319 8.93365 18.3788 9.04835 18.348C9.16304 18.3172 9.28269 18.3094 9.40042 18.3249C9.51816 18.3404 9.63167 18.379 9.73447 18.4385L16.121 22.1261C16.2242 22.1858 16.3147 22.2651 16.3872 22.3597C16.4597 22.4543 16.5129 22.5623 16.5436 22.6774C16.5744 22.7926 16.5822 22.9126 16.5665 23.0308C16.5509 23.149 16.5121 23.2629 16.4524 23.366L16.0785 24.0128L21.4069 23.9485C21.6005 23.9488 21.7905 23.8971 21.9573 23.7989L24.1914 22.6547C24.6464 22.4198 25.1517 22.299 25.6637 22.3027C26.1758 22.3065 26.6793 22.4346 27.1308 22.6761L28.8036 23.5579C28.8154 23.5662 28.8279 23.5734 28.8411 23.5793L30.2462 22.8903C30.6159 22.7041 31.0191 22.5935 31.432 22.5651C31.845 22.5367 32.2595 22.5909 32.6512 22.7247L39.7112 25.0762C40.2037 25.252 40.7432 25.2425 41.2292 25.0495L42.2874 24.6487L41.5446 23.366C41.4275 23.1562 41.395 22.9095 41.454 22.6766C41.4853 22.5611 41.5393 22.453 41.6127 22.3586C41.6861 22.2641 41.7775 22.1851 41.8816 22.1261L48.2681 18.4385C48.3709 18.3789 48.4844 18.3402 48.6022 18.3246C48.7199 18.309 48.8396 18.3169 48.9543 18.3477C49.0691 18.3784 49.1766 18.4316 49.2707 18.504C49.3649 18.5765 49.4438 18.6668 49.5029 18.7698L57.8822 33.28C57.9407 33.3828 57.9784 33.4961 57.993 33.6135C58.0077 33.7309 57.9991 33.85 57.9677 33.9641C57.9384 34.0797 57.8858 34.1881 57.8133 34.2827C57.7407 34.3773 57.6496 34.4562 57.5455 34.5145L51.159 38.2022C51.0237 38.2842 50.8682 38.3267 50.7101 38.3251C50.5505 38.3263 50.3935 38.2848 50.2553 38.205C50.1172 38.1251 50.0029 38.0097 49.9243 37.8708L49.1548 36.5346L44.1523 39.4098C44.5294 39.944 44.7525 40.5714 44.7972 41.2238C44.842 41.8761 44.7067 42.5281 44.4062 43.1088C44.1057 43.6895 43.6514 44.1765 43.093 44.5166C42.5346 44.8567 41.8935 45.0369 41.2396 45.0376C41.1702 45.0376 41.1007 45.0321 41.0312 45.0262C41.0603 45.5113 40.9898 45.9972 40.824 46.454C40.6582 46.9108 40.4007 47.3288 40.0672 47.6823C39.7338 48.0358 39.3315 48.3173 38.8851 48.5094C38.4388 48.7015 37.9578 48.8002 37.4718 48.7994C37.4024 48.7994 37.3328 48.7994 37.2687 48.794C37.2966 49.2793 37.2251 49.7651 37.0585 50.2217C36.892 50.6783 36.6339 51.0961 36.3001 51.4494C35.9663 51.8027 35.5638 52.0841 35.1174 52.2763C34.671 52.4685 34.19 52.5675 33.7039 52.5672C33.4542 52.5673 33.2051 52.5404 32.9612 52.487C32.8578 53.1033 32.5666 53.6727 32.1274 54.1172C31.5644 54.6752 30.8037 54.9883 30.011 54.9883C29.2183 54.9883 28.4576 54.6752 27.8946 54.1172L27.7182 53.9359C27.3046 54.0916 26.8617 54.1536 26.4212 54.1172C25.9808 54.0809 25.554 53.9472 25.1715 53.7258C24.7891 53.5044 24.4606 53.2008 24.2098 52.837C23.9589 52.4732 23.792 52.0582 23.7211 51.622C23.4754 51.6757 23.2245 51.7025 22.9729 51.7022C22.5045 51.7031 22.0406 51.6115 21.6077 51.4326C21.1749 51.2538 20.7816 50.9912 20.4504 50.6601C20.1192 50.3289 19.8567 49.9356 19.6778 49.5027C19.499 49.0698 19.4074 48.6059 19.4082 48.1375C19.4082 48.068 19.4082 47.9985 19.4136 47.9291C19.3441 47.9344 19.2746 47.9344 19.2051 47.9344C18.7368 47.9353 18.2728 47.8436 17.8399 47.6648C17.4071 47.486 17.0137 47.2234 16.6826 46.8922C16.3514 46.561 16.0888 46.1677 15.91 45.7348C15.7311 45.3019 15.6395 44.838 15.6404 44.3696C15.6404 44.3002 15.6457 44.2306 15.6511 44.1665C15.5816 44.1665 15.5121 44.172 15.4427 44.172C14.4953 44.173 13.5861 43.7982 12.9147 43.1298C12.4673 42.6809 12.1475 42.1211 11.9878 41.5078C11.8282 40.8946 11.8345 40.2499 12.0061 39.6399L8.30723 37.4754L8.07738 37.8713C7.99881 38.0102 7.88455 38.1255 7.74642 38.2054C7.60829 38.2853 7.45132 38.3267 7.29176 38.3256C7.13359 38.3272 6.97811 38.2846 6.84282 38.2026L0.450962 34.5145Z" fill="#4B6274"/>
</svg>
