<svg width="54" height="54" viewBox="0 0 54 54" fill="none" xmlns="http://www.w3.org/2000/svg">
<path d="M36.5282 9.56738C32.205 9.56738 28.7007 13.0713 28.7007 17.3949C28.7007 21.7184 32.205 25.2224 36.5282 25.2224C40.8517 25.2224 44.3557 21.7184 44.3557 17.3949C44.3557 13.0713 40.8517 9.56738 36.5282 9.56738ZM36.5282 19.1343C35.5671 19.1343 34.7887 18.3559 34.7887 17.3949C34.7887 16.4338 35.5671 15.6554 36.5282 15.6554C37.4892 15.6554 38.2676 16.4338 38.2676 17.3949C38.2676 18.3559 37.4892 19.1343 36.5282 19.1343Z" fill="#5EB2FC"/>
<path d="M13.0455 43.4858C11.9325 43.4858 10.8627 43.9291 10.0797 44.7122C8.58397 46.2079 6.87044 47.4428 4.98321 48.3911L2.60889 49.5738V43.4858C2.60889 38.6416 5.02695 34.9189 9.05366 32.2316C9.92338 31.6575 10.4364 30.6922 10.4364 29.6484C10.4364 28.5264 9.82783 27.4915 8.84472 26.9437C6.92267 25.8739 5.35734 24.326 4.27868 22.4906C3.50494 21.1775 2.98302 19.7162 2.75667 18.1768C3.35673 17.8116 5.70515 16.5244 8.69693 16.5244C12.1499 16.5244 17.3071 18.238 23.3255 18.2639C23.0299 20.1685 22.2732 21.9517 21.1601 23.4822C20.1426 24.8823 18.8117 26.0739 17.2464 26.9437C16.2637 27.4915 15.6547 28.5264 15.6547 29.6484C15.6547 30.6922 16.1677 31.6575 17.0374 32.2316C19.0465 33.571 20.6645 35.1801 21.7691 37.0499C22.8736 38.9197 23.4822 41.0681 23.4822 43.4858V49.5738L21.1079 48.3911C19.2206 47.4428 17.5071 46.2079 16.0114 44.7122C15.2288 43.9291 14.159 43.4858 13.0455 43.4858Z" fill="#5EB2FC"/>
<path d="M24.3522 48.7817V43.4861C24.3522 38.6304 21.9885 34.4869 17.5163 31.5057C16.8954 31.0917 16.5247 30.3995 16.5247 29.6533C16.5247 28.8452 16.9638 28.099 17.6692 27.7066C18.9113 27.0161 20.0087 26.1366 20.9404 25.1183C23.8625 31.0369 29.8325 34.7888 36.5283 34.7888C46.1194 34.7888 53.9227 26.9856 53.9227 17.3944C53.9227 7.80328 46.1194 0 36.5283 0C31.8752 0 27.386 1.90464 24.1288 5.21833H1.73944C0.780116 5.21833 0 5.99844 0 6.95777V8.69721C0 9.65654 0.780116 10.4367 1.73944 10.4367V16.3497C1.73944 21.0657 4.29977 25.4168 8.42245 27.7066C9.12782 28.099 9.56693 28.8452 9.56693 29.6533C9.56693 30.3986 9.19662 31.0917 8.57533 31.5057C4.10357 34.4869 1.73944 38.6304 1.73944 43.4861V48.7817C0.780116 48.7817 0 49.5618 0 50.5211V52.2606C0 53.2199 0.780116 54 1.73944 54H24.3522C25.3115 54 26.0916 53.2199 26.0916 52.2606V50.5211C26.0916 49.5618 25.3115 48.7817 24.3522 48.7817ZM52.1391 16.5247H46.0952V18.2641H52.1391C51.6996 26.2012 45.3351 32.5657 37.398 33.0052V26.9614H35.6586V33.0171C29.7081 32.6935 24.5148 29.0758 22.152 23.5763C23.212 21.9927 23.9199 20.1811 24.2053 18.2641H26.9614V16.5247H24.3462C24.3471 16.4665 24.3522 16.4083 24.3522 16.3497V10.4367C25.3115 10.4367 26.0916 9.65654 26.0916 8.69721V6.95777C26.0916 6.60912 25.9863 6.28467 25.808 6.01246C28.5097 3.45893 31.9457 1.98363 35.6586 1.78276V7.82749H37.398V1.78361C45.3351 2.22314 51.6996 8.58765 52.1391 16.5247ZM1.73944 6.95777H24.3522L24.3539 8.69721H1.73944V6.95777ZM3.47888 43.4861C3.47888 39.1782 5.51857 35.6352 9.54103 32.953C10.6464 32.2154 11.3064 30.9821 11.3064 29.6533C11.3064 28.2137 10.5254 26.8849 9.26627 26.1863C5.69693 24.2027 3.47888 20.4333 3.47888 16.3497V13.9155H17.3944V12.1761H3.47888V10.4367H22.6127V12.1761H19.1339V13.9155H22.6127V16.3497C22.6127 20.4333 20.3951 24.2027 16.8258 26.1863C15.5662 26.8849 14.7853 28.2129 14.7853 29.6533C14.7853 30.9821 15.4456 32.2154 16.551 32.953C20.5735 35.6352 22.6127 39.1782 22.6127 43.4861V48.7817H3.47888V43.4861ZM1.73944 52.2606V50.5211H24.3522L24.353 52.2606H1.73944Z" fill="#4B6274"/>
<path d="M12.1758 39.1377H13.9152V40.8771H12.1758V39.1377Z" fill="#4B6274"/>
<path d="M12.1758 35.6582H13.9152V37.3976H12.1758V35.6582Z" fill="#4B6274"/>
<path d="M12.1758 32.1797H13.9152V33.9191H12.1758V32.1797Z" fill="#4B6274"/>
<path d="M38.9033 11.54L37.3978 14.1491V9.56738H35.6584V14.9458C34.6485 15.3059 33.9189 16.2627 33.9189 17.3949C33.9189 18.8332 35.0898 20.004 36.5281 20.004C37.9669 20.004 39.1373 18.8332 39.1373 17.3949C39.1373 16.7502 38.8939 16.1667 38.5049 15.7111L40.4104 12.4088L38.9033 11.54ZM36.5281 18.2646C36.0482 18.2646 35.6584 17.8747 35.6584 17.3949C35.6584 16.915 36.0482 16.5252 36.5281 16.5252C37.0084 16.5252 37.3978 16.915 37.3978 17.3949C37.3978 17.8747 37.0084 18.2646 36.5281 18.2646Z" fill="#4B6274"/>
</svg>
