<svg width="25" height="25" viewBox="0 0 25 25" fill="none" xmlns="http://www.w3.org/2000/svg">
<path d="M12.5 25C19.4036 25 25 19.4036 25 12.5C25 5.59644 19.4036 0 12.5 0C5.59644 0 0 5.59644 0 12.5C0 19.4036 5.59644 25 12.5 25Z" fill="#4285F4"/>
<path fill-rule="evenodd" clip-rule="evenodd" d="M20.1379 17.0874L20.1246 17.121C19.9988 17.4422 19.8723 17.763 19.7398 18.0818C19.626 18.3557 19.5082 18.6307 19.3781 18.8972C19.3003 19.0564 19.1771 19.3078 19.0521 19.4328C18.9249 19.5603 18.7843 19.6737 18.6328 19.7711C17.7607 20.3292 16.6706 20.2506 15.7122 19.9936C11.5957 18.8908 6.10906 13.4041 5.00618 9.28769C4.74934 8.32905 4.67082 7.23862 5.22952 6.36655C5.32655 6.21514 5.43975 6.07472 5.56711 5.94775C5.69197 5.82275 5.94368 5.69961 6.10271 5.62183C6.36955 5.4917 6.6447 5.37393 6.91863 5.26011C7.23723 5.12827 7.55828 5.00132 7.87922 4.87534L7.91267 4.86245C8.08085 4.79585 8.26738 4.79204 8.43814 4.85171C8.6089 4.91138 8.75246 5.03055 8.84255 5.1874L10.434 7.94453C10.5335 8.11813 10.5603 8.32405 10.5085 8.51733C10.4567 8.7106 10.3306 8.87555 10.1576 8.97617C9.5947 9.30142 9.14558 9.80737 9.01291 10.4562C8.94617 10.7652 8.94751 11.0851 9.01682 11.3935C9.08613 11.702 9.22176 11.9916 9.41428 12.2424C9.89503 12.87 10.4191 13.4631 10.9826 14.0175C11.5372 14.5812 12.1305 15.1053 12.7582 15.5861C13.0089 15.7787 13.2986 15.9144 13.6071 15.9838C13.9156 16.0531 14.2355 16.0544 14.5445 15.9875C15.1927 15.855 15.6993 15.4056 16.0243 14.8427C16.1248 14.6697 16.2897 14.5436 16.483 14.4918C16.6762 14.44 16.8821 14.4668 17.0556 14.5663L19.8125 16.1581C19.9693 16.2481 20.0885 16.3915 20.1483 16.5621C20.208 16.7328 20.2043 16.9192 20.1379 17.0874Z" fill="white"/>
</svg>
