<svg width="230" height="23" viewBox="0 0 230 23" fill="none" xmlns="http://www.w3.org/2000/svg">
<path d="M212.007 22.0423C212.007 21.5319 212.422 21.1172 212.964 21.1172C213.507 21.1172 213.921 21.5319 213.921 22.0423C213.921 22.5527 213.507 22.9993 212.964 22.9993C212.422 22.9993 212.007 22.5846 212.007 22.0423ZM212.199 22.0423C212.199 22.457 212.55 22.8079 212.996 22.8079C213.411 22.8079 213.762 22.4889 213.762 22.0423C213.762 21.6276 213.411 21.3086 212.996 21.3086C212.518 21.3086 212.199 21.6595 212.199 22.0423Z" fill="#E31837"/>
<path d="M213.443 22.5859H213.251L212.932 22.1074H212.741V22.5859H212.613V21.5332H213.092C213.187 21.5332 213.283 21.5332 213.347 21.597C213.443 21.6289 213.475 21.7246 213.475 21.8203C213.475 22.0117 213.315 22.1074 213.124 22.1074L213.443 22.5859ZM212.932 21.9798C213.092 21.9798 213.283 22.0117 213.283 21.8203C213.283 21.6927 213.156 21.6608 213.028 21.6608H212.741V21.9798H212.932Z" fill="#E31837"/>
<path d="M208.403 22.9988C215.102 17.2568 224.512 11.6743 229.68 9.66464C228.882 9.15425 227.638 8.42055 226.235 7.62305C219.568 9.82414 211.784 14.7048 204.83 20.2235C206.01 21.1167 207.254 22.0418 208.403 22.9988Z" fill="#E31837"/>
<path d="M205.34 7.40165C204.351 6.92315 203.267 6.47655 202.437 6.09375C199.917 7.33785 196.631 9.21995 192.484 12.1866C193.378 12.6651 194.335 13.2393 195.355 13.8135C198.545 11.4529 201.767 9.21995 205.34 7.40165Z" fill="#012169"/>
<path d="M211.305 4.6568C210.093 3.9869 205.882 2.42381 202.98 1.75391C202.118 2.07291 200.906 2.55141 200.077 2.90231C201.129 3.1894 205.053 4.2421 208.403 5.9328C209.264 5.5181 210.476 5.0077 211.305 4.6568Z" fill="#E31837"/>
<path d="M197.046 4.24219C193.314 5.96479 189.39 8.32538 187.253 9.69708C188.019 10.048 188.784 10.3351 189.837 10.8455C194.558 7.65548 198.258 5.70959 199.726 5.07159C198.673 4.68879 197.684 4.43359 197.046 4.24219Z" fill="#012169"/>
<path d="M214.113 3.6685C214.974 3.3814 215.963 3.1262 216.824 2.871C214.336 1.8183 211.21 0.701799 208.403 0C207.956 0.1276 206.616 0.4785 205.691 0.765599C206.648 1.0527 209.806 1.7864 214.113 3.6685ZM198.386 15.6629C199.407 16.269 200.491 17.0984 201.544 17.8002C208.53 12.3772 215.421 8.19829 222.981 5.83769C221.928 5.29539 221.003 4.8169 219.823 4.2427C215.293 5.39109 207.541 8.48539 198.386 15.6629Z" fill="#E31837"/>
<path d="M0 21.3414H5.10399C7.68789 21.3414 8.90009 20.0016 8.90009 18.1195C8.90009 16.5883 8.10259 15.5675 6.44379 15.2485C7.91119 14.8976 8.58109 14.0044 8.58109 12.6965C8.58109 11.0377 7.36889 9.69791 4.785 9.69791H0.0319V21.3414H0ZM4.4341 16.3969C5.39109 16.3969 6.06099 16.8754 6.06099 17.8324C6.06099 18.8532 5.42299 19.2679 4.4341 19.2679H2.7753V16.365H4.4341V16.3969ZM4.1151 11.7395C5.07209 11.7395 5.74199 12.1542 5.74199 13.1112C5.74199 14.0682 5.10399 14.4829 4.1151 14.4829H2.7753V11.7395H4.1151ZM19.2038 9.66601H16.3328L11.9625 21.3414H14.8654L15.6629 18.917H19.8737L20.6712 21.3414H23.606L19.2038 9.66601ZM17.7683 12.4732L19.14 16.7797H16.3328L17.7683 12.4732ZM38.1524 9.66601H35.5047V17.4815L30.5283 9.66601H27.5616V21.3414H30.2093V13.5578L35.1857 21.3414H38.1524V9.66601ZM50.37 21.3414L46.542 15.408V21.3414H43.703V9.66601H46.542V15.2804L50.1786 9.66601H53.3367L49.5088 15.2804L53.6876 21.3414H50.37ZM63.7361 15.5037C63.7361 17.8324 65.1397 19.2679 66.958 19.2679C68.7763 19.2679 70.1799 17.8324 70.1799 15.5037C70.1799 13.175 68.7763 11.7395 66.958 11.7395C65.1397 11.7395 63.7361 13.175 63.7361 15.5037ZM60.7375 15.5037C60.7694 12.0904 63.1619 9.41081 66.958 9.41081C70.7541 9.41081 73.1466 12.0904 73.1785 15.5037C73.1466 18.917 70.7541 21.5966 66.958 21.5966C63.1619 21.5966 60.7694 18.917 60.7375 15.5037ZM77.0703 21.3414H79.9094V16.7478H83.6098V14.5148H79.9094V11.899H84.3754L84.8858 9.66601H77.0703V21.3414ZM98.1243 9.66601H95.2533L90.883 21.3414H93.7859L94.5834 18.917H98.7942L99.5917 21.3414H102.526L98.1243 9.66601ZM96.6888 12.4732L98.0605 16.7797H95.2533L96.6888 12.4732ZM119.37 9.66601H116.052L113.022 15.9822L109.991 9.66601H106.673V21.3414H109.225V13.5259L112.99 21.3414L116.754 13.5259V21.3414H119.402L119.37 9.66601ZM124.888 21.3414H132.863V19.1084H127.727V16.4926H131.779V14.3234H127.727V11.899H132.417L132.927 9.66601H124.888V21.3414ZM143.677 21.3414H146.772L143.869 16.3969C145.464 15.9503 146.229 14.8338 146.229 13.2069C146.229 11.1015 144.953 9.69791 142.082 9.69791H137.585V21.3733H140.36V16.7797H141.125L143.677 21.3414ZM141.54 11.8352C142.72 11.8352 143.327 12.3456 143.327 13.3345C143.327 14.3234 142.72 14.8338 141.54 14.8338H140.328V11.8352H141.54ZM151.014 21.3414H153.854V9.69791H151.014V21.3414ZM167.826 18.2152C166.741 18.9808 165.784 19.236 164.795 19.236C162.626 19.236 161.095 17.7367 161.095 15.5037C161.095 13.2707 162.594 11.7714 164.7 11.7714C165.657 11.7714 166.614 12.0266 167.666 12.7922V10.1445C166.709 9.60221 165.593 9.37891 164.349 9.37891C160.489 9.37891 158.064 12.0585 158.032 15.4718C158.064 18.917 160.425 21.5647 164.349 21.5647C165.657 21.5647 166.773 21.3414 167.794 20.7991V18.2152H167.826ZM178.225 9.66601H175.354L170.984 21.3414H173.887L174.684 18.917H178.895L179.693 21.3414H182.627L178.225 9.66601ZM176.79 12.4732L178.161 16.7797H175.354L176.79 12.4732Z" fill="#012169"/>
</svg>
