<svg width="63" height="63" viewBox="0 0 63 63" fill="none" xmlns="http://www.w3.org/2000/svg">
<path d="M62.9172 29.5105C61.9225 13.0974 48.2448 0 31.5001 0C14.7554 0 1.07774 13.0974 0.0830078 29.5105C0.0830078 30.1737 0.165903 30.8368 0.248797 31.5C0.911955 36.9711 2.98432 42.0276 6.13432 46.2553C11.8541 54.0474 21.0554 59.1039 31.5001 59.1039C16.9106 59.1039 4.9738 47.7474 3.97906 33.4895C3.89617 32.8263 3.89617 32.1632 3.89617 31.5C3.89617 30.8368 3.89617 30.1737 3.97906 29.5105C4.9738 15.2526 16.9106 3.89605 31.5001 3.89605C41.9448 3.89605 51.1462 8.95263 56.8659 16.7447C60.0159 20.9724 62.0883 26.0289 62.7514 31.5C62.8343 32.1632 62.9172 32.8263 62.9172 33.4066C62.9172 32.7434 63.0001 32.0803 63.0001 31.4171C63.0001 30.8368 63.0001 30.1737 62.9172 29.5105Z" fill="#89D329"/>
<path d="M0.0828947 33.4899C1.07763 49.9031 14.7553 63.0004 31.5 63.0004C48.2447 63.0004 61.9224 49.9031 62.9171 33.4899C62.9171 32.8267 62.8342 32.1636 62.7513 31.5004C62.0882 26.0294 60.0158 20.9728 56.8658 16.7452C51.146 8.95306 41.9447 3.89648 31.5 3.89648C46.0895 3.89648 58.0263 15.2531 59.021 29.511C59.1039 30.1741 59.1039 30.8373 59.1039 31.5004C59.1039 32.1636 59.1039 32.8267 59.021 33.4899C58.0263 47.8307 46.0895 59.1044 31.5 59.1044C21.0553 59.1044 11.8539 54.0478 6.13421 46.2557C2.98421 42.0281 0.911842 36.9715 0.248684 31.5004C0.165789 30.8373 0.0828947 30.1741 0.0828947 29.5939C0.0828947 30.257 0 30.9202 0 31.5833C0 32.1636 5.92909e-09 32.8267 0.0828947 33.4899Z" fill="#00BCFF"/>
<path d="M27.604 6.05176V14.7557H33.6553C35.1474 14.7557 36.308 13.5952 36.308 12.1031C36.308 11.357 35.9764 10.6938 35.479 10.1965C35.8106 9.782 36.0592 9.20173 36.1421 8.62147C36.1421 7.21226 34.9816 6.05176 33.5724 6.05176H27.604ZM29.5934 7.87544H33.2408C33.6553 7.87544 33.9869 8.207 33.9869 8.62147C33.9869 9.03594 33.6553 9.3675 33.2408 9.3675H29.5934V7.87544ZM29.5934 11.1912H33.3237C33.8211 11.1912 34.1527 11.5228 34.1527 12.0201C34.1527 12.5175 33.8211 12.8491 33.3237 12.8491H29.5934V11.1912Z" fill="#10384F"/>
<path d="M30.5054 16.4131L26.1948 25.1171H28.433L29.0961 23.625H33.987L34.6501 25.1171H36.8882L32.4948 16.4131H30.5054ZM31.5001 18.6513L32.9922 21.8013H30.008L31.5001 18.6513Z" fill="#10384F"/>
<path d="M34.4842 27.0234H36.971L32.5776 32.6603V35.7274H30.5052V32.6603L26.1118 27.0234H28.5987L31.5829 31.0024L34.4842 27.0234Z" fill="#10384F"/>
<path d="M48.7422 27.0234V35.7274H50.8145V32.4117H52.3895L54.8764 35.7274H57.3632L54.7935 32.3287C55.8711 31.9971 56.7001 31.0024 56.7001 29.759C56.7001 28.2669 55.5396 27.0234 54.0475 27.0234H48.7422ZM50.8975 28.8471H53.8817C54.2962 28.8471 54.7107 29.2616 54.7107 29.6761C54.7107 30.0906 54.3791 30.505 53.8817 30.505H50.8975V28.8471Z" fill="#10384F"/>
<path d="M6.38281 27.0234V35.7274H12.4341C13.9262 35.7274 15.0868 34.5669 15.0868 33.0748C15.0868 32.3287 14.7552 31.6655 14.2578 31.1681C14.5894 30.7537 14.838 30.1734 14.9209 29.5931C14.9209 28.1839 13.7604 27.0234 12.3512 27.0234H6.38281ZM8.37223 28.8471H12.0196C12.4341 28.8471 12.7657 29.1787 12.7657 29.5931C12.7657 30.0076 12.4341 30.3392 12.0196 30.3392H8.37223V28.8471ZM8.37223 32.1629H12.1025C12.5999 32.1629 12.9315 32.4945 12.9315 32.9918C12.9315 33.4892 12.5999 33.8208 12.1025 33.8208H8.37223V32.1629Z" fill="#10384F"/>
<path d="M20.6407 27.0234L16.3301 35.7274H18.5683L19.2314 34.2353H24.1223L24.7854 35.7274H27.0235L22.6301 27.0234H20.6407ZM21.6354 29.2617L23.1274 32.4117H20.1433L21.6354 29.2617Z" fill="#10384F"/>
<path d="M46.0068 27.0234V28.8944H40.2042V30.3586H45.841V32.2295H40.2042V33.8565H46.0068V35.7274H38.1318V27.0234H46.0068Z" fill="#10384F"/>
<path d="M27.521 48.4111V57.1151H29.5934V53.7994H31.1684L33.6553 57.1151H36.142L33.5723 53.7164C34.65 53.3848 35.4789 52.3901 35.4789 51.1467C35.4789 49.6546 34.3184 48.4111 32.8263 48.4111H27.521ZM29.6763 50.2348H32.6605C33.075 50.2348 33.4895 50.6493 33.4895 51.0638C33.4895 51.4783 33.1579 51.8927 32.6605 51.8927H29.6763V50.2348Z" fill="#10384F"/>
<path d="M35.479 37.6152V39.4862H29.6764V40.9504H35.3132V42.8213H29.6764V44.4483H35.479V46.3192H27.604V37.6152H35.479Z" fill="#10384F"/>
</svg>
