<svg width="85" height="45" viewBox="0 0 85 45" fill="none" xmlns="http://www.w3.org/2000/svg">
<path d="M15.3089 35.4443C14.3534 36.4549 13.3262 37.206 12.2217 37.703C11.1172 38.2001 9.90216 38.4431 8.57672 38.4431C7.428 38.4431 6.34002 38.1946 5.32384 37.6865C4.30215 37.1784 3.40747 36.4604 2.62877 35.5161C1.7341 34.4171 1.07139 33.1634 0.646145 31.7606C0.215375 30.3579 0 28.7287 0 26.8731C0 23.4987 0.806292 20.7705 2.42996 18.694C4.04811 16.6174 6.17988 15.5792 8.83077 15.5792C9.92979 15.5792 10.9791 15.7835 11.9842 16.1977C12.9838 16.6119 13.9448 17.2304 14.8615 18.0533L13.7791 23.2833L13.4753 23.217C13.2489 21.0908 12.7684 19.4837 12.0339 18.3902C11.2994 17.3022 10.3219 16.7555 9.11243 16.7555C7.61579 16.7555 6.43392 17.6336 5.5779 19.3953C4.71636 21.1516 4.2911 23.5926 4.2911 26.7184C4.2911 30.0596 4.72188 32.6608 5.57237 34.5109C6.42839 36.361 7.62682 37.2833 9.16765 37.2833C10.4544 37.2833 11.4706 36.6758 12.2162 35.4608C12.9617 34.2458 13.4753 32.3571 13.757 29.7835L14.0718 29.7504L15.3089 35.4443ZM24.0402 28.0991C23.9795 28.088 23.9187 28.0825 23.8414 28.077C23.7696 28.0715 23.6647 28.0659 23.5266 28.0659C22.3337 28.0659 21.417 28.4746 20.7819 29.303C20.1412 30.1259 19.8209 31.3133 19.8209 32.8652C19.8209 34.047 19.9866 34.9914 20.329 35.7038C20.6659 36.4162 21.1132 36.7697 21.6765 36.7697C22.5049 36.7697 23.1069 36.1733 23.4769 34.9804C23.8525 33.7875 24.0402 31.8435 24.0402 29.1373V28.0991ZM28.8339 37.2999L28.8229 37.8742C28.0718 37.8521 27.514 37.8356 27.133 37.8245C26.7574 37.8135 26.404 37.808 26.0892 37.808H25.1061C24.9239 37.3882 24.7692 36.9464 24.6422 36.4991C24.5152 36.0518 24.4047 35.5713 24.3164 35.0687C23.8966 36.1788 23.3941 36.9851 22.8087 37.4932C22.2178 38.0013 21.4998 38.2498 20.6272 38.2498C19.2686 38.2498 18.1641 37.7472 17.3026 36.7476C16.4521 35.7535 16.0213 34.4778 16.0213 32.9425C16.0213 31.1089 16.684 29.7062 18.0039 28.7452C19.3294 27.7898 21.3396 27.2375 24.0402 27.1105V26.9669C24.0402 25.0229 23.8138 23.5429 23.361 22.5322C22.9081 21.5161 22.2564 21.008 21.3894 21.008C20.5168 21.008 19.8044 21.4498 19.2631 22.3389C18.7219 23.2281 18.269 24.675 17.9211 26.6687H17.6174L16.5791 21.7094C17.402 21.1184 18.247 20.6876 19.1251 20.4004C19.9977 20.1133 20.9034 19.9697 21.8422 19.9697C22.886 19.9697 23.7917 20.1575 24.5704 20.544C25.3491 20.9196 25.9566 21.4829 26.3929 22.2174C26.7519 22.7752 27.0004 23.4324 27.144 24.1946C27.2876 24.9622 27.3539 26.3429 27.3539 28.3421V29.8885C27.3539 32.7437 27.4643 34.649 27.6742 35.5989C27.884 36.5433 28.2761 37.1121 28.8339 37.2999ZM28.4971 44.3965V44.0376C29.0493 43.8222 29.4304 43.3251 29.6347 42.552C29.8446 41.7843 29.9495 39.9674 29.9495 37.1011V36.6979V25.3322C29.9495 23.8963 29.8611 22.9961 29.6899 22.6372C29.5187 22.2727 29.1874 22.0573 28.6903 21.991V21.6376C29.2371 21.5713 29.8501 21.4443 30.5405 21.251C31.2253 21.0577 31.9874 20.7926 32.8269 20.4667V23.6754C33.2024 22.4604 33.727 21.5381 34.4008 20.9086C35.069 20.279 35.8588 19.9642 36.7645 19.9642C38.5097 19.9642 39.929 20.7926 41.0225 22.4549C42.116 24.1172 42.6572 26.2876 42.6572 28.9661C42.6572 31.5839 42.105 33.7764 40.9949 35.5492C39.8848 37.322 38.5152 38.2111 36.8805 38.2111C36.1073 38.2111 35.4115 37.9902 34.7819 37.5484C34.1523 37.1121 33.5945 36.4549 33.1085 35.5713V37.0403C33.1085 39.9728 33.23 41.8174 33.473 42.574C33.7215 43.3362 34.1744 43.8222 34.8426 44.0431V44.4021C34.202 44.3689 33.6055 44.3413 33.0588 44.3247C32.5065 44.3082 31.9984 44.3026 31.5345 44.3026C31.0761 44.3026 30.5902 44.3082 30.0876 44.3247C29.5795 44.3358 29.0493 44.3634 28.4971 44.3965ZM36.0687 36.8415C37.0186 36.8415 37.7531 36.1677 38.2722 34.8312C38.7913 33.4947 39.0454 31.5673 39.0454 29.0655C39.0454 26.5141 38.7858 24.5701 38.2722 23.2391C37.7531 21.9081 37.0075 21.2399 36.0245 21.2399C35.0801 21.2399 34.3566 21.9137 33.8541 23.2557C33.3515 24.5977 33.103 26.5417 33.103 29.0655C33.103 31.5839 33.357 33.5113 33.8651 34.8423C34.3732 36.1733 35.1077 36.8415 36.0687 36.8415ZM44.43 25.393C44.43 23.9847 44.3416 23.0845 44.1704 22.7034C43.9992 22.3168 43.6679 22.0904 43.1708 22.0241V21.6376C44.1483 21.4553 45.0044 21.262 45.7444 21.0576C46.4844 20.8588 47.1085 20.649 47.6221 20.4281V29.7504C47.6221 32.0589 47.8099 33.7212 48.1854 34.7705C48.5555 35.8088 49.1519 36.3334 49.9693 36.3334C50.8142 36.3334 51.488 35.737 52.0016 34.5496C52.5097 33.3622 52.7637 31.7661 52.7637 29.7559V25.393C52.7637 23.9847 52.6754 23.0845 52.5042 22.7034C52.333 22.3168 52.0016 22.0904 51.5046 22.0241V21.6376C52.3606 21.4664 53.1669 21.2786 53.9235 21.0742C54.6856 20.8754 55.387 20.66 56.0442 20.4281C56.0276 21.2013 56.0166 21.9358 56.0111 22.6316C56.0056 23.333 56 23.9736 56 24.559V29.8663C56 32.7216 56.105 34.6269 56.3148 35.5768C56.5247 36.5322 56.9113 37.1066 57.4746 37.2888V37.8632C56.7677 37.8411 56.1988 37.8245 55.7626 37.8135C55.3263 37.8024 54.9121 37.7969 54.531 37.7969H53.3602C53.2277 37.1342 53.1282 36.5709 53.0509 36.0959C52.9736 35.621 52.9129 35.1792 52.8687 34.7705C52.4986 35.9303 51.985 36.8028 51.3168 37.3938C50.6596 37.9792 49.8478 38.2719 48.8979 38.2719C47.4012 38.2719 46.2801 37.5926 45.5401 36.2395C44.8 34.881 44.4245 32.832 44.4245 30.0983V25.393H44.43ZM59.1866 18.462C59.1866 17.0372 59.0982 16.1314 58.927 15.7448C58.7558 15.3582 58.4245 15.1263 57.9274 15.06V14.7066C58.8055 14.5464 59.6284 14.3642 60.3795 14.1598C61.1361 13.961 61.832 13.7456 62.4671 13.5137C62.445 14.1764 62.4284 15.0158 62.4174 16.0375C62.4063 17.0592 62.4008 18.2411 62.4008 19.5997V31.1311C62.4008 33.6604 62.5002 35.3007 62.7046 36.0407C62.9089 36.7918 63.2844 37.2778 63.8312 37.5098L63.8202 37.9018C63.4612 37.8687 63.0691 37.8411 62.6383 37.8245C62.2075 37.808 61.5724 37.8024 60.744 37.8024C60.004 37.8024 59.4131 37.808 58.9878 37.8245C58.557 37.8411 58.1483 37.8687 57.7562 37.9018V37.5098C58.303 37.2391 58.6785 36.7421 58.8829 36.0186C59.0872 35.2951 59.1866 33.7598 59.1866 31.4017V30.032V18.462ZM65.5267 18.462C65.5267 17.0372 65.4383 16.1314 65.2671 15.7448C65.0959 15.3582 64.7645 15.1263 64.2675 15.06V14.7066C65.1456 14.5464 65.9685 14.3642 66.7196 14.1598C67.4762 13.961 68.172 13.7456 68.8071 13.5137C68.785 14.1764 68.7685 15.0158 68.7575 16.0375C68.7464 17.0592 68.7409 18.2411 68.7409 19.5997V31.1311C68.7409 33.6604 68.8403 35.3007 69.0446 36.0407C69.2489 36.7918 69.6245 37.2778 70.1713 37.5098L70.1602 37.9018C69.8012 37.8687 69.4091 37.8411 68.9783 37.8245C68.5476 37.808 67.9125 37.8024 67.0841 37.8024C66.344 37.8024 65.7531 37.808 65.3279 37.8245C64.8971 37.8411 64.4884 37.8687 64.0963 37.9018V37.5098C64.6431 37.2391 65.0186 36.7421 65.2229 36.0186C65.4273 35.2951 65.5267 33.7598 65.5267 31.4017V30.032V18.462ZM77.4612 37.195C78.4718 37.195 79.2395 36.5101 79.7642 35.1405C80.2888 33.7653 80.5484 31.7386 80.5484 29.06C80.5484 26.4092 80.2888 24.4099 79.7642 23.0458C79.245 21.6817 78.4773 21.0024 77.4612 21.0024C76.4726 21.0024 75.716 21.6873 75.1969 23.0569C74.6778 24.432 74.4182 26.4202 74.4182 29.0269C74.4182 31.7054 74.6777 33.7378 75.1914 35.1239C75.7105 36.5101 76.4671 37.195 77.4612 37.195ZM70.7787 29.1429C70.7787 26.4091 71.3973 24.2056 72.6288 22.5212C73.8604 20.8368 75.4841 19.9973 77.4998 19.9973C79.4825 19.9973 81.0896 20.8368 82.3156 22.5212C83.5416 24.2056 84.1547 26.3926 84.1547 29.0987C84.1547 31.8214 83.5362 34.0194 82.2991 35.6928C81.062 37.3717 79.4328 38.2111 77.406 38.2111C75.4565 38.2111 73.8659 37.3606 72.6288 35.6541C71.3973 33.9476 70.7787 31.7772 70.7787 29.1429Z" fill="#E30613"/>
<path fill-rule="evenodd" clip-rule="evenodd" d="M42.4194 16.9215C49.3891 18.2083 52.8021 13.8951 54.3042 6.43945C49.8585 8.0576 45.5839 15.0051 42.4194 16.9215Z" fill="#009640"/>
<path fill-rule="evenodd" clip-rule="evenodd" d="M41.2486 16.9215C34.279 18.2083 30.8659 13.8951 29.3638 6.43945C33.8151 8.0576 38.0896 15.0051 41.2486 16.9215Z" fill="#009640"/>
<path fill-rule="evenodd" clip-rule="evenodd" d="M41.8289 0C39.9125 0.0773176 39.7578 3.05957 37.3168 2.72821C36.1239 2.35819 35.5772 0.872579 34.6218 1.78934C34.0474 2.65088 33.7216 4.77714 34.064 6.83158C34.4948 9.16215 38.4932 13.9337 41.6577 16.5625C44.1208 14.6627 47.7823 11.6253 49.1354 7.27339C49.8368 5.0864 49.4281 1.8722 48.0529 1.61263C46.606 1.61263 46.8876 3.22526 45.8218 2.96017C43.5685 3.05958 44.0159 0.0828403 41.8289 0Z" fill="#E30613"/>
<path fill-rule="evenodd" clip-rule="evenodd" d="M83.0223 18.0859C83.8121 18.0859 84.4582 18.7155 84.4582 19.4942C84.4582 20.2729 83.8176 20.9025 83.0223 20.9025C82.2326 20.9025 81.5864 20.2729 81.5864 19.4942C81.5864 18.7155 82.2326 18.0859 83.0223 18.0859ZM83.0223 18.3455C83.6685 18.3455 84.1931 18.8591 84.1931 19.4942C84.1931 20.1293 83.6685 20.6429 83.0223 20.6429C82.3762 20.6429 81.8515 20.1293 81.8515 19.4942C81.8515 18.8591 82.3762 18.3455 83.0223 18.3455Z" fill="#E30613"/>
<path d="M82.3154 20.2969V18.6953H83.0279C83.1715 18.6953 83.2819 18.7119 83.3537 18.7395C83.4255 18.7671 83.4863 18.8168 83.5305 18.8941C83.5746 18.9659 83.5967 19.0488 83.5967 19.1371C83.5967 19.2531 83.558 19.347 83.4862 19.4243C83.4144 19.5016 83.2985 19.5513 83.1438 19.5734C83.1991 19.601 83.2433 19.6286 83.2709 19.6507C83.3317 19.706 83.3924 19.7778 83.4476 19.8661L83.7237 20.3024H83.4587L83.2488 19.9711C83.188 19.8772 83.1383 19.7998 83.0941 19.7501C83.0555 19.7004 83.0169 19.6618 82.9892 19.6452C82.9561 19.6231 82.9229 19.6121 82.8898 19.601C82.8677 19.5955 82.8291 19.5955 82.7739 19.5955H82.5253V20.3079H82.3154V20.2969ZM82.5308 19.4022H82.9892C83.0831 19.4022 83.1604 19.3912 83.2156 19.3746C83.2709 19.3525 83.3096 19.3249 83.3427 19.2807C83.3703 19.2365 83.3869 19.1868 83.3869 19.1371C83.3869 19.0598 83.3592 18.9991 83.304 18.9494C83.2488 18.8997 83.1604 18.8776 83.0445 18.8776H82.5364V19.4022H82.5308Z" fill="#E30613"/>
</svg>
