<svg width="138" height="56" viewBox="0 0 138 56" fill="none" xmlns="http://www.w3.org/2000/svg">
<path d="M127.001 38.3932C125.825 40.5715 123.952 41.0121 122.402 41.0346C121.582 41.0441 120.725 40.8644 120.013 40.517C116.845 38.9886 116.741 34.8496 116.752 33.1051C116.741 31.3027 116.907 28.8599 117.995 27.2525C119.41 25.0335 121.636 24.9528 122.448 24.9512C124.768 24.9662 125.971 25.9598 126.757 27.1943C127.778 28.9363 127.973 31.8082 127.967 32.8417C127.967 32.9833 127.973 33.157 127.973 33.3572C127.989 34.5348 127.808 36.8737 127.001 38.3932ZM130.972 23.9452C128.889 21.6273 125.784 20.6387 122.668 20.6387C118.107 20.6343 115.39 22.4971 114.073 23.8299C110.947 26.9347 110.882 31.3411 110.877 33.0168C110.885 34.4714 110.904 39.021 114.076 42.2132C115.581 43.7337 118.245 45.2427 122.362 45.2427H122.388C125.546 45.2427 128.306 44.5058 130.377 42.4757C131.897 40.9787 132.888 39.1927 133.389 36.9884C133.707 35.6201 133.799 34.1585 133.799 32.6645C133.707 29.551 133.123 26.3904 130.972 23.9452Z" fill="#CF142B"/>
<path d="M22.8871 37.7746L22.6286 37.9722C21.3666 38.8964 19.0537 40.4843 15.3101 40.4947C9.84978 40.4489 5.88748 37.0366 5.83104 29.0881C5.88748 22.0202 9.22299 17.6732 15.5565 17.6408C19.0742 17.6433 21.0622 18.9516 21.8637 19.4876L22.8831 14.2997C21.4998 13.7788 19.0183 12.8945 15.1523 12.8945C12.1767 12.8945 7.52129 13.3387 3.87897 17.4811C0.155318 21.7168 4.84903e-06 27.0531 4.84903e-06 29.175C-0.0029657 34.046 1.35896 38.0172 3.92141 40.8726C6.47381 43.7394 10.2235 45.2414 14.8604 45.2414H14.8783C19.1415 45.2414 21.8417 43.9714 22.8997 43.3975L22.8871 37.7746Z" fill="#CF142B"/>
<path d="M84.1333 21.0234V38.8074C83.2202 39.6237 81.5449 40.797 79.4061 40.797C77.4454 40.767 76.5742 39.9706 76.0602 38.9177C75.5591 37.8527 75.4529 36.4929 75.4529 35.6002V21.0234H70.4262V34.1575C70.4262 37.4774 70.3279 41.28 73.2227 43.7132C74.6939 44.888 76.4884 45.2417 78.192 45.2417H78.2075C81.0074 45.2417 83.0465 44.076 84.2397 43.2496L84.2172 44.7871H89.6169V21.0234H84.1333Z" fill="#CF142B"/>
<path d="M37.9835 39.2374C37.0688 39.7544 36.0898 40.8483 34.0567 40.8483C32.3481 40.8313 31.5771 40.0762 31.146 39.2374C30.7437 38.3956 30.7014 37.4998 30.7014 37.4135C30.7184 35.6669 31.5681 34.7971 32.883 34.1119C34.1576 33.4732 35.697 33.1558 37.9835 32.8479V39.2374ZM42.3659 25.7665C41.4797 22.142 38.4371 20.953 35.441 20.9729C33.4204 20.9729 31.1275 21.2903 27.9304 22.7095V27.6097C29.7602 26.1317 32.3117 25.3144 34.6246 25.3144C36.4661 25.3303 37.1103 26.0184 37.4441 26.6403C37.6911 27.1122 37.7241 27.7455 37.7325 28.6771L37.4631 28.7096C33.896 29.1651 30.9658 29.8448 28.8676 31.2137C26.7617 32.5604 25.5532 34.6763 25.569 37.6725C25.569 39.8966 26.2866 41.7839 27.5571 43.1387C28.8301 44.4916 30.6434 45.2416 32.7178 45.2416H32.7344C35.0763 45.2416 36.6132 44.3923 37.5235 43.6563V44.9348L42.5516 44.9302V31.2342C42.5516 29.4241 42.6539 27.0798 42.3659 25.7665Z" fill="#CF142B"/>
<path d="M53.5694 40.6588C53.2236 40.6588 52.9217 40.6323 52.6398 40.6068L52.6368 26.8634C53.6079 26.2387 54.9537 25.5486 56.7233 25.5486C59.8696 25.5661 62.0229 27.9618 62.0608 32.2617C62.0115 37.3293 59.0437 40.6149 53.5694 40.6588ZM67.7916 31.9658C67.7801 25.7122 63.7495 20.9616 57.9779 20.9531C55.5915 20.9531 53.819 21.7381 52.6418 22.4632V21.1737L46.665 21.1553V55.2941H52.6298L52.6398 44.8321C59.0552 44.8321 61.9345 43.2991 64.2869 40.9383C66.6353 38.5744 67.8005 35.3996 67.7916 31.9658Z" fill="#CF142B"/>
<path d="M99.7102 9.44141L93.7266 11.0432V44.7864H99.7163L99.7102 9.44141Z" fill="#CF142B"/>
<path d="M108.427 9.44141L102.413 11.0432V44.7864H108.474L108.427 9.44141Z" fill="#CF142B"/>
<path fill-rule="evenodd" clip-rule="evenodd" d="M55.7998 9.34421C55.7998 11.9795 57.9362 14.1149 60.5719 14.1149C63.2074 14.1149 65.344 11.9795 65.344 9.34421C65.344 0.59694 55.7998 0 55.7998 0V9.34421Z" fill="url(#paint0_linear_1115_1441)"/>
<path d="M57.3942 51.7973L56.9814 51.9289V51.2249L57.6003 51.0293H58.0994V55.0698H57.3942V51.7973Z" fill="#CF142B"/>
<path d="M60.5052 53.1668V52.9601C60.5052 51.8254 60.368 51.6418 60.2073 51.6418C60.0412 51.6418 59.9034 51.8254 59.9034 52.9601V53.1668C59.9034 54.3006 60.0412 54.4846 60.2073 54.4846C60.368 54.4846 60.5052 54.3006 60.5052 53.1668ZM59.2158 53.1722V52.9542C59.2158 51.5674 59.5591 51 60.2073 51C60.8431 51 61.1985 51.5674 61.1985 52.9542V53.1722C61.1985 54.5584 60.8431 55.1264 60.2073 55.1264C59.5591 55.1264 59.2158 54.5584 59.2158 53.1722Z" fill="#CF142B"/>
<path d="M63.4907 53.1668V52.9601C63.4907 51.8254 63.3529 51.6418 63.1922 51.6418C63.026 51.6418 62.8884 51.8254 62.8884 52.9601V53.1668C62.8884 54.3006 63.026 54.4846 63.1922 54.4846C63.3529 54.4846 63.4907 54.3006 63.4907 53.1668ZM62.2012 53.1722V52.9542C62.2012 51.5674 62.5449 51 63.1922 51C63.8289 51 64.1838 51.5674 64.1838 52.9542V53.1722C64.1838 54.5584 63.8289 55.1264 63.1922 55.1264C62.5449 55.1264 62.2012 54.5584 62.2012 53.1722Z" fill="#CF142B"/>
<path d="M67.701 54.0895V53.9752C67.701 53.5509 67.6382 53.4252 67.5294 53.4252C67.4206 53.4252 67.3576 53.5509 67.3576 53.9752V54.0895C67.3576 54.5135 67.4206 54.6399 67.5294 54.6399C67.6382 54.6399 67.701 54.5135 67.701 54.0895ZM66.8876 54.0954V53.9692C66.8876 53.3448 67.1397 52.9607 67.5294 52.9607C67.9191 52.9607 68.1712 53.3448 68.1712 53.9692V54.0954C68.1712 54.7202 67.9191 55.104 67.5294 55.104C67.1397 55.104 66.8876 54.7202 66.8876 54.0954ZM66.0049 52.1527V52.038C66.0049 51.6137 65.942 51.4876 65.8332 51.4876C65.7244 51.4876 65.661 51.6137 65.661 52.038V52.1527C65.661 52.5769 65.7244 52.7032 65.8332 52.7032C65.942 52.7032 66.0049 52.5769 66.0049 52.1527ZM66.8471 53.1438L67.8273 51.0584H67.4206L66.5263 52.9836L65.5462 55.0695H65.9534L66.8471 53.1438ZM65.1914 52.1588V52.0324C65.1914 51.4076 65.4435 51.0234 65.8332 51.0234C66.2225 51.0234 66.475 51.4076 66.475 52.0324V52.1588C66.475 52.7836 66.2225 53.1672 65.8332 53.1672C65.4435 53.1672 65.1914 52.7836 65.1914 52.1588Z" fill="#CF142B"/>
<path d="M79.2139 53.1615C79.5063 53.1445 79.7304 52.9323 79.7304 52.4453V52.4338C79.7304 51.9239 79.5353 51.7057 79.2315 51.7057H79.2084V53.1615H79.2139ZM78.5098 51.0586H79.1346C79.8962 51.0586 80.4296 51.4708 80.4296 52.4109V52.4224C80.4296 53.3275 79.925 53.7573 79.2139 53.8096H79.2084V55.0697H78.5098V51.0586Z" fill="#CF142B"/>
<path d="M81.4312 53.901V51.0586H82.1247V53.9694C82.1247 54.3301 82.251 54.4734 82.4281 54.4734C82.6058 54.4734 82.7315 54.3301 82.7315 53.9694V51.0586H83.4252V53.901C83.4252 54.7429 83.001 55.1212 82.4281 55.1212C81.8558 55.1212 81.4312 54.7429 81.4312 53.901Z" fill="#CF142B"/>
<path d="M85.2878 53.0417C85.5911 53.0417 85.8151 52.8636 85.8151 52.3935V52.3475C85.8151 51.8435 85.5741 51.7118 85.2708 51.7118H85.2533V53.0417H85.2878ZM84.5542 51.0586H85.2762C85.9924 51.0586 86.5138 51.4369 86.5138 52.3366V52.3874C86.5138 52.909 86.3077 53.2418 86.0443 53.443L86.5832 55.0697H85.8382L85.3845 53.6714H85.2533V55.0697H84.5542V51.0586Z" fill="#CF142B"/>
<path d="M71.6158 54.428C71.9476 54.428 72.2341 54.1355 72.2341 53.133V52.9953C72.2341 51.9922 71.9476 51.7004 71.6158 51.7004H71.5868V54.428H71.6158ZM70.8877 51.0586H71.5414C72.4351 51.0586 72.9452 51.7059 72.9452 52.9953V53.133C72.9452 54.422 72.4351 55.0697 71.5414 55.0697H70.8877V51.0586Z" fill="#CF142B"/>
<path d="M74.0156 51.0586H75.5515V51.7233H74.7153V52.7204H75.4542V53.3851H74.7153V54.4051H75.5691V55.0698H74.0156V51.0586Z" fill="#CF142B"/>
<path d="M92.0293 53.1331V52.9954C92.0293 51.5852 92.5509 51.0293 93.2041 51.0293C93.3986 51.0293 93.5139 51.0528 93.6621 51.1211V51.8432C93.5194 51.7574 93.4047 51.7114 93.2728 51.7114C92.9635 51.7114 92.7394 51.9869 92.7394 52.9894V53.1387C92.7394 54.199 92.9635 54.4166 93.2843 54.4166C93.3932 54.4166 93.5308 54.3763 93.6741 54.2904V54.978C93.5139 55.0698 93.3587 55.0982 93.1581 55.0982C92.5163 55.0982 92.0293 54.5314 92.0293 53.1331Z" fill="#CF142B"/>
<path d="M95.8851 53.6448L95.6725 52.3214L95.455 53.6448H95.8851ZM95.3122 51.0488H96.0573L96.8193 55.0715H96.1202L95.988 54.275H95.3521L95.226 55.0715H94.5498L95.3122 51.0488Z" fill="#CF142B"/>
<path d="M97.7588 51.0586H98.412L99.1172 53.0872V51.0586H99.7984V55.0698H99.1796L98.4405 52.9435V55.0698H97.7588V51.0586Z" fill="#CF142B"/>
<path d="M102.29 53.1668V52.9601C102.29 51.9282 102.147 51.6418 101.935 51.6418C101.723 51.6418 101.58 51.9282 101.58 52.9601V53.1668C101.58 54.1977 101.723 54.4846 101.935 54.4846C102.147 54.4846 102.29 54.1977 102.29 53.1668ZM100.869 53.1668V52.9601C100.869 51.6367 101.299 51 101.935 51C102.571 51 103.001 51.6367 103.001 52.9601V53.1668C103.001 54.4901 102.571 55.1264 101.935 55.1264C101.299 55.1264 100.869 54.4901 100.869 53.1668Z" fill="#CF142B"/>
<path d="M104.072 51.0586H104.771V54.4051H105.511V55.0698H104.072V51.0586Z" fill="#CF142B"/>
<path d="M107.624 53.6448L107.413 52.3214L107.195 53.6448H107.624ZM107.052 51.0488H107.797L108.559 55.0715H107.86L107.728 54.275H107.092L106.966 55.0715H106.29L107.052 51.0488Z" fill="#CF142B"/>
<path d="M88.7758 53.6448L88.5638 52.3214L88.3462 53.6448H88.7758ZM88.2035 51.0488H88.948L89.71 55.0715H89.0113L88.8792 54.275H88.2434L88.1172 55.0715H87.4409L88.2035 51.0488Z" fill="#CF142B"/>
<path d="M136.047 22.9239C136.319 22.9239 136.473 22.7822 136.473 22.5812C136.473 22.3561 136.319 22.2378 136.047 22.2378H135.538V22.9239H136.047ZM135.136 21.8829H136.082C136.544 21.8829 136.887 22.1076 136.887 22.5456C136.887 22.8885 136.686 23.1016 136.402 23.1845L136.958 23.9773H136.473L135.976 23.2557H135.538V23.9773H135.136V21.8829ZM137.763 22.9713V22.9594C137.763 21.9538 136.982 21.1254 135.94 21.1254C134.911 21.1254 134.118 21.9658 134.118 22.9713V22.9833C134.118 23.9893 134.899 24.8177 135.94 24.8177C136.97 24.8177 137.763 23.9773 137.763 22.9713ZM133.881 22.9833V22.9713C133.881 21.847 134.792 20.9004 135.94 20.9004C137.1 20.9004 138 21.8351 138 22.9594V22.9713C138 24.0961 137.088 25.0427 135.94 25.0427C134.781 25.0427 133.881 24.1076 133.881 22.9833Z" fill="#CF142B"/>
<defs>
<linearGradient id="paint0_linear_1115_1441" x1="65.3439" y1="7.05745" x2="55.7999" y2="7.05745" gradientUnits="userSpaceOnUse">
<stop stop-color="#FFF7CA"/>
<stop offset="0.619608" stop-color="#FEE965"/>
<stop offset="1" stop-color="#FDDA00"/>
</linearGradient>
</defs>
</svg>
