<svg width="132" height="46" viewBox="0 0 132 46" fill="none" xmlns="http://www.w3.org/2000/svg">
<path d="M131.985 37.7435C131.985 37.6023 131.994 37.4594 132 37.3174V36.993C131.999 36.9699 131.997 36.9469 131.995 36.924V8.18102C131.998 8.06481 131.972 7.91264 131.972 7.79329C131.972 3.49641 128.506 0.0129854 124.226 0L124.259 0.00137007H7.75623V0.0302116C3.50183 0.0490699 0.0588587 3.48317 0.0142905 7.73854H0.00691685V37.5898C0.00691685 37.646 0.00019576 37.7384 0 37.7951V37.7978C0.0485486 42.0843 3.46007 45.559 7.75623 45.5672V45.5742L124.221 45.5483L124.259 45.5452C128.556 45.542 131.985 42.0503 131.985 37.7435Z" fill="#2957A4"/>
<path d="M61.0865 40.3754H57.2004V33.362C57.2004 33.0973 57.0858 32.9013 56.8665 32.7684C56.6375 32.654 56.3054 32.5877 55.8804 32.5877C55.6743 32.5877 55.4535 32.5937 55.2115 32.6097C54.9644 32.6422 54.7492 32.6705 54.594 32.7186V40.3754H50.7173V28.4141H54.594V31.4889C54.9239 31.3473 55.2983 31.2396 55.7391 31.184C56.1938 31.1137 56.6784 31.0815 57.2381 31.0815C58.4579 31.0815 59.4077 31.2726 60.0716 31.6476C60.7517 32.0309 61.0865 32.5771 61.0865 33.2852V40.3754Z" fill="#FEFEFE"/>
<path d="M69.4719 35.7695C69.4719 34.3087 69.4056 33.3959 69.2831 33.0299C69.1613 32.6828 68.8432 32.496 68.338 32.496C67.8335 32.496 67.5205 32.6828 67.3848 33.0579C67.2683 33.428 67.203 34.3443 67.203 35.8112C67.203 37.2362 67.2683 38.1246 67.4022 38.4908C67.5413 38.8653 67.852 39.0441 68.338 39.0441C68.7976 39.0441 69.0967 38.8557 69.2502 38.4578C69.3975 38.0672 69.4719 37.1672 69.4719 35.7695ZM73.5277 35.7651C73.5277 37.4029 73.0883 38.5878 72.2315 39.3376C71.3765 40.083 70.0735 40.4567 68.3126 40.4567C66.6031 40.4567 65.3071 40.0586 64.4497 39.2758C63.5779 38.4908 63.1582 37.3207 63.1582 35.7651C63.1582 34.1615 63.5722 32.9763 64.4128 32.2194C65.2487 31.457 66.5483 31.082 68.3126 31.082C70.1792 31.082 71.5105 31.4642 72.3129 32.239C73.1207 33.0043 73.5277 34.1782 73.5277 35.7651Z" fill="#FEFEFE"/>
<path d="M82.4221 32.3525H80.0348V38.0912C80.0348 38.5135 80.1814 38.7947 80.469 38.9418C80.76 39.0837 81.3095 39.1487 82.1191 39.1487V40.3754H79.9002C78.6499 40.3754 77.7052 40.1974 77.065 39.8392C76.4276 39.4751 76.1021 38.9256 76.1021 38.1798V32.3525H74.6021V31.2196H76.1021V28.4141H80.0348V31.2196H82.4221V32.3525Z" fill="#FEFEFE"/>
<path d="M90.2977 34.5818C90.2977 33.7782 90.2292 33.228 90.079 32.935C89.9371 32.6546 89.6011 32.496 89.0843 32.496C88.5798 32.496 88.2501 32.6228 88.0913 32.8858C87.9401 33.1467 87.8644 33.7119 87.8644 34.5818H90.2977ZM93.5252 35.9092H87.8553C87.8553 37.2559 87.9401 38.1154 88.119 38.4832C88.2998 38.8612 88.6697 39.0441 89.2311 39.0441C89.6155 39.0441 89.892 38.9746 90.0681 38.8323C90.2581 38.6907 90.3607 38.4411 90.3607 38.0994H93.1256C93.1256 38.9053 92.7737 39.5043 92.0627 39.8874C91.357 40.2659 90.2671 40.4567 88.783 40.4567C87.1549 40.4567 85.9258 40.0586 85.0725 39.2758C84.2302 38.4908 83.8081 37.3207 83.8081 35.7651C83.8081 34.2178 84.2457 33.0482 85.1273 32.2586C86.0055 31.4784 87.3264 31.082 89.0982 31.082C90.6082 31.082 91.7341 31.3995 92.4424 32.0314C93.149 32.6584 93.5252 33.6075 93.5252 34.8692V35.9092Z" fill="#FEFEFE"/>
<path d="M101.197 40.3754H98.7551C97.7912 40.3754 97.0595 40.2161 96.5708 39.9107C96.0658 39.6053 95.8291 39.1447 95.8291 38.5298V28.4141H99.7065V38.4496C99.7065 38.7098 99.8028 38.8888 100.007 38.9954C100.208 39.1047 100.603 39.1487 101.197 39.1487V40.3754Z" fill="#FEFEFE"/>
<path d="M108.999 34.5818C108.999 33.7782 108.927 33.228 108.787 32.935C108.64 32.6546 108.304 32.496 107.783 32.496C107.281 32.496 106.964 32.6228 106.806 32.8858C106.647 33.1467 106.572 33.7119 106.572 34.5818H108.999ZM112.227 35.9092H106.557C106.557 37.2559 106.647 38.1154 106.826 38.4832C107.009 38.8612 107.379 39.0441 107.937 39.0441C108.321 39.0441 108.592 38.9746 108.787 38.8323C108.967 38.6907 109.065 38.4411 109.065 38.0994H111.834C111.834 38.9053 111.488 39.5043 110.777 39.8874C110.067 40.2659 108.981 40.4567 107.491 40.4567C105.865 40.4567 104.634 40.0586 103.783 39.2758C102.936 38.4908 102.516 37.3207 102.516 35.7651C102.516 34.2178 102.961 33.0482 103.836 32.2586C104.709 31.4784 106.026 31.082 107.795 31.082C109.318 31.082 110.433 31.3995 111.147 32.0314C111.863 32.6584 112.227 33.6075 112.227 34.8692V35.9092Z" fill="#FEFEFE"/>
<path d="M122.766 37.9852C122.766 38.7721 122.377 39.3779 121.567 39.8088C120.786 40.2494 119.695 40.4567 118.312 40.4567C116.836 40.4567 115.715 40.2585 114.962 39.8559C114.212 39.4547 113.832 38.8557 113.832 38.0458H116.965C116.965 38.3713 117.072 38.6165 117.283 38.7632C117.487 38.9186 117.801 38.9862 118.194 38.9862C118.597 38.9862 118.88 38.93 119.084 38.8123C119.279 38.6907 119.384 38.5022 119.384 38.2667C119.384 38.0505 119.178 37.8103 118.77 37.559C118.354 37.3087 117.675 36.9463 116.763 36.4751C115.568 35.8796 114.822 35.3615 114.497 34.9234C114.19 34.4793 114.034 33.9329 114.034 33.2858C114.034 32.6103 114.422 32.0845 115.215 31.686C116.029 31.2825 117.072 31.082 118.375 31.082C119.771 31.082 120.836 31.2849 121.567 31.6923C122.31 32.0959 122.676 32.6711 122.676 33.4122H119.542C119.542 33.1434 119.442 32.9179 119.238 32.7518C119.034 32.5883 118.754 32.496 118.393 32.496C118.089 32.496 117.837 32.5523 117.625 32.6711C117.431 32.7882 117.333 32.9557 117.333 33.1716C117.333 33.428 117.439 33.6636 117.675 33.8963C117.919 34.1317 118.659 34.5649 119.882 35.1912C120.968 35.7365 121.714 36.2251 122.138 36.6337C122.553 37.0437 122.766 37.4927 122.766 37.9852Z" fill="#FEFEFE"/>
<path d="M56.6308 13.6926C56.6308 12.593 56.5527 11.8432 56.4142 11.4333C56.2728 11.0244 55.9434 10.8231 55.4211 10.8231C54.924 10.8231 54.6025 11.0058 54.4509 11.3647C54.3023 11.7231 54.2201 12.5041 54.2201 13.6926H56.6308ZM59.7951 15.5037H54.2119C54.2119 17.3564 54.3023 18.5283 54.4784 19.0367C54.652 19.5456 55.0223 19.7937 55.5903 19.7937C55.9724 19.7937 56.2535 19.6975 56.4367 19.5079C56.6242 19.3155 56.718 18.985 56.718 18.5137H59.4505C59.4505 19.6206 59.0943 20.431 58.3945 20.9563C57.6949 21.4739 56.614 21.7419 55.1473 21.7419C53.5318 21.7419 52.302 21.1977 51.4625 20.1201C50.6281 19.0441 50.2104 17.431 50.2104 15.3002C50.2104 13.1746 50.644 11.5779 51.5048 10.4976C52.3771 9.41953 53.6802 8.88086 55.4235 8.88086C56.9245 8.88086 58.0296 9.31179 58.7375 10.1786C59.4441 11.0488 59.7951 12.3517 59.7951 14.0838V15.5037Z" fill="#FFDD21"/>
<path d="M71.4975 21.6046H67.6703V17.1792L65.9944 15.8339L65.1162 16.5112V21.6046H61.2983V17.9671C61.2983 17.7825 61.3815 17.5703 61.5524 17.3315C61.7279 17.0971 61.956 16.8774 62.2308 16.6664L64.6913 14.7915L61.5604 12.2671V9.05273H65.3842V11.7746L66.9834 13.0609L67.5451 12.6362V9.05273H71.2816V10.9375C71.2816 11.2002 71.2054 11.4717 71.0588 11.7488C70.9184 12.029 70.695 12.2829 70.3908 12.5105L68.2604 14.0992L71.4975 16.7247V21.6046Z" fill="#FFDD21"/>
<path d="M79.5559 15.0543C79.5559 14.3842 79.5425 13.8073 79.52 13.3267C79.4975 12.8532 79.4531 12.4385 79.3908 12.0845C79.3163 11.7027 79.1864 11.424 78.986 11.2359C78.8019 11.0488 78.5028 10.9548 78.1125 10.9548C78.0317 10.9548 78.0317 10.9475 78.1022 10.9295C78.1829 10.9104 77.8637 10.9688 77.1368 11.09V19.6182C77.2736 19.7096 77.4232 19.7684 77.59 19.7937C77.7558 19.826 77.9855 19.8357 78.2713 19.8357C78.5906 19.8357 78.8723 19.7445 79.0905 19.5526C79.3163 19.3582 79.4282 19.0792 79.4282 18.7244C79.449 18.4815 79.4745 17.9463 79.5108 17.1218C79.5391 16.2961 79.5559 15.6073 79.5559 15.0543ZM83.5643 15.021C83.5643 15.6664 83.5459 16.2516 83.5169 16.7724C83.4899 17.2948 83.4378 17.85 83.3668 18.4361C83.2439 19.4046 82.8322 20.1777 82.1302 20.7468C81.4224 21.3196 80.5084 21.6053 79.3751 21.6053C78.7868 21.6053 78.3031 21.5825 77.9278 21.5334C77.5438 21.4739 77.2858 21.4039 77.1368 21.3074V24.9223H73.342L73.312 9.05346H76.4792L76.6784 9.62338C77.1196 9.33927 77.5999 9.14475 78.1125 9.03982C78.6264 8.9315 79.1944 8.88086 79.8186 8.88086C80.8329 8.88086 81.644 9.12837 82.237 9.63532C82.8322 10.1416 83.208 10.8586 83.353 11.7798C83.4199 12.1267 83.469 12.5954 83.5083 13.1908C83.54 13.7811 83.5643 14.3905 83.5643 15.021Z" fill="#FFDD21"/>
<path d="M92.8602 11.7495C92.5507 11.6534 92.2473 11.5779 91.9431 11.5215C91.6416 11.4707 91.3167 11.4436 90.9765 11.4436C90.6147 11.4436 90.2636 11.4635 89.9187 11.5005C89.5741 11.5362 89.3281 11.6111 89.1775 11.714V21.6053H85.3457V9.05346H88.4725L88.7162 9.58162C89.0678 9.33927 89.4869 9.15969 89.9626 9.04935C90.432 8.93417 90.9531 8.88086 91.5273 8.88086C91.7721 8.88086 92.0025 8.89946 92.2311 8.94592C92.4534 8.9929 92.6632 9.05144 92.8602 9.12837V11.7495Z" fill="#FFDD21"/>
<path d="M99.7852 13.6926C99.7852 12.593 99.7114 11.8432 99.5683 11.4333C99.4234 11.0244 99.0957 10.8231 98.571 10.8231C98.0768 10.8231 97.7519 11.0058 97.6053 11.3647C97.4505 11.7231 97.3775 12.5041 97.3775 13.6926H99.7852ZM102.953 15.5037H97.3632C97.3632 17.3564 97.4505 18.5283 97.6323 19.0367C97.8069 19.5456 98.1759 19.7937 98.7492 19.7937C99.1227 19.7937 99.4044 19.6975 99.5926 19.5079C99.7789 19.3155 99.8725 18.985 99.8725 18.5137H102.594C102.594 19.6206 102.243 20.431 101.548 20.9563C100.846 21.4739 99.7608 21.7419 98.2938 21.7419C96.6809 21.7419 95.4614 21.1977 94.6162 20.1201C93.7764 19.0441 93.3589 17.431 93.3589 15.3002C93.3589 13.1746 93.7954 11.5779 94.6621 10.4976C95.5271 9.41953 96.8348 8.88086 98.5773 8.88086C100.08 8.88086 101.183 9.31179 101.885 10.1786C102.591 11.0488 102.953 12.3517 102.953 14.0838V15.5037Z" fill="#FFDD21"/>
<path d="M113.026 18.3638C113.026 19.4258 112.634 20.2585 111.848 20.8489C111.073 21.4443 109.999 21.742 108.642 21.742C107.182 21.742 106.077 21.4602 105.339 20.9121C104.595 20.3586 104.229 19.5311 104.229 18.4265H107.309C107.309 18.8758 107.405 19.1964 107.611 19.3959C107.818 19.6063 108.118 19.7097 108.526 19.7097C108.907 19.7097 109.195 19.6305 109.392 19.4654C109.584 19.3042 109.68 19.0624 109.68 18.7418C109.68 18.4443 109.481 18.118 109.077 17.7687C108.673 17.4173 108.007 16.9198 107.093 16.2772C105.92 15.4594 105.18 14.7517 104.866 14.1494C104.561 13.54 104.403 12.7943 104.403 11.9066C104.403 10.9855 104.797 10.2492 105.581 9.70267C106.369 9.15246 107.405 8.875 108.695 8.875C110.066 8.875 111.12 9.15676 111.846 9.7171C112.571 10.2798 112.929 11.0742 112.929 12.1053H109.854C109.854 11.7232 109.754 11.4142 109.554 11.1773C109.347 10.9425 109.069 10.8231 108.709 10.8231C108.407 10.8231 108.151 10.9003 107.956 11.0649C107.754 11.2218 107.655 11.4496 107.655 11.7496C107.655 12.0962 107.772 12.4296 108.007 12.746C108.243 13.0716 108.971 13.6602 110.184 14.5269C111.25 15.2866 111.994 15.9425 112.404 16.4961C112.813 17.0561 113.026 17.6723 113.026 18.3638Z" fill="#FFDD21"/>
<path d="M122.774 18.3638C122.774 19.4258 122.382 20.2585 121.607 20.8489C120.819 21.4443 119.752 21.742 118.394 21.742C116.931 21.742 115.826 21.4602 115.087 20.9121C114.35 20.3586 113.98 19.5311 113.98 18.4265H117.053C117.053 18.8758 117.152 19.1964 117.365 19.3959C117.566 19.6063 117.872 19.7097 118.273 19.7097C118.661 19.7097 118.949 19.6305 119.143 19.4654C119.328 19.3042 119.435 19.0624 119.435 18.7418C119.435 18.4443 119.23 18.118 118.825 17.7687C118.419 17.4173 117.762 16.9198 116.841 16.2772C115.668 15.4594 114.934 14.7517 114.621 14.1494C114.308 13.54 114.152 12.7943 114.152 11.9066C114.152 10.9855 114.548 10.2492 115.331 9.70267C116.119 9.15246 117.152 8.875 118.448 8.875C119.815 8.875 120.87 9.15676 121.595 9.7171C122.326 10.2798 122.687 11.0742 122.687 12.1053H119.609C119.609 11.7232 119.501 11.4142 119.301 11.1773C119.103 10.9425 118.825 10.8231 118.463 10.8231C118.157 10.8231 117.9 10.9003 117.701 11.0649C117.505 11.2218 117.405 11.4496 117.405 11.7496C117.405 12.0962 117.523 12.4296 117.762 12.746C118.003 13.0716 118.72 13.6602 119.938 14.5269C121.003 15.2866 121.745 15.9425 122.159 16.4961C122.568 17.0561 122.774 17.6723 122.774 18.3638Z" fill="#FFDD21"/>
<path d="M17.2234 12.5983H12.9883C12.9883 11.8245 12.8996 11.3298 12.7278 11.1055C12.5522 10.8835 12.2599 10.7681 11.8482 10.7681C11.1593 10.7681 10.7279 11.096 10.5558 11.7451C10.3723 12.4039 10.2928 13.5805 10.2928 15.2917C10.2928 17.2608 10.3912 18.5094 10.5933 19.0351C10.7942 19.5651 11.2325 19.8296 11.9152 19.8296C12.3347 19.8296 12.6448 19.7429 12.8515 19.5741C13.0563 19.4081 13.1895 19.044 13.2599 18.4893H16.8413C16.8413 19.619 16.3896 20.4481 15.4954 20.988C14.601 21.5242 13.2552 21.7889 11.4648 21.7889C9.43926 21.7889 7.90639 21.2485 6.85588 20.1584C5.80686 19.0659 5.2832 17.4433 5.2832 15.2849C5.2832 13.1451 5.82552 11.5346 6.91206 10.4422C8.00212 9.35177 9.63437 8.80664 11.823 8.80664C13.56 8.80664 14.8935 9.11777 15.8291 9.74636C16.7595 10.3738 17.2234 11.3255 17.2234 12.5983Z" fill="#FEFEFE"/>
<path d="M18.4639 21.7204H23.2473V9.04102H18.4639V21.7204Z" fill="#FEFEFE"/>
<path d="M34.2997 10.6276H31.3272V18.5273C31.3272 19.1079 31.503 19.5019 31.8622 19.6965C32.2181 19.8959 32.9051 19.999 33.9081 19.999V21.694H31.1801C29.6298 21.694 28.4634 21.4502 27.6714 20.9459C26.8787 20.4486 26.4848 19.6855 26.4848 18.6557V10.6276H24.666V9.02027H26.4848V5.13867H31.3272V9.02027H34.2997V10.6276Z" fill="#FEFEFE"/>
<path d="M48.2603 21.2872C48.2603 22.5577 47.6598 23.5258 46.4601 24.1871C45.2546 24.8425 43.5109 25.1756 41.2183 25.1756C40.3606 25.1756 39.4889 25.1266 38.6142 25.0209C37.7265 24.9177 36.9325 24.7633 36.2121 24.5475L36.707 23.0757C37.4591 23.2216 38.1567 23.3267 38.7883 23.3874C39.4159 23.451 40.0417 23.4787 40.6611 23.4787C41.6854 23.4787 42.4469 23.3039 42.9366 22.9404C43.427 22.5837 43.6732 22.0351 43.6732 21.3055C43.6732 21.2148 43.6514 21.0883 43.624 20.9334C43.5951 20.779 43.5861 20.6688 43.5861 20.6168L43.0517 21.0694H39.8797L35.4995 17.6808V9.01953H40.2842V17.886L42.4283 19.5836L43.4738 18.6486V9.01953H48.2603V21.2872Z" fill="#FEFEFE"/>
<path d="M18.3564 7.84818H23.3673V5.11719H18.3564V7.84818Z" fill="#FEFEFE"/>
<path d="M124.63 19.9322H124.982C125.146 19.9322 125.259 19.9091 125.314 19.855C125.379 19.8061 125.411 19.7406 125.411 19.6583C125.411 19.6118 125.395 19.562 125.371 19.5194C125.339 19.4808 125.297 19.4474 125.247 19.4262C125.197 19.405 125.103 19.3934 124.963 19.3934H124.63V19.9322ZM124.347 20.9309V19.155H124.958C125.164 19.155 125.314 19.1709 125.411 19.2062C125.503 19.2364 125.582 19.2928 125.635 19.375C125.686 19.4564 125.717 19.5461 125.717 19.6398C125.717 19.7665 125.672 19.8814 125.582 19.9751C125.48 20.0708 125.36 20.1268 125.208 20.1341C125.267 20.1604 125.314 20.1924 125.36 20.2353C125.433 20.3008 125.521 20.4177 125.623 20.5813L125.836 20.9309H125.485L125.332 20.6497C125.208 20.4314 125.106 20.2984 125.034 20.2417C124.982 20.1924 124.902 20.1782 124.801 20.1782H124.63V20.9309H124.347ZM125.071 18.6432C124.841 18.6432 124.609 18.6975 124.39 18.8195C124.176 18.9416 124.005 19.1027 123.876 19.3306C123.755 19.5474 123.693 19.785 123.693 20.0195C123.693 20.2556 123.754 20.4834 123.876 20.704C123.998 20.9217 124.164 21.0953 124.39 21.2098C124.607 21.3364 124.832 21.3956 125.071 21.3956C125.304 21.3956 125.54 21.3364 125.755 21.2098C125.975 21.0953 126.143 20.9217 126.263 20.704C126.387 20.4834 126.444 20.2556 126.444 20.0195C126.444 19.785 126.387 19.5474 126.261 19.3306C126.135 19.1027 125.968 18.9416 125.747 18.8195C125.529 18.6975 125.304 18.6432 125.071 18.6432ZM125.071 18.3672C125.346 18.3672 125.619 18.4365 125.886 18.5798C126.143 18.7203 126.35 18.927 126.496 19.1898C126.65 19.4523 126.721 19.7312 126.721 20.0195C126.721 20.3024 126.65 20.5773 126.501 20.8372C126.357 21.1017 126.154 21.3037 125.896 21.4517C125.629 21.5986 125.358 21.6672 125.071 21.6672C124.784 21.6672 124.507 21.5986 124.252 21.4517C123.988 21.3037 123.786 21.1017 123.637 20.8372C123.492 20.5773 123.419 20.3024 123.419 20.0195C123.419 19.7312 123.492 19.4523 123.638 19.1898C123.792 18.927 123.998 18.7203 124.257 18.5798C124.521 18.4365 124.794 18.3672 125.071 18.3672Z" fill="#FEFEFE"/>
</svg>
