<svg width="95" height="62" viewBox="0 0 95 62" fill="none" xmlns="http://www.w3.org/2000/svg">
<path d="M94.4093 1H1V61H94.4093V1Z" fill="#373435" stroke="#373435" stroke-width="0.755906" stroke-miterlimit="22.9256"/>
<path d="M35.8272 50.1821C34.2733 50.1821 32.8724 50.0117 31.6221 48.7622L33.2335 47.1511C34.0473 47.9666 35.1079 48.0801 35.8653 48.0801C36.7169 48.0801 37.6073 47.7968 37.6073 47.0564C37.6073 46.5638 37.3424 46.2236 36.5663 46.1484L35.013 45.9959C33.2335 45.8259 32.1328 45.0496 32.1328 43.2308C32.1328 41.1866 33.9323 40.0879 35.9404 40.0879C37.4756 40.0879 38.762 40.3507 39.7095 41.2422L38.1938 42.7764C37.6268 42.2659 36.7553 42.1118 35.9027 42.1118C34.917 42.1118 34.5015 42.5684 34.5015 43.061C34.5015 43.4207 34.6518 43.8353 35.5244 43.913L37.0784 44.0638C39.0292 44.2527 40.0141 45.2964 40.0141 46.963C40.0141 49.1389 38.1548 50.1821 35.8272 50.1821Z" fill="#FEFEFE"/>
<path d="M45.828 42.305C44.3502 42.305 44.1616 43.5164 44.1616 45.1265C44.1616 46.7356 44.3502 47.9661 45.828 47.9661C47.3047 47.9661 47.4933 46.7356 47.4933 45.1265C47.4933 43.5164 47.3047 42.305 45.828 42.305ZM48.9514 49.2947C48.4022 49.8426 47.5125 50.1829 46.5469 50.1829C45.5421 50.1829 44.8052 49.9168 44.1616 49.1992V53.6877H41.6982V40.1995H44.084V41.1288C44.7661 40.3707 45.5042 40.0879 46.5469 40.0879C47.5125 40.0879 48.4022 40.4285 48.9514 40.9776C49.9393 41.9626 49.9567 43.6484 49.9567 45.1265C49.9567 46.6045 49.9393 48.3085 48.9514 49.2947Z" fill="#FEFEFE"/>
<path d="M56.8305 42.7389C56.5472 42.4558 56.1695 42.302 55.6761 42.302C55.1839 42.302 54.8244 42.4558 54.5387 42.7389C54.0281 43.2516 53.9708 44.1028 53.9708 45.1247C53.9708 46.1492 54.0281 47.0194 54.5387 47.5304C54.8244 47.815 55.1839 47.9674 55.6761 47.9674C56.1695 47.9674 56.5472 47.815 56.8305 47.5304C57.3414 47.0194 57.4008 46.1492 57.4008 45.1247C57.4008 44.1028 57.3414 43.2516 56.8305 42.7389ZM58.7447 48.9716C58.1391 49.615 57.1346 50.1829 55.6761 50.1829C54.2175 50.1829 53.2329 49.615 52.6269 48.9716C51.7385 48.0423 51.5107 46.9247 51.5107 45.1247C51.5107 43.3451 51.7385 42.2272 52.6269 41.3003C53.2329 40.6556 54.2175 40.0879 55.6761 40.0879C57.1346 40.0879 58.1391 40.6556 58.7447 41.3003C59.6363 42.2272 59.8644 43.3451 59.8644 45.1247C59.8644 46.9247 59.6363 48.0423 58.7447 48.9716Z" fill="#FEFEFE"/>
<path d="M67.1919 42.8906C66.8139 42.5121 66.4925 42.305 65.8859 42.305C65.1283 42.305 64.2953 42.8724 64.2953 44.1224V50.0681H61.833V40.1995H64.237V41.1488C64.712 40.5806 65.659 40.0879 66.7205 40.0879C67.6859 40.0879 68.3659 40.3341 69.0501 41.0151L67.1919 42.8906Z" fill="#FEFEFE"/>
<path d="M73.159 50.067C71.1509 50.067 70.2997 48.6478 70.2997 47.2469V42.3598H69.2578V40.4838H70.2997V37.5664H72.7605V40.4838H74.5045V42.3598H72.7605V47.0943C72.7605 47.664 73.0272 47.9855 73.6135 47.9855H74.5045V50.067H73.159Z" fill="#FEFEFE"/>
<path d="M79.599 50.1821C78.0452 50.1821 76.6435 50.0117 75.394 48.7622L77.0024 47.1511C77.818 47.9666 78.8789 48.0801 79.6358 48.0801C80.4887 48.0801 81.3798 47.7968 81.3798 47.0564C81.3798 46.5638 81.1136 46.2236 80.3374 46.1484L78.7834 45.9959C77.0024 45.8259 75.9046 45.0496 75.9046 43.2308C75.9046 41.1866 77.7054 40.0879 79.7123 40.0879C81.2476 40.0879 82.5333 40.3507 83.4818 41.2422L81.9646 42.7764C81.3972 42.2659 80.527 42.1118 79.6732 42.1118C78.6891 42.1118 78.272 42.5684 78.272 43.061C78.272 43.4207 78.4245 43.8353 79.2952 43.913L80.8489 44.0638C82.7979 44.2527 83.7846 45.2964 83.7846 46.963C83.7846 49.1389 81.9272 50.1821 79.599 50.1821Z" fill="#FEFEFE"/>
<path d="M70.153 21.9559C68.7476 20.5482 67.048 19.8594 65.1214 19.8594C63.1914 19.8594 61.5243 20.5482 60.1537 21.9559C58.7444 23.365 58.061 25.064 58.061 27.028C58.061 28.9911 58.7444 30.6925 60.1537 32.0661C61.5243 33.4753 63.1914 34.1944 65.1214 34.1944C67.048 34.1944 68.7476 33.4753 70.153 32.0661C71.5249 30.6925 72.2122 28.9911 72.2122 27.028C72.2122 25.064 71.5249 23.365 70.153 21.9559ZM67.7653 29.6796C67.048 30.4331 66.167 30.7903 65.1214 30.7903C64.1067 30.7903 63.2241 30.4331 62.5068 29.6796C61.7855 28.9249 61.3934 28.0417 61.3934 27.028C61.3934 25.9492 61.7855 25.064 62.5068 24.345C63.2241 23.5935 64.1067 23.2308 65.1214 23.2645C66.167 23.2308 67.048 23.5935 67.7983 24.345C68.4853 25.064 68.8433 25.9492 68.8789 27.028C68.8433 28.0417 68.4853 28.9249 67.7653 29.6796Z" fill="#D42E12"/>
<path d="M20.3794 16.3605C17.9316 16.3291 15.9016 17.1803 14.2026 18.9463C12.4715 20.6804 11.624 22.7413 11.624 25.1967C11.624 27.6163 12.4715 29.7465 14.2026 31.4801C15.9016 33.1799 17.9316 34.0332 20.3794 34.0332C22.3403 34.0332 24.1404 33.4424 25.7077 32.2314C27.2437 30.9877 28.2569 29.4508 28.7789 27.5527H25.2174C24.7605 28.4701 24.1068 29.2185 23.2892 29.8101C22.3742 30.3699 21.4266 30.6634 20.3794 30.6634C18.8757 30.6634 17.603 30.1053 16.5565 29.0562C15.4816 27.9783 14.9552 26.7049 14.9879 25.1967C14.9552 23.693 15.4816 22.4134 16.5565 21.3359C17.603 20.2884 18.8757 19.7324 20.3794 19.7324C21.4266 19.7324 22.3742 20.0246 23.2892 20.6147C24.1068 21.1736 24.7605 21.9564 25.2174 22.8739H28.7789C28.2569 20.9749 27.2437 19.4037 25.7077 18.1942C24.1404 16.9497 22.3403 16.3291 20.3794 16.3605Z" fill="#D42E12"/>
<path d="M41.9511 19.8288C39.6631 19.7948 38.062 20.417 37.1457 21.627C36.5593 22.3801 36.2655 23.365 36.1663 24.6069H39.5663C39.6292 24.0192 39.828 23.6242 40.0549 23.365C40.4152 22.9034 41.0023 22.6736 41.8543 22.7076C42.5729 22.6736 43.1255 22.804 43.5185 23.0337C43.91 23.2308 44.0732 23.6242 44.107 24.1822C44.107 24.6375 43.8438 25.0012 43.323 25.2283L40.7049 25.6506C39.4994 25.8183 38.521 26.1093 37.7674 26.5382C36.4921 27.2897 35.8733 28.4993 35.9062 30.2382C35.8733 31.4434 36.2655 32.428 37.0473 33.1484C37.7321 33.7379 38.6811 34.0627 39.828 34.0972C41.6892 34.0627 43.1566 33.6045 44.2048 32.6889V34.0972H47.6065V24.0816C47.6065 22.4447 47.0127 21.3017 45.9041 20.7117C44.7281 20.0899 43.4202 19.7948 41.9511 19.8288ZM43.3903 27.5173L44.0405 27.161V28.5337C44.0405 29.7103 43.7131 30.5286 43.0941 30.9863C42.4413 31.4434 41.7546 31.6745 40.968 31.6745C40.479 31.6745 40.0889 31.5429 39.7603 31.2833C39.4365 30.9863 39.2694 30.5629 39.2694 29.9404C39.2694 29.2557 39.5329 28.7631 40.0889 28.4015C40.4152 28.2058 40.968 28.0417 41.6892 27.9433L43.3903 27.5173Z" fill="#D42E12"/>
<path d="M30.5112 34.0976H33.9121V16.3594H30.5112V34.0976Z" fill="#D42E12"/>
<path d="M55.5443 20.321C54.632 20.6821 53.8139 21.3035 53.1263 22.2494V20.516L49.8906 20.4859V34.099H53.2568V27.587C53.2568 26.4725 53.3879 25.6902 53.6852 25.1958C53.9103 24.6754 54.3359 24.2486 54.8604 23.8897C55.4465 23.4956 56.0676 23.2977 56.7237 23.2977L57.7659 23.3655L57.736 19.8926L56.8547 19.9601L55.5443 20.321Z" fill="#D42E12"/>
<path d="M72.7992 20.3857L81.006 12.1719L78.8478 10.0137L70.645 18.2254L72.7992 20.3857Z" fill="#D42E12"/>
<path d="M64.0093 17.1129H67.0486V8.3125H64.0093V17.1129Z" fill="#D42E12"/>
<path d="M74.3047 26.8323H83.2924V23.7891H74.3047V26.8323Z" fill="#D42E12"/>
</svg>
