<svg width="169" height="37" viewBox="0 0 169 37" fill="none" xmlns="http://www.w3.org/2000/svg">
<path d="M147.428 12.7508L147.376 15.0017L146.637 15.0545C146.109 15.0896 145.881 15.1951 145.881 15.371C145.881 15.5644 145.67 15.4941 145.125 15.0896C143.788 14.14 141.08 14.0521 139.392 14.9138L138.636 15.2831L138.548 14.9314C138.46 14.5797 138.319 14.5621 136.367 14.5621H134.275V22.4752V30.3884H136.385H138.495V25.4119C138.495 20.9278 138.53 20.3826 138.829 19.7144C139.445 18.378 140.535 17.9911 141.766 18.6769C142.223 18.9231 142.68 19.1341 142.804 19.1341C142.927 19.1341 143.612 18.5362 144.298 17.8153C145.002 17.0943 145.652 16.5492 145.723 16.6019C145.811 16.6547 145.881 17.0767 145.881 17.5691C145.881 18.4307 145.881 18.4307 146.461 18.4307C146.778 18.4307 147.129 18.5187 147.252 18.6418C147.411 18.8 147.464 20.031 147.464 23.0731C147.464 27.8034 147.551 28.1727 148.712 29.2806C149.679 30.1774 150.383 30.3884 152.563 30.3884H154.497V28.542V26.6956H153.53C151.789 26.6956 151.631 26.256 151.719 21.5081L151.772 18.5187L153.143 18.4659L154.497 18.4132V16.7602V15.0896H153.302C152.598 15.0896 152.018 15.0017 151.895 14.8786C151.754 14.7379 151.684 13.9642 151.684 12.5926V10.5176H149.574H147.481L147.428 12.7508Z" fill="#12120D" fill-opacity="0.996078"/>
<path d="M109.568 14.3688C109.093 14.4215 108.337 14.6501 107.915 14.8611C107.176 15.2304 107.159 15.2304 107.071 14.8963C106.983 14.5974 106.807 14.5622 104.89 14.5622H102.798V25.2889V36.0156H104.908H107.018V32.8504C107.018 29.9489 107.106 29.2983 107.458 29.861C107.915 30.5995 111.115 30.8633 112.804 30.3006C114.052 29.8961 115.125 28.8411 115.652 27.487C116.057 26.4847 116.074 26.2385 116.074 22.3874C116.074 18.5715 116.039 18.2902 115.67 17.3406C114.773 15.1073 112.505 13.9995 109.568 14.3688ZM110.342 18.5364C111.414 18.9584 111.784 19.9783 111.784 22.5985C111.784 24.3745 111.731 24.7438 111.379 25.4472C111.045 26.0978 110.834 26.3088 110.254 26.5023C109.603 26.7309 109.445 26.7309 108.724 26.4495C108.038 26.1857 107.88 26.0275 107.546 25.2362C107.212 24.48 107.141 24.0052 107.141 22.3874C107.141 20.0311 107.511 18.9408 108.46 18.5188C109.216 18.2023 109.498 18.2023 110.342 18.5364Z" fill="#12120D" fill-opacity="0.996078"/>
<path d="M123.461 14.4031C121.262 14.7196 119.398 16.1967 118.607 18.219C118.273 19.063 118.203 19.6609 118.132 21.9294C118.009 26.0794 118.379 27.3455 120.19 29.0336C121.262 30.036 121.895 30.3349 123.496 30.5635C127.593 31.1438 130.758 29.1391 131.462 25.5167C131.778 23.934 131.602 19.3092 131.198 18.1662C130.723 16.8474 128.877 15.0713 127.593 14.702C126.327 14.3151 124.762 14.2096 123.461 14.4031ZM125.799 18.6058C126.942 19.1158 127.259 19.995 127.259 22.5624C127.259 24.7605 127.048 25.5167 126.292 26.1321C125.553 26.6948 124.902 26.7652 123.988 26.3607C122.792 25.8332 122.476 25.0067 122.476 22.4217C122.476 19.8368 122.775 19.0279 123.988 18.5003C124.691 18.1838 124.92 18.2014 125.799 18.6058Z" fill="#12120D" fill-opacity="0.996078"/>
<path d="M91.2096 14.7365C89.6622 15.2992 88.484 16.3894 88.0443 17.7083C87.7806 18.5348 87.7982 20.9615 88.0795 21.6473C88.4488 22.5089 89.6445 23.4761 90.6997 23.775C91.2096 23.9157 92.4405 24.1092 93.4253 24.2147C95.3772 24.4257 96.063 24.6367 96.2037 25.1467C96.5202 26.1314 95.5531 26.782 93.7242 26.7645C92.634 26.7645 92.2823 26.6765 91.1393 26.1138C90.4183 25.7621 89.7501 25.4632 89.6622 25.4632C89.4335 25.4632 86.9717 27.9954 86.9717 28.2416C86.9717 28.6636 88.7478 29.8594 89.9259 30.2111C91.6141 30.7386 95.1838 30.7562 96.8367 30.2287C99.3162 29.4373 100.512 27.8899 100.512 25.4456C100.512 23.4234 100.389 23.0541 99.3865 22.0166C98.3491 20.9439 97.4874 20.6274 95.2013 20.4515C93.267 20.2933 92.4757 20.0822 92.2295 19.6426C91.9482 19.0975 92.1768 18.4996 92.7747 18.2534C93.5484 17.9369 95.5179 18.0952 96.4851 18.5699C96.9247 18.781 97.3995 18.9568 97.5401 18.9568C97.6808 18.9568 98.3491 18.3941 99.0173 17.7259C100.389 16.3367 100.406 16.2488 99.1755 15.4047C98.138 14.6837 96.7137 14.3848 94.2694 14.3848C92.634 14.4024 91.9482 14.4727 91.2096 14.7365Z" fill="#12120D" fill-opacity="0.996078"/>
<path d="M159.614 14.7365C158.067 15.2992 156.889 16.3894 156.449 17.7083C156.185 18.5348 156.203 20.9615 156.484 21.6473C156.854 22.5089 158.049 23.4761 159.104 23.775C159.614 23.9157 160.845 24.1092 161.83 24.2147C163.782 24.4257 164.468 24.6367 164.608 25.1467C164.925 26.1314 163.958 26.782 162.129 26.7645C161.039 26.7645 160.687 26.6765 159.544 26.1138C158.823 25.7621 158.155 25.4632 158.067 25.4632C157.838 25.4632 155.376 27.9954 155.376 28.2416C155.376 28.6636 157.153 29.8594 158.331 30.2111C160.019 30.7386 163.589 30.7562 165.242 30.2287C167.721 29.4373 168.917 27.8899 168.917 25.4456C168.917 23.4234 168.794 23.0541 167.791 22.0166C166.754 20.9439 165.892 20.6274 163.606 20.4515C161.672 20.2933 160.88 20.0822 160.634 19.6426C160.353 19.0975 160.582 18.4996 161.179 18.2534C161.953 17.9369 163.923 18.0952 164.89 18.5699C165.329 18.781 165.804 18.9568 165.945 18.9568C166.086 18.9568 166.754 18.3941 167.422 17.7259C168.794 16.3367 168.811 16.2488 167.58 15.4047C166.543 14.6837 165.118 14.3848 162.674 14.3848C161.039 14.4024 160.353 14.4727 159.614 14.7365Z" fill="#12120D" fill-opacity="0.996078"/>
<path d="M61.5928 5.36711V10.7342H63.5806H65.5684V5.36711V0H63.5806H61.5928V5.36711Z" fill="#E2201B" fill-opacity="0.996078"/>
<path d="M74.2084 6.7988C71.5712 9.43597 69.4111 11.6888 69.4111 11.7948C69.4111 12.0201 71.9158 14.5778 72.1278 14.5778C72.3929 14.5778 81.8946 4.94351 81.8549 4.73147C81.7887 4.46643 79.3768 1.98828 79.1779 1.98828C79.0852 1.98828 76.8588 4.14838 74.2084 6.7988Z" fill="#E2201B" fill-opacity="0.996078"/>
<path d="M8.38521 9.59372C6.43715 9.96478 4.80714 10.8394 3.28314 12.3237C1.37484 14.1657 0.354429 16.2198 0.0761312 18.7642C-0.21541 21.3218 0.341186 23.9325 1.56038 25.7481C2.44827 27.0733 4.31682 28.8358 5.48298 29.4454C7.17926 30.3333 8.12015 30.5453 10.373 30.5453C12.6524 30.5321 13.4608 30.373 15.1438 29.5514C16.416 28.9286 17.6087 27.9877 18.5231 26.8612C19.2917 25.9336 20.3519 23.906 20.4711 23.1506L20.5507 22.6603H18.2845H16.0184L15.5678 23.3494C13.8053 26.1059 10.5983 26.9672 7.7491 25.483C6.55642 24.8469 5.72152 24.012 5.11193 22.8591C4.3433 21.3616 4.15779 19.9701 4.54209 18.4859C5.31071 15.5439 8.30569 13.4501 11.1284 13.8874C12.109 14.0332 13.368 14.5765 14.2294 15.2126C14.5342 15.4247 15.051 16.0343 15.3955 16.5511L16.0317 17.492H18.2713H20.5109V17.1872C20.5109 16.6041 19.9543 15.2259 19.3315 14.2717C18.3906 12.8405 16.522 11.131 15.1703 10.4816C14.574 10.1768 13.7258 9.84551 13.2885 9.72624C12.1886 9.44795 9.55137 9.36844 8.38521 9.59372Z" fill="#E2201B" fill-opacity="0.996078"/>
<path d="M22.2339 20.0762V30.7441H24.4205H26.6071V20.0762V9.4082H24.4205H22.2339V20.0762Z" fill="#E2201B" fill-opacity="0.996078"/>
<path d="M33.3921 13.7158C32.9282 13.8218 32.2391 14.0471 31.8415 14.2326C30.9669 14.6302 29.867 15.7036 29.5224 16.4722C29.1911 17.2276 28.8598 18.4998 28.8598 19.0431V19.4804H31.0332H33.2065L33.2993 19.1094C33.4185 18.5395 33.8559 17.9167 34.3197 17.6251C34.8763 17.2806 36.4268 17.2541 37.2087 17.5721C38.1231 17.9432 38.4279 18.9636 37.805 19.5334C37.5267 19.7852 37.0894 19.9045 35.2474 20.196C31.762 20.7659 30.3441 21.3622 29.3899 22.6874C28.7936 23.5091 28.5948 24.344 28.608 26.027C28.6215 27.7232 28.7406 28.1473 29.4562 29.0219C30.5163 30.2941 31.4042 30.652 33.4981 30.6387C35.0618 30.6255 36.5991 30.2941 37.5532 29.7641C37.858 29.5918 38.1496 29.4858 38.1893 29.5255C38.2291 29.5653 38.2688 29.8568 38.2688 30.1749V30.7447H40.4554H42.642V24.0789C42.642 16.2204 42.6684 16.4059 41.4626 15.2265C40.6409 14.4181 39.8458 14.0471 38.2688 13.7025C37.1822 13.4772 34.492 13.4772 33.3921 13.7158ZM38.0965 24.0126C37.964 25.8944 37.2087 26.9016 35.5787 27.3124C34.4787 27.5907 33.5643 27.2859 33.1668 26.4908C32.7295 25.6427 32.9812 24.5295 33.7233 24.0524C34.1076 23.8006 37.858 22.8067 38.0568 22.9127C38.1231 22.9392 38.1363 23.4296 38.0965 24.0126Z" fill="#E2201B" fill-opacity="0.996078"/>
<path d="M61.5925 13.6497C59.8698 13.928 58.3458 14.7761 56.941 16.2471C55.9339 17.3072 55.4701 18.0494 54.993 19.3878C54.7014 20.236 54.6617 20.554 54.6484 22.1973C54.6484 23.8935 54.6748 24.1453 55.0062 25.1127C55.9074 27.6837 58.5313 30.069 61.0757 30.6124C62.2286 30.8642 64.8923 30.7184 65.9525 30.3473C67.6487 29.7377 69.5571 28.1607 70.4847 26.5705C70.6967 26.1994 71.028 25.4308 71.2136 24.8477C71.5051 23.9466 71.5581 23.549 71.5714 22.1973C71.5714 19.3083 70.8955 17.7313 68.7884 15.7302C67.7415 14.7496 67.1054 14.352 65.8995 13.9677C64.72 13.5967 62.825 13.4509 61.5925 13.6497ZM64.8658 18.4337C65.8067 18.8842 66.403 19.5071 66.8668 20.5408C67.5825 22.078 67.2247 23.8935 65.9525 25.1657C65.1043 26.0139 64.3622 26.3054 63.1165 26.3054C62.1624 26.3054 61.9768 26.2524 61.2082 25.8416C60.6516 25.5501 60.2143 25.179 59.9228 24.7814C58.5446 22.9261 58.6506 20.8456 60.1878 19.2421C61.46 17.8903 63.1298 17.612 64.8658 18.4337Z" fill="#E2201B" fill-opacity="0.996078"/>
<path d="M52.3823 13.9022C51.3221 14.207 50.5535 14.6178 49.8776 15.2539C49.5596 15.5322 49.268 15.731 49.2283 15.678C49.1753 15.6382 49.1355 15.3069 49.1355 14.9491V14.313H47.0814H45.0273V22.5293V30.7456H47.1477H49.268V26.929C49.268 22.41 49.3873 21.0848 49.8379 20.1969C50.5535 18.7922 51.8654 18.0236 53.5484 18.0236H54.5689V15.837V13.6504L53.8797 13.6636C53.4954 13.6636 52.8196 13.7697 52.3823 13.9022Z" fill="#E2201B" fill-opacity="0.996078"/>
<path d="M73.6519 20.1441V22.1319H79.1515H84.6511V20.1441V18.1562H79.1515H73.6519V20.1441Z" fill="#E2201B" fill-opacity="0.996078"/>
</svg>
