<svg width="167" height="27" viewBox="0 0 167 27" fill="none" xmlns="http://www.w3.org/2000/svg">
<path d="M34.7897 12.5114L40.0166 16.9686C41.0011 17.9024 41.6127 19.2359 41.6127 20.7097C41.6127 23.526 39.3572 25.8143 36.5678 25.8143L32.9937 25.8262H22.0269L23.1456 20.9305L31.3976 20.9454C32.2926 20.9454 33.0146 20.2145 33.0146 19.3135C33.0146 18.7556 32.7401 18.2634 32.3165 17.968L27.7102 14.5729C26.484 13.6421 25.6904 12.1534 25.6904 10.4827C25.6904 7.65451 27.9488 5.37223 30.7323 5.37223L42.6568 5.36328L41.6813 9.67425H35.8995C35.0075 9.67425 34.2855 10.4022 34.2855 11.3032C34.2855 11.7805 34.4824 12.2101 34.8016 12.5085L34.7927 12.5144L34.7897 12.5114Z" fill="#C00D0D"/>
<path d="M54.4523 21.5667H54.4731C53.5811 21.5667 52.8442 20.8387 52.8591 19.9318C52.8591 19.7408 52.9039 19.5947 52.9486 19.4485L55.1593 9.63916H58.8438L59.8223 5.35504H56.1379L57.373 0.00585938H50.3113L49.0822 5.36101H45.2277L44.2432 9.64214H48.1096L45.2605 22.1096C45.2157 22.3244 45.1949 22.5124 45.1949 22.7749C45.1949 24.4605 46.5493 25.8389 48.226 25.8389L54.315 25.812L55.2965 21.5458C55.2965 21.5458 54.7655 21.5637 54.4552 21.5637" fill="#C00D0D"/>
<path d="M132.232 21.5668H132.247C131.355 21.5668 130.621 20.8388 130.636 19.9319C130.636 19.741 130.677 19.5948 130.719 19.4486L132.933 9.63927H136.614L137.59 5.35515H133.911L135.134 0H128.088L126.847 5.35515H123.001L122.017 9.63628H125.883L123.031 22.1038C122.983 22.3186 122.956 22.5065 122.956 22.7691C122.959 24.4547 124.311 25.833 125.984 25.833H125.99L132.085 25.8061L133.061 21.5399C133.061 21.5399 132.545 21.5578 132.226 21.5578" fill="#C00D0D"/>
<path d="M81.6758 25.8039C82.1382 25.607 82.4604 25.2042 82.5797 24.7L82.6185 24.5359L82.5976 24.5747L86.0196 9.63699H83.1943L84.1639 5.35884H86.9921L87.3054 3.96859L87.377 3.68517C87.9975 1.57294 89.9308 0.0305418 92.219 0.0305418L92.2309 0.015625H98.9316L98.1499 3.45247L95.7662 3.4465C94.9995 3.4465 94.373 3.98351 94.194 4.69951V4.67266L94.0299 5.35884H97.7114L96.7478 9.65489H93.0573L90.0143 23.0532C89.6921 24.6284 88.3168 25.8128 86.658 25.8128L81.6758 25.8068V25.8039Z" fill="#C00D0D"/>
<path d="M68.3606 21.042L68.3278 21.0569C67.9191 21.3284 67.4268 21.4836 66.9048 21.4836C65.4548 21.4836 64.2794 20.2992 64.2794 18.8284C64.2794 17.3576 65.4548 16.1672 66.9048 16.1672L71.881 16.1851C71.4633 18.2764 70.1477 20.0396 68.3606 21.039M80.7416 8.00768C80.7416 6.53987 79.5632 5.35547 78.1163 5.35547H62.3939L61.4333 9.60975H72.2897C72.7432 9.60975 73.1102 9.96776 73.1102 10.4212C73.1102 10.4839 73.1072 10.5406 73.0923 10.6002H73.0833L72.6507 12.4798H65.0401C61.1409 12.4798 57.9785 15.6869 57.9785 19.6339C57.9785 19.6935 57.9785 19.7562 57.9815 19.8159C57.9815 19.8159 57.9815 20.0187 57.9875 20.15C58.0949 23.8315 61.4004 26.3882 65.0014 26.3882C65.4548 26.3882 65.8218 26.3554 66.3319 26.2659C67.7789 26.0063 68.8499 25.5946 69.8344 24.822C70.3118 25.4246 71.0606 25.8005 71.884 25.8005H78.528C77.806 25.3291 77.3316 24.4908 77.3316 23.557C77.3316 23.3333 77.3555 23.1155 77.4032 22.9036L80.679 8.57452V8.59541C80.7207 8.40746 80.7446 8.21055 80.7446 8.01067" fill="#C00D0D"/>
<path d="M16.0356 10.6125L15.5941 12.5159H9.42148L9.76755 11.063C9.86899 10.2664 10.5343 9.65483 11.3458 9.63991L15.245 9.64588C15.6895 9.64588 16.0505 10.0098 16.0505 10.4663C16.0505 10.517 16.0505 10.5648 16.0386 10.6125M21.0626 5.36176H6.81103L6.75733 5.33789C5.15526 5.33789 3.80081 6.45367 3.43087 7.96922L0.0537006 22.6176C0.0119335 22.7995 0 22.9726 0 23.1665C0 24.6343 1.17843 25.8247 2.62835 25.8247H19.6753L20.7881 20.9111H9.5259L9.54976 20.92C8.65475 20.92 7.92681 20.1891 7.92681 19.2881C7.92681 19.1479 7.95366 19.0137 7.98051 18.8854L7.97156 18.9003L8.5205 16.3853H21.8442L23.6492 8.51219C23.673 8.35109 23.688 8.18701 23.688 8.01994C23.688 6.55809 22.5155 5.36772 21.0626 5.36772" fill="#C00D0D"/>
<path d="M146.135 21.046L146.108 21.058C145.693 21.3295 145.207 21.4846 144.676 21.4846C143.229 21.4846 142.059 20.3002 142.059 18.8294C142.059 17.3586 143.226 16.1682 144.676 16.1682L149.655 16.1831C149.237 18.2745 147.922 20.0377 146.135 21.0431M155.899 5.35352H140.168L139.204 9.61078H150.067C150.52 9.61078 150.884 9.97177 150.884 10.4223C150.884 10.4849 150.878 10.5416 150.866 10.6072H150.854L150.431 12.4838H142.817C138.921 12.4838 135.755 15.6909 135.755 19.6379V19.8229C135.755 19.8229 135.761 20.0257 135.761 20.157C135.866 23.8385 139.177 26.3952 142.772 26.3952C143.229 26.3952 143.596 26.3594 144.106 26.2729C145.556 26.0133 146.615 25.6016 147.611 24.8289C148.092 25.4346 148.837 25.8135 149.658 25.8135H156.305C155.577 25.3361 155.1 24.4978 155.1 23.564C155.1 23.3432 155.126 23.1225 155.18 22.9106L158.453 8.58152V8.59942C158.495 8.41147 158.521 8.21755 158.521 8.01468C158.521 6.54388 157.343 5.35948 155.899 5.35948" fill="#C00D0D"/>
<path d="M112.109 10.6263L111.674 12.5326H105.501L105.847 11.0797C105.943 10.2862 106.611 9.66562 107.419 9.65369H111.319C111.763 9.65369 112.127 10.0236 112.127 10.4771C112.127 10.5278 112.121 10.5785 112.109 10.6263ZM117.142 5.36957H102.891L102.84 5.3457C101.226 5.3457 99.8805 6.46447 99.5075 7.97405L96.1274 22.6284C96.0856 22.8133 96.0767 22.9804 96.0767 23.1713C96.0767 24.6421 97.2521 25.8325 98.699 25.8325H115.749L116.868 20.9159H105.6L105.62 20.9249C104.725 20.9249 104.006 20.1969 104.006 19.2959C104.006 19.1527 104.021 19.0185 104.054 18.8872L104.036 18.9051L104.594 16.3812H117.924L119.72 8.50509C119.75 8.34996 119.768 8.19184 119.768 8.02477C119.768 6.55695 118.595 5.36659 117.145 5.36659" fill="#C00D0D"/>
<path d="M163.545 8.57761H164.055L164.888 9.96786H165.493L164.581 8.53585C165.076 8.48215 165.425 8.23751 165.425 7.65277C165.425 6.99046 165.034 6.71599 164.24 6.71599H163.014V9.96786H163.542V8.57761H163.545ZM163.545 8.12414V7.17245H164.193C164.512 7.17245 164.9 7.22018 164.9 7.611C164.9 8.08536 164.542 8.12414 164.148 8.12414H163.542H163.545ZM167 8.28823C167 6.52506 165.669 5.34961 164.133 5.34961C162.597 5.34961 161.245 6.52207 161.245 8.28823C161.245 9.9619 162.444 11.2239 164.133 11.2239C165.669 11.2239 167 10.0544 167 8.28823ZM166.374 8.28823C166.374 9.72323 165.38 10.7137 164.133 10.7137C162.731 10.7137 161.869 9.62478 161.869 8.28823C161.869 6.86218 162.853 5.86275 164.133 5.86275C165.413 5.86275 166.374 6.86218 166.374 8.28823Z" fill="#C00D0D"/>
</svg>
