<svg width="153" height="42" viewBox="0 0 153 42" fill="none" xmlns="http://www.w3.org/2000/svg">
<path d="M55.4263 37.4852V15.444H60.3233C60.3233 15.444 64.7685 15.4974 64.7685 19.9377C64.7685 24.3829 60.882 24.2857 60.882 24.2857L56.568 24.3392C56.568 24.3392 59.1428 24.8104 59.9832 27.4629C62.1694 34.3857 63.7774 40.5361 69.578 41.3669C72.8572 41.8332 74.062 41.3668 74.2709 41.2988C74.4798 41.2308 74.6304 41.1677 74.8296 41.0608L74.6402 40.8956C74.6207 40.8762 72.5755 38.9767 71.5067 35.1047C70.5739 31.6992 69.5974 29.1001 68.1303 27.4046C69.5246 26.5836 72.3811 24.8298 72.3811 19.6365C72.3811 16.4739 71.4532 13.9962 69.6314 12.2716C66.7069 9.50735 62.5678 9.70167 62.3929 9.71139H62.422L47.7554 9.72111V33.4578C47.7554 36.3096 48.2995 37.4998 51.6953 37.4998L55.4263 37.4852Z" fill="#D40026"/>
<path d="M23.6833 9.71184C23.6833 9.71184 23.6784 34.702 23.6784 37.5585H19.826C16.4301 37.5585 15.886 36.3683 15.886 33.5166V26.8173L7.80213 26.8221C7.80213 26.8221 7.80213 35.4793 7.80213 37.5488L3.39582 37.5537C0.408084 37.5537 0 36.7327 0 34.0607V9.71184L7.80213 9.69727C7.80213 11.7765 7.80213 20.3705 7.80213 20.3705L15.886 20.3657C15.886 20.3657 15.886 11.7765 15.886 9.69727L23.6833 9.71184Z" fill="#D40026"/>
<path d="M123.061 9.71094V15.7107C123.061 15.7107 134.147 15.7107 136.061 15.7107C134.793 17.3042 123.882 30.9895 123.882 30.9895C123.153 31.9319 123.056 32.8113 123.056 33.5545V33.6031C123.056 36.4548 123.605 37.6451 126.996 37.6451L146.277 37.6402V32.1846H134.929C134.195 32.1846 133.909 32.1894 133.7 31.7085C133.53 31.2178 133.855 30.8146 134.429 30.1004L146.273 15.1715V9.71094H123.061Z" fill="#D40026"/>
<path d="M149.873 33.2578C150.388 33.2578 150.83 33.4521 151.204 33.8311C151.564 34.21 151.748 34.6521 151.748 35.1573C151.748 35.6869 151.569 36.1338 151.199 36.5127C150.83 36.8868 150.388 37.0714 149.873 37.0714C149.344 37.0714 148.906 36.8868 148.532 36.5127C148.168 36.1435 147.983 35.6869 147.983 35.1573C147.983 34.6472 148.163 34.2003 148.527 33.8311C148.901 33.4473 149.344 33.2578 149.873 33.2578ZM152.152 35.1622C152.152 34.5306 151.933 33.9817 151.481 33.5444C151.034 33.0975 150.495 32.8691 149.863 32.8691C149.261 32.8691 148.736 33.0732 148.289 33.491C147.823 33.9379 147.58 34.4966 147.58 35.167C147.58 35.8034 147.799 36.3524 148.241 36.7945C148.683 37.2366 149.222 37.4503 149.863 37.4503C150.495 37.4503 151.02 37.2366 151.467 36.8042C151.928 36.3621 152.152 35.8083 152.152 35.1622ZM150.281 34.6764C150.281 34.8172 150.237 34.9144 150.15 34.9824C150.072 35.0456 149.941 35.0796 149.786 35.0796H149.533V34.3363H149.693C149.863 34.3363 149.985 34.3509 150.082 34.3849C150.213 34.4383 150.281 34.5355 150.281 34.6764ZM149.533 36.4301V35.5265H149.674L149.815 35.5411C149.922 35.5411 149.995 35.5557 150.043 35.5751C150.135 35.6091 150.194 35.6771 150.228 35.7646C150.247 35.818 150.257 35.92 150.271 36.0706C150.286 36.2212 150.296 36.3427 150.315 36.4253H150.942L150.922 36.3524C150.913 36.3233 150.908 36.3038 150.903 36.2795C150.903 36.2504 150.903 36.2261 150.903 36.2067V35.9735C150.903 35.716 150.825 35.5217 150.68 35.4002C150.597 35.3371 150.48 35.2836 150.325 35.2545C150.5 35.235 150.641 35.1865 150.757 35.0844C150.884 34.9921 150.932 34.8318 150.932 34.6229C150.932 34.3509 150.82 34.142 150.597 34.0205C150.461 33.9525 150.301 33.9039 150.101 33.8893C150.058 33.8893 149.888 33.8845 149.567 33.8845C149.256 33.8845 149.023 33.8845 148.867 33.8845V36.4204H149.533V36.4301Z" fill="#D40026"/>
<path d="M23.0028 3.4737C23.0854 3.4737 23.1097 3.51742 23.1631 3.6243C23.2214 3.73603 23.4158 4.11982 23.4158 4.21699C23.4158 4.43074 22.2352 5.08659 21.1665 5.08659C19.8888 5.08659 18.7568 4.22185 18.7568 2.73041C18.7568 1.12723 20.292 0.0292969 21.934 0.0292969C23.1097 0.0292969 23.1729 0.228478 23.1729 0.369363C23.1729 0.451951 23.1534 0.86489 23.1291 0.991201C23.1146 1.0495 23.1 1.11265 23.0223 1.11265C22.8862 1.11265 22.449 1.03978 22.1527 1.03978C20.7292 1.03978 20.1803 1.95311 20.1803 2.74498C20.1803 3.51742 20.5883 4.06153 21.3802 4.06153C22.2887 4.06153 22.9057 3.4737 23.0028 3.4737Z" fill="#286017"/>
<path d="M29.8042 2.45837C29.8042 4.07126 28.5799 5.09147 27.1613 5.09147C25.4367 5.09147 24.4165 3.92552 24.4165 2.52638C24.4165 0.898917 25.7816 0.0293148 27.2294 0.0293148C28.7499 0.0244567 29.8042 1.0058 29.8042 2.45837ZM25.8739 2.59925C25.8739 3.54658 26.3403 4.11984 27.1128 4.11984C28.0164 4.11984 28.5265 3.30854 28.5265 2.42922C28.5265 1.63249 28.1087 0.9815 27.2536 0.9815C26.9039 0.9815 25.8739 1.13696 25.8739 2.59925Z" fill="#286017"/>
<path d="M35.7505 0.175734C35.9496 0.175734 35.9982 0.224316 35.9982 0.404066C35.9982 1.19108 35.9059 2.43961 35.8768 3.22663L35.8428 4.62576C35.8379 4.8881 35.8379 4.95611 35.5027 4.95611C35.4298 4.95611 34.8809 4.95126 34.8177 4.94154C34.6817 4.92211 34.6768 4.91239 34.3173 4.378C34.191 4.18853 32.6413 2.221 32.3887 1.90522C32.3887 1.93923 32.3741 4.72778 32.3401 4.85895C32.3206 4.93182 32.2769 4.93668 31.8543 4.93668C31.3782 4.93668 31.2956 4.93668 31.2616 4.89296C31.2324 4.86381 31.2324 4.73749 31.2324 4.69377C31.2324 4.47516 31.2616 3.24606 31.2664 2.91085C31.2713 2.47362 31.3296 0.520654 31.349 0.321471C31.3636 0.214593 31.3976 0.180587 31.5822 0.170871C31.6162 0.166013 31.8737 0.166016 31.9417 0.166016C32.4712 0.166016 32.5587 0.17087 32.6267 0.200019C32.7773 0.277748 34.1764 2.08983 34.2056 2.12383C34.638 2.71652 34.6865 2.77968 34.7934 2.91571C34.808 2.51249 34.8566 0.462362 34.8711 0.3652C34.8906 0.204882 34.9489 0.180589 35.2744 0.180589L35.7505 0.175734Z" fill="#286017"/>
<path d="M40.6716 1.18527C40.5356 1.19013 40.2975 1.19985 40.2635 1.19985C40.0789 1.19985 40.0449 1.1707 40.0449 0.986088C40.0449 0.811196 40.0498 0.33024 40.0741 0.276801C40.1032 0.213645 40.1324 0.213648 40.3656 0.203932C40.7396 0.1845 42.3039 0.169922 42.4788 0.169922C43.0229 0.169922 43.499 0.169921 43.8731 0.184496C43.9946 0.189354 44.0237 0.218503 44.0237 0.359388V1.01524C44.0237 1.08811 44.0091 1.13669 43.912 1.15612C43.8051 1.17555 43.7128 1.17555 43.3096 1.17555L42.7315 1.17069C42.6975 1.55448 42.6051 3.386 42.6051 4.58595C42.6051 4.8823 42.6051 4.92602 42.2942 4.92602C42.1825 4.92602 41.687 4.93087 41.5849 4.92602C41.274 4.92116 41.2303 4.90658 41.2303 4.73655C41.2303 4.73169 41.2643 3.38599 41.274 3.28883C41.308 1.81196 41.3177 1.64679 41.3518 1.16098L40.6716 1.18527Z" fill="#286017"/>
<path d="M50.3393 2.45837C50.3393 4.07126 49.1151 5.09147 47.6965 5.09147C45.9719 5.09147 44.9517 3.92552 44.9517 2.52638C44.9517 0.898917 46.3168 0.0293148 47.7645 0.0293148C49.2851 0.0244567 50.3393 1.0058 50.3393 2.45837ZM46.4091 2.59925C46.4091 3.54658 46.8755 4.11984 47.6479 4.11984C48.5515 4.11984 49.0616 3.30854 49.0616 2.42922C49.0616 1.63249 48.6438 0.9815 47.7888 0.9815C47.439 0.9815 46.4091 1.13696 46.4091 2.59925Z" fill="#286017"/>
<path d="M54.8286 0.44192C55.5573 0.752839 56.1986 1.52529 56.1986 2.58921C56.1986 3.42967 55.7517 4.46444 54.5371 4.79479C54.1339 4.90653 53.687 4.93567 52.7396 4.93567C52.5988 4.93567 51.8992 4.93568 51.8215 4.85795C51.7729 4.81423 51.7729 4.78022 51.7632 4.45958C51.7632 4.02721 51.7583 3.50739 51.7583 3.16732C51.7583 2.35602 51.7923 0.573091 51.8069 0.466212C51.836 0.184442 51.8409 0.160156 52.6182 0.160156C53.7647 0.165014 54.2699 0.208731 54.8286 0.44192ZM53.4489 1.09291C53.3275 1.09291 53.2497 1.10748 53.172 1.11234C53.1672 1.35039 53.1672 1.48156 53.1429 2.60379C53.1283 3.00215 53.1283 3.54625 53.1234 3.98834C53.1866 3.98834 53.2643 4.00778 53.4003 4.00778C54.1776 4.00778 54.7849 3.55597 54.7849 2.57949C54.7898 1.65159 54.2165 1.09291 53.4489 1.09291Z" fill="#286017"/>
<path d="M58.5788 3.79904C58.5059 3.9545 58.2096 4.63464 58.1464 4.76581C58.0493 4.98442 58.0201 5.033 57.8938 5.033C57.7869 5.033 57.3983 4.99899 57.1068 4.92126C56.9513 4.88726 56.8882 4.86297 56.8882 4.78524C56.8882 4.74151 56.8882 4.74152 57.0242 4.46461C57.5246 3.42011 57.6801 3.09462 58.744 1.0785C59.1909 0.242906 59.2832 0.194322 59.5553 0.111734C59.7302 0.0534372 60.0557 0 60.1917 0C60.2889 0 60.3277 0.0291484 60.4346 0.310919C60.6727 0.966764 61.8823 4.6395 61.8823 4.75123C61.8823 4.85811 61.8386 4.86297 61.3188 4.9407C60.9156 4.999 60.7893 5.01843 60.6338 5.01843C60.5366 5.01843 60.5269 5.01357 60.4492 4.74151C60.4152 4.64435 60.3083 4.27999 60.1577 3.82333C59.9002 3.82819 58.8023 3.80876 58.5788 3.79904ZM59.7156 2.24445C59.5747 1.75863 59.5601 1.70519 59.5164 1.57402C59.4678 1.70033 59.4241 1.82179 59.3561 1.99182C59.2978 2.11813 59.0015 2.76912 58.9383 2.91972C59.0792 2.92458 59.7642 2.93916 59.9148 2.93916C59.8808 2.79827 59.8662 2.73997 59.7156 2.24445Z" fill="#286017"/>
<path d="M70.1605 3.4737C70.2431 3.4737 70.2674 3.51742 70.3209 3.6243C70.3792 3.73603 70.5735 4.11982 70.5735 4.21699C70.5735 4.43074 69.393 5.08659 68.3242 5.08659C67.0465 5.08659 65.9146 4.22185 65.9146 2.73041C65.9146 1.12723 67.4497 0.0292969 69.0917 0.0292969C70.2674 0.0292969 70.3306 0.228478 70.3306 0.369363C70.3306 0.451951 70.3111 0.86489 70.2869 0.991201C70.2723 1.0495 70.2577 1.11265 70.18 1.11265C70.0439 1.11265 69.6067 1.03978 69.3104 1.03978C67.8869 1.03978 67.338 1.95311 67.338 2.74498C67.338 3.51742 67.7461 4.06153 68.5379 4.06153C69.4464 4.06153 70.0634 3.4737 70.1605 3.4737Z" fill="#286017"/>
<path d="M76.9619 2.45837C76.9619 4.07126 75.7376 5.09147 74.319 5.09147C72.5944 5.09147 71.5742 3.92552 71.5742 2.52638C71.5742 0.898917 72.9394 0.0293148 74.3871 0.0293148C75.9077 0.0244567 76.9619 1.0058 76.9619 2.45837ZM73.0317 2.59925C73.0317 3.54658 73.498 4.11984 74.2705 4.11984C75.1741 4.11984 75.6842 3.30854 75.6842 2.42922C75.6842 1.63249 75.2664 0.9815 74.4114 0.9815C74.0616 0.9815 73.0317 1.13696 73.0317 2.59925Z" fill="#286017"/>
<path d="M82.9082 0.175734C83.1074 0.175734 83.1559 0.224316 83.1559 0.404066C83.1559 1.19108 83.0636 2.43961 83.0345 3.22663L83.0005 4.62576C82.9956 4.8881 82.9956 4.95611 82.6604 4.95611C82.5875 4.95611 82.0386 4.95126 81.9754 4.94154C81.8394 4.92211 81.8345 4.91239 81.475 4.378C81.3487 4.18853 79.799 2.221 79.5464 1.90522C79.5464 1.93923 79.5318 4.72778 79.4978 4.85895C79.4784 4.93182 79.4346 4.93668 79.012 4.93668C78.5407 4.93668 78.4533 4.93668 78.4193 4.89296C78.3901 4.86381 78.3901 4.73749 78.3901 4.69377C78.3901 4.47516 78.4193 3.24606 78.4241 2.91085C78.429 2.47362 78.4873 0.520654 78.5067 0.321471C78.5213 0.214593 78.5553 0.180587 78.7399 0.170871C78.7739 0.166013 79.0314 0.166016 79.0994 0.166016C79.629 0.166016 79.7164 0.17087 79.7844 0.200019C79.935 0.277748 81.3341 2.08983 81.3633 2.12383C81.7957 2.71652 81.8442 2.77968 81.9511 2.91571C81.9657 2.51249 82.0143 0.462362 82.0289 0.3652C82.0483 0.204882 82.1066 0.180589 82.4321 0.180589L82.9082 0.175734Z" fill="#286017"/>
<path d="M85.993 0.175781H87.3144C87.6107 0.175781 87.6836 0.180635 87.7322 0.224358C87.7759 0.253507 87.7759 0.287517 87.7759 0.569287C87.7759 1.12797 87.7613 1.12797 87.4796 1.12797L86.9306 1.12311L86.0902 1.12797L86.0464 2.1336C86.3379 2.12874 86.9598 2.11416 87.2415 2.11416C87.5719 2.11416 87.6253 2.1336 87.6253 2.33278C87.6253 2.33278 87.6205 2.82831 87.5913 2.9692C87.5622 3.07607 87.499 3.07607 87.2998 3.07607C87.1638 3.07607 86.576 3.0615 86.4594 3.05664C86.3039 3.05664 86.163 3.0615 86.027 3.0615C86.0221 3.44529 85.9978 4.1983 85.9978 4.57723C85.9978 4.90272 85.9979 4.93672 85.7452 4.93672C85.5898 4.93672 84.8465 4.93673 84.7687 4.893C84.7104 4.86385 84.7104 4.81042 84.7104 4.7084C84.7104 3.68334 84.7104 2.62912 84.7153 1.5992C84.7202 1.4486 84.7444 0.787899 84.7444 0.695595C84.7444 0.185494 84.759 0.185492 85.1428 0.185492L85.993 0.175781Z" fill="#286017"/>
<path d="M90.3703 0.209784C90.4481 0.224359 90.4529 0.287518 90.4529 0.365247C90.4529 0.438119 90.3898 2.15303 90.38 2.48824C90.3655 2.85746 90.3315 4.79585 90.3217 4.82985C90.3072 4.90272 90.2489 4.92701 90.108 4.92701C89.627 4.92701 89.3064 4.93187 89.1267 4.92701C88.9858 4.92701 88.9712 4.88329 88.9712 4.69382C88.9712 4.3246 89.0003 3.11008 89.0149 2.72143C89.0198 2.30363 89.0732 0.559568 89.0878 0.331237C89.0878 0.248649 89.1024 0.175781 89.3015 0.175781C89.4376 0.175781 89.6076 0.180639 89.8942 0.190355C90.1274 0.195213 90.2926 0.19521 90.3703 0.209784Z" fill="#286017"/>
<path d="M93.0617 3.79904C92.9889 3.9545 92.6925 4.63464 92.6293 4.76581C92.5322 4.98442 92.503 5.033 92.3767 5.033C92.2698 5.033 91.8812 4.99899 91.5897 4.92126C91.4343 4.88726 91.3711 4.86297 91.3711 4.78524C91.3711 4.74151 91.3711 4.74152 91.5071 4.46461C92.0075 3.42011 92.163 3.09462 93.2269 1.0785C93.6738 0.242906 93.7661 0.194322 94.0382 0.111734C94.2131 0.0534372 94.5386 0 94.6746 0C94.7718 0 94.8106 0.0291484 94.9175 0.310919C95.1556 0.966764 96.3652 4.6395 96.3652 4.75123C96.3652 4.85811 96.3215 4.86297 95.8017 4.9407C95.3985 4.999 95.2722 5.01843 95.1167 5.01843C95.0195 5.01843 95.0098 5.01357 94.9321 4.74151C94.8981 4.64435 94.7912 4.27999 94.6406 3.82333C94.388 3.82819 93.2901 3.80876 93.0617 3.79904ZM94.2034 2.24445C94.0625 1.75863 94.0479 1.70519 94.0042 1.57402C93.9556 1.70033 93.9119 1.82179 93.8439 1.99182C93.7856 2.11813 93.4892 2.76912 93.4261 2.91972C93.567 2.92458 94.2519 2.93916 94.4026 2.93916C94.3637 2.79827 94.3491 2.73997 94.2034 2.24445Z" fill="#286017"/>
<path d="M102.112 0.175734C102.311 0.175734 102.36 0.224316 102.36 0.404066C102.36 1.19108 102.268 2.43961 102.239 3.22663L102.205 4.62576C102.2 4.8881 102.2 4.95611 101.865 4.95611C101.792 4.95611 101.243 4.95126 101.18 4.94154C101.043 4.92211 101.039 4.91239 100.679 4.378C100.553 4.18853 99.0031 2.221 98.7505 1.90522C98.7505 1.93923 98.7359 4.72778 98.7019 4.85895C98.6825 4.93182 98.6387 4.93668 98.2161 4.93668C97.7448 4.93668 97.6574 4.93668 97.6234 4.89296C97.5942 4.86381 97.5942 4.73749 97.5942 4.69377C97.5942 4.47516 97.6234 3.24606 97.6282 2.91085C97.6331 2.47362 97.6914 0.520654 97.7108 0.321471C97.7254 0.214593 97.7594 0.180587 97.944 0.170871C97.978 0.166013 98.2355 0.166016 98.3035 0.166016C98.8331 0.166016 98.9205 0.17087 98.9885 0.200019C99.1391 0.277748 100.538 2.08983 100.567 2.12383C101 2.71652 101.048 2.77968 101.155 2.91571C101.17 2.51249 101.218 0.462362 101.233 0.3652C101.252 0.204882 101.311 0.180589 101.636 0.180589L102.112 0.175734Z" fill="#286017"/>
<path d="M106.237 4.93172L103.783 4.92686C103.521 4.92686 103.438 4.88314 103.438 4.78597C103.438 4.67424 103.516 4.53822 103.876 4.02326C104.119 3.68319 104.206 3.54716 105.051 2.31805C105.639 1.49217 105.702 1.39987 105.872 1.13754C105.469 1.14239 104.891 1.15697 104.507 1.15697C104.153 1.15697 104.021 1.15697 103.944 1.12296C103.9 1.10353 103.895 1.05981 103.895 0.986936C103.895 0.909206 103.939 0.369952 103.973 0.292222C104.007 0.185343 104.114 0.165914 104.459 0.165914C104.726 0.165914 105.921 0.146484 106.164 0.146484C106.441 0.146484 107.432 0.151338 107.665 0.195061C107.728 0.199919 107.82 0.243639 107.82 0.321369C107.82 0.413673 107.723 0.554559 107.553 0.80718C106.839 1.86625 106.125 2.92046 105.391 3.96982C105.8 3.96496 106.912 3.93581 107.393 3.93581C107.733 3.93581 107.762 3.96982 107.762 4.07669C107.762 4.1107 107.68 4.74225 107.636 4.83456C107.616 4.89771 107.553 4.91715 107.34 4.92686L106.237 4.93172Z" fill="#286017"/>
<path d="M110.05 3.79904C109.978 3.9545 109.681 4.63464 109.618 4.76581C109.521 4.98442 109.492 5.033 109.365 5.033C109.259 5.033 108.87 4.99899 108.578 4.92126C108.423 4.88726 108.36 4.86297 108.36 4.78524C108.36 4.74151 108.36 4.74152 108.496 4.46461C108.996 3.42011 109.152 3.09462 110.216 1.0785C110.663 0.242906 110.755 0.194322 111.027 0.111734C111.202 0.0534372 111.527 0 111.663 0C111.761 0 111.799 0.0291484 111.906 0.310919C112.144 0.966764 113.354 4.6395 113.354 4.75123C113.354 4.85811 113.31 4.86297 112.79 4.9407C112.387 4.999 112.261 5.01843 112.105 5.01843C112.008 5.01843 111.999 5.01357 111.921 4.74151C111.887 4.64435 111.78 4.27999 111.629 3.82333C111.372 3.82819 110.274 3.80876 110.05 3.79904ZM111.187 2.24445C111.046 1.75863 111.032 1.70519 110.988 1.57402C110.94 1.70033 110.896 1.82179 110.828 1.99182C110.769 2.11813 110.473 2.76912 110.41 2.91972C110.551 2.92458 111.236 2.93916 111.386 2.93916C111.348 2.79827 111.333 2.73997 111.187 2.24445Z" fill="#286017"/>
<path d="M116.327 4.49413C116.327 4.79048 115.953 5.09653 115.54 5.09653C115.181 5.09653 114.777 4.85849 114.777 4.58644C114.777 4.24637 115.244 3.91602 115.642 3.91602C116.045 3.91602 116.327 4.2658 116.327 4.49413Z" fill="#286017"/>
<path d="M119.383 4.49413C119.383 4.79048 119.009 5.09653 118.596 5.09653C118.236 5.09653 117.833 4.85849 117.833 4.58644C117.833 4.24637 118.299 3.91602 118.698 3.91602C119.101 3.91602 119.383 4.2658 119.383 4.49413Z" fill="#286017"/>
<path d="M122.438 4.49413C122.438 4.79048 122.064 5.09653 121.651 5.09653C121.292 5.09653 120.889 4.85849 120.889 4.58644C120.889 4.24637 121.355 3.91602 121.753 3.91602C122.152 3.91602 122.438 4.2658 122.438 4.49413Z" fill="#286017"/>
<path d="M125.378 1.09392C125.378 1.24938 125.363 1.92951 125.363 2.07039C125.538 2.05582 125.888 2.03639 126.373 2.03639C126.466 2.03639 127.01 2.03639 127.068 2.04125C127.131 2.05582 127.151 2.09954 127.151 2.17727C127.151 2.22585 127.146 2.45419 127.117 2.76996C127.102 2.8817 127.097 2.92056 126.913 2.92056C126.427 2.92542 125.732 2.92542 125.358 2.92056C125.358 3.04202 125.353 3.80474 125.339 4.03308C125.722 4.0185 125.878 4.01364 127.311 4.01364C127.447 4.01364 127.447 4.04278 127.452 4.13995C127.457 4.42172 127.457 4.59175 127.457 4.72778C127.457 4.90267 127.399 4.93182 126.981 4.93182C126.544 4.93182 126.106 4.93668 125.664 4.93668H124.163C123.959 4.93668 123.959 4.86381 123.959 4.64519C123.959 3.59098 123.978 2.53191 124.008 1.4777C124.022 0.603244 124.022 0.501224 124.037 0.33119C124.042 0.190304 124.08 0.166016 124.367 0.166016C125.436 0.166016 126.058 0.17087 126.918 0.185445C127.194 0.185445 127.292 0.190304 127.292 0.345763C127.292 0.37977 127.263 0.700405 127.248 0.846148C127.219 1.0842 127.219 1.09877 126.981 1.09877C126.869 1.09877 126.359 1.0842 126.252 1.0842H125.378V1.09392Z" fill="#286017"/>
<path d="M131.587 0.33595C131.587 0.433113 131.572 0.603147 131.553 0.821762C131.533 0.991795 131.509 1.06952 131.392 1.06952C131.3 1.06952 131.188 1.03551 130.911 1.03551C130.493 1.03551 130.09 1.17154 130.09 1.43874C130.09 1.60877 130.173 1.67679 130.644 2.08001C131.339 2.6727 131.674 2.96419 131.674 3.55202C131.674 4.35846 130.911 5.07746 129.658 5.07746C129.362 5.07746 129.031 5.04832 128.677 5.0046C128.463 4.98516 128.448 4.922 128.448 4.75683C128.448 4.64995 128.492 4.21272 128.521 4.13499C128.541 4.07669 128.594 4.06212 128.662 4.06212C128.769 4.06212 129.211 4.169 129.59 4.169C129.911 4.169 130.285 4.02811 130.285 3.70747C130.285 3.50829 130.221 3.44514 129.614 2.8816C128.915 2.22575 128.74 1.9537 128.74 1.53104C128.74 0.938352 129.226 0.146484 130.819 0.146484C131.446 0.151342 131.587 0.161058 131.587 0.33595Z" fill="#286017"/>
<path d="M42.222 26.8358V20.3794C42.222 20.3794 34.896 20.3794 34.1041 20.3794C34.1041 19.568 34.1041 16.5269 34.1041 15.7156C34.9688 15.7156 43.1839 15.7156 45.3992 15.7156V9.71094L26.438 9.7158C26.438 9.7158 26.438 28.6673 26.438 31.9417C26.438 35.216 26.4428 37.4848 29.8824 37.4848C32.977 37.4848 45.4041 37.4945 45.4041 37.4945V31.4947H35.7073C35.0854 31.4947 34.6725 31.3781 34.4442 31.1449C34.1381 30.8292 34.0701 30.2073 34.0701 29.4057C34.0701 29.1191 34.109 26.9864 34.109 26.8358H42.222Z" fill="#D40026"/>
<path d="M117.624 26.8358V20.3794C117.624 20.3794 110.298 20.3794 109.506 20.3794C109.506 19.568 109.506 16.5269 109.506 15.7156C110.371 15.7156 118.586 15.7156 120.802 15.7156V9.71094L101.84 9.7158C101.84 9.7158 101.84 28.6673 101.84 31.9417C101.84 35.216 101.85 37.4848 105.285 37.4848C108.374 37.4848 120.806 37.4945 120.806 37.4945V31.4947H111.11C110.488 31.4947 110.08 31.3781 109.847 31.1449C109.54 30.8292 109.472 30.2073 109.472 29.4057C109.472 29.1191 109.511 26.9864 109.511 26.8358H117.624Z" fill="#D40026"/>
<path d="M74.4653 9.72656L74.4507 31.384C74.4507 34.809 74.8345 37.4421 79.6683 37.5976C81.0626 37.6413 84.1086 37.685 86.3482 37.6024C97.347 37.6024 99.6594 30.3735 99.6594 23.8394C99.6594 10.2464 89.4768 9.73628 86.3579 9.73628L74.4653 9.72656ZM84.7499 32.1613C82.3985 32.1613 82.1314 30.427 82.1314 27.9396V15.464C82.1314 15.464 83.8365 15.464 84.6916 15.464C86.9312 15.464 92.2362 16.8583 92.2362 23.8928C92.2362 31.3306 87.1303 32.1613 84.7499 32.1613Z" fill="#D40026"/>
</svg>
