<svg width="158" height="42" viewBox="0 0 158 42" fill="none" xmlns="http://www.w3.org/2000/svg">
<path fill-rule="evenodd" clip-rule="evenodd" d="M20.6832 12.3962C18.2359 12.3962 16.1045 13.2645 14.3675 15.0003C12.6314 16.7377 11.7622 18.8693 11.7622 21.3164C11.7622 23.8427 12.6314 25.8955 14.3675 27.6316C16.1045 29.4478 18.2359 30.3164 20.6832 30.3164C23.1307 30.3164 25.262 29.4478 26.9981 27.6316C28.7351 25.8955 29.6037 23.8427 29.6037 21.3164C29.6037 18.8693 28.7351 16.7377 26.9981 15.0003C25.262 13.2645 23.1307 12.3962 20.6832 12.3962Z" fill="#012148"/>
<path fill-rule="evenodd" clip-rule="evenodd" d="M20.6832 10.8169V0.632454C17.0523 0.632454 13.657 1.58 10.499 3.3166V18.79C11.0525 16.5005 12.3153 14.6063 14.131 13.1849C16.1045 11.606 18.2359 10.8169 20.6832 10.8169Z" fill="#012148"/>
<path fill-rule="evenodd" clip-rule="evenodd" d="M18.4725 31.7363C16.1048 31.1832 14.2105 29.9211 12.7888 28.0261C11.21 26.1312 10.4993 23.9998 10.4993 21.5525H0C0 25.1841 0.947119 28.5786 2.76344 31.7363H18.4725Z" fill="#012148"/>
<path fill-rule="evenodd" clip-rule="evenodd" d="M30.9464 24.0003C30.3939 26.2898 29.2097 28.1848 27.3155 29.6841C25.4205 31.1837 23.2096 31.9736 20.7622 31.9736V42C24.3938 42 27.7887 41.1314 30.9464 39.3158V24.0003Z" fill="#012148"/>
<path fill-rule="evenodd" clip-rule="evenodd" d="M41.3668 21.2373C41.3668 17.6056 40.4194 14.2107 38.6038 11.0528H23.2886C25.6571 11.6058 27.5516 12.8686 28.9723 14.6836C30.5509 16.6588 31.2622 18.7899 31.2622 21.2373H41.3668Z" fill="#012148"/>
<path fill-rule="evenodd" clip-rule="evenodd" d="M46.104 11.6059V23.6055H49.7353V11.6059H46.104Z" fill="#012148"/>
<path fill-rule="evenodd" clip-rule="evenodd" d="M68.7608 11.6059H65.0506V20.2899L58.0241 11.6059H52.3403V23.6055H56.0506V14.843L62.9978 23.6055H68.7608V11.6059Z" fill="#012148"/>
<path fill-rule="evenodd" clip-rule="evenodd" d="M74.8394 16.3427V14.4476H81.3914C82.1022 14.4476 82.4968 14.7638 82.4968 15.3952C82.4968 16.0266 82.1022 16.3427 81.3914 16.3427H74.8394ZM74.8394 18.7899H81.4703C82.3391 18.7899 82.8129 19.1845 82.8129 19.8156C82.8129 20.4474 82.3391 20.6842 81.4703 20.6842H74.8394V18.7899ZM84.3919 17.5271V17.4479C85.0224 17.2896 85.4169 17.0534 85.6547 16.7373C86.0492 16.3427 86.2069 15.6321 86.2069 14.6837C86.2069 13.5793 85.8123 12.7903 85.1025 12.2373C84.3919 11.7635 83.2867 11.6059 81.7864 11.6059H71.1289V23.6055H82.9705C84.155 23.6055 85.0224 23.4477 85.5754 23.0533C86.2069 22.4998 86.6023 21.632 86.6023 20.4474C86.6023 19.5006 86.4437 18.7899 86.1285 18.3953C85.7331 17.9217 85.1809 17.6057 84.3919 17.5271Z" fill="#012148"/>
<path fill-rule="evenodd" clip-rule="evenodd" d="M103.891 11.6062H100.26V18.5531C100.26 19.2641 100.023 19.8159 99.7867 20.132C99.4705 20.5267 98.8382 20.6845 98.1284 20.6845H94.4967C93.7068 20.6845 93.2339 20.5267 92.8394 20.132C92.5224 19.8159 92.444 19.2641 92.444 18.5531V11.6062H88.7339V19.3431C88.7339 20.8424 89.1284 21.9483 89.9183 22.6587C90.7074 23.448 91.9711 23.7637 93.6284 23.7637H98.9967C100.655 23.7637 101.918 23.448 102.707 22.6587C103.497 21.9483 103.891 20.8424 103.891 19.3431V11.6062Z" fill="#012148"/>
<path fill-rule="evenodd" clip-rule="evenodd" d="M109.969 17.4479V14.5269C111.916 14.5269 113.864 14.5269 115.811 14.5269C116.799 14.5269 117.468 14.695 117.468 15.7897C117.468 15.9221 117.468 16.0536 117.468 16.1842C117.468 17.0534 116.995 17.4479 116.127 17.4479H109.969ZM109.969 20.5264H115.811C116.364 20.5264 116.759 20.6056 116.995 20.8421C117.232 21.0795 117.312 21.5527 117.312 22.1848V23.6055H121.021V21.5527C121.021 20.6842 120.864 19.9739 120.469 19.5789C120.152 19.2638 119.68 19.0267 119.048 18.8688C119.837 18.7107 120.39 18.3161 120.706 17.8421C120.942 17.3683 121.101 16.7373 121.101 15.869V15.1583C121.101 13.9747 120.864 13.1056 120.39 12.5534C119.758 11.8427 118.811 11.6059 117.468 11.6059H106.259V23.6055H109.969V20.5264Z" fill="#012148"/>
<path fill-rule="evenodd" clip-rule="evenodd" d="M131.364 16.1062L127.653 15.9485C127.416 15.9485 127.18 15.79 127.101 15.6324C127.022 15.5531 126.943 15.3162 126.943 15.0802C126.943 14.4479 127.416 14.1327 128.364 14.1327H132.468C133.258 14.1327 133.811 14.2111 134.048 14.3696C134.206 14.5272 134.285 14.8433 134.285 15.3955H137.994V15.0001C137.994 13.7373 137.758 12.869 137.205 12.3961C136.574 11.6854 135.232 11.3693 133.338 11.3693H128.128C125.996 11.3693 124.575 11.7638 123.943 12.4745C123.469 13.0275 123.232 13.975 123.232 15.2379C123.232 16.1062 123.311 16.6592 123.469 17.1321C123.549 17.606 123.865 17.922 124.259 18.237C125.048 18.711 126.706 18.9474 129.469 18.9474L133.89 19.1056C134.206 19.1056 134.442 19.2641 134.521 19.4216L134.68 20.0534C134.68 20.4477 134.521 20.7637 134.206 20.922L133.101 21.0798H128.521L127.337 20.8424C127.101 20.6845 126.943 20.2902 126.943 19.6588H123.232V20.5267C123.232 21.7904 123.627 22.6587 124.338 23.1319C124.969 23.5272 126.232 23.7637 127.969 23.7637H132.468C134.917 23.7637 136.574 23.5272 137.285 23.0536C137.758 22.8168 138.075 22.4215 138.232 21.9483C138.39 21.4744 138.468 20.7637 138.468 19.9742C138.468 19.027 138.39 18.3956 138.153 17.922C137.994 17.3686 137.6 16.9736 137.126 16.7376C136.259 16.2638 134.364 16.1062 131.364 16.1062Z" fill="#012148"/>
<path fill-rule="evenodd" clip-rule="evenodd" d="M150.785 11.6059H145.968L139.417 23.6055H143.6L144.626 21.4741L146.048 18.8688L148.416 14.3693L150.785 18.8688H146.048L144.626 21.4741H152.206L153.31 23.6055H157.416L150.785 11.6059Z" fill="#012148"/>
<path fill-rule="evenodd" clip-rule="evenodd" d="M76.3741 33.0708V32.1304L79.7748 32.1246V35.1028C79.2533 35.5199 78.7147 35.8318 78.1595 36.0431C77.6043 36.2527 77.0342 36.3574 76.4507 36.3574C75.6621 36.3574 74.944 36.1893 74.301 35.8505C73.6559 35.514 73.1697 35.0245 72.8408 34.387C72.5115 33.7474 72.3472 33.0333 72.3472 32.2444C72.3472 31.463 72.5115 30.7339 72.8388 30.0572C73.164 29.3785 73.6352 28.8754 74.2485 28.5464C74.8616 28.2192 75.5685 28.0548 76.3684 28.0548C76.948 28.0548 77.4733 28.1484 77.9424 28.3368C78.412 28.524 78.7803 28.7859 79.0457 29.1224C79.3131 29.4588 79.5149 29.8963 79.6554 30.4366L78.696 30.7002C78.5746 30.2906 78.4252 29.9691 78.2473 29.7354C78.068 29.5017 77.8118 29.315 77.4791 29.1747C77.1481 29.0343 76.7779 28.9635 76.3741 28.9635C75.888 28.9635 75.4675 29.038 75.1141 29.186C74.7589 29.3337 74.4748 29.5279 74.256 29.7691C74.039 30.0103 73.8709 30.2739 73.7492 30.5635C73.5454 31.0591 73.4426 31.5977 73.4426 32.179C73.4426 32.8948 73.5661 33.4932 73.8127 33.9756C74.0597 34.4577 74.4186 34.8149 74.8898 35.0487C75.3607 35.2824 75.8601 35.4001 76.3891 35.4001C76.8511 35.4001 77.2994 35.3103 77.737 35.133C78.1765 34.9572 78.5072 34.7684 78.7334 34.5666V33.0708H76.3741Z" fill="#012148"/>
<path fill-rule="evenodd" clip-rule="evenodd" d="M81.2051 36.2207V30.4046H82.0914V31.2851C82.3178 30.8737 82.5269 30.6005 82.7193 30.4699C82.9101 30.3389 83.1217 30.2716 83.3516 30.2716C83.6843 30.2716 84.0205 30.3784 84.3645 30.5896L84.024 31.5058C83.7853 31.362 83.5441 31.2905 83.3028 31.2905C83.086 31.2905 82.8935 31.3561 82.7211 31.4851C82.5495 31.616 82.4276 31.7953 82.3553 32.0253C82.2447 32.375 82.1907 32.7581 82.1907 33.1752V36.2207H81.2051Z" fill="#012148"/>
<path fill-rule="evenodd" clip-rule="evenodd" d="M88.7633 36.2207V35.366C88.3087 36.0244 87.6939 36.3516 86.9161 36.3516C86.5739 36.3516 86.2525 36.286 85.9555 36.155C85.6585 36.0244 85.4373 35.858 85.2936 35.6596C85.1482 35.4596 85.0472 35.2163 84.9888 34.9286C84.9496 34.7343 84.9287 34.4278 84.9287 34.007V30.4045H85.9137V33.6293C85.9137 34.1454 85.9346 34.4914 85.9738 34.6707C86.0374 34.9306 86.1689 35.1326 86.3683 35.282C86.5704 35.43 86.8195 35.5024 87.1147 35.5024C87.41 35.5024 87.6869 35.4276 87.9464 35.2766C88.206 35.1251 88.3897 34.9173 88.496 34.6577C88.6048 34.3957 88.6588 34.0165 88.6588 33.5211V30.4045H89.6438V36.2207H88.7633Z" fill="#012148"/>
<path fill-rule="evenodd" clip-rule="evenodd" d="M91.1895 38.4492V30.4048H92.0874V31.16C92.299 30.8648 92.5376 30.6423 92.805 30.4943C93.0706 30.3466 93.3937 30.2718 93.7735 30.2718C94.2707 30.2718 94.7079 30.4007 95.0877 30.6551C95.4691 30.9114 95.7548 31.2719 95.9473 31.7377C96.1423 32.2031 96.239 32.7134 96.239 33.2686C96.239 33.8632 96.1328 34.3997 95.9176 34.8767C95.7051 35.3534 95.3942 35.718 94.9866 35.9722C94.579 36.2246 94.1514 36.3518 93.702 36.3518C93.3737 36.3518 93.0793 36.2825 92.8181 36.144C92.5568 36.0059 92.3434 35.8299 92.1753 35.6188V38.4492H91.1895ZM92.0813 33.3455C92.0813 34.0933 92.2328 34.6467 92.5359 35.0056C92.839 35.3629 93.2074 35.5422 93.6367 35.5422C94.0748 35.5422 94.4502 35.3571 94.7628 34.9849C95.0746 34.6148 95.2314 34.0408 95.2314 33.2632C95.2314 32.5208 95.0781 31.9677 94.7733 31.5976C94.4693 31.2291 94.1044 31.044 93.682 31.044C93.2614 31.044 92.8895 31.2403 92.5655 31.6329C92.2424 32.0255 92.0813 32.5974 92.0813 33.3455Z" fill="#012148"/>
<path fill-rule="evenodd" clip-rule="evenodd" d="M97.0605 33.3116C97.0605 32.2348 97.3593 31.4364 97.9593 30.9186C98.4592 30.4886 99.068 30.2715 99.7882 30.2715C100.588 30.2715 101.243 30.5335 101.749 31.0588C102.257 31.5824 102.51 32.3056 102.51 33.2292C102.51 33.979 102.398 34.5679 102.174 34.9959C101.949 35.426 101.622 35.7586 101.194 35.9964C100.764 36.2336 100.296 36.3516 99.7882 36.3516C98.9748 36.3516 98.3164 36.0917 97.8139 35.5681C97.3105 35.0466 97.0605 34.2947 97.0605 33.3116ZM98.0734 33.3116C98.0734 34.0577 98.2363 34.6145 98.562 34.9847C98.8869 35.3569 99.2962 35.542 99.7882 35.542C100.278 35.542 100.685 35.3552 101.01 34.983C101.334 34.6108 101.497 34.0427 101.497 33.2799C101.497 32.56 101.334 32.0141 101.007 31.6439C100.68 31.2738 100.274 31.0887 99.7882 31.0887C99.2962 31.0887 98.8869 31.2738 98.562 31.6422C98.2363 32.0103 98.0734 32.5675 98.0734 33.3116Z" fill="#012148"/>
<path fill-rule="evenodd" clip-rule="evenodd" d="M106.963 36.2207V28.1909H112.381V29.1387H108.027V31.6252H111.794V32.5731H108.027V36.2207H106.963Z" fill="#012148"/>
<path fill-rule="evenodd" clip-rule="evenodd" d="M113.639 29.3255V28.1909H114.626V29.3255H113.639ZM113.639 36.2207V30.4046H114.626V36.2207H113.639Z" fill="#012148"/>
<path fill-rule="evenodd" clip-rule="evenodd" d="M116.128 36.2207V30.4046H117.014V31.231C117.442 30.5914 118.059 30.2716 118.864 30.2716C119.216 30.2716 119.538 30.3355 119.831 30.4607C120.126 30.5876 120.345 30.7523 120.491 30.9581C120.638 31.1616 120.739 31.4048 120.8 31.6851C120.835 31.8681 120.854 32.1879 120.854 32.6441V36.2207H119.867V32.6816C119.867 32.2815 119.829 31.9804 119.753 31.7803C119.676 31.5824 119.539 31.4235 119.345 31.3058C119.148 31.1857 118.921 31.1261 118.657 31.1261C118.236 31.1261 117.876 31.2605 117.568 31.5262C117.264 31.7937 117.113 32.2982 117.113 33.0442V36.2207H116.128Z" fill="#012148"/>
<path fill-rule="evenodd" clip-rule="evenodd" d="M126.161 35.5024C125.795 35.8131 125.443 36.0318 125.107 36.1607C124.769 36.288 124.406 36.3516 124.019 36.3516C123.379 36.3516 122.89 36.1961 122.546 35.8841C122.204 35.5718 122.031 35.1718 122.031 34.6873C122.031 34.4012 122.095 34.1416 122.226 33.9062C122.355 33.6705 122.525 33.4816 122.735 33.3398C122.946 33.1976 123.182 33.0891 123.445 33.0163C123.638 32.9656 123.929 32.9152 124.32 32.8686C125.117 32.7731 125.703 32.6611 126.079 32.5281C126.083 32.3937 126.084 32.3077 126.084 32.2723C126.084 31.8701 125.991 31.5861 125.804 31.4235C125.554 31.1989 125.178 31.0887 124.683 31.0887C124.219 31.0887 123.877 31.1694 123.655 31.332C123.433 31.4942 123.271 31.7821 123.164 32.1957L122.202 32.0627C122.29 31.6514 122.434 31.3166 122.633 31.0645C122.834 30.8101 123.125 30.6138 123.505 30.4773C123.885 30.341 124.324 30.2715 124.824 30.2715C125.322 30.2715 125.724 30.3314 126.034 30.4475C126.345 30.5651 126.573 30.7111 126.72 30.8887C126.867 31.0662 126.968 31.2888 127.027 31.5599C127.059 31.728 127.076 32.0307 127.076 32.4686V33.7827C127.076 34.7006 127.096 35.2803 127.139 35.5211C127.18 35.7644 127.265 35.9981 127.387 36.2207H126.358C126.257 36.0169 126.19 35.7774 126.161 35.5024ZM126.079 33.3003C125.72 33.448 125.184 33.5715 124.47 33.6742C124.064 33.7324 123.776 33.7973 123.609 33.8705C123.441 33.9437 123.311 34.0502 123.221 34.1924C123.129 34.3322 123.082 34.4873 123.082 34.6595C123.082 34.9231 123.183 35.1419 123.381 35.3177C123.58 35.4915 123.871 35.5793 124.255 35.5793C124.634 35.5793 124.972 35.497 125.268 35.3307C125.564 35.1643 125.782 34.9361 125.921 34.6482C126.027 34.4257 126.079 34.0968 126.079 33.663V33.3003Z" fill="#012148"/>
<path fill-rule="evenodd" clip-rule="evenodd" d="M128.605 36.2207V30.4046H129.492V31.231C129.919 30.5914 130.536 30.2716 131.342 30.2716C131.693 30.2716 132.015 30.3355 132.308 30.4607C132.604 30.5876 132.823 30.7523 132.968 30.9581C133.116 31.1616 133.217 31.4048 133.277 31.6851C133.312 31.8681 133.331 32.1879 133.331 32.6441V36.2207H132.344V32.6816C132.344 32.2815 132.306 31.9804 132.23 31.7803C132.153 31.5824 132.017 31.4235 131.822 31.3058C131.626 31.1857 131.398 31.1261 131.134 31.1261C130.713 31.1261 130.353 31.2605 130.046 31.5262C129.742 31.7937 129.59 32.2982 129.59 33.0442V36.2207H128.605Z" fill="#012148"/>
<path fill-rule="evenodd" clip-rule="evenodd" d="M138.639 34.0893L139.607 34.2165C139.503 34.884 139.231 35.4072 138.794 35.7852C138.358 36.1625 137.822 36.3516 137.186 36.3516C136.391 36.3516 135.75 36.0917 135.267 35.5718C134.784 35.0521 134.541 34.306 134.541 33.334C134.541 32.706 134.646 32.1563 134.853 31.685C135.063 31.2139 135.378 30.8605 135.805 30.625C136.229 30.3893 136.692 30.2715 137.191 30.2715C137.823 30.2715 138.342 30.4325 138.741 30.7523C139.143 31.0717 139.402 31.5245 139.516 32.1131L138.556 32.2607C138.465 31.8701 138.304 31.5765 138.072 31.3782C137.84 31.1823 137.56 31.0832 137.23 31.0832C136.733 31.0832 136.33 31.2605 136.019 31.6177C135.709 31.9729 135.554 32.5356 135.554 33.3058C135.554 34.0875 135.704 34.6557 136.004 35.0109C136.304 35.3644 136.694 35.542 137.176 35.542C137.564 35.542 137.885 35.4222 138.145 35.1847C138.404 34.9472 138.57 34.5829 138.639 34.0893Z" fill="#012148"/>
<path fill-rule="evenodd" clip-rule="evenodd" d="M140.457 29.3255V28.1909H141.443V29.3255H140.457ZM140.457 36.2207V30.4046H141.443V36.2207H140.457Z" fill="#012148"/>
<path fill-rule="evenodd" clip-rule="evenodd" d="M146.925 34.3475L147.943 34.4727C147.782 35.0691 147.485 35.5307 147.052 35.8597C146.616 36.187 146.061 36.3516 145.386 36.3516C144.536 36.3516 143.861 36.0897 143.363 35.5664C142.864 35.0428 142.615 34.3081 142.615 33.3619C142.615 32.3825 142.868 31.6235 143.37 31.0832C143.875 30.5427 144.528 30.2715 145.332 30.2715C146.109 30.2715 146.745 30.5373 147.236 31.0662C147.73 31.5952 147.977 32.3414 147.977 33.3003C147.977 33.3602 147.975 33.448 147.971 33.564H143.634C143.67 34.2033 143.851 34.6932 144.176 35.0316C144.502 35.3718 144.906 35.542 145.392 35.542C145.752 35.542 146.061 35.4463 146.317 35.2558C146.573 35.067 146.775 34.7642 146.925 34.3475ZM143.688 32.7526H146.936C146.893 32.2648 146.768 31.8963 146.564 31.6534C146.25 31.2738 145.842 31.0832 145.343 31.0832C144.89 31.0832 144.509 31.2343 144.201 31.5374C143.892 31.8402 143.722 32.2461 143.688 32.7526Z" fill="#012148"/>
<path fill-rule="evenodd" clip-rule="evenodd" d="M149.172 36.2207V30.4046H150.058V31.2851C150.285 30.8737 150.494 30.6005 150.686 30.4699C150.877 30.3389 151.089 30.2716 151.319 30.2716C151.65 30.2716 151.988 30.3784 152.332 30.5896L151.991 31.5058C151.752 31.362 151.511 31.2905 151.27 31.2905C151.053 31.2905 150.861 31.3561 150.688 31.4851C150.517 31.616 150.395 31.7953 150.322 32.0253C150.212 32.375 150.158 32.7581 150.158 33.1752V36.2207H149.172Z" fill="#012148"/>
<path fill-rule="evenodd" clip-rule="evenodd" d="M152.55 33.3116C152.55 32.2348 152.849 31.4364 153.449 30.9186C153.948 30.4886 154.558 30.2715 155.278 30.2715C156.078 30.2715 156.732 30.5335 157.239 31.0588C157.747 31.5824 158 32.3056 158 33.2292C158 33.979 157.888 34.5679 157.663 34.9959C157.439 35.426 157.112 35.7586 156.683 35.9964C156.254 36.2336 155.786 36.3516 155.278 36.3516C154.464 36.3516 153.807 36.0917 153.303 35.5681C152.801 35.0466 152.55 34.2947 152.55 33.3116ZM153.564 33.3116C153.564 34.0577 153.726 34.6145 154.051 34.9847C154.377 35.3569 154.785 35.542 155.278 35.542C155.767 35.542 156.175 35.3552 156.5 34.983C156.823 34.6108 156.986 34.0427 156.986 33.2799C156.986 32.56 156.823 32.0141 156.496 31.6439C156.169 31.2738 155.763 31.0887 155.278 31.0887C154.785 31.0887 154.377 31.2738 154.051 31.6422C153.726 32.0103 153.564 32.5675 153.564 33.3116Z" fill="#012148"/>
</svg>
