<svg width="93" height="53" viewBox="0 0 93 53" fill="none" xmlns="http://www.w3.org/2000/svg">
<path d="M92.9997 27.8337C92.8752 41.6932 62.3048 52.3821 36.7823 52.1532C11.2586 51.924 -1.37584 39.9932 0.11876 26.2133C1.67395 11.8598 5.83994 0.419214 31.2835 0.00857916C56.8043 -0.401689 93.1249 13.974 92.9997 27.8337Z" fill="#EA2922"/>
<path d="M77.9231 22.3048L74.9373 27.4201C74.1784 28.7335 72.974 29.4084 72.3152 29.4044C71.9066 29.4023 71.1877 29.376 71.8327 27.6308C72.6217 25.5 75.3798 21.4281 77.3104 21.4387C78.0363 21.443 78.0235 22.032 77.9231 22.3048ZM51.8892 22.5052C51.4138 22.6838 50.9667 23.0917 50.7334 23.7249C50.5654 24.1783 50.5588 24.5649 50.9927 24.6804C49.6407 27.3529 47.7282 29.3859 46.6153 29.3803C45.7522 29.3752 45.5833 29.0346 46.1366 27.5384C46.9587 25.3175 49.9015 21.1773 51.5133 21.1869C52.1027 21.1896 52.1965 21.5541 51.8892 22.5052ZM35.5999 22.0775L32.614 27.1928C31.8559 28.5062 30.6494 29.1808 29.9917 29.1777C29.5826 29.1748 28.8644 29.1486 29.51 27.4042C30.2989 25.2733 33.057 21.2015 34.9873 21.2113C35.7134 21.2143 35.7 21.8059 35.5999 22.0775ZM84.407 30.8153C84.0138 28.2529 78.7514 29.3483 78.7514 29.3483C78.7514 29.3483 77.1667 29.5744 77.5971 28.5933C77.6853 28.3936 77.7792 28.1619 77.9568 27.8678L82.444 20.1716L79.1738 20.1541L78.4789 21.3537L78.5373 21.1955C78.7814 20.539 78.4217 20.0371 77.1255 20.0305C73.176 20.009 69.4886 24.8703 68.3568 27.9296C68.2161 28.3092 68.1161 28.6526 68.0564 28.965C67.6924 29.2289 67.3171 29.3777 66.8876 29.375C66.2069 29.3715 66.1223 28.9847 66.3316 28.4187C66.8009 27.1496 68.9067 24.4143 69.5851 22.5776C70.2574 20.7653 69.4658 20.0116 68.0121 20.0035C67.1709 19.9993 65.8554 20.2423 64.1439 21.9132C64.4146 20.5061 63.7291 19.9589 62.5265 19.9517C61.7317 19.947 60.6346 20.1455 59.2778 21.2279L59.9641 20.0514L56.694 20.0332L54.7784 23.3198C54.3569 23.4293 53.9659 23.4942 53.6405 23.4917C53.5731 23.4907 53.4817 23.4906 53.4079 23.445C54.2879 21.0649 53.7956 19.8133 51.8418 19.8029C47.1656 19.7779 43.6088 25.2084 42.6442 27.8145C42.5167 28.16 42.4273 28.4771 42.3718 28.7668C41.9266 29.0646 41.4723 29.2386 41.071 29.2373C40.4359 29.2332 40.2163 29.0282 40.4507 28.3933C40.5262 28.1893 40.6331 27.9628 40.81 27.6691L47.9496 15.4453L44.4218 15.8815L37.7914 27.221C37.4751 27.7646 37.2233 28.2628 37.0647 28.6925C37.0404 28.7555 37.0191 28.8172 36.9988 28.8777C36.6138 29.1693 36.2202 29.348 35.8451 29.3445C35.209 29.3415 35.0397 29.0001 35.2741 28.3651C35.3501 28.1615 35.4565 27.9353 35.6337 27.6398L40.1194 19.9446L36.8496 19.9279L36.1556 21.1271L36.215 20.9676C36.4581 20.3117 36.0978 19.8096 34.8038 19.8021C30.8516 19.7814 27.1652 24.6436 26.032 27.7026C25.0343 30.3995 26.1582 31.36 27.7022 31.3671C29.3149 31.3763 30.7679 30.3391 31.8566 29.3009C31.4909 30.6609 32.0393 31.3902 33.3105 31.3973C34.1054 31.4013 35.3191 31.1991 36.7997 30.0535C36.84 30.9953 37.5099 31.421 38.4871 31.4252C39.3212 31.4299 40.7118 31.2059 42.3518 29.9049C42.5712 30.9606 43.5493 31.4074 44.9518 31.4148C47.7457 31.4299 50.989 28.8139 52.9035 24.6229C53.3295 24.5592 53.7542 24.4714 54.1696 24.362L50.095 31.3507L53.3642 31.3693L57.6007 24.1032C58.3606 22.9724 59.3331 22.0002 60.2191 22.0058C60.7192 22.0081 60.7152 22.5063 60.5319 23.0065C60.4554 23.2095 60.3658 23.3913 60.2543 23.5721L55.7036 31.3821L58.9727 31.3987L63.2097 24.1333C63.969 23.0025 64.9328 22.0533 65.7521 22.0575C66.296 22.0608 66.4184 22.4696 66.1397 23.2173C65.6042 24.668 63.5508 27.4502 62.9807 28.9913C62.5024 30.2829 62.7374 31.5554 64.7116 31.5656C65.5029 31.5702 66.6064 31.3704 68.02 30.1794C68.2091 31.1884 69.0296 31.5896 70.0248 31.5945C71.6376 31.603 73.1211 30.5442 74.1889 29.506C73.8835 30.8206 74.4079 31.6182 75.6338 31.6246C75.8102 31.6262 75.9749 31.6103 76.1317 31.5818L76.1301 31.5828C77.1847 31.4648 81.7283 30.6514 81.5256 31.7974C81.3567 32.7572 77.7947 32.9961 77.3484 33.0228L22.7875 33.4745L19.9941 38.3262L76.1318 35.1872C80.5252 34.9416 84.9574 34.4045 84.407 30.8153Z" fill="white"/>
<path d="M15.1982 34.9968C14.0977 36.6197 11.7902 38.5775 10.5188 37.5537C9.24706 36.5331 10.4841 34.6518 11.1477 33.6943C14.4138 29.2142 20.9256 25.4083 20.9256 25.4083C20.9256 25.4083 16.3548 33.1238 15.1982 34.9968ZM35.0691 9.28307C35.0691 9.28307 29.2437 8.84686 23.9275 12.6035C20.8529 14.8109 19.415 16.4095 19.2573 19.1121C19.2573 19.1121 19.2258 20.658 21.915 20.5243C21.8604 19.8274 21.8067 14.5505 29.2776 11.5129L22.0408 23.6052C22.0408 23.6052 14.4413 26.746 10.0054 31.6218C5.89633 36.0981 7.3921 37.8806 8.24905 38.7567C9.10513 39.6334 14.5446 40.8522 19.6471 34.9932C19.6471 34.9932 21.2553 32.9843 23.2346 29.5588C25.4005 25.6476 27.7579 21.7014 27.7579 21.7014L30.5914 20.5732L28.0437 21.1334L35.0691 9.28307Z" fill="white"/>
<path d="M83.5329 20.8676L83.7993 20.8696C83.9474 20.8705 84.1744 20.8367 84.2447 20.6471C84.3119 20.4685 84.1252 20.4159 83.9568 20.4146L83.7015 20.4143L83.5329 20.8676ZM83.5468 20.2036L84.0292 20.2067C84.3866 20.2075 84.587 20.3621 84.4844 20.6385C84.4138 20.8266 84.2347 20.9788 84.0376 21.0302L84.1335 21.6694L83.88 21.7033L83.7977 21.0638L83.4617 21.0616L83.23 21.6904L82.9937 21.6896L83.5468 20.2036ZM83.3816 22.0536C83.9288 22.057 84.565 21.5851 84.7908 20.9727C85.0163 20.3594 84.7331 19.882 84.1862 19.8807C83.6337 19.8769 82.9976 20.3487 82.7716 20.9612C82.5446 21.5727 82.8284 22.0501 83.3816 22.0536ZM82.537 20.9595C82.8057 20.2312 83.5819 19.6574 84.2565 19.6602C84.9318 19.6638 85.2824 20.2389 85.0135 20.9676C84.7422 21.6974 83.9674 22.2715 83.2921 22.2686C82.6157 22.2646 82.2681 21.6848 82.537 20.9595Z" fill="#FEFEFE"/>
</svg>
