<svg width="177" height="30" viewBox="0 0 177 30" fill="none" xmlns="http://www.w3.org/2000/svg">
<path d="M78.5837 14.0071C78.5802 12.3541 78.5802 10.7001 78.5837 9.04612C77.162 9.03641 75.7438 9.03905 74.3221 9.04259C74.3185 7.23938 74.315 5.4353 74.3291 3.63563C72.45 3.64534 70.5673 3.64181 68.689 3.63916V9.03905H66.3507C66.3472 10.6939 66.3507 12.3488 66.3507 14.0071H68.6855V14.0107H68.689C68.6952 15.5207 68.6873 17.0325 68.6864 18.5434C68.6855 18.6688 68.6855 18.7942 68.6855 18.9196C68.6855 19.0141 68.6846 19.1094 68.6846 19.2039H68.6855C68.6855 20.0843 68.6881 20.9647 68.6996 21.8452C68.7473 24.2259 69.6136 26.7762 71.6181 28.1749C73.3825 29.4368 75.5804 29.6726 77.69 29.6443C75.9548 27.8367 74.9137 25.1955 74.4951 23.0744L74.4828 23.0126L74.4748 22.9499C74.4183 22.4845 74.3477 21.7365 74.3556 20.9471C74.3424 20.7784 74.3326 20.6106 74.3256 20.4455C74.3194 20.0163 74.3194 19.5872 74.3176 19.1589C74.3097 17.4413 74.3273 15.7256 74.3221 14.0107C75.7402 14.0142 77.162 14.0142 78.5837 14.0071Z" fill="#1D3C6D"/>
<path d="M65.2966 5.18715C65.286 3.52965 65.286 1.87303 65.2966 0.215532C62.5141 -0.251606 59.3095 -0.067049 57.0798 1.85625C55.0849 3.64886 54.6929 6.49937 54.7644 9.04346C54.7458 9.04346 54.7264 9.04346 54.7079 9.04346H52.3271C52.3298 10.6992 52.3298 12.3558 52.3271 14.0124H54.3856C54.5162 14.0115 54.6469 14.0107 54.7776 14.0107V14.0124H54.7891V16.7278H54.7803C54.7847 20.7925 54.7865 24.859 54.7776 28.9237H57.3968C58.4317 28.9237 59.4676 28.9246 60.5025 28.9211C60.4998 24.7954 60.4972 20.6707 60.5034 16.5468V14.0071H64.3217C64.3182 12.3496 64.3182 10.6948 64.3217 9.03992C64.3217 9.03992 60.5758 9.03992 60.4751 9.03992C60.5263 7.92197 60.3974 6.58502 61.3176 5.75672C62.4258 4.82597 63.9703 5.12886 65.2966 5.18715Z" fill="#1D3C6D"/>
<path d="M44.5433 28.924H47.0865C47.5678 28.924 48.049 28.9231 48.5312 28.924H50.1383C50.1039 24.6659 50.1719 20.4078 50.1039 16.1488C50.0598 13.6497 49.1114 10.8778 46.7289 9.7051C43.322 8.01051 39.3297 8.39288 35.6951 8.97569C35.6818 10.7824 35.6915 12.5927 35.6889 14.4038C38.0272 13.8961 40.5775 13.3671 42.8929 14.2334C43.9702 14.6043 44.3729 15.7399 44.5398 16.766C42.9202 16.562 41.2769 16.1761 39.6432 16.5073C37.7067 16.7457 35.7878 17.6941 34.6928 19.3543C32.9267 21.9964 33.4309 25.9922 36.0465 27.9023C38.5014 29.7735 42.0681 29.5721 44.5636 27.8784C44.5601 28.1389 44.5504 28.659 44.5433 28.924ZM44.3075 24.6217C42.8584 25.0685 41.0897 25.563 39.7598 24.5502C38.5456 23.6945 38.7028 21.6317 40.0185 20.957C41.3616 20.2479 42.9299 20.4961 44.3561 20.7795C44.485 22.0582 44.4744 23.3466 44.3075 24.6217Z" fill="#1D3C6D"/>
<path d="M15.2787 1.96218C17.5596 1.97542 19.8405 1.96571 22.1215 1.96571C18.78 6.45959 15.5136 11.0109 12.1518 15.488C15.1453 19.9615 18.0912 24.4616 21.1086 28.9175C18.7429 28.9352 16.3763 28.9113 14.0132 28.9316C11.3782 24.9323 8.73609 20.9364 6.11341 16.93C6.10723 20.9294 6.10723 24.9287 6.11694 28.9281C4.07796 28.9175 2.03898 28.9246 0 28.9246C0.00706446 19.9403 0.00706446 10.9561 0 1.97189C2.03898 1.96218 4.07531 1.97189 6.11341 1.96218C6.10988 6.2035 6.10369 10.4448 6.11694 14.6862C9.15819 10.4351 12.2303 6.20704 15.2787 1.96218Z" fill="#1D3C6D"/>
<path d="M22.5273 9.1036C24.4471 9.09389 26.3695 9.1036 28.2928 9.09389C28.2858 10.362 28.2831 11.63 28.2619 12.8955C29.1935 10.7947 31.2078 9.42768 33.4446 9.06651C33.4481 10.9483 33.472 12.8336 33.4207 14.7154C30.9694 15.0086 28.45 16.8365 28.3608 19.4822C28.2928 22.6259 28.3476 25.7766 28.344 28.9238C26.404 28.9238 24.4639 28.9238 22.5273 28.9194C22.5309 22.3124 22.5309 15.708 22.5273 9.1036Z" fill="#1D3C6D"/>
<path d="M124.881 24.8966C124.076 25.218 123.915 25.3787 122.951 25.7001C121.986 26.0225 120.86 26.0225 119.895 25.7001C116.839 24.4144 118.77 19.7501 118.77 19.7501C131.314 16.6947 129.545 9.94021 126.167 9.6179C124.076 9.6179 116.518 9.94021 112.98 18.6242C112.497 19.9108 109.12 29.0778 116.679 29.7207C118.287 29.7207 120.056 29.56 121.664 28.7564C123.112 27.9519 124.238 26.9868 125.202 25.7001C126.006 24.2528 124.881 24.8966 124.881 24.8966ZM123.112 12.0304C124.076 12.3518 121.664 17.1769 121.664 17.1769C120.699 17.4983 119.734 17.8206 119.091 17.8206C119.413 17.1769 121.181 11.0661 123.112 12.0304Z" fill="#E32726"/>
<path d="M154.15 26.6638C153.989 26.5031 153.668 26.5031 153.507 26.3424C152.542 25.6986 153.346 23.9299 153.507 22.9647L156.402 12.6727C156.563 12.0289 157.688 8.6521 153.185 9.29496C149.325 9.93871 146.591 12.3503 146.591 12.3503C146.913 11.386 147.235 9.93871 146.591 9.6164C145.788 9.29496 141.123 10.7423 139.997 11.7075C139.676 11.7075 139.194 12.1896 139.676 12.6727C140.158 13.3155 140.32 13.7977 139.997 14.9236C139.354 16.8539 137.425 23.6084 136.942 24.8951C136.46 26.1817 135.816 28.5942 136.942 29.3978C137.746 30.0415 141.123 28.5942 141.606 28.2719C142.088 28.1112 142.571 27.7897 142.731 27.629C143.375 26.9853 142.41 26.6638 143.375 23.2861C143.375 23.1254 144.501 19.7486 145.304 16.8539C145.948 14.4414 148.199 13.3155 149.004 13.1548C150.29 12.9941 149.969 14.12 149.808 14.9236C148.682 18.462 147.396 23.7692 146.913 25.0558C146.43 26.3424 145.627 28.9156 146.913 29.3978C148.038 30.2022 153.185 27.9504 153.668 27.629C154.632 26.9853 154.632 26.6638 154.15 26.6638Z" fill="#E32726"/>
<path d="M134.53 26.6639C134.209 26.5032 134.048 26.5032 133.886 26.3425C132.922 25.6987 133.565 23.93 133.886 22.9648L136.943 12.6727C137.103 11.5468 137.746 10.0995 136.943 9.61647C135.977 9.29504 131.313 10.7424 130.188 11.7076C130.026 11.7076 129.544 12.1897 130.026 12.6727C130.509 13.3156 130.509 13.7978 130.188 14.9236C129.705 16.854 127.453 23.7692 126.971 25.0559C126.489 26.3425 125.845 28.9157 127.292 29.3978C128.418 30.2023 133.243 28.1112 133.886 27.6291C135.012 27.146 135.012 26.6639 134.53 26.6639Z" fill="#E32726"/>
<path d="M133.565 7.20481C133.886 7.84767 136.781 6.56194 138.229 5.75747C138.39 5.59676 139.033 5.11373 139.193 4.63158C139.516 3.50568 139.677 3.02353 139.837 2.21906C139.998 1.89763 139.998 1.41548 139.516 1.25388C138.872 1.09316 135.012 1.5762 134.047 3.18424C133.726 3.82711 132.6 6.88337 133.565 7.20481Z" fill="#E32726"/>
<path d="M176.665 18.462C176.183 16.6932 173.287 16.2102 172.162 17.1754C171.519 17.8183 171.197 19.1049 171.358 19.4272C174.092 18.6227 174.574 21.0352 174.092 21.9995C173.127 23.4477 172.805 23.9299 171.519 23.9299H162.995C162.835 23.7692 162.673 23.6085 162.995 23.2861C163.477 22.6433 171.84 11.2253 172.162 10.7423C172.323 10.4209 172.805 9.61642 171.679 9.61642H162.352C161.387 9.61642 160.904 9.93785 160.101 10.7423C159.457 11.5468 158.653 13.9584 158.17 15.5673C158.17 15.5673 158.17 16.2102 159.135 15.4066C159.296 15.245 159.618 14.6022 160.101 14.6022H165.729C167.498 14.6022 158.17 23.4477 155.276 28.1112C154.793 28.9156 155.597 28.9156 156.08 28.9156H168.302C171.358 28.9156 170.876 29.3978 172.484 27.146C172.484 27.146 177.469 20.7138 176.665 18.462Z" fill="#E32726"/>
<path d="M109.441 23.9311L112.819 10.9042C115.07 3.02383 116.357 2.70239 117.161 1.89793H111.854C109.925 1.89793 108.476 4.63187 108.155 6.40152L105.903 14.6034H101.079C101.079 14.6034 103.974 4.14972 104.295 3.02382C104.456 2.54168 104.456 1.89793 103.491 1.89793C103.33 1.89793 93.1985 1.57649 89.9815 2.70239C88.5342 3.18454 86.444 4.47116 85.8003 6.40152C85.3181 7.52742 84.6744 9.61762 86.1226 13.4775C86.2833 13.9596 86.6047 14.2819 86.7654 14.4426C87.2476 14.7641 91.4289 14.1212 91.2681 14.1212C91.5905 14.1212 91.7512 13.9596 91.4289 13.3167C91.1074 12.5123 90.1431 11.0649 89.9815 9.61762C89.3387 3.98901 93.3592 3.18454 94.0021 3.02382C94.9673 2.86311 95.7717 2.86311 96.736 3.02382C97.0584 3.02382 97.8619 3.18454 98.0227 3.50686C98.345 4.14972 97.8619 5.27562 97.5405 6.56224C97.2191 7.52742 94.4851 17.498 93.6807 20.232C93.1985 22.323 91.1074 26.8258 89.0172 27.4695C88.5342 27.6302 87.8913 27.6302 87.2476 27.4695C86.6047 27.3088 85.961 26.9865 85.4788 26.665C84.1922 25.3784 83.3877 22.8052 83.227 20.8757C83.0663 18.4632 83.5493 16.6944 83.0663 16.6944C82.2274 16.6944 79.4246 17.8018 78.2881 18.6177C78.2863 18.6195 78.2846 18.6195 78.2828 18.6213C77.8218 18.9507 77.7918 19.0142 77.7918 19.0142C77.7688 19.0372 77.7503 19.0602 77.7379 19.0813C77.4412 19.5873 77.4615 21.3861 77.5984 22.4838C78.0814 24.8963 79.3681 27.6302 81.2975 28.9168C86.444 32.4544 95.4503 26.0222 96.4146 25.3784C97.8619 24.0918 98.8271 22.323 99.1486 21.0364C99.6316 19.4284 100.435 16.6944 100.435 16.6944H105.26C105.26 16.6944 103.33 23.9311 102.848 25.6999C102.366 27.1472 102.043 29.5597 103.33 29.399C108.155 29.399 110.085 27.6302 110.246 27.4695C110.407 27.3088 110.407 26.9865 110.246 26.8258C109.925 26.665 108.799 25.5391 109.441 23.9311Z" fill="#E32726"/>
</svg>
