<svg width="117" height="59" viewBox="0 0 117 59" fill="none" xmlns="http://www.w3.org/2000/svg">
<path d="M0 7.19172C0 3.30128 3.12458 0.144531 6.98283 0.144531H109.428C113.283 0.144531 116.41 3.30128 116.41 7.19172V51.7691C116.41 55.6596 113.283 58.8131 109.428 58.8131H6.98283C3.12458 58.8131 0 55.6596 0 51.7691V7.19172Z" fill="white"/>
<path d="M0.0805664 6.48083C0.0805664 2.90253 2.95736 0 6.50347 0H110.007C113.553 0 116.427 2.90253 116.427 6.48083V6.68677H0.0805664V6.48083Z" fill="#FBB110"/>
<path d="M116.427 52.3584V52.5193C116.427 56.0976 113.553 59.0001 110.007 59.0001H6.50347C2.95736 59.0001 0.0805664 56.0976 0.0805664 52.5193V52.3584H116.427Z" fill="#FBB110"/>
<path d="M80.6018 29.4308C80.6018 38.4891 87.8775 45.8324 96.8554 45.8324C105.83 45.8324 113.109 38.4891 113.109 29.4308C113.109 20.3692 105.83 13.026 96.8554 13.026C87.8775 13.026 80.6018 20.3692 80.6018 29.4308ZM3.1086 29.4308C3.1086 38.4891 10.3875 45.8324 19.3654 45.8324C28.3401 45.8324 35.6189 38.4891 35.6189 29.4308C35.6189 20.3692 28.3401 13.026 19.3654 13.026C10.3875 13.026 3.1086 20.3692 3.1086 29.4308ZM116.427 49.253H36.285C37.7299 48.2297 39.0749 46.8299 40.5423 44.941L48.7061 34.4282L52.2715 38.975L56.2392 33.6494L52.7703 29.1926L61.0789 18.4899C63.7175 15.0951 58.6719 11.1049 56.0332 14.4998L48.69 23.9604L41.2245 14.3743C38.5826 10.989 33.5466 14.9889 36.1885 18.3773L44.6258 29.1959L35.4967 40.9508C32.253 45.1276 29.0158 48.9569 22.5897 49.253H0.0805664V9.79199H79.8006C78.4297 10.8024 77.1361 12.1571 75.7331 13.9656L67.5726 24.4752L64.0039 19.9316L60.0395 25.2572L63.5084 29.7107L55.1966 40.4134C52.5611 43.8083 57.6068 47.7985 60.2422 44.4036L67.5887 34.9462L75.0542 44.5291C77.6961 47.9175 82.7321 43.9177 80.0902 40.5293L71.6529 29.7075L80.782 17.9558C83.7618 14.1136 86.7383 10.5675 92.1894 9.79199H116.427V49.253ZM87.1245 29.4308C87.1245 24.0054 91.4815 19.6098 96.8554 19.6098C102.229 19.6098 106.583 24.0054 106.583 29.4308C106.583 34.8529 102.229 39.2486 96.8554 39.2486C91.4815 39.2486 87.1245 34.8529 87.1245 29.4308ZM9.63448 29.4308C9.63448 24.0054 13.9915 19.6098 19.3654 19.6098C24.736 19.6098 29.0931 24.0054 29.0931 29.4308C29.0931 34.8529 24.736 39.2486 19.3654 39.2486C13.9915 39.2486 9.63448 34.8529 9.63448 29.4308Z" fill="#E70020"/>
</svg>
