<svg width="146" height="35" viewBox="0 0 146 35" fill="none" xmlns="http://www.w3.org/2000/svg">
<path fill-rule="evenodd" clip-rule="evenodd" d="M42.695 1.23368C42.0745 1.07833 41.4157 0.962024 40.7561 0.807507C37.1108 0.109685 29.9756 -0.859788 22.3751 1.46628C22.3751 1.46628 16.9463 3.09453 16.2484 5.77117C15.5888 8.48603 16.0931 9.76537 17.0626 10.9284C18.032 12.0914 24.5857 18.5288 26.5629 21.8252C28.5409 25.1216 28.8898 26.5164 27.0672 28.4553C25.2055 30.3951 20.4362 33.4581 11.9435 31.0929C11.9435 31.0929 5.11819 29.0377 0 24.6165C0 24.6165 1.86169 28.9987 2.28786 31.132C2.28786 31.132 13.1456 34.5056 18.2256 34.6992C23.3446 34.8927 30.6344 33.3808 34.0861 28.3008C37.537 23.2217 34.1243 19.0331 31.7974 16.3573C29.4713 13.6424 26.4076 10.9284 25.1664 8.87316C23.9253 6.85612 23.3438 4.8017 26.2912 3.87127C29.2387 2.9018 35.598 2.63015 38.0412 3.48332C40.4462 4.37553 40.2518 6.00378 38.7391 8.48603H43.78C44.9821 8.48603 45.7571 8.52425 45.7571 8.52425C45.7571 8.52425 48.3167 6.42995 47.9677 4.3747C47.6969 2.70741 45.4871 1.85424 42.695 1.23368ZM123.587 27.7193C125.021 27.1768 126.65 26.5563 128.472 25.9739C135.142 23.7642 141.308 22.096 141.308 22.096C141.696 22.0578 143.091 22.7947 143.751 23.2599C144.41 23.7251 146 24.6555 146 24.6555C139.524 24.9272 130.14 27.9519 123.587 30.3561C119.826 31.7135 116.956 32.8765 116.141 33.2645C113.814 34.2331 112.651 33.9623 112.419 33.9233C112.263 33.8842 111.527 33.5353 110.673 33.0709C109.743 32.5667 108.656 31.9461 108.036 31.4419C106.834 30.5114 107.609 28.1845 107.609 28.1845C107.997 26.749 109.199 24.7727 110.673 22.7166C113.853 18.2962 118.197 13.5261 118.197 13.5261C120.214 12.4403 122.192 11.7425 123.587 11.3155C124.75 11.0057 125.487 10.8503 125.487 10.8503C132.623 9.29932 134.523 10.8503 134.754 11.161C135.025 11.4327 135.762 12.4412 130.296 17.3658C128.201 19.1876 125.796 20.6622 123.587 21.8252C119.901 23.7251 116.799 24.7336 116.799 24.7336C116.18 25.5095 115.249 27.4867 114.551 29.0385C113.814 30.5895 114.784 30.9775 116.18 30.7058C117.187 30.4724 119.71 29.2321 123.587 27.7193ZM123.587 18.9168C124.28 18.4724 124.941 17.9799 125.565 17.4431C127.425 15.6985 128.589 14.1475 127.309 13.4879C127.309 13.4879 125.914 12.9446 123.587 15.2333L123.431 15.3886C121.028 17.7936 119.089 20.7785 119.361 21.0501C119.553 21.2437 121.726 20.1961 123.587 18.9168ZM110.674 3.01727C110.83 3.01727 111.759 2.93918 110.868 3.9477C110.79 4.02579 110.751 4.10305 110.674 4.18031C109.201 5.80856 102.337 12.8665 101.018 15.5814C101.018 15.5814 100.515 16.7444 101.445 16.0856C102.376 15.4642 106.796 12.8665 106.796 12.8665C106.796 12.8665 109.045 12.5567 110.674 12.4786C111.178 12.4786 111.605 12.4786 111.915 12.5176C112.846 12.673 114.281 13.2935 113.971 14.0686C113.737 14.5338 112.691 16.6663 110.674 19.343C109.084 21.4755 106.913 23.9968 104.159 26.3619C100.979 28.9987 98.9245 30.8205 97.2954 31.868C95.6273 32.9156 94.3861 33.1474 92.9132 32.6049C92.1704 32.3419 91.4453 32.0311 90.7425 31.6745C88.6864 30.705 86.8646 29.6184 85.8553 29.154C85.8553 29.154 85.0794 28.688 85.4673 27.991C85.8553 27.2541 87.2135 24.9654 87.4063 24.3457C87.4063 24.3457 84.1888 24.035 76.6258 30.317C76.6258 30.317 75.7352 31.4801 74.5697 31.1312C73.4066 30.7814 71.2351 29.2313 71.2351 29.2313C71.2351 29.2313 70.9634 28.9987 71.2351 28.4545C71.5458 27.9129 72.7479 26.3228 72.7479 26.3228C72.7479 26.3228 73.3294 25.5851 72.2046 26.0902C71.0415 26.5554 68.0941 28.2618 65.9225 30.2389C65.9225 30.2389 64.7977 31.402 63.2857 31.0157C61.812 30.6269 59.7568 29.542 59.7568 29.542C59.7568 29.542 59.3298 29.3484 59.795 28.4171C60.2992 27.4867 64.7586 20.2344 67.8224 17.0161C67.8224 17.0161 68.2876 16.4736 67.6289 16.1629C66.931 15.814 66.465 15.4651 66.465 15.4651C66.465 15.4651 57.5852 24.035 51.9229 27.8738C48.0068 30.5505 45.331 32.4113 42.6942 32.3723C41.5312 32.3723 40.3673 31.9843 39.088 31.2093C39.088 31.2093 37.1881 30.2398 37.3434 28.418C37.4597 26.7889 38.6227 22.2904 42.6942 17.6366C43.353 16.9006 44.1297 16.1247 44.9821 15.3106C50.9534 9.92072 57.8569 10.5795 60.0666 11.4717C62.2382 12.3249 62.8197 14.9226 58.2058 16.9778C58.2058 16.9778 57.1973 17.7538 53.2421 17.9473C53.2421 17.9473 55.9179 15.2325 56.0733 13.9531C56.2286 12.712 54.7549 12.673 52.7769 14.2248C50.7989 15.7766 44.8275 22.2132 44.1679 26.9052C43.4701 31.5972 49.0153 27.5257 49.0153 27.5257C49.0153 27.5257 55.4527 22.95 59.5632 19.1494C63.6737 15.4277 64.6432 14.4192 64.6432 14.3029C64.6814 14.1857 64.7985 14.2248 64.6432 14.0703C64.6432 14.0703 63.1694 13.2561 64.1771 12.2867C65.1848 11.3172 68.3267 9.18469 70.2266 8.71947C70.2266 8.71947 71.0797 8.29247 71.584 8.87482C72.0874 9.41729 71.6613 9.72716 71.3904 9.92155C71.1188 10.0769 70.4982 10.8129 71.7784 11.5888C72.9805 12.403 76.664 14.2256 76.1207 15.0397C75.6181 15.8539 69.7232 22.214 69.0245 24.0358C69.0245 24.0358 69.0245 24.5019 69.5288 24.192C70.033 23.9203 75.9271 20.5077 77.9051 19.7326C77.9051 19.7326 82.907 13.4505 84.5751 11.9378C84.5751 11.9378 88.414 12.2094 90.004 12.9845C90.004 12.9845 90.6628 13.4497 89.9259 14.1866C89.15 14.8844 84.6898 19.3828 82.7118 22.5629C82.7118 22.5629 81.8985 23.765 82.8289 23.4933C83.7602 23.1835 88.2578 21.0119 90.5066 20.5459C90.5066 20.5459 90.5847 20.3905 90.74 20.1579C91.5542 18.9957 94.23 15.1943 97.2937 11.3164C99.5035 8.48603 101.948 5.61583 104.001 3.71593C104.003 3.71593 107.959 3.09453 110.674 3.01727ZM97.2954 26.3627C97.9151 25.7422 98.5756 25.0045 99.2734 24.2294C102.259 20.5841 103.19 19.3048 102.724 18.3735C102.724 18.3735 100.824 18.1808 97.2954 21.1656C96.9855 21.3982 96.674 21.6699 96.4032 21.9797C92.2935 25.7413 91.0906 29.4647 92.0983 29.6184C92.8742 29.7355 94.9685 28.6115 97.2954 26.3627ZM90.7417 4.64636C91.7494 4.53005 92.5245 4.6854 92.5245 4.6854C94.6578 5.15061 95.5492 7.20586 94.0754 9.22207C93.1832 10.4241 91.9047 10.7731 90.7409 10.8503C89.9267 10.8894 89.1899 10.8113 88.8019 10.695C87.7926 10.4624 85.5437 8.40711 87.4827 6.19651C88.4156 5.11157 89.6941 4.72361 90.7417 4.64636ZM135.996 28.1845H135.84C135.53 28.1845 135.22 28.2236 134.95 28.3399C134.677 28.4562 134.445 28.6115 134.211 28.8441C133.995 29.0674 133.824 29.3307 133.708 29.6192C133.591 29.8909 133.514 30.2007 133.514 30.5114C133.514 30.8213 133.553 31.093 133.708 31.4028C133.824 31.6745 133.979 31.9071 134.211 32.1405C134.405 32.3723 134.677 32.5285 134.95 32.6439C135.259 32.7602 135.53 32.8375 135.84 32.8375H135.996C136.228 32.7985 136.499 32.7594 136.733 32.6439C137.004 32.5276 137.276 32.3723 137.509 32.1405C137.741 31.9469 137.897 31.6745 138.013 31.4028C138.129 31.132 138.168 30.8213 138.168 30.5114C138.168 30.2007 138.129 29.8909 138.013 29.6192C137.905 29.3264 137.733 29.0616 137.509 28.8441C137.277 28.6497 137.043 28.4553 136.733 28.3399C136.499 28.2626 136.267 28.1845 135.996 28.1845ZM135.996 30.3561C136.228 30.317 136.384 30.278 136.499 30.2389C136.616 30.1617 136.693 30.0063 136.693 29.8128C136.693 29.6184 136.615 29.5021 136.499 29.3858C136.383 29.3077 136.228 29.2686 135.996 29.2686H135.259V30.3553H135.84L135.996 30.3561ZM135.996 28.9604C136.384 28.9604 136.655 29.0385 136.849 29.154C137.081 29.3094 137.159 29.5029 137.159 29.7746C137.159 30.0063 137.12 30.1625 136.965 30.317C136.849 30.4724 136.655 30.5496 136.462 30.5887L137.121 31.9843H136.617L135.997 30.6659L135.958 30.6269H135.26V31.9843H134.833V28.9596H135.919L135.996 28.9604ZM135.996 33.1091H135.84C135.491 33.1091 135.142 33.0709 134.832 32.9164C134.522 32.7993 134.25 32.6057 133.979 32.3341C133.742 32.1048 133.557 31.8275 133.436 31.5208C133.281 31.171 133.243 30.8612 133.243 30.5123C133.243 30.1633 133.282 29.8144 133.436 29.5037C133.553 29.1939 133.747 28.8832 134.018 28.6506C134.25 28.3798 134.522 28.2244 134.832 28.0691C135.142 27.9528 135.491 27.8755 135.84 27.8755H135.996C136.306 27.9154 136.577 27.9926 136.849 28.0691C137.159 28.2252 137.469 28.4188 137.703 28.6506C137.934 28.8832 138.128 29.1939 138.283 29.5037C138.4 29.8144 138.476 30.1633 138.476 30.5123C138.476 30.8612 138.4 31.2101 138.283 31.5208C138.127 31.8306 137.934 32.1023 137.703 32.3341C137.43 32.6057 137.159 32.8001 136.849 32.9164C136.58 33.0349 136.29 33.1003 135.996 33.1091Z" fill="#1E447F"/>
</svg>
