<svg width="102" height="62" viewBox="0 0 102 62" fill="none" xmlns="http://www.w3.org/2000/svg">
<path d="M96.071 0C95.47 0 94.8918 0.0934769 94.3454 0.264467C94.3115 0.276196 94.2768 0.287923 94.2429 0.299581C80.6043 4.84642 66.0758 7.35948 51.0005 7.51048C35.9221 7.35948 21.3959 4.84642 7.75778 0.299581C7.72238 0.287923 7.68924 0.276196 7.65356 0.264467C7.10745 0.0934769 6.52962 0 5.92868 0C2.65387 0 0 2.72891 0 6.09345V41.4796V55.1081C0 58.4716 2.65387 61.1996 5.92868 61.1996C6.52962 61.1996 7.10745 61.1061 7.65356 60.9353C7.68924 60.9246 7.72238 60.9126 7.75778 60.9009C21.3959 56.3544 35.9221 53.8418 51.0005 53.6898C66.0758 53.8418 80.6043 56.3544 94.2429 60.9009C94.2768 60.9126 94.3115 60.9246 94.3454 60.9353C94.8918 61.1061 95.47 61.1996 96.071 61.1996C99.3458 61.1996 102 58.4716 102 55.1081V41.4796V6.09345C102 2.72891 99.3458 0 96.071 0Z" fill="#ED323D"/>
<path d="M34.3109 37.4948C31.5743 37.4948 29.8249 35.3175 29.8249 32.6123V32.5474C29.8249 29.9404 31.6069 27.7303 34.1128 27.7303C35.8925 27.7303 37.0147 28.4885 38.1348 29.6759L41.2037 26.3772C39.5537 24.5299 37.4771 23.4087 34.1467 23.4087C29.2796 23.4087 25.67 26.7741 24.9948 31.1247C23.8489 29.4005 21.6661 28.3975 18.5985 27.5976C14.6083 26.5749 13.6182 26.0811 13.6182 24.5628V24.4968C13.6182 23.3751 14.6414 22.4843 16.5869 22.4843C18.5324 22.4843 20.5442 23.3428 22.5884 24.761L25.2268 20.9338C22.8865 19.0527 20.0175 17.998 16.6529 17.998C11.9362 17.998 8.57338 20.7691 8.57338 24.959V25.0247C8.57338 29.6102 11.5743 30.8974 16.2243 32.0851C20.083 33.0757 20.874 33.734 20.874 35.0194V35.0864C20.874 36.4407 19.6212 37.2653 17.5431 37.2653C14.9047 37.2653 12.7289 36.1762 10.6513 34.4596L7.65039 38.0554C10.4204 40.5313 13.9488 41.7527 17.4441 41.7527C21.6793 41.7527 24.8399 39.8888 25.6907 36.5099C27.096 39.6429 30.2101 41.8175 34.0796 41.8175C37.6084 41.8175 39.5863 40.4655 41.3012 38.5834L38.3662 35.6149C37.1473 36.769 35.991 37.4948 34.3109 37.4948Z" fill="#FEFEFE"/>
<path d="M46.7272 27.3489V23.7852H41.7148V41.4706H46.7272V34.9367C46.7272 30.7132 48.772 28.7021 52.1018 28.7021H52.3663V23.4569C49.3988 23.3246 47.7505 24.9077 46.7272 27.3489Z" fill="#FEFEFE"/>
<path d="M81.9197 31.1943C82.3136 28.9181 83.6663 27.4335 85.7424 27.4335C87.8541 27.4335 89.1743 28.9508 89.4711 31.1943H81.9197ZM73.0351 32.6126C73.0351 35.5828 71.0569 37.4952 68.7164 37.4952C66.3748 37.4952 64.4295 35.5492 64.4295 32.6126V32.5481C64.4295 29.6106 66.3748 27.6648 68.7164 27.6648C71.0569 27.6648 73.0351 29.6106 73.0351 32.5481V32.6126ZM85.7424 23.4087C81.8091 23.4087 78.7848 25.8397 77.5774 29.2401C76.419 25.4466 73.2734 23.4087 70.0023 23.4087C67.3968 23.4087 65.716 24.6295 64.4943 26.2794V17.3379H59.4819V41.4238H64.4943V39.1134C65.6813 40.5317 67.3304 41.7531 70.0023 41.7531C73.2997 41.7531 76.3919 39.746 77.5579 36.0098C78.8157 39.5603 82.1075 41.8179 86.2377 41.8179C89.438 41.8179 91.8114 40.5646 93.4606 38.5182L90.591 35.9785C89.206 37.2656 87.9866 37.7921 86.3035 37.7921C84.0614 37.7921 82.4781 36.6051 81.9833 34.3283H94.2854C94.3183 33.8674 94.3504 33.5705 94.3504 33.076V33.0095C94.3504 27.9944 91.6462 23.4087 85.7424 23.4087Z" fill="#FEFEFE"/>
<path d="M95.1838 21.065C95.1838 21.382 95.1213 21.6837 95.0037 21.9671C94.8872 22.2492 94.7239 22.4944 94.5171 22.7041C94.3102 22.9132 94.0664 23.0783 93.7822 23.2021C93.4996 23.326 93.195 23.3883 92.8687 23.3883C92.5401 23.3883 92.2368 23.328 91.9564 23.2059C91.6767 23.085 91.4334 22.9199 91.2261 22.7106C91.0202 22.5022 90.8577 22.257 90.7418 21.9777C90.6253 21.6971 90.5673 21.396 90.5673 21.0794V21.065C90.5673 20.7467 90.6253 20.4465 90.745 20.1626C90.8634 19.8807 91.0259 19.6352 91.2341 19.4261C91.4395 19.216 91.686 19.0507 91.9656 18.9268C92.2513 18.8037 92.5539 18.7414 92.8806 18.7414C93.2105 18.7414 93.5138 18.8022 93.7942 18.9233C94.0749 19.0442 94.3186 19.2087 94.5245 19.4186C94.7322 19.6275 94.8918 19.8722 95.0106 20.1527C95.1243 20.4328 95.1838 20.732 95.1838 21.0508V21.065ZM95.2537 20.0562C95.1213 19.7454 94.9403 19.4732 94.7097 19.2396C94.4792 19.0073 94.2075 18.8241 93.8946 18.6875C93.5804 18.5529 93.2443 18.4844 92.8806 18.4844C92.5202 18.4844 92.1828 18.5529 91.8682 18.6905C91.5516 18.8298 91.276 19.0153 91.0451 19.2503C90.8118 19.4859 90.6281 19.7593 90.4955 20.0699C90.3626 20.3822 90.2979 20.7137 90.2979 21.065V21.0794C90.2979 21.4314 90.3626 21.7619 90.4955 22.0742C90.6281 22.3848 90.81 22.6558 91.0414 22.8891C91.2709 23.1224 91.5429 23.3061 91.8575 23.4417C92.1717 23.5773 92.5068 23.6446 92.8687 23.6446C93.2289 23.6446 93.5679 23.5763 93.884 23.4382C94.1995 23.2999 94.4737 23.1142 94.7065 22.8776C94.9371 22.6433 95.1213 22.3699 95.2537 22.059C95.3863 21.7479 95.4543 21.4159 95.4543 21.065V21.0508C95.4543 20.6995 95.3863 20.3675 95.2537 20.0562Z" fill="#FEFEFE"/>
<path d="M93.0182 20.9565H92.3472V20.1015H93.0182C93.1847 20.1015 93.3141 20.1364 93.4098 20.2084C93.5055 20.2795 93.5514 20.3835 93.5514 20.5218V20.5365C93.5514 20.6649 93.5055 20.7664 93.4098 20.8434C93.3141 20.9189 93.1847 20.9565 93.0182 20.9565ZM93.9056 21.0387C94.0207 20.9039 94.0786 20.7257 94.0786 20.5078V20.4939C94.0786 20.2559 94.0056 20.0676 93.8582 19.9306C93.6636 19.7351 93.3924 19.6387 93.0392 19.6387H91.835V22.3392H92.3472V21.4062H92.8978H92.9113L93.5678 22.3392H94.179L93.4524 21.3202C93.6376 21.2681 93.7867 21.1736 93.9056 21.0387Z" fill="#FEFEFE"/>
<path d="M53.7897 29.691C53.6681 29.7239 53.5465 29.7531 53.4248 29.78V41.4243H58.4372V26.1348C57.4481 27.8211 55.8254 29.1374 53.7897 29.691Z" fill="#FEFEFE"/>
<path d="M57.8898 19.6036C57.6717 19.0908 57.3968 18.6152 57.071 18.1855C57.1562 18.3037 57.2248 18.437 57.2649 18.5856C57.3631 18.9457 57.2901 19.3092 57.1006 19.5985C56.9927 19.7628 56.8484 19.9015 56.6721 20.0014C56.6425 20.0186 56.6125 20.0346 56.5817 20.0495C54.7643 21.0009 53.7854 23.1151 54.3458 25.1761C54.5734 26.0131 55.0273 26.726 55.6205 27.2751C54.9338 27.9205 54.0985 28.4225 53.1528 28.7356C53.272 28.7098 53.3901 28.6899 53.5087 28.6575C54.3907 28.4179 55.182 28.0115 55.8598 27.4827C57.9167 25.8787 58.9239 23.1423 58.1974 20.4683C58.1153 20.1679 58.0082 19.882 57.8898 19.6036Z" fill="#8FD400"/>
</svg>
