<svg width="162" height="34" viewBox="0 0 162 34" fill="none" xmlns="http://www.w3.org/2000/svg">
<path fill-rule="evenodd" clip-rule="evenodd" d="M25.0616 32.7102L26.2258 33.814L27.1835 32.7102H32.0153L33.0733 31.1785H25.6871L25.4761 30.9551H23.1881L23.052 31.1785H1.03701L0 32.7102H25.0616Z" fill="#254AA5"/>
<path fill-rule="evenodd" clip-rule="evenodd" d="M24.452 29.5724H21.4188L20.6242 28.8065H2.56274L3.60573 27.2603H19.0605L19.1203 26.9209H22.167L22.2478 27.2603H35.6375L34.5796 28.8065H23.843C23.843 28.8065 23.9118 29.2011 24.452 29.5724Z" fill="#254AA5"/>
<path fill-rule="evenodd" clip-rule="evenodd" d="M20.3925 24.9153H37.2613L38.3088 23.3777H20.3671L20.611 23.0107H15.2479L15.004 23.3777H6.27252L5.22803 24.9153H16.6575L17.3773 25.5796H20.9432L20.3925 24.9153Z" fill="#254AA5"/>
<path fill-rule="evenodd" clip-rule="evenodd" d="M22.4036 20.8502H40.0222L41.0711 19.3098H23.4705L23.3434 18.9834H18.0566L17.8546 19.3098H9.03633L7.99634 20.8502H16.1696C16.1696 20.8502 16.7143 20.9749 16.3328 21.4985H21.8155L22.4036 20.8502Z" fill="#254AA5"/>
<path fill-rule="evenodd" clip-rule="evenodd" d="M25.2807 16.9401H42.6284L43.6834 15.4025H26.7756L26.6739 15.0791H20.8439L20.6254 15.4025H11.6471L10.5996 16.9401H18.9899C18.9899 16.9401 19.4194 17.1359 19.1201 17.5435H25.0249C25.0249 17.5435 25.0307 17.2955 25.2807 16.9401Z" fill="#254AA5"/>
<path fill-rule="evenodd" clip-rule="evenodd" d="M27.9112 13.6412H21.9181C22.2488 13.1117 21.4512 13.0247 21.4512 13.0247H13.1687L14.2042 11.4828H23.401L23.6345 11.1289H29.665L29.9253 11.4828H46.2465L45.1885 13.0247H28.2688C28.2688 13.0247 28.0129 13.2959 27.9112 13.6412Z" fill="#254AA5"/>
<path fill-rule="evenodd" clip-rule="evenodd" d="M32.1135 9.15979H47.89L48.936 7.61939H33.4618L33.0727 6.95215H26.6038L26.107 7.61939H16.9132L15.8672 9.15979H24.0465C24.0465 9.15979 25.0251 9.16547 24.5822 9.7951H31.8711C31.8711 9.7951 31.8996 9.57898 32.1135 9.15979Z" fill="#254AA5"/>
<path fill-rule="evenodd" clip-rule="evenodd" d="M33.6866 3.7437H51.5012L50.4492 5.28268H35.2488C34.8194 5.28268 34.5306 5.92959 34.5306 5.92959H27.3225C27.6876 5.31459 26.8885 5.28268 26.8885 5.28268H18.4324L19.4649 3.7437H32.7828L33.341 3.24619L34.6772 1.4969H34.357L35.5541 0H36.4654L35.3551 1.4969H35.0857L33.6267 3.30566L33.6866 3.7437Z" fill="#254AA5"/>
<path fill-rule="evenodd" clip-rule="evenodd" d="M61.8958 3.81934L57.7088 9.91573H54.2911L51.4046 14.0772H54.9944L44.7651 28.9823C44.7651 28.9823 43.9705 30.1688 43.9705 31.8659C43.9705 33.5586 46.1612 33.8154 46.1612 33.8154H53.9439L56.3965 29.4958H52.5433C52.5433 29.4958 51.0559 29.3247 51.7517 28.1483C52.455 26.9502 61.4035 14.0772 61.4035 14.0772H65.9181L68.3931 9.91573H64.2586L68.4111 3.81934H61.8958Z" fill="#254AA5"/>
<path fill-rule="evenodd" clip-rule="evenodd" d="M86.1726 33.8154L105.961 3.81934H99.3408L79.563 33.8154H86.1726Z" fill="#254AA5"/>
<path fill-rule="evenodd" clip-rule="evenodd" d="M141.773 33.8154L161.558 3.81934H154.95L135.167 33.8154H141.773Z" fill="#254AA5"/>
<path fill-rule="evenodd" clip-rule="evenodd" d="M69.9432 19.8744H80.4329C80.4329 19.8744 81.6061 17.9264 81.9592 16.3149C82.3169 14.7034 80.397 14.277 78.2482 14.277C76.1128 14.277 72.8282 14.4945 69.9432 19.8744ZM83.1414 24.0721H67.2272C67.2272 24.0721 65.6052 25.9954 65.4226 27.6316C65.4226 27.6316 65.4226 28.982 67.109 28.982H79.3495L76.1443 33.815H66.1753C66.1753 33.815 58.605 33.815 58.605 29.4955C58.605 29.4955 58.5348 26.2667 64.0863 18.7749C69.6394 11.2701 73.4403 10.9814 79.8209 10.9814C86.2 10.9814 87.9313 12.944 87.7323 14.5758C87.5183 16.4367 87.2939 17.4158 83.1414 24.0721Z" fill="#254AA5"/>
<path fill-rule="evenodd" clip-rule="evenodd" d="M124.971 19.8744H135.461C135.461 19.8744 136.637 17.9264 136.987 16.3149C137.343 14.7034 135.416 14.277 133.274 14.277C131.134 14.277 127.85 14.4945 124.971 19.8744ZM138.165 24.0721H122.252C122.252 24.0721 120.625 25.9954 120.45 27.6316C120.45 27.6316 120.45 28.982 122.134 28.982H134.386L131.175 33.815H121.207C121.207 33.815 113.631 33.815 113.631 29.4955C113.631 29.4955 113.553 26.2667 119.114 18.7749C124.666 11.2701 128.466 10.9814 134.847 10.9814C141.228 10.9814 142.949 12.944 142.766 14.5758C142.543 16.4367 142.319 17.4158 138.165 24.0721Z" fill="#254AA5"/>
<path fill-rule="evenodd" clip-rule="evenodd" d="M99.4754 27.6316C99.4754 27.6316 99.4754 28.9834 101.153 28.9834H111.828L108.621 33.815H100.233C100.233 33.815 92.0653 34.0645 92.6623 29.4954C92.6623 29.4954 92.5785 26.2667 98.1331 18.7749C98.1331 18.7749 103.161 10.9814 114.01 10.9814H121.179L117.941 15.7637H112.168C111.643 15.7637 107.448 16.1858 103.691 20.2559C99.9363 24.323 99.634 26.2667 99.4754 27.6316Z" fill="#254AA5"/>
</svg>
