<svg width="134" height="38" viewBox="0 0 134 38" fill="none" xmlns="http://www.w3.org/2000/svg">
<path d="M37.6616 13.8399C39.6752 13.8399 42.2467 14.6091 40.7203 17.4441C39.7622 19.2247 39.1953 20.3613 39.1953 20.3613H28.6153C31.357 15.3421 33.6542 13.8399 37.6616 13.8399ZM26.1394 32.015C23.123 31.5806 24.2211 28.9825 26.0955 25.6081C26.6749 25.6467 28.8518 25.6734 28.8518 25.6734H43.792C43.792 25.6734 44.6756 24.0819 47.0093 19.7271C50.8966 12.4743 46.592 8.18158 39.2109 8.09407C28.6506 7.96874 25.0896 13.046 21.3265 19.6647C19.7886 22.3696 18.0254 25.8309 17.1949 28.3775C16.1269 31.649 16.9639 33.8515 18.3003 35.4349C19.6755 37.0645 21.8736 37.7164 23.679 37.8689C28.6881 38.2927 36.2155 37.5591 36.2155 37.5591L39.2717 31.796C39.2717 31.796 29.7338 32.5327 26.1394 32.015Z" fill="#003896"/>
<path d="M103.006 13.8399C105.019 13.8399 107.591 14.6091 106.065 17.4441C105.106 19.2247 104.539 20.3613 104.539 20.3613H93.9595C96.7011 15.3421 98.9984 13.8399 103.006 13.8399ZM91.4833 32.015C88.4671 31.5806 89.5655 28.9825 91.4397 25.6081C92.0193 25.6467 94.1962 25.6734 94.1962 25.6734H109.136C109.136 25.6734 110.02 24.0819 112.354 19.7271C116.241 12.4743 111.936 8.18158 104.555 8.09407C93.9945 7.96874 90.434 13.046 86.6708 19.6647C85.1327 22.3696 83.3698 25.8309 82.539 28.3775C81.4713 31.649 82.308 33.8515 83.6441 35.4349C85.0196 37.0645 87.2177 37.7164 89.0231 37.8689C94.0323 38.2927 101.56 37.5591 101.56 37.5591L104.616 31.796C104.616 31.796 95.078 32.5327 91.4833 32.015Z" fill="#003896"/>
<path d="M125.839 0.0080386L105.938 37.6559H113.724L133.536 0L125.839 0.0080386Z" fill="#003896"/>
<path d="M88.6699 8.48907C88.6699 8.48907 84.7623 8.02693 80.1044 8.08751C76.6772 8.13256 74.3252 8.57659 72.7407 9.07261V9.07379C66.4029 11.0928 63.9787 15.8488 61.8759 19.6648C60.4229 22.3011 58.6266 25.4782 57.7441 28.3776C55.6911 35.1235 61.0006 37.6214 64.2285 37.869C69.2535 38.2547 75.7558 37.5592 75.7558 37.5592L78.77 31.8123C78.77 31.8123 70.419 32.5837 66.8225 32.0807C65.5693 31.9056 65.0318 31.2535 64.971 30.3144C64.893 29.1074 65.5955 27.6904 66.5922 25.6737C67.589 23.6569 69.6528 20.0824 69.6528 20.0824C70.7263 18.1286 71.6194 17.0691 72.7593 16.005C74.7095 14.4164 76.854 14.0876 80.0605 14.1016C82.5575 14.1127 85.5012 14.455 85.5012 14.455L88.6699 8.48907Z" fill="#003896"/>
<path d="M18.7719 8.33544L23.182 0.0078125L15.4657 0.0136434L11.0678 8.3349L5.83226 8.33938L2.78825 14.0991L5.63494 14.0891L8.06478 14.0143C8.06478 14.0143 5.03723 20.0058 2.79377 24.3061C0.989683 27.7641 -0.0960892 30.1369 0.00670638 32.5331C0.0653117 33.9045 0.584881 35.2031 1.42528 36.0387C3.73555 38.3354 7.52284 38.1069 11.0768 37.828L14.2179 31.9029C12.0305 32.034 10.2737 31.9671 9.65579 31.8785C7.60066 31.5825 7.20626 30.6791 8.01311 29.0457C9.62901 25.6544 15.7491 14.0507 15.7491 14.0507L18.3543 14.133L21.6172 14.1377L24.6889 8.33466L18.7719 8.33544Z" fill="#003896"/>
<path d="M61.0589 0.0080386L41.158 37.6559H48.9436L68.7566 0L61.0589 0.0080386Z" fill="#003896"/>
</svg>
