<svg width="101" height="43" viewBox="0 0 101 43" fill="none" xmlns="http://www.w3.org/2000/svg">
<path d="M100.259 0H0V42.048H100.259V0Z" fill="#DA0E29"/>
<path d="M92.0397 9.9082H11.0029V32.2628H92.0397V9.9082Z" fill="#DA0E29"/>
<path d="M92.0396 9.74219H10.8369V32.4286H92.2055V9.74219H92.0396ZM91.8736 10.074C91.8736 10.3992 91.8736 31.7716 91.8736 32.0968C91.5451 32.0968 11.4972 32.0968 11.1687 32.0968C11.1687 31.7716 11.1687 10.3992 11.1687 10.074C11.4972 10.074 91.5451 10.074 91.8736 10.074Z" fill="white"/>
<path d="M83.5453 12.1719H76.9819L74.4966 14.6207V28.1921V30.4551H78.5016L80.4295 28.1921V27.117H84.0629V30.4551H84.8062H88.0315L89.8863 28.1921V18.1778C89.883 14.0632 86.807 12.1719 83.5453 12.1719Z" fill="black" stroke="black" stroke-width="0.4454"/>
<path d="M83.6913 12.5435H83.2467H76.9819V28.1887H80.0944V24.6316H83.2467H86.3989V28.192H89.5114V18.0682C89.5147 14.5443 86.5118 12.507 83.6913 12.5435ZM86.3989 22.5544H83.2467H80.0944V16.1404H83.2467H83.8771C85.065 16.1404 86.3989 17.1425 86.3989 18.5892V22.5544Z" fill="white"/>
<path d="M80.4297 18.1777H82.1717C83.6185 18.1777 84.1759 18.9575 84.1759 19.8833V22.1463H80.4297V18.1777Z" fill="#DA0E29"/>
<path d="M74.5326 22.0335V18.5859H61.5187L59.332 20.6996V22.7403C59.332 26.4467 62.5938 30.4153 66.2272 30.4518H72.9366L74.8645 28.1888V24.6317H71.7852H69.041C67.1132 24.6317 66.5192 24.6317 66.5557 24.2235H72.4886L74.5326 22.0335Z" fill="black" stroke="black" stroke-width="0.4454"/>
<path d="M61.7412 18.957V22.4809C61.9635 25.1123 64.5219 28.1915 67.4153 28.1915H74.5328V25.1156H67.6741C66.1544 24.9298 65.0063 23.5594 64.9665 22.0363H74.5328V18.9604H61.7412V18.957Z" fill="white"/>
<path d="M74.8313 16.1769L74.8678 16.1404V12.1719H74.5326H61.7775H61.741L59.332 14.5809L59.3685 18.0683H72.6413L74.8678 16.1769H74.8313Z" fill="black" stroke="black" stroke-width="0.4454"/>
<path d="M74.5328 12.5059H61.7412V16.1758H74.5328V12.5059Z" fill="white"/>
<path d="M45.8338 18.5484L44.2411 20.2904V24.1827H47.838L53.7709 30.4474H58.1078L60.5168 28.4067L55.9178 23.4394C58.2903 22.5136 59.9594 20.3236 59.9594 17.5795C59.9594 13.6109 57.0294 12.0547 54.2853 12.0547H46.2752L44.2378 13.8697V18.1701H54.9887C55.2475 18.1701 55.284 18.5417 54.9887 18.5417H45.8338V18.5484Z" fill="black" stroke="black" stroke-width="0.4454"/>
<path d="M46.2783 12.5059H54.4344C57.1786 12.5059 59.4781 14.6925 59.5146 17.3272C59.5146 19.922 57.2151 22.0357 54.3614 22.185L59.9625 28.1544H56.1433L50.3962 22.112H46.3181L46.2816 18.9232H54.6236C55.4033 18.9232 56.1068 18.1833 56.1068 17.2907C56.1068 16.4014 55.181 15.7345 54.5506 15.7345H46.2816V12.5059H46.2783Z" fill="white"/>
<path d="M30.5204 18.3628L28.9276 20.0684V23.9971H32.5245L38.421 30.2253H42.7977L45.2067 28.2245L40.5711 23.2206C42.9801 22.3314 44.6492 20.1447 44.6492 17.3607C44.6492 13.4287 41.7192 11.8359 38.9751 11.8359H30.965L28.9243 13.6543V17.9547H39.6752C39.9341 17.9547 39.9341 18.3628 39.6752 18.3628H30.5204Z" fill="black" stroke="black" stroke-width="0.4454"/>
<path d="M30.9648 12.2832H39.1209C41.8651 12.2832 44.1646 14.4699 44.2011 17.141C44.2011 19.7358 41.8651 21.8495 39.0479 21.9623L44.6457 27.9683H40.79L35.0794 21.9258H30.9648V18.7006H39.3068C40.0865 18.7006 40.79 17.9573 40.79 17.068C40.79 16.1788 39.8642 15.5483 39.1973 15.5483H30.9648V12.2832Z" fill="white"/>
<path d="M25.626 12.0215L23.1771 14.5068V24.7401H20.7681C19.3579 24.7401 18.4686 23.9603 18.4321 22.6264V22.5899V22.4041V12.0215H15.1339L12.7979 14.2082V23.4062C12.7979 26.7443 15.9501 30.4142 19.7329 30.4507L19.7694 30.4142H26.555L28.9641 28.1877L28.9276 12.0215H25.626Z" fill="black" stroke="black" stroke-width="0.4454"/>
<path d="M20.4732 25.0751C19.1393 25.0751 18.1372 23.9271 18.1372 22.6661C18.1372 19.2915 18.1372 15.917 18.1372 12.5059H15.1343C15.1343 15.8805 15.1343 19.3645 15.1343 22.7026C15.1343 25.3705 17.1351 28.1909 20.0286 28.1909H28.6692V12.5059H25.6662V18.8104V25.115H20.4732V25.0751Z" fill="white"/>
<path fill-rule="evenodd" clip-rule="evenodd" d="M89.7763 11.6973C89.9455 11.6973 90.1081 11.7404 90.2674 11.8267C90.4234 11.9129 90.5461 12.0324 90.6357 12.1917C90.7253 12.3509 90.7718 12.5169 90.7718 12.6894C90.7718 12.8619 90.7286 13.0279 90.639 13.1838C90.5528 13.3398 90.43 13.4625 90.2707 13.5521C90.1148 13.6384 89.9489 13.6815 89.7763 13.6815C89.6038 13.6815 89.4379 13.6384 89.2819 13.5521C89.126 13.4625 89.0032 13.3431 88.9136 13.1838C88.8273 13.0279 88.7842 12.8619 88.7842 12.6894C88.7842 12.5169 88.8273 12.3509 88.9169 12.1917C89.0065 12.0324 89.1293 11.9096 89.2852 11.8267C89.4412 11.7404 89.6038 11.6973 89.7763 11.6973ZM89.7763 11.8897C89.6403 11.8897 89.5075 11.9229 89.3848 11.9926C89.2587 12.0623 89.1591 12.1585 89.0895 12.2879C89.0165 12.4173 88.9833 12.55 88.9833 12.6894C88.9833 12.8288 89.0198 12.9615 89.0895 13.0876C89.1591 13.2137 89.2587 13.3132 89.3848 13.3829C89.5109 13.4526 89.6436 13.4891 89.783 13.4891C89.9223 13.4891 90.055 13.4526 90.1811 13.3829C90.3072 13.3132 90.4068 13.2137 90.4765 13.0876C90.5461 12.9615 90.5826 12.8288 90.5826 12.6894C90.5826 12.55 90.5461 12.414 90.4731 12.2879C90.4001 12.1618 90.3039 12.0623 90.1778 11.9926C90.0418 11.9262 89.9124 11.8897 89.7763 11.8897ZM89.325 13.2203V12.1651H89.5374C89.7365 12.1651 89.8493 12.1651 89.8759 12.1684C89.9455 12.1751 90.002 12.1884 90.0418 12.2116C90.0816 12.2348 90.1148 12.268 90.1413 12.3111C90.1679 12.3576 90.1811 12.4074 90.1811 12.4604C90.1811 12.5368 90.1546 12.6031 90.1048 12.6562C90.055 12.7093 89.9854 12.7425 89.8958 12.7558C89.929 12.769 89.9522 12.7823 89.9688 12.7956C89.9854 12.8089 90.0086 12.8354 90.0385 12.8752C90.0451 12.8852 90.0716 12.9283 90.1148 13.0046L90.2409 13.217H89.9754L89.8858 13.0444C89.8261 12.9283 89.7763 12.8586 89.7365 12.8288C89.6967 12.7989 89.6469 12.7823 89.5872 12.7823H89.5308V13.2137H89.325V13.2203ZM89.5407 12.623H89.627C89.7498 12.623 89.8261 12.6197 89.856 12.6098C89.8858 12.5998 89.909 12.5832 89.9256 12.56C89.9422 12.5368 89.9522 12.5102 89.9522 12.477C89.9522 12.4472 89.9422 12.4206 89.9256 12.4007C89.909 12.3775 89.8858 12.3609 89.856 12.3509C89.8261 12.341 89.7498 12.3344 89.627 12.3344H89.5407V12.623Z" fill="white"/>
</svg>
