<svg width="162" height="34" viewBox="0 0 162 34" fill="none" xmlns="http://www.w3.org/2000/svg">
<path d="M13.644 29.369C12.0486 26.2537 10.428 22.6057 8.78219 18.425C7.13639 14.2442 5.57765 9.6909 4.10596 4.765H11.4973C11.8082 5.98156 12.1764 7.2983 12.6019 8.71525C13.0273 10.1322 13.4669 11.5658 13.9208 13.0162C14.3725 14.4681 14.8258 15.8802 15.2808 17.2522C15.7358 18.6242 16.1842 19.8709 16.626 20.9922C17.0295 19.8693 17.4675 18.6215 17.94 17.2489C18.4125 15.8763 18.8741 14.4643 19.3247 13.0129C19.7785 11.5691 20.2165 10.1355 20.6387 8.71196C21.0608 7.28845 21.4287 5.9717 21.7424 4.76172H28.9531C27.4808 9.68925 25.9243 14.2426 24.2834 18.4217C22.6425 22.6008 21.0227 26.2499 19.424 29.369H13.644Z" fill="#34B233"/>
<path d="M37.2722 4.76367H30.3047V29.3685H37.2722V4.76367Z" fill="#34B233"/>
<path d="M47.4585 29.3677C45.8653 26.2518 44.2455 22.6035 42.5992 18.4228C40.9528 14.2421 39.3968 9.68902 37.9312 4.76367H45.3225C45.6367 5.98023 46.0057 7.29697 46.4295 8.71391C46.8541 10.1363 47.2877 11.5711 47.7435 13.0148C48.1993 14.4586 48.6535 15.8794 49.1068 17.2509C49.5601 18.6224 50.0102 19.8715 50.4463 20.9942C50.8509 19.8712 51.2889 18.6235 51.7603 17.2509C52.2317 15.8783 52.6938 14.4663 53.1466 13.0148C53.5966 11.5711 54.0401 10.1363 54.4606 8.71391C54.8811 7.2915 55.2539 5.97995 55.5652 4.76367H62.7717C61.3066 9.69121 59.7516 14.2445 58.1069 18.4236C56.4622 22.6027 54.8414 26.2507 53.2443 29.3677H47.4585Z" fill="#34B233"/>
<path d="M72.4992 4.10906C74.5523 4.10906 76.277 4.34394 77.6427 4.81124C79.0085 5.27853 80.1196 5.95114 80.9409 6.82085C81.7807 7.72036 82.385 8.8136 82.7 10.0032C83.0433 11.2499 83.2141 12.6384 83.2125 14.1686V28.6704C82.2155 28.8894 80.8256 29.1456 79.0429 29.4391C77.2666 29.7388 75.1198 29.8801 72.5953 29.8801C70.9996 29.8801 69.5566 29.7454 68.2648 29.4621C66.9729 29.1787 65.8544 28.7229 64.9182 28.0848C63.9904 27.4563 63.2476 26.5912 62.7665 25.5792C62.2663 24.5493 62.0273 23.2887 62.0273 21.7907C62.0273 20.3576 62.309 19.1381 62.8897 18.1443C63.4474 17.1658 64.2442 16.3446 65.2056 15.7578C66.2319 15.1428 67.3552 14.7065 68.5276 14.4676C69.8046 14.2029 71.1055 14.0714 72.4097 14.075C73.2132 14.0705 74.0165 14.1091 74.8159 14.1908C75.3917 14.2472 75.962 14.3491 76.5217 14.4955V13.8385C76.5217 12.6534 76.1628 11.7032 75.4541 10.9846C74.7314 10.2668 73.483 9.90631 71.705 9.90631C70.5308 9.90614 69.3581 9.99288 68.1966 10.1658C67.0408 10.3394 66.0436 10.5808 65.2048 10.8902L64.3178 5.27607C64.7235 5.1537 65.2286 5.02148 65.8371 4.88022C66.4457 4.73897 67.1043 4.6166 67.8271 4.50655C68.5498 4.3965 69.2971 4.30124 70.0929 4.22404C70.8887 4.14684 71.6935 4.10742 72.5016 4.10742M73.0634 24.5025C73.7467 24.5025 74.4028 24.4885 75.0344 24.4549C75.5338 24.4361 76.032 24.3908 76.5266 24.3194V19.0313C76.2466 18.9681 75.8253 18.9097 75.2676 18.8449C74.7543 18.7845 74.238 18.7527 73.7212 18.7496C73.1039 18.7476 72.4871 18.7871 71.875 18.8679C71.3463 18.9297 70.832 19.081 70.3541 19.3154C69.9372 19.5113 69.5822 19.8178 69.3275 20.2016C69.0762 20.5744 68.9497 21.045 68.9497 21.6059C68.9497 22.6941 69.3185 23.4521 70.0494 23.8718C70.7803 24.2914 71.7839 24.5041 73.0609 24.5041L73.0634 24.5025Z" fill="#34B233"/>
<path d="M111.802 17.6313C111.797 23.261 107.231 27.8217 101.601 27.8182C95.9713 27.8147 91.4102 23.2484 91.4131 17.6187C91.416 11.989 95.9817 7.42742 101.611 7.42969C107.235 7.42969 111.802 12.0024 111.802 17.6313Z" fill="#34B233"/>
<path d="M106.716 13.3329C106.709 14.6849 105.608 15.7755 104.256 15.7704C102.904 15.7653 101.812 14.6663 101.815 13.3143C101.818 11.9624 102.915 10.8683 104.267 10.8691C104.92 10.8674 105.546 11.1269 106.006 11.5897C106.466 12.0526 106.722 12.6803 106.716 13.3329Z" fill="white"/>
<path d="M134.485 17.6313C134.484 23.2649 129.917 27.8313 124.284 27.8313C118.65 27.8313 114.083 23.2643 114.083 17.6308C114.083 11.9972 118.649 7.43014 124.283 7.42969C126.989 7.42838 129.585 8.50277 131.498 10.4162C133.412 12.3297 134.486 14.9253 134.485 17.6313Z" fill="white"/>
<path d="M124.283 28.1401C118.494 28.1401 113.778 23.4294 113.778 17.628C113.778 11.8267 118.494 7.125 124.283 7.125C130.071 7.125 134.795 11.8374 134.795 17.628C134.792 23.4326 130.087 28.1374 124.283 28.1401ZM124.283 7.74258C118.823 7.74304 114.398 12.1686 114.398 17.6278C114.398 23.0869 118.823 27.5127 124.282 27.5135C129.741 27.5143 134.167 23.0897 134.169 17.6305C134.164 12.1721 129.741 7.74802 124.283 7.74258Z" fill="#A4A3A6"/>
<path d="M129.405 13.333C129.401 14.6877 128.301 15.7833 126.946 15.782C125.591 15.7806 124.494 14.6828 124.492 13.3281C124.491 11.9734 125.586 10.8733 126.941 10.8692C127.596 10.8653 128.225 11.1236 128.688 11.5865C129.151 12.0494 129.409 12.6784 129.405 13.333Z" fill="#A4A3A6"/>
<path d="M157.161 17.6313C157.158 23.2611 152.593 27.8228 146.963 27.8215C141.333 27.8201 136.77 23.2562 136.77 17.6264C136.769 11.9967 141.332 7.43196 146.961 7.42969C149.668 7.4273 152.264 8.50139 154.177 10.4151C156.09 12.3289 157.164 14.9251 157.161 17.6313Z" fill="#D52B1E"/>
<path d="M152.071 13.333C152.063 14.6861 150.961 15.7772 149.608 15.7704C148.255 15.7636 147.163 14.6614 147.169 13.3083C147.176 11.9552 148.278 10.8633 149.631 10.8692C150.282 10.8689 150.906 11.1292 151.365 11.592C151.823 12.0548 152.077 12.6817 152.071 13.333Z" fill="white"/>
</svg>
