<svg width="96" height="134" viewBox="0 0 96 134" fill="none" xmlns="http://www.w3.org/2000/svg">
<path d="M39.0866 132.662H6.93942C3.71156 132.662 1.09437 130.046 1.09437 126.817V22.1931C1.09437 19.6104 3.18791 17.5174 5.77008 17.5174H40.2554C42.8381 17.5174 44.9311 19.6109 44.9311 22.1931V126.818C44.9317 130.046 42.315 132.662 39.0866 132.662Z" fill="#4671C6"/>
<path d="M37.6256 17.5169H8.40095V8.16493C8.40095 7.19641 9.18616 6.41119 10.1547 6.41119H35.8724C36.841 6.41119 37.6262 7.19641 37.6262 8.16493L37.6256 17.5169Z" fill="#E0EBFC"/>
<path d="M13.7136 1.33765H32.0197C33.4205 1.33765 34.5565 2.47361 34.5565 3.8744V6.41171H11.1774V3.8744C11.1774 2.47361 12.3128 1.33765 13.7136 1.33765Z" fill="#A4C9FF"/>
<path d="M44.9317 126.817V117.28H1.09437V126.817C1.09437 130.045 3.71102 132.662 6.93942 132.662H39.0866C42.315 132.662 44.9317 130.046 44.9317 126.817Z" fill="#A4C9FF"/>
<path d="M1.09437 27.7454H44.9317V42.9424H1.09437V27.7454Z" fill="#A4C9FF"/>
<path d="M52.8226 98.1771H93.153C94.1215 98.1771 94.9067 98.9623 94.9067 99.9308V120.973C94.9067 127.429 89.6729 132.663 83.2166 132.663H62.7595C56.3033 132.663 51.0694 127.429 51.0694 120.973V99.9308C51.0689 98.9623 51.8541 98.1771 52.8226 98.1771Z" fill="#4671C6"/>
<path d="M66.0481 91.8915C64.8394 91.8915 63.8594 90.9115 63.8594 89.7028C63.8594 87.1266 64.6123 85.7351 65.2175 84.6172C65.7176 83.693 66.0481 83.0829 66.0481 81.6154C66.0481 80.1478 65.7176 79.5377 65.2175 78.6135C64.6123 77.4956 63.8594 76.1041 63.8594 73.5279C63.8594 70.9523 64.6128 69.5619 65.2175 68.444C65.7176 67.5209 66.0481 66.9114 66.0481 65.446C66.0481 64.2373 67.0281 63.2573 68.2369 63.2573C69.4456 63.2573 70.4256 64.2373 70.4256 65.446C70.4256 68.0211 69.6721 69.412 69.0675 70.5294C68.5674 71.4525 68.2369 72.062 68.2369 73.5279C68.2369 74.9955 68.5674 75.6056 69.0675 76.5298C69.6727 77.6477 70.4256 79.0392 70.4256 81.6154C70.4256 84.1915 69.6727 85.583 69.0675 86.7009C68.5674 87.6251 68.2369 88.2352 68.2369 89.7028C68.2369 90.9115 67.2569 91.8915 66.0481 91.8915Z" fill="#E0EBFC"/>
<path d="M77.7382 91.8915C76.5295 91.8915 75.5495 90.9115 75.5495 89.7028C75.5495 87.1266 76.3024 85.7351 76.9076 84.6172C77.4077 83.693 77.7382 83.0829 77.7382 81.6154C77.7382 80.1478 77.4077 79.5377 76.9076 78.6135C76.3024 77.4956 75.5495 76.1041 75.5495 73.5279C75.5495 70.9523 76.3029 69.5619 76.9076 68.444C77.4077 67.5209 77.7382 66.9114 77.7382 65.446C77.7382 64.2373 78.7182 63.2573 79.9269 63.2573C81.1357 63.2573 82.1157 64.2373 82.1157 65.446C82.1157 68.0211 81.3622 69.412 80.7576 70.5294C80.2574 71.4525 79.9269 72.062 79.9269 73.5279C79.9269 74.9955 80.2574 75.6056 80.7576 76.5298C81.3628 77.6477 82.1157 79.0392 82.1157 81.6154C82.1157 84.1915 81.3628 85.583 80.7576 86.7009C80.2574 87.6251 79.9269 88.2352 79.9269 89.7028C79.9269 90.9115 78.9469 91.8915 77.7382 91.8915Z" fill="#E0EBFC"/>
<path d="M39.0866 133.757H6.93942C3.11294 133.757 0 130.644 0 126.817V22.1931C0 19.0112 2.58819 16.423 5.77063 16.423H40.2554C43.4367 16.423 46.0255 19.0112 46.0255 22.1931V126.818C46.026 130.644 42.9131 133.757 39.0866 133.757ZM5.77063 18.6112C3.79583 18.6112 2.18875 20.2178 2.18875 22.1926V126.817C2.18875 129.437 4.32003 131.568 6.93942 131.568H39.0866C41.706 131.568 43.8373 129.437 43.8373 126.817V22.1931C43.8373 20.2183 42.2302 18.6118 40.2559 18.6118L5.77063 18.6112Z" fill="#3762CC"/>
<path d="M37.6256 18.6113H8.40095C7.79686 18.6113 7.30658 18.121 7.30658 17.5169V8.16494C7.30658 6.59452 8.58426 5.31738 10.1541 5.31738H35.8719C37.4423 5.31738 38.72 6.59452 38.72 8.16494V17.5169C38.72 18.1215 38.2303 18.6113 37.6256 18.6113ZM9.49532 16.4225H36.5313V8.16494C36.5313 7.80161 36.2352 7.50613 35.8719 7.50613H10.1541C9.7908 7.50613 9.49532 7.80161 9.49532 8.16494V16.4225Z" fill="#3762CC"/>
<path d="M34.557 7.50609H11.1768C10.5727 7.50609 10.0825 7.01581 10.0825 6.41172V3.87441C10.0825 1.87226 11.712 0.243286 13.7141 0.243286H32.0202C34.0224 0.243286 35.6514 1.87226 35.6514 3.87441V6.41172C35.6514 7.01581 35.1611 7.50609 34.557 7.50609ZM12.2712 5.31734H33.4626V3.87441C33.4626 3.07935 32.8153 2.43203 32.0202 2.43203H13.7141C12.9185 2.43203 12.2712 3.07935 12.2712 3.87441V5.31734Z" fill="#3762CC"/>
<path d="M39.0866 133.757H6.93942C3.11294 133.757 0 130.644 0 126.817V117.28C0 116.676 0.490279 116.185 1.09437 116.185H44.9311C45.5352 116.185 46.0255 116.676 46.0255 117.28V126.817C46.026 130.644 42.9131 133.757 39.0866 133.757ZM2.18875 118.374V126.817C2.18875 129.437 4.32003 131.568 6.93942 131.568H39.0866C41.706 131.568 43.8373 129.437 43.8373 126.817V118.374H2.18875Z" fill="#3762CC"/>
<path d="M44.9317 44.0367H1.09437C0.490279 44.0367 0 43.5465 0 42.9424V27.7454C0 27.1413 0.490279 26.651 1.09437 26.651H44.9311C45.5352 26.651 46.0255 27.1413 46.0255 27.7454V42.9424C46.026 43.547 45.5357 44.0367 44.9317 44.0367ZM2.18875 41.848H43.8367V28.8397H2.18875V41.848Z" fill="#3762CC"/>
<path d="M83.2161 133.757H62.7584C55.709 133.757 49.9745 128.022 49.9745 120.972V99.9303C49.9745 98.3598 51.2522 97.0822 52.8221 97.0822H93.1519C94.7223 97.0822 96 98.3598 96 99.9303V120.972C96.0005 128.022 90.2655 133.757 83.2161 133.757ZM52.8226 99.2714C52.4593 99.2714 52.1638 99.5675 52.1638 99.9308V120.973C52.1638 126.815 56.9172 131.569 62.759 131.569H83.2166C89.0589 131.569 93.8118 126.815 93.8118 120.973V99.9308C93.8118 99.5675 93.5158 99.2714 93.1524 99.2714H52.8226Z" fill="#3762CC"/>
</svg>
