<svg width="87" height="126" viewBox="0 0 87 126" fill="none" xmlns="http://www.w3.org/2000/svg">
<path d="M56.1826 0H73.5619C77.0189 0 80.3343 1.37327 82.7787 3.81771C85.2231 6.26215 86.5964 9.57752 86.5964 13.0345V75.5001C86.5958 76.794 86.0816 78.0347 85.1667 78.9496C84.2518 79.8645 83.011 80.3787 81.7172 80.3793C80.6293 80.3799 79.5724 80.0167 78.7147 79.3475C77.857 78.6783 77.2476 77.7416 76.9835 76.6862C71.8789 56.2739 71.73 34.9368 76.549 14.4552C76.7112 13.7668 76.7155 13.0506 76.5618 12.3603C76.408 11.6699 76.1001 11.0233 75.6611 10.4687C75.2221 9.91418 74.6634 9.4661 74.0267 9.15801C73.3901 8.84993 72.692 8.68982 71.9847 8.68966H56.1826V0Z" fill="#333333"/>
<path d="M56.3337 126H4.19575C2.2623 103.772 0.974061 81.5046 0.331026 59.1983C-0.216468 39.4494 0.34853 19.6854 2.02334 0H58.5061C60.1809 19.6854 60.7459 39.4494 60.1984 59.1983C59.5496 81.4959 58.2613 103.763 56.3337 126Z" fill="#CCCCCC"/>
<path d="M0 43.4482C0.330207 65.1941 1.27159 86.9182 2.82414 108.621H57.7037C59.2548 86.9269 60.1961 65.2028 60.5278 43.4482H0Z" fill="#557C3E"/>
<path d="M58.5044 0H2.02168C1.35475 7.95321 0.905063 15.9238 0.587891 23.8966H59.9382C59.6211 15.9238 59.1714 7.95321 58.5044 0Z" fill="#4D4D4D"/>
</svg>
