<svg width="134" height="131" viewBox="0 0 134 131" fill="none" xmlns="http://www.w3.org/2000/svg">
<path d="M71.705 32.6347C71.705 37.5756 67.6991 44.4751 62.7582 44.4751C57.8184 44.4751 53.8125 37.5756 53.8125 32.6347C53.8125 27.6939 57.8184 23.689 62.7582 23.689C67.6991 23.689 71.705 27.6939 71.705 32.6347Z" fill="#FFC5B2"/>
<path d="M63.7875 23.7491C64.9558 25.2616 65.6524 27.1561 65.6524 29.2145C65.6524 34.0892 61.7535 40.8644 56.9043 41.0467C58.4738 43.0563 60.519 44.4751 62.7588 44.4751C67.6997 44.4751 71.7045 37.5756 71.7045 32.6347C71.7045 28.0422 68.2425 24.2604 63.7875 23.7491Z" fill="#FFA6A0"/>
<path d="M42.6077 76.0943H31.2939V12.1287C31.2939 10.5449 32.5783 9.26056 34.1621 9.26056H39.7396C41.3234 9.26056 42.6077 10.5449 42.6077 12.1287V76.0943Z" fill="#FF75AC"/>
<path d="M39.7136 9.26056H35.2402C36.8393 9.26056 38.1349 10.5571 38.1349 12.1552V76.0943H42.6072V12.1552C42.6072 10.5571 41.3117 9.26056 39.7136 9.26056Z" fill="#D84A8C"/>
<path d="M31.2939 28.8632H42.6077V32.81H31.2939V28.8632Z" fill="#AF3774"/>
<path d="M26.1812 71.6209H18.252V27.6531C18.252 26.0693 19.5363 24.785 21.1201 24.785H23.313C24.8968 24.785 26.1812 26.0693 26.1812 27.6531V71.6209Z" fill="#FF75AC"/>
<path d="M23.2859 24.785H21.146C20.9718 24.785 20.8027 24.8033 20.6367 24.8328C21.9924 25.0732 23.0231 26.2547 23.0231 27.6796V71.6209H26.1806V27.6796C26.1806 26.0816 24.884 24.785 23.2859 24.785Z" fill="#D84A8C"/>
<path d="M18.252 44.1614H26.1812V48.1082H18.252V44.1614Z" fill="#AF3774"/>
<path d="M114.703 98.7228H108.388V28.7317L110.496 22.5839C110.838 21.5837 112.252 21.5837 112.595 22.5839L114.703 28.7317V98.7228Z" fill="#D84A8C"/>
<path d="M112.595 22.5839C112.252 21.5837 110.838 21.5837 110.496 22.5839L110.098 23.743L111.808 28.7317V98.7218H114.702V28.7317L112.595 22.5839Z" fill="#AF3774"/>
<path d="M95.9618 28.8193L102.926 16.8791C107.264 9.44288 101.925 0.099936 93.3167 0.0622505L79.4932 0.000120457C70.8846 -0.0385837 65.463 9.25751 69.7347 16.7315L76.5925 28.7328C80.8642 36.2077 91.6249 36.2556 95.9618 28.8193Z" fill="#FFC5B2"/>
<path d="M96.428 0.506348C97.2663 3.29813 97.0381 6.44945 95.3647 9.31762L88.4 21.2578C85.543 26.1559 79.9004 27.8049 75.1602 26.2262L76.5922 28.7338C80.8639 36.2078 91.6246 36.2556 95.9615 28.8194L102.926 16.8792C106.712 10.3881 103.126 2.44664 96.428 0.506348Z" fill="#FFA6A0"/>
<path d="M77.8497 30.5997L94.4262 30.6731L94.2816 63.5817L77.7051 63.5094L77.8497 30.5997Z" fill="#919191"/>
<path d="M88.1114 30.6445L94.4263 30.6731L94.2817 63.5817L87.9668 63.5542L88.1114 30.6445Z" fill="#545353"/>
<path d="M58.9651 43.095L66.4869 43.1276L66.3626 71.3693L58.8408 71.3367L58.9651 43.095Z" fill="#919191"/>
<path d="M63.6213 43.1154L66.4864 43.1276L66.3622 71.3694L63.4971 71.3571L63.6213 43.1154Z" fill="#545353"/>
<path d="M128.181 131H5.32C2.03627 131 -0.463193 128.053 0.072552 124.813L5.03176 93.5172C8.27373 73.9238 26.5329 59.5534 46.3921 59.5534H87.1087C106.968 59.5534 125.227 73.9238 128.469 93.5172L133.428 124.813C133.964 128.053 131.465 131 128.181 131Z" fill="#FF9EC9"/>
<path d="M133.428 124.813L128.469 93.5172C125.227 73.9238 106.968 59.5534 87.1089 59.5534H85.9275C93.0001 65.5892 98.0092 74.0481 99.6226 83.8005L104.582 113.78C105.119 117.02 102.619 121.283 99.3353 121.283H0.657399L0.0737832 124.812C-0.462981 128.053 2.03648 130.999 5.32022 130.999H128.181C131.465 131 133.964 128.053 133.428 124.813Z" fill="#FF75AC"/>
</svg>
