<svg width="73" height="131" viewBox="0 0 73 131" fill="none" xmlns="http://www.w3.org/2000/svg">
<path d="M37.1166 72.05H6.54999C4.13834 72.05 2.18332 74.0051 2.18332 76.4167V124.45C2.18332 126.862 4.13834 128.817 6.54999 128.817H37.1166C39.5283 128.817 41.4833 126.862 41.4833 124.45V76.4167C41.4833 74.0051 39.5283 72.05 37.1166 72.05Z" fill="#E8EDFC"/>
<path d="M37.1167 72.05H30.5667C31.7237 72.0535 32.8324 72.5147 33.6506 73.3328C34.4687 74.151 34.9299 75.2597 34.9333 76.4167V124.45C34.9299 125.607 34.4687 126.716 33.6506 127.534C32.8324 128.352 31.7237 128.813 30.5667 128.817H37.1167C38.2737 128.813 39.3824 128.352 40.2006 127.534C41.0187 126.716 41.4799 125.607 41.4833 124.45V76.4167C41.4799 75.2597 41.0187 74.151 40.2006 73.3328C39.3824 72.5147 38.2737 72.0535 37.1167 72.05Z" fill="#CAD9FC"/>
<path d="M65.5 67.6833H56.7666C54.355 67.6833 52.4 69.6383 52.4 72.05V124.45C52.4 126.862 54.355 128.817 56.7666 128.817H65.5C67.9116 128.817 69.8666 126.862 69.8666 124.45V72.05C69.8666 69.6383 67.9116 67.6833 65.5 67.6833Z" fill="#E8EDFC"/>
<path d="M65.5 67.6833H58.95C60.1081 67.6833 61.2188 68.1433 62.0377 68.9623C62.8566 69.7812 63.3167 70.8918 63.3167 72.05V124.45C63.3167 125.608 62.8566 126.719 62.0377 127.538C61.2188 128.357 60.1081 128.817 58.95 128.817H65.5C66.6581 128.817 67.7688 128.357 68.5877 127.538C69.4066 126.719 69.8667 125.608 69.8667 124.45V72.05C69.8667 70.8918 69.4066 69.7812 68.5877 68.9623C67.7688 68.1433 66.6581 67.6833 65.5 67.6833Z" fill="#CAD9FC"/>
<path d="M34.9333 58.95V72.05H8.73331V58.95C8.73676 57.7929 9.19793 56.6843 10.0161 55.8661C10.8343 55.0479 11.9429 54.5868 13.1 54.5833H30.5666C31.7237 54.5868 32.8324 55.0479 33.6505 55.8661C34.4687 56.6843 34.9298 57.7929 34.9333 58.95Z" fill="#C6D8FB"/>
<path d="M30.5667 54.5833H24.0167C25.1737 54.5868 26.2824 55.0479 27.1005 55.8661C27.9187 56.6843 28.3799 57.7929 28.3833 58.95V72.05H34.9333V58.95C34.9299 57.7929 34.4687 56.6843 33.6505 55.8661C32.8324 55.0479 31.7237 54.5868 30.5667 54.5833Z" fill="#A4C3FD"/>
<path d="M30.5666 14.2135V54.5834H13.1V8.44952C13.2577 11.379 14.5312 14.1369 16.6588 16.1567C20.5451 20.043 26.0013 20.8705 28.8855 18.0103C29.8775 16.9836 30.4732 15.6382 30.5666 14.2135Z" fill="#A4C2F7"/>
<path d="M28.8833 18.0125C28.2344 18.6153 27.4653 19.074 26.6266 19.3584C25.7878 19.6429 24.8984 19.7467 24.0167 19.6631V54.5833H30.5667V14.2135C30.4731 15.6392 29.8766 16.9855 28.8833 18.0125Z" fill="#7FACFA"/>
<path d="M30.5667 13.2529V14.2136C30.4731 15.6393 29.8766 16.9855 28.8833 18.0126C26.0013 20.8727 20.5452 20.0452 16.6566 16.1589C14.5293 14.1382 13.2566 11.3795 13.1 8.44955C13.0686 7.62193 13.2049 6.79651 13.5005 6.02286C13.7962 5.24921 14.2451 4.5433 14.8205 3.94752C17.685 1.06552 23.1433 1.89955 27.0318 5.78589C29.1018 7.74572 30.3629 10.4096 30.5667 13.2529Z" fill="#C6D8FB"/>
<path d="M27.0318 5.78582C23.6957 2.45187 19.2133 1.3864 16.1981 2.96714C17.8031 3.60384 19.2604 4.5632 20.4796 5.78582C22.5501 7.74556 23.8119 10.4094 24.0166 13.2528V14.2135C23.9241 15.639 23.3283 16.9853 22.3355 18.0125C21.9302 18.4087 21.4663 18.7401 20.96 18.995C22.2315 19.6222 23.6587 19.8643 25.066 19.6913C26.4733 19.5183 27.7993 18.9378 28.8811 18.0212C29.8771 16.9923 30.4745 15.6426 30.5666 14.2135V13.2528C30.3629 10.4096 29.1018 7.74565 27.0318 5.78582Z" fill="#A4C3FD"/>
<path d="M13.1 8.44957V54.5834C11.9429 54.5869 10.8343 55.048 10.0161 55.8662C9.19794 56.6843 8.73677 57.793 8.73332 58.9501V72.0501H6.54999C5.39294 72.0535 4.28426 72.5147 3.4661 73.3329C2.64794 74.151 2.18677 75.2597 2.18332 76.4167V124.45C2.18677 125.607 2.64794 126.716 3.4661 127.534C4.28426 128.352 5.39294 128.813 6.54999 128.817H13.1C11.9429 128.813 10.8343 128.352 10.0161 127.534C9.19794 126.716 8.73677 125.607 8.73332 124.45V76.4167C8.73677 75.2597 9.19794 74.151 10.0161 73.3329C10.8343 72.5147 11.9429 72.0535 13.1 72.0501H15.2833V58.9501C15.2868 57.793 15.7479 56.6843 16.5661 55.8662C17.3843 55.048 18.4929 54.5869 19.65 54.5834V8.44957C19.5866 7.33394 19.8465 6.22371 20.3983 5.25206C20.9502 4.28041 21.7706 3.48859 22.7612 2.97159C17.9033 1.0306 13.1 3.18773 13.1 8.44957Z" fill="white"/>
<path d="M0 106.983H4.36667V124.45H0V106.983Z" fill="white"/>
<path d="M2.18336 117.9C3.38919 117.9 4.3667 116.922 4.3667 115.717C4.3667 114.511 3.38919 113.533 2.18336 113.533C0.977542 113.533 3.05176e-05 114.511 3.05176e-05 115.717C3.05176e-05 116.922 0.977542 117.9 2.18336 117.9Z" fill="#428DFF"/>
<path d="M6.55 131H37.1167C38.8538 131 40.5198 130.31 41.7482 129.081C42.9766 127.853 43.6667 126.187 43.6667 124.45V76.4166C43.6667 74.6794 42.9766 73.0134 41.7482 71.785C40.5198 70.5567 38.8538 69.8666 37.1167 69.8666V58.9499C37.1111 57.6001 36.6885 56.2849 35.9069 55.1843C35.1253 54.0838 34.0227 53.2516 32.75 52.8017C32.75 9.10224 32.7871 13.5824 32.6845 12.9274C32.095 3.20505 19.6129 -3.93008 13.2768 2.40159C11.7223 4.02675 10.8739 6.2009 10.9167 8.44942V52.8017C9.64398 53.2516 8.5414 54.0838 7.75976 55.1843C6.97812 56.2849 6.5556 57.6001 6.55 58.9499V69.8666C4.81283 69.8666 3.14681 70.5567 1.91845 71.785C0.690086 73.0134 0 74.6794 0 76.4166V106.983C0 107.562 0.23003 108.118 0.639484 108.527C1.04894 108.937 1.60428 109.167 2.18333 109.167C2.76239 109.167 3.31773 108.937 3.72718 108.527C4.13664 108.118 4.36667 107.562 4.36667 106.983V76.4166C4.36667 75.8375 4.5967 75.2822 5.00615 74.8727C5.4156 74.4633 5.97094 74.2333 6.55 74.2333H37.1167C37.6957 74.2333 38.2511 74.4633 38.6605 74.8727C39.07 75.2822 39.3 75.8375 39.3 76.4166V124.45C39.3 125.029 39.07 125.584 38.6605 125.994C38.2511 126.403 37.6957 126.633 37.1167 126.633H6.55C5.97094 126.633 5.4156 126.403 5.00615 125.994C4.5967 125.584 4.36667 125.029 4.36667 124.45C4.36667 123.871 4.13664 123.316 3.72718 122.906C3.31773 122.497 2.76239 122.267 2.18333 122.267C-1.98465 122.267 0.0545835 131 6.55 131ZM15.2833 17.8552C18.7417 21.2154 24.0167 23.1105 28.3833 20.9665V52.3999H15.2833V17.8552ZM16.375 5.491C19.7701 2.09155 28.3833 7.13505 28.3833 13.7549C28.2196 18.7351 22.139 18.5583 18.2024 14.6173C15.2331 11.6436 14.3903 7.46474 16.375 5.491ZM10.9167 69.8666V58.9499C10.9167 58.3709 11.1467 57.8155 11.5561 57.4061C11.9656 56.9966 12.5209 56.7666 13.1 56.7666H30.5667C31.1457 56.7666 31.7011 56.9966 32.1105 57.4061C32.52 57.8155 32.75 58.3709 32.75 58.9499V69.8666H10.9167Z" fill="#428DFF"/>
<path d="M56.7667 65.5C55.0295 65.5 53.3635 66.1901 52.1351 67.4184C50.9068 68.6468 50.2167 70.3128 50.2167 72.05V124.45C50.2167 126.187 50.9068 127.853 52.1351 129.082C53.3635 130.31 55.0295 131 56.7667 131H65.5C67.2372 131 68.9032 130.31 70.1316 129.082C71.3599 127.853 72.05 126.187 72.05 124.45V72.05C72.05 70.3128 71.3599 68.6468 70.1316 67.4184C68.9032 66.1901 67.2372 65.5 65.5 65.5H63.3167V28.3833H67.6833C68.2624 28.3833 68.8177 28.1533 69.2272 27.7438C69.6366 27.3344 69.8667 26.7791 69.8667 26.2C69.8667 25.6209 69.6366 25.0656 69.2272 24.6561C68.8177 24.2467 68.2624 24.0167 67.6833 24.0167H63.3167V21.8333H67.6833C68.2624 21.8333 68.8177 21.6033 69.2272 21.1938C69.6366 20.7844 69.8667 20.2291 69.8667 19.65C69.8667 19.0709 69.6366 18.5156 69.2272 18.1061C68.8177 17.6967 68.2624 17.4667 67.6833 17.4667H63.3167V15.2833H67.6833C68.2624 15.2833 68.8177 15.0533 69.2272 14.6438C69.6366 14.2344 69.8667 13.6791 69.8667 13.1C69.8667 12.5209 69.6366 11.9656 69.2272 11.5561C68.8177 11.1467 68.2624 10.9167 67.6833 10.9167H63.3167V8.73333H65.5C66.0791 8.73333 66.6344 8.5033 67.0439 8.09385C67.4533 7.68439 67.6833 7.12906 67.6833 6.55C67.6833 5.97094 67.4533 5.4156 67.0439 5.00615C66.6344 4.5967 66.0791 4.36667 65.5 4.36667H63.3167V2.18333C63.3167 1.60428 63.0866 1.04894 62.6772 0.639484C62.2677 0.230029 61.7124 0 61.1333 0C60.5543 0 59.9989 0.230029 59.5895 0.639484C59.18 1.04894 58.95 1.60428 58.95 2.18333V4.36667H56.7667C56.1876 4.36667 55.6323 4.5967 55.2228 5.00615C54.8134 5.4156 54.5833 5.97094 54.5833 6.55C54.5833 7.12906 54.8134 7.68439 55.2228 8.09385C55.6323 8.5033 56.1876 8.73333 56.7667 8.73333H58.95V10.9167H54.5833C54.0043 10.9167 53.4489 11.1467 53.0395 11.5561C52.63 11.9656 52.4 12.5209 52.4 13.1C52.4 13.6791 52.63 14.2344 53.0395 14.6438C53.4489 15.0533 54.0043 15.2833 54.5833 15.2833H58.95V17.4667H54.5833C54.0043 17.4667 53.4489 17.6967 53.0395 18.1061C52.63 18.5156 52.4 19.0709 52.4 19.65C52.4 20.2291 52.63 20.7844 53.0395 21.1938C53.4489 21.6033 54.0043 21.8333 54.5833 21.8333H58.95V24.0167H54.5833C54.0043 24.0167 53.4489 24.2467 53.0395 24.6561C52.63 25.0656 52.4 25.6209 52.4 26.2C52.4 26.7791 52.63 27.3344 53.0395 27.7438C53.4489 28.1533 54.0043 28.3833 54.5833 28.3833H58.95V65.5H56.7667ZM67.6833 72.05V124.45C67.6833 125.029 67.4533 125.584 67.0439 125.994C66.6344 126.403 66.0791 126.633 65.5 126.633H56.7667C56.1876 126.633 55.6323 126.403 55.2228 125.994C54.8134 125.584 54.5833 125.029 54.5833 124.45V72.05C54.5833 71.4709 54.8134 70.9156 55.2228 70.5061C55.6323 70.0967 56.1876 69.8667 56.7667 69.8667H65.5C66.0791 69.8667 66.6344 70.0967 67.0439 70.5061C67.4533 70.9156 67.6833 71.4709 67.6833 72.05Z" fill="#428DFF"/>
</svg>
