<svg width="129" height="129" viewBox="0 0 129 129" fill="none" xmlns="http://www.w3.org/2000/svg">
<mask id="mask0_209_141" style="mask-type:luminance" maskUnits="userSpaceOnUse" x="0" y="0" width="129" height="129">
<path d="M0 0H129V129H0V0Z" fill="white"/>
</mask>
<g mask="url(#mask0_209_141)">
<path d="M67.2992 16.7945C65.7719 15.2044 63.2281 15.2044 61.7005 16.7945L18.5662 61.6958V117.919C18.5662 121.063 21.1152 123.612 24.2593 123.612H104.74C107.885 123.612 110.433 121.063 110.433 117.919V61.6956L67.2992 16.7945Z" fill="#D8ECFE"/>
<path d="M49.1455 123.612V100.327C49.1455 91.8469 56.0198 84.9727 64.4998 84.9727C72.9798 84.9727 79.8543 91.8469 79.8543 100.327V123.612H49.1455Z" fill="#3C87D0"/>
<path d="M67.2993 16.7945C65.772 15.2044 63.2282 15.2044 61.7007 16.7945L53.9206 24.8933C55.1249 24.7086 56.3988 25.0865 57.3109 26.0362L100.446 70.9375V123.612H104.741C107.885 123.612 110.433 121.063 110.433 117.919V61.6956L67.2993 16.7945Z" fill="#C4E2FF"/>
<path d="M61.7005 23.9365L11.4682 76.2268C10.4639 77.2719 8.79694 77.2888 7.772 76.2638L2.64753 71.1394C1.65131 70.1432 1.63518 68.5327 2.61125 67.5168L60.7676 6.97775C62.8041 4.85781 66.1956 4.85781 68.2322 6.97775L126.389 67.5168C127.365 68.5327 127.349 70.1432 126.352 71.1394L121.228 76.2638C120.203 77.2888 118.536 77.2719 117.532 76.2268L67.2992 23.9365C65.7719 22.3464 63.2281 22.3464 61.7005 23.9365Z" fill="#60B8FE"/>
<path d="M61.7005 23.9365L11.4682 76.2268C10.4639 77.2719 8.79694 77.2888 7.772 76.2638L2.64753 71.1394C1.65131 70.1432 1.63518 68.5327 2.61125 67.5168L60.7676 6.97774C62.8041 4.85781 66.1956 4.85781 68.2322 6.97774L126.389 67.5168C127.365 68.5327 127.349 70.1432 126.352 71.1394L121.228 76.2638C120.203 77.2888 118.536 77.2719 117.532 76.2268L67.2992 23.9365C65.7719 22.3464 63.2281 22.3464 61.7005 23.9365Z" stroke="#428DFF" stroke-width="4" stroke-miterlimit="10" stroke-linecap="round" stroke-linejoin="round"/>
<path d="M49.1455 123.612V100.327C49.1455 91.8469 56.0198 84.9727 64.4998 84.9727C72.9798 84.9727 79.8543 91.8469 79.8543 100.327V123.612H49.1455Z" stroke="#428DFF" stroke-width="4" stroke-miterlimit="10" stroke-linecap="round" stroke-linejoin="round"/>
<path d="M110.433 117.919C110.433 121.063 107.885 123.612 104.74 123.612H24.2593C21.1152 123.612 18.5662 121.063 18.5662 117.919V68.8377L61.7005 23.9364C63.2281 22.3463 65.7716 22.3463 67.2992 23.9364L110.433 68.8377V117.919Z" stroke="#428DFF" stroke-width="4" stroke-miterlimit="10" stroke-linecap="round" stroke-linejoin="round"/>
</g>
</svg>
