<svg width="112" height="124" viewBox="0 0 112 124" fill="none" xmlns="http://www.w3.org/2000/svg">
<path d="M55.7762 11.551L12.9229 53.2354V114.47H98.6293V53.2354L55.7762 11.551Z" fill="#DFEBFA"/>
<path d="M23.086 59.4875C23.086 58.0258 23.677 56.6262 24.7248 55.607L62.8962 18.4767L55.7762 11.5509L12.9229 53.2354V114.469H23.086V59.4875Z" fill="#B1DBFC"/>
<path d="M82.041 8.72107V24.2625L95.7632 37.6106V8.72107H82.041Z" fill="#695D67"/>
<path d="M89.9841 25.3184C89.2899 24.6433 88.8982 23.716 88.8982 22.7475V8.72095H82.0371V24.2624L95.7593 37.6105V30.9363L89.9841 25.3184Z" fill="#544E55"/>
<path d="M109.998 50.716L59.3552 1.45392C57.3625 -0.48464 54.1894 -0.48464 52.197 1.45392L1.55402 50.716C-0.478131 52.6926 -0.523124 55.9425 1.45369 57.9746C3.43051 60.0068 6.68037 60.0518 8.71229 58.0749L55.0717 12.9797C55.4639 12.5983 56.0883 12.5983 56.4805 12.9797L102.84 58.0747C104.873 60.0522 108.123 60.006 110.098 57.9744C112.075 55.9425 112.03 52.6926 109.998 50.716Z" fill="#FF656F"/>
<path d="M55.0717 12.9797C55.2478 12.8083 55.4711 12.7184 55.699 12.7008L60.2113 8.31142C61.5438 7.01504 63.4034 6.59037 65.0857 7.02803L59.3552 1.45392C57.3625 -0.48464 54.1894 -0.48464 52.197 1.45392L1.55402 50.716C-0.478131 52.6926 -0.523124 55.9425 1.45369 57.9746C3.43051 60.0068 6.68037 60.0518 8.71229 58.0749L55.0717 12.9797Z" fill="#FF4756"/>
<path d="M99.7432 7.67184V1.79263C99.7432 0.802783 98.9405 0.00012207 97.9507 0.00012207H79.8518C78.862 0.00012207 78.0596 0.802542 78.0596 1.79263V7.67208C78.0596 8.66193 78.862 9.46459 79.8518 9.46459H97.9507C98.9405 9.46435 99.7432 8.66193 99.7432 7.67184Z" fill="#7B6C79"/>
<path d="M84.9207 7.67184V1.79263C84.9207 0.802783 85.7231 0.00012207 86.713 0.00012207H79.8518C78.862 0.00012207 78.0596 0.802542 78.0596 1.79263V7.67208C78.0596 8.66193 78.862 9.46459 79.8518 9.46459H86.713C85.7231 9.46435 84.9207 8.66193 84.9207 7.67184Z" fill="#695D67"/>
<path d="M22.8379 68.0583H51.5835V114.47H22.8379V68.0583Z" fill="#AB6B51"/>
<path d="M22.8379 68.0583H32.1474V114.47H22.8379V68.0583Z" fill="#965A44"/>
<path d="M59.9697 68.3062V103.015C59.9697 103.78 60.5902 104.401 61.3559 104.401H87.3295C88.0949 104.401 88.7156 103.78 88.7156 103.015V68.3062H59.9697Z" fill="#60B8FE"/>
<path d="M69.2792 103.015V68.3062H59.9697V103.015C59.9697 103.78 60.5902 104.401 61.3559 104.401H70.6654C69.8998 104.401 69.2792 103.78 69.2792 103.015Z" fill="#23A8FE"/>
<path d="M76.2015 68.554C76.2015 68.4698 76.194 68.3875 76.1832 68.3062H72.5019C72.4911 68.3875 72.4836 68.4698 72.4836 68.554V84.6185H59.9697V88.3366H72.4836V104.401H76.2017V88.3366H88.7156V84.6185H76.2017L76.2015 68.554Z" fill="#8BCAFF"/>
<path d="M59.9697 84.6187H69.2792V88.3368H59.9697V84.6187Z" fill="#60B8FE"/>
<path d="M87.3295 59.5286H61.3559C60.5902 59.5286 59.9697 60.1491 59.9697 60.9147V68.5539H88.7154V60.9147C88.7154 60.1493 88.0949 59.5286 87.3295 59.5286Z" fill="#23A8FE"/>
<path d="M70.6654 59.5286H61.3559C60.5902 59.5286 59.9697 60.1491 59.9697 60.9147V68.5542H69.2792V60.9147C69.2792 60.1493 69.8998 59.5286 70.6654 59.5286Z" fill="#0193FA"/>
<path d="M50.1976 59.5286H24.224C23.4587 59.5286 22.8379 60.1491 22.8379 60.9147V68.5542H51.5835V60.9147C51.5835 60.1493 50.963 59.5286 50.1976 59.5286Z" fill="#BC7C63"/>
<path d="M33.5335 59.5286H24.224C23.4587 59.5286 22.8379 60.1491 22.8379 60.9147V68.5542H32.1474V60.9147C32.1474 60.1493 32.7679 59.5286 33.5335 59.5286Z" fill="#AB6B51"/>
<path d="M41.5662 92.2522C43.6215 92.2522 45.2876 90.586 45.2876 88.5307C45.2876 86.4754 43.6215 84.8093 41.5662 84.8093C39.5109 84.8093 37.8447 86.4754 37.8447 88.5307C37.8447 90.586 39.5109 92.2522 41.5662 92.2522Z" fill="#DFEBFA"/>
<path d="M100.439 113.726H11.1136C10.1237 113.726 9.32129 114.528 9.32129 115.519V121.398C9.32129 122.388 10.1237 123.191 11.1136 123.191H100.439C101.429 123.191 102.232 122.388 102.232 121.398V115.519C102.232 114.528 101.429 113.726 100.439 113.726Z" fill="#43CB8E"/>
<path d="M20.661 121.398V115.518C20.661 114.528 21.4635 113.726 22.4533 113.726H11.1136C10.1237 113.726 9.32129 114.528 9.32129 115.518V121.398C9.32129 122.388 10.1237 123.19 11.1136 123.19H22.4535C21.4635 123.19 20.661 122.388 20.661 121.398Z" fill="#00BA66"/>
</svg>
