<svg width="132" height="132" viewBox="0 0 132 132" fill="none" xmlns="http://www.w3.org/2000/svg">
<path d="M132 66C132 29.5492 102.451 0 66 0C29.5492 0 0 29.5492 0 66C0 102.451 29.5492 132 66 132C102.451 132 132 102.451 132 66Z" fill="url(#paint0_linear_1191_44)"/>
<path d="M64.1724 74.4615H56.6382V94.891H42.7207V37.1224H65.445C72.2955 37.1224 77.6499 38.641 81.5084 41.6781C85.3669 44.7153 87.2961 49.0024 87.2961 54.5397C87.2961 58.5561 86.4838 61.8843 84.8592 64.5243C83.2346 67.1643 80.6893 69.3034 77.2235 70.9415L89.2795 94.2615V94.8572H74.3872L64.1724 74.4615ZM56.6382 63.7391H65.4382C68.0782 63.7391 70.0684 63.0441 71.4087 61.6541C72.749 60.2642 73.4259 58.3214 73.4395 55.8258C73.4395 53.3347 72.7625 51.3807 71.4087 49.9637C70.0549 48.5466 68.0715 47.8359 65.4585 47.8314H56.6585L56.6382 63.7391Z" fill="white"/>
<defs>
<linearGradient id="paint0_linear_1191_44" x1="19.3329" y1="19.3329" x2="112.667" y2="112.667" gradientUnits="userSpaceOnUse">
<stop stop-color="#00BEE2"/>
<stop offset="1" stop-color="#2F009C"/>
</linearGradient>
</defs>
</svg>
