<svg width="119" height="119" viewBox="0 0 119 119" fill="none" xmlns="http://www.w3.org/2000/svg">
<path d="M59.453 117.013C91.2177 117.013 116.968 91.2631 116.968 59.4984C116.968 27.7338 91.2177 1.9834 59.453 1.9834C27.6883 1.9834 1.93799 27.7338 1.93799 59.4984C1.93799 91.2631 27.6883 117.013 59.453 117.013Z" fill="#E8EDFC"/>
<path d="M100.122 18.8294C88.6143 7.29772 72.7465 1.20253 56.478 2.06476C87.0114 3.6901 110.936 28.9218 110.936 59.4985C110.936 90.0751 87.0114 115.307 56.478 116.932C80.2495 118.161 102.322 104.62 111.997 82.8721C121.673 61.1239 116.951 35.6628 100.122 18.8294Z" fill="#CAD9FC"/>
<path d="M59.4528 105.114C84.6454 105.114 105.068 84.6912 105.068 59.4985C105.068 34.3059 84.6454 13.8832 59.4528 13.8832C34.2601 13.8832 13.8374 34.3059 13.8374 59.4985C13.8374 84.6912 34.2601 105.114 59.4528 105.114Z" fill="#A4C2F7"/>
<path d="M91.707 27.2445C82.4244 17.9568 69.579 13.137 56.478 14.0259C80.4631 15.5625 99.1307 35.4642 99.1307 59.4985C99.1307 83.5328 80.4631 103.435 56.478 104.971C75.4298 106.235 93.178 95.6118 101.019 78.312C108.86 61.0122 105.149 40.6633 91.707 27.2445Z" fill="#7FACFA"/>
<path d="M74.4866 63.6437C76.428 62.7107 78.1981 61.4569 79.7225 59.935C83.6057 56.0552 85.6007 50.6728 85.1844 45.1993C84.2524 35.2314 75.8264 27.6474 65.8157 27.7663H41.6039C40.5085 27.7663 39.6206 28.6542 39.6206 29.7495V85.2813C39.6206 86.3766 40.5085 87.2646 41.6039 87.2646H51.5203C52.6156 87.2646 53.5035 86.3766 53.5035 85.2813V65.4485H60.445L70.8056 86.1678C71.1413 86.8396 71.8277 87.2642 72.5787 87.2646H83.8973C84.5951 87.2642 85.2414 86.8971 85.5991 86.2979C85.9568 85.6988 85.9733 84.9557 85.6425 84.3412L74.4866 63.6437Z" fill="#E8EDFC"/>
<path d="M66.3937 53.5487H53.5024V39.6658H66.3937C70.2274 39.6658 73.3352 42.7736 73.3352 46.6072C73.3352 50.4409 70.2274 53.5487 66.3937 53.5487Z" fill="#A4C2F7"/>
<path d="M62.3524 116.92C31.8149 115.302 7.88755 90.0625 7.90023 59.4821C7.91291 28.9016 31.8611 3.68195 62.4 2.08877C41.1767 0.977983 21.0717 11.6657 10.1213 29.8797C-0.829131 48.0938 -0.838569 70.8631 10.0967 89.0862C21.032 107.309 41.1282 118.014 62.3524 116.92Z" fill="white"/>
<path d="M7.54395 88.4961L11.0067 86.5604L12.9523 89.8566C13.6723 90.9097 14.4576 91.9192 15.2034 92.9545L16.3358 94.4975L17.617 95.9215L20.1834 98.7675L17.381 101.57L14.6302 98.5295L13.2617 97.0024L12.0519 95.3503C11.2586 94.2417 10.4137 93.1687 9.64424 92.0283L7.54395 88.4961Z" fill="white"/>
<path d="M77.1714 64.4429C83.8812 60.3726 87.7413 52.883 87.1631 45.0564C86.1588 34.0495 76.8671 25.6607 65.8151 25.7829H41.6033C39.4126 25.7829 37.6367 27.5588 37.6367 29.7495V85.2812C37.6367 87.4719 39.4126 89.2478 41.6033 89.2478H51.5197C53.7103 89.2478 55.4862 87.4719 55.4862 85.2812V67.4317H59.2187L69.03 87.0662C69.7015 88.4091 71.0767 89.2547 72.5781 89.2478H83.8966C85.2929 89.2474 86.5861 88.513 87.3017 87.314C88.0173 86.1151 88.0497 84.6282 87.3872 83.3991L77.1714 64.4429ZM72.5781 85.2812L62.2293 64.5619C61.8917 63.8863 61.1997 63.4611 60.4444 63.4652H53.5029C52.4076 63.4652 51.5197 64.3531 51.5197 65.4485V85.2812H41.6033V29.7495H65.8151C74.7906 29.6206 82.3597 36.4076 83.2065 45.344C83.5716 50.2419 81.787 55.0562 78.3177 58.5328C76.9517 59.8946 75.3668 61.0175 73.6292 61.8548C73.1403 62.0892 72.7687 62.5135 72.6009 63.0291C72.433 63.5446 72.4836 64.1064 72.7407 64.5838L83.8966 85.2812H72.5781Z" fill="#428DFF"/>
<path d="M75.3189 46.6072C75.3134 41.6805 71.3208 37.688 66.3941 37.6825H53.5028C52.4075 37.6825 51.5195 38.5704 51.5195 39.6658V53.5487C51.5195 54.644 52.4075 55.532 53.5028 55.532H66.3941C71.3208 55.5265 75.3134 51.534 75.3189 46.6072ZM66.3941 51.5654H55.4861V41.649H66.3941C69.1324 41.649 71.3523 43.8689 71.3523 46.6072C71.3523 49.3456 69.1324 51.5654 66.3941 51.5654Z" fill="#428DFF"/>
<path d="M13.6387 96.1614C12.5434 96.1669 11.651 95.2834 11.6455 94.1881C11.6401 93.0927 12.5236 92.2004 13.6189 92.1949H13.6387C14.7341 92.1949 15.622 93.0828 15.622 94.1782C15.622 95.2735 14.7341 96.1614 13.6387 96.1614Z" fill="#428DFF"/>
<path d="M59.4528 0.000226742C43.6643 -0.0434759 28.5146 6.23193 17.3816 17.4273C3.56492 31.3651 -2.55801 51.1813 0.987795 70.4839C2.21894 76.7936 4.43136 82.8714 7.54451 88.496C7.89028 89.1146 8.5398 89.5017 9.24838 89.5115C9.95697 89.5214 10.617 89.1524 10.9798 88.5437C11.3426 87.935 11.3531 87.1789 11.0073 86.5603C8.10381 81.3121 6.03874 75.6422 4.88692 69.756C3.80921 63.8511 3.682 57.8119 4.51009 51.8669C6.16291 39.8996 11.6644 28.795 20.1839 20.2296C34.2133 6.20023 54.6617 0.721118 73.8262 5.85624C92.9908 10.9914 107.96 25.9606 113.095 45.1251C118.23 64.2897 112.751 84.738 98.7217 98.7674C88.3073 109.183 74.1817 115.034 59.4528 115.034C44.7239 115.034 30.5983 109.183 20.1839 98.7674C19.686 98.2518 18.9486 98.0451 18.2552 98.2266C17.5618 98.4081 17.0202 98.9496 16.8387 99.643C16.6572 100.336 16.864 101.074 17.3796 101.572C32.4105 116.603 54.3186 122.473 74.8513 116.971C95.384 111.47 111.422 95.4317 116.924 74.899C122.425 54.3663 116.555 32.4582 101.524 17.4273C90.391 6.23193 75.2414 -0.0434759 59.4528 0.000226742Z" fill="#428DFF"/>
<path d="M25.7946 25.8405C9.41175 42.1448 7.16354 67.8829 20.4715 86.7807C20.8723 87.3777 21.5648 87.711 22.2814 87.6519C22.998 87.5927 23.6265 87.1503 23.9239 86.4956C24.2213 85.8409 24.141 85.0765 23.7142 84.4979C11.5737 67.1615 13.6334 43.6107 28.5991 28.645C43.5648 13.6793 67.1156 11.6195 84.452 23.76C85.0307 24.1869 85.795 24.2672 86.4497 23.9698C87.1044 23.6724 87.5468 23.0439 87.606 22.3273C87.6651 21.6107 87.3318 20.9181 86.7348 20.5174C67.8374 7.20774 42.0982 9.45606 25.7946 25.8405Z" fill="#428DFF"/>
<path d="M34.4634 95.2371C33.8848 94.8103 33.1204 94.73 32.4658 95.0274C31.8111 95.3248 31.3687 95.9533 31.3095 96.6699C31.2503 97.3865 31.5837 98.079 32.1807 98.4798C51.094 111.72 76.7831 109.47 93.1068 93.1435C109.431 76.8173 111.677 51.1279 98.434 32.2165C97.8009 31.3211 96.5618 31.1085 95.6664 31.7416C94.7709 32.3747 94.5583 33.6138 95.1914 34.5092C107.307 51.8444 105.238 75.3742 90.2833 90.3291C75.3284 105.284 51.7986 107.353 34.4634 95.2371Z" fill="#428DFF"/>
</svg>
