<svg width="156" height="123" viewBox="0 0 156 123" fill="none" xmlns="http://www.w3.org/2000/svg">
<path d="M88.3135 12.0926L12.2969 56.2099V75.6692L46.9838 95.6956L123 51.5782V32.119L88.3135 12.0926Z" fill="#3E3D43"/>
<path d="M14.7776 74.3118V60.8037L44.3103 77.8545V91.3627L14.7776 74.3118Z" fill="#2E2E30"/>
<path d="M46.8877 76.083L122.904 31.9657V51.4252L46.8877 95.5425V76.083Z" fill="#2E2E30"/>
<path d="M52.0403 79.0509L117.749 40.9156V48.4573L52.0403 86.5926V79.0509Z" fill="#1D1D1F"/>
<path d="M12.1997 56.0567L88.2163 11.9393L122.903 31.9657L46.8864 76.0831L12.1997 56.0567Z" fill="#57565C"/>
<path d="M90.0672 30.3646C87.4049 28.8276 83.1026 28.8276 80.4583 30.3641C78.3322 31.5996 77.9263 33.4526 79.2317 34.9298L68.425 41.21H53.1605C52.601 41.21 52.0662 41.339 51.6727 41.5677L47.6385 43.9121L45.9443 42.9341L39.6091 46.616L45.9859 50.2973L52.3211 46.6155L50.627 45.6375L54.046 43.6507H64.2252L47.5174 53.3603L44.2284 51.4612L40.8694 58.811L53.547 56.8415L50.5062 55.0859L75.3685 40.6375L75.4009 46.2465L68.5566 50.2238C66.6521 49.7894 64.4056 50.0167 62.8725 50.9075C60.8115 52.1051 60.8225 54.0466 62.896 55.244C64.9704 56.4415 68.3226 56.4415 70.3834 55.244C71.9163 54.3532 72.3012 53.0511 71.5452 51.9494L79.0039 47.6148C79.3984 47.3857 79.6185 47.076 79.6165 46.7519L79.5675 38.1974L82.2209 36.6556C84.776 37.4073 87.9731 37.1656 90.0989 35.9301C92.7429 34.3931 92.729 31.9011 90.0672 30.3646Z" fill="#3E3D43"/>
<path d="M21.8882 64.9105L0 77.6309V87.8485L22.2534 100.697L44.3098 87.879V77.8546L21.8882 64.9105ZM21.4829 99.386L21.5067 99.3723V99.386H21.4829Z" fill="#898890"/>
<path d="M0.742432 78.9412L22.7986 66.1237L22.7743 74.5795L0.742432 87.3972V78.9412Z" fill="#77767E"/>
<path d="M20.5381 94.3591L42.5942 81.5417L42.5851 84.7298L20.5381 97.5473V94.3591Z" fill="#2E2E30"/>
<path d="M1.70435 83.4857L23.7605 70.668L42.5941 81.5417L20.538 94.3592L1.70435 83.4857Z" fill="#57565C"/>
<path d="M0 77.6309L22.2534 90.4789V100.697L0 87.8486V77.6309ZM21.5072 99.3861V90.9303L0.741603 78.9412V87.3969L21.4834 99.3858" fill="#ACABB1"/>
<path d="M20.538 94.3591V97.5473L1.70435 86.6738V83.4856L20.538 94.3591Z" fill="#3E3D43"/>
<path d="M22.2542 90.4789L44.3105 77.8546L44.2817 87.8789L22.2542 100.697V90.4789Z" fill="#898890"/>
<path d="M0 77.6309L21.8882 64.9105L44.3098 77.8546L22.2534 90.4789L0 77.6309Z" fill="#C6C5CB"/>
<path d="M18.5615 76.3997C18.6795 76.4677 18.6799 76.5777 18.5629 76.6457L14.8052 78.8297C14.688 78.8977 14.4982 78.8977 14.3805 78.8297L9.43548 75.9745C9.31825 75.9068 9.31705 75.7965 9.43404 75.7285L13.1918 73.5448C13.309 73.4768 13.4993 73.477 13.6165 73.5448L18.5615 76.3997ZM28.587 82.1879L23.642 79.3327C23.5243 79.2648 23.3342 79.2648 23.2172 79.3327L19.4593 81.5165C19.342 81.5845 19.3425 81.6945 19.4605 81.7625L24.4057 84.6177C24.5229 84.6854 24.7134 84.6856 24.8304 84.6177L28.5882 82.4337C28.7054 82.3659 28.7042 82.2557 28.587 82.1879Z" fill="#77767E"/>
<path d="M14.3792 78.8294C14.4972 78.8974 14.6869 78.8974 14.8039 78.8294L18.5617 76.6454C18.6787 76.5774 18.6782 76.4674 18.5602 76.3994L16.2211 75.0488L12.0398 77.479L14.3792 78.8294Z" fill="#57565C"/>
<path d="M24.8285 84.6179L28.5863 82.4339C28.7035 82.3659 28.7021 82.2554 28.5848 82.1879L23.6399 79.3327C23.5221 79.2647 23.3321 79.2647 23.2151 79.3327L19.4571 81.5164C19.3399 81.5844 19.3406 81.6944 19.4583 81.7624L24.4036 84.6176C24.5208 84.6856 24.7113 84.6858 24.8285 84.6179Z" fill="#57565C"/>
<path d="M56.6709 80.4837C56.6757 82.1444 57.2619 83.3127 58.2075 83.8621L62.1093 86.1297C62.1057 86.1278 62.1026 86.1251 62.099 86.1232C63.0576 86.6865 64.388 86.6109 65.8572 85.7628C68.766 84.0836 71.1169 80.0126 71.1073 76.6695C71.1025 75.0037 70.5125 73.8333 69.5617 73.286C69.5648 73.2877 69.5679 73.2894 69.571 73.2911L65.6691 71.0235C64.7116 70.4669 63.385 70.5452 61.9215 71.3906C59.0123 73.0696 56.6616 77.1411 56.6709 80.4837Z" fill="#898890"/>
<path d="M69.5712 73.2911L65.6693 71.0235C64.7117 70.4669 63.3851 70.5452 61.9216 71.3906L65.8235 73.6582C67.287 72.8128 68.6134 72.7342 69.5712 73.2911Z" fill="#C6C5CB"/>
<path d="M58.2075 83.8623L62.1093 86.1299C61.164 85.5805 60.5776 84.4122 60.5728 82.7515C60.5632 79.4089 62.9141 75.3374 65.8229 73.6581L61.921 71.3906C59.0123 73.0698 56.6613 77.1415 56.6709 80.4839C56.6757 82.1444 57.2619 83.3127 58.2075 83.8623Z" fill="#ACABB1"/>
<path d="M65.8231 73.6577C62.9144 75.3369 60.5634 79.4086 60.573 82.751C60.5826 86.0941 62.9485 87.4418 65.8575 85.7626C68.7662 84.0833 71.1172 80.0123 71.1075 76.6692C71.0982 73.3266 68.7321 71.9784 65.8231 73.6577Z" fill="#898890"/>
<path d="M65.8301 76.0266C64.0596 77.0488 62.629 79.5266 62.6348 81.5609C62.6405 83.5955 64.0808 84.4159 65.8508 83.3937C67.6213 82.3715 69.0519 79.8939 69.0462 77.8594C69.0406 75.8253 67.6004 75.0047 65.8301 76.0266Z" fill="#77767E"/>
<path d="M75.6236 93.4169L62.416 80.2093C61.5577 79.351 61.5231 77.9679 62.3394 77.0695C86.0013 51.0218 110.808 26.0834 136.726 2.28767C140.158 -0.863721 145.468 -0.743604 148.763 2.55145L153.281 7.06953C156.576 10.3646 156.696 15.6742 153.545 19.1067C129.749 45.0244 104.811 69.8319 78.7637 93.4936C77.865 94.3101 76.4822 94.2755 75.6236 93.4169Z" fill="#6B8089"/>
<path d="M153.545 19.1067C156.696 15.6742 156.576 10.3646 153.281 7.06952L148.763 2.55143C148.64 2.42843 148.514 2.31144 148.385 2.19733C151.329 5.50872 151.329 10.5524 148.295 13.8569C124.5 39.7748 99.5615 64.5821 73.5144 88.2437C72.6159 89.0598 71.2336 89.0254 70.375 88.1675L75.6244 93.4169C76.4827 94.2755 77.8657 94.3101 78.7642 93.4935C104.811 69.8319 129.75 45.0246 153.545 19.1067Z" fill="#586D74"/>
<path d="M78.7253 59.4084L96.4248 77.1081C99.4023 74.2887 102.364 71.4537 105.311 68.6033L87.2299 50.5216C84.3797 53.4688 81.5447 56.4309 78.7253 59.4084Z" fill="#ECF1F4"/>
<path d="M91.1746 71.858L96.4244 77.1079C99.4019 74.2885 102.364 71.4535 105.311 68.6031L100.061 63.3533C97.1141 66.2036 94.1523 69.0386 91.1746 71.858Z" fill="#E0EBF0"/>
<path d="M32.8389 120.842C34.6839 96.6152 53.0381 83.8582 59.2527 80.2079C60.4274 79.5179 61.9212 79.7142 62.8845 80.6775L75.1557 92.9489C76.119 93.9123 76.3156 95.4061 75.6254 96.5808C71.975 102.796 59.2178 121.15 34.9895 122.993C33.766 123.086 32.7457 122.066 32.8389 120.842Z" fill="#FFD86E"/>
<path d="M75.6254 96.5808C76.3153 95.4061 76.119 93.9123 75.1557 92.949L62.8845 80.6778L62.8838 80.6771L69.9059 87.6991C70.8692 88.6627 70.8111 90.0402 70.3755 91.331C67.0221 101.271 54.7154 114.49 32.8389 120.842C32.7457 122.066 33.766 123.086 34.9895 122.993C59.2181 121.15 71.975 102.795 75.6254 96.5808Z" fill="#FFCD55"/>
<path d="M57.7522 100.628L35.4226 122.958C35.2785 122.973 35.1344 122.982 34.9902 122.994C33.765 123.086 32.7464 122.067 32.8377 120.842C32.8497 120.7 32.8593 120.556 32.8714 120.414L55.2033 98.082C55.9072 97.3781 57.0483 97.3781 57.7522 98.082C58.4561 98.7858 58.4561 99.9246 57.7522 100.628Z" fill="#586D74"/>
<path d="M58.429 102.323C61.1458 102.323 63.3481 100.121 63.3481 97.404C63.3481 94.6873 61.1458 92.485 58.429 92.485C55.7123 92.485 53.51 94.6873 53.51 97.404C53.51 100.121 55.7123 102.323 58.429 102.323Z" fill="#586D74"/>
</svg>
