<svg width="141" height="130" viewBox="0 0 141 130" fill="none" xmlns="http://www.w3.org/2000/svg">
<path d="M24.3333 100.42L14.8626 102.578L9.30204 126.877L27.4056 122.738L30.9857 107.047L24.3333 100.42ZM21.4134 113.623C20.0169 115.019 17.7571 115.019 16.3606 113.623C14.9642 112.226 14.9642 109.967 16.3606 108.57C17.7571 107.174 20.0169 107.174 21.4134 108.57C22.8099 109.967 22.8099 112.226 21.4134 113.623Z" fill="white"/>
<path fill-rule="evenodd" clip-rule="evenodd" d="M30.9857 107.072L22.9114 98.9979L27.9642 93.9706L36.013 102.019L30.9857 107.072Z" fill="#15294E"/>
<path d="M32.5599 90.9237L43.3002 101.664C51.7553 94.9101 71.4331 78.6854 89.9429 60.1756C114.369 35.7751 133.259 7.81996 127.75 2.2594C116.476 6.19496 95.9351 21.5309 77.3999 40.0408C52.974 64.4666 32.5599 90.9237 32.5599 90.9237Z" fill="#E8EDFC"/>
<path d="M66.5327 82.1131C68.2592 80.5897 70.0366 78.9901 71.8647 77.3651L56.6557 62.1561C55.0307 63.9842 53.4565 65.7869 51.933 67.5135L66.5327 82.1131Z" fill="white"/>
<path d="M1.25319 130C0.923108 130 0.593028 129.873 0.364512 129.619C0.0598239 129.314 -0.0671295 128.857 0.0344333 128.426L6.02664 102.273C6.1282 101.791 6.50906 101.435 6.99148 101.308L22.6322 97.7538C23.0638 97.6522 23.4954 97.7792 23.8255 98.0839L31.8998 106.158C32.2044 106.463 32.3314 106.92 32.2298 107.351L28.6497 123.043C28.5482 123.525 28.1673 123.881 27.6849 124.008L1.53248 130C1.43092 130 1.35475 130 1.25319 130ZM8.28641 103.644L2.92897 127.029L26.3138 121.672L29.5638 107.453L22.5052 100.394L8.28641 103.644Z" fill="#428DFF"/>
<path d="M30.9857 108.342C30.6556 108.342 30.3255 108.215 30.097 107.961L22.0228 99.8867C21.515 99.3789 21.515 98.5917 22.0228 98.0839L27.0501 93.0566C27.5579 92.5488 28.3451 92.5488 28.8529 93.0566L36.9271 101.131C37.4349 101.639 37.4349 102.426 36.9271 102.934L31.8998 107.961C31.6458 108.215 31.3158 108.342 30.9857 108.342ZM24.7142 98.998L30.9857 105.27L34.2357 102.019L27.9642 95.748L24.7142 98.998Z" fill="#428DFF"/>
<path d="M15.4882 112.697L17.2833 114.492L2.1684 129.607L0.373274 127.812L15.4882 112.697Z" fill="#428DFF"/>
<path d="M18.8997 115.934C17.6556 115.934 16.4368 115.451 15.472 114.512C14.5579 113.598 14.0501 112.379 14.0501 111.084C14.0501 109.789 14.5579 108.57 15.472 107.656C17.3509 105.777 20.4232 105.777 22.3021 107.656C23.2161 108.57 23.724 109.789 23.724 111.084C23.724 112.379 23.2161 113.598 22.3021 114.512C21.3626 115.451 20.1185 115.934 18.8997 115.934ZM17.2747 109.459C16.386 110.348 16.386 111.82 17.2747 112.709C18.1634 113.598 19.6361 113.598 20.5247 112.709C21.4134 111.82 21.4134 110.348 20.5247 109.459C19.6107 108.57 18.1634 108.57 17.2747 109.459Z" fill="#428DFF"/>
<path d="M39.0599 106.31C38.7298 106.31 38.3998 106.184 38.1713 105.93L24.054 91.8124C23.597 91.3554 23.5462 90.6444 23.9525 90.1366C24.1556 89.8827 44.6967 63.324 68.9194 39.1267C80.8276 27.2185 94.0562 16.1735 105.177 8.81022C117.543 0.659804 125.439 -1.85388 128.638 1.34535C131.838 4.54458 129.324 12.4411 121.148 24.8317C113.81 35.9529 102.765 49.1814 90.8316 61.0897C83.7983 68.1229 75.9018 75.5116 67.3706 83.0526L65.6948 81.1483C74.1753 73.658 82.021 66.2947 89.0288 59.2869C100.835 47.4802 111.753 34.404 119.015 23.4099C127.267 10.9176 128.384 4.67153 126.836 3.1227C125.287 1.57387 119.041 2.69106 106.548 10.943C95.5542 18.2048 82.478 29.1228 70.6713 40.9294C49.0385 62.5623 30.3763 86.0487 26.6185 90.8222L39.1361 103.34C41.8783 101.182 50.7396 94.1483 61.7846 84.5507L63.4604 86.455C50.1049 98.0839 39.8978 105.955 39.7963 106.031C39.5931 106.234 39.3138 106.31 39.0599 106.31Z" fill="#428DFF"/>
<path d="M66.5327 83.3827C66.2026 83.3827 65.8725 83.2557 65.644 83.0018L46.9564 64.3651L48.7592 62.5623L66.5834 80.3866C67.726 79.371 68.8686 78.3299 70.0112 77.3143L55.31 62.6131L57.1127 60.8104L72.7534 76.451C73.0073 76.7049 73.1342 77.035 73.1342 77.3905C73.1342 77.746 72.9819 78.076 72.728 78.3046C70.976 79.8788 69.1987 81.4784 67.3959 83.078C67.1166 83.2811 66.812 83.3827 66.5327 83.3827Z" fill="#428DFF"/>
<path d="M121.393 83.2705L106.885 97.7788C106.244 98.4214 105.374 98.7825 104.467 98.7825C103.56 98.7825 102.689 98.4214 102.049 97.7788L101.235 96.9653L99.6308 95.3608L76.2525 71.9824C73.586 69.3097 73.586 64.983 76.2525 62.3102L85.9247 52.638C86.0377 52.525 86.162 52.412 86.2863 52.3103C88.9941 49.9571 93.0612 50.1002 95.5969 52.638L121.393 78.4344C122.727 79.7707 122.727 81.9341 121.393 83.2705Z" fill="#CAD9FC"/>
<path d="M118.003 84.8524L106.06 96.7958L104.094 98.7619C103.32 98.6764 102.599 98.3297 102.049 97.7788L101.235 96.9653L99.6308 95.3608L76.2525 71.9824C73.586 69.3097 73.586 64.983 76.2525 62.3102L85.9247 52.638C86.0377 52.525 86.162 52.412 86.2863 52.3103C88.4483 51.9808 90.6397 52.6834 92.2071 54.2086L118.003 80.0163C119.337 81.3526 119.337 83.516 118.003 84.8524Z" fill="white"/>
<path d="M118.003 84.8524L106.06 96.7958C105.565 96.6328 105.115 96.3539 104.749 95.9822L103.936 95.1687L102.343 93.5642L78.9643 70.1859C77.6787 68.9048 76.956 67.1646 76.956 65.3497C76.956 63.5348 77.6787 61.7946 78.9643 60.5136L87.2467 52.2312C89.102 52.1787 90.8967 52.8942 92.2071 54.2086L118.003 80.0163C119.337 81.3527 119.337 83.516 118.003 84.8524Z" fill="#E8EDFC"/>
<path d="M139.122 104.219L135.088 108.265L134.286 109.056L133.484 109.858L127.834 115.507C127.408 115.936 126.828 116.177 126.224 116.177C125.619 116.177 125.04 115.936 124.614 115.507L106.885 97.7788L114.15 90.5247L114.953 89.7224L115.744 88.9201L121.393 83.2705L139.122 100.999C139.55 101.425 139.791 102.005 139.791 102.609C139.791 103.214 139.55 103.793 139.122 104.219Z" fill="#CAD9FC"/>
<path d="M135.732 104.219L131.698 108.265L130.896 109.056L130.094 109.858L124.535 115.428L106.885 97.7788L114.15 90.5247L114.953 89.7224L115.744 88.9202L119.698 84.9654L135.732 100.999C136.161 101.425 136.402 102.005 136.402 102.609C136.402 103.214 136.161 103.793 135.732 104.219Z" fill="#E8EDFC"/>
<path d="M77.0547 71.1859L87.441 81.5722L102.845 96.9766L101.248 98.5743L85.8433 83.1699L75.457 72.7836L77.0547 71.1859Z" fill="white"/>
<path d="M80.2502 75.979C80.6913 75.5378 80.6913 74.8225 80.2502 74.3813L77.0547 71.1859L75.457 72.7847L78.6524 75.9802C79.094 76.421 79.8092 76.4204 80.2502 75.979Z" fill="#428DFF"/>
<path d="M101.248 98.5743L102.845 96.9766L86.6422 80.7733C86.1988 80.3451 85.4941 80.3512 85.0582 80.7871C84.6224 81.223 84.6163 81.9277 85.0445 82.3711L101.248 98.5743Z" fill="#428DFF"/>
<path d="M83.4467 77.5767C83.2324 77.3675 82.9473 77.2465 82.6479 77.2378L82.4321 77.2615C82.357 77.2765 82.2842 77.3008 82.2151 77.3338C82.147 77.3562 82.0827 77.3885 82.0242 77.4299C81.9623 77.4738 81.9034 77.5217 81.8479 77.5734C81.6377 77.787 81.5165 78.0726 81.5089 78.3722C81.5118 78.5209 81.5441 78.6676 81.6038 78.8038C81.7513 79.1482 82.0589 79.3978 82.4262 79.4714C82.7935 79.545 83.1734 79.4331 83.4422 79.1722C83.6569 78.9616 83.7779 78.6735 83.7779 78.3728C83.7779 78.072 83.6569 77.7839 83.4422 77.5734L83.4467 77.5767Z" fill="#428DFF"/>
<path d="M104.464 99.9031C103.257 99.9047 102.1 99.4257 101.248 98.572C100.819 98.1287 100.826 97.4239 101.261 96.9881C101.697 96.5522 102.402 96.5461 102.845 96.9743C103.74 97.8671 105.189 97.8671 106.084 96.9743L120.591 82.4694C121.484 81.5745 121.484 80.1258 120.591 79.231L94.8003 53.4391C92.5696 51.2119 88.9566 51.2119 86.7258 53.4391L77.0536 63.1113C74.8289 65.3431 74.8289 68.9541 77.0536 71.1858C77.3392 71.4712 77.4508 71.8873 77.3465 72.2774C77.2421 72.6674 76.9376 72.9722 76.5476 73.0768C76.1576 73.1815 75.7415 73.0701 75.4558 72.7847C72.3483 69.6707 72.3483 64.6287 75.4558 61.5147L85.1281 51.8425C88.2421 48.735 93.284 48.735 96.398 51.8425L122.189 77.6332C123.962 79.4111 123.962 82.2892 122.189 84.0671L107.682 98.5743C106.828 99.4276 105.67 99.9058 104.464 99.9031Z" fill="#428DFF"/>
<path d="M100.434 97.293C99.9772 97.2929 99.5653 97.0176 99.3905 96.5954C99.2156 96.1732 99.3122 95.6873 99.6353 95.3642L102.053 92.9461C102.495 92.5046 103.21 92.5043 103.652 92.9455C104.093 93.3867 104.093 94.1023 103.652 94.5438L101.233 96.9653C101.021 97.176 100.733 97.2938 100.434 97.293Z" fill="#428DFF"/>
<path d="M106.076 91.6546C105.619 91.6545 105.207 91.3792 105.032 90.957C104.857 90.5349 104.954 90.0489 105.277 89.7258L118.979 76.0208C119.264 75.7348 119.68 75.6228 120.071 75.7269C120.461 75.8311 120.766 76.1356 120.871 76.5258C120.976 76.916 120.865 77.3325 120.58 77.6185L106.875 91.3156C106.664 91.5304 106.377 91.6524 106.076 91.6546Z" fill="#428DFF"/>
<path d="M103.658 83.4524C102.032 83.4517 100.632 82.3023 100.316 80.7071C99.9989 79.1119 100.853 77.5152 102.356 76.8934C103.859 76.2716 105.591 76.7979 106.494 78.1504C107.398 79.5029 107.219 81.3051 106.069 82.4547C105.431 83.0957 104.563 83.4549 103.658 83.4524ZM103.658 78.8943C103.109 78.8934 102.636 79.2801 102.528 79.818C102.42 80.3559 102.707 80.8953 103.214 81.1063C103.72 81.3173 104.305 81.1413 104.611 80.6858C104.917 80.2303 104.858 79.6222 104.471 79.2332C104.256 79.016 103.963 78.8939 103.658 78.8943Z" fill="#428DFF"/>
<path d="M91.5687 81.0332C89.9436 81.031 88.5463 79.8811 88.2313 78.2868C87.9162 76.6925 88.7712 75.0977 90.2734 74.4775C91.7755 73.8574 93.5066 74.3846 94.408 75.7368C95.3095 77.089 95.1302 78.8897 93.98 80.0377C93.3399 80.676 92.4726 81.0341 91.5687 81.0332ZM91.5687 76.4762C91.02 76.4753 90.5471 76.862 90.4391 77.3999C90.331 77.9379 90.6179 78.4772 91.1244 78.6882C91.6309 78.8993 92.2159 78.7232 92.5217 78.2677C92.8276 77.8122 92.7692 77.2041 92.3823 76.8152C92.1668 76.5986 91.8741 76.4767 91.5687 76.4762Z" fill="#428DFF"/>
<path d="M104.463 74.5926C103.085 74.5923 101.842 73.7617 101.315 72.488C100.787 71.2144 101.079 69.7484 102.053 68.7734C103.402 67.4839 105.526 67.4839 106.875 68.7734C107.85 69.7485 108.141 71.2148 107.613 72.4886C107.085 73.7623 105.842 74.5927 104.463 74.5926ZM104.463 70.0344C103.999 70.0344 103.58 70.3142 103.403 70.7435C103.225 71.1727 103.323 71.6667 103.652 71.9949C104.106 72.4308 104.823 72.4308 105.277 71.9949C105.606 71.6661 105.704 71.1716 105.526 70.7422C105.348 70.3128 104.928 70.0341 104.463 70.0344Z" fill="#428DFF"/>
<path d="M102.049 79.5643C101.749 79.5642 101.462 79.4451 101.25 79.2332L85.9349 63.9181C85.6411 63.6344 85.5233 63.2143 85.6267 62.8192C85.7301 62.4242 86.0387 62.1157 86.4337 62.0123C86.8288 61.9089 87.2489 62.0267 87.5326 62.3204L102.845 77.6332C103.17 77.9559 103.268 78.4423 103.093 78.8653C102.919 79.2882 102.506 79.5642 102.049 79.5643Z" fill="#428DFF"/>
<path d="M102.853 70.6966C102.553 70.6968 102.265 70.5777 102.053 70.3655L99.9664 68.2785H90.7631C90.139 68.2785 89.6331 67.7726 89.6331 67.1486C89.6331 66.5245 90.139 66.0186 90.7631 66.0186H100.434C100.734 66.0187 101.021 66.1378 101.233 66.3497L103.652 68.7678C103.975 69.0909 104.072 69.5768 103.897 69.999C103.722 70.4212 103.31 70.6965 102.853 70.6966Z" fill="#428DFF"/>
<path d="M89.9585 77.144C89.6589 77.1439 89.3715 77.0248 89.1597 76.8129L86.7428 74.3948C86.5308 74.183 86.4118 73.8956 86.4117 73.596V63.9249C86.4117 63.3008 86.9176 62.795 87.5416 62.795C88.1657 62.795 88.6716 63.3008 88.6716 63.9249V73.1237L90.7574 75.2107C91.0805 75.5338 91.1771 76.0197 91.0022 76.4419C90.8274 76.8641 90.4155 77.1394 89.9585 77.1395V77.144Z" fill="#428DFF"/>
<path d="M126.229 117.304C125.325 117.306 124.456 116.947 123.818 116.305L106.084 98.5743C105.643 98.1331 105.643 97.4178 106.084 96.9766L120.591 82.4693C121.032 82.0282 121.748 82.0282 122.189 82.4693L139.92 100.2C140.559 100.84 140.918 101.707 140.918 102.611C140.918 103.515 140.559 104.382 139.92 105.022L128.636 116.305C127.999 116.946 127.133 117.306 126.229 117.304ZM108.489 97.7754L125.412 114.705C125.867 115.14 126.584 115.14 127.038 114.705L138.32 103.424C138.535 103.209 138.657 102.916 138.657 102.612C138.657 102.307 138.535 102.014 138.32 101.799L121.39 84.8659L108.489 97.7754Z" fill="#428DFF"/>
<path d="M134.285 110.186C133.985 110.185 133.698 110.066 133.486 109.854L129.455 105.825C129.014 105.384 129.014 104.669 129.455 104.227L130.269 103.414L128.644 101.788L127.831 102.6C127.389 103.041 126.674 103.041 126.233 102.6L122.203 98.5709C121.762 98.1297 121.762 97.4145 122.203 96.9732L123.016 96.1597L121.39 94.5348L120.58 95.3495C120.139 95.7906 119.423 95.7906 118.982 95.3495L114.139 90.5145C113.711 90.0712 113.717 89.3664 114.153 88.9306C114.589 88.4947 115.293 88.4886 115.737 88.9168L119.773 92.9529L120.587 92.1405C121.028 91.6994 121.743 91.6994 122.184 92.1405L125.408 95.3642C125.849 95.8054 125.849 96.5207 125.408 96.9619L124.596 97.7755L127.027 100.207L127.841 99.3935C128.053 99.1816 128.34 99.0625 128.64 99.0625C128.939 99.0625 129.227 99.1816 129.438 99.3935L132.67 102.615C133.111 103.056 133.111 103.771 132.67 104.213L131.858 105.026L135.084 108.265C135.407 108.588 135.503 109.074 135.328 109.496C135.154 109.918 134.742 110.193 134.285 110.193V110.186Z" fill="#428DFF"/>
<path d="M126.229 111.8C125.772 111.8 125.361 111.525 125.186 111.103C125.011 110.68 125.107 110.195 125.431 109.871L127.038 108.265C127.485 107.864 128.166 107.883 128.591 108.306C129.015 108.729 129.035 109.41 128.636 109.858L127.02 111.469C126.81 111.679 126.526 111.798 126.229 111.8Z" fill="#428DFF"/>
</svg>
