<svg width="127" height="128" viewBox="0 0 127 128" fill="none" xmlns="http://www.w3.org/2000/svg">
<path d="M123.042 51.0774L97.3667 63.5024L95.25 40.2187C95.25 23.0312 106.003 16.1731 107.675 15.0089C108.284 15.62 108.798 16.3193 109.199 17.0833L124.524 46.6111C124.724 47.0008 124.845 47.4265 124.879 47.8635C124.913 48.3004 124.86 48.7397 124.722 49.1556C124.584 49.5715 124.364 49.9558 124.076 50.2858C123.787 50.6157 123.436 50.8849 123.042 51.0774Z" fill="#C6D8FB"/>
<path d="M31.7499 40.2187L29.6332 63.5024L3.95772 51.0774C3.56403 50.8849 3.21271 50.6157 2.92434 50.2858C2.63598 49.9558 2.41637 49.5715 2.27838 49.1556C2.14039 48.7397 2.08679 48.3004 2.12073 47.8635C2.15467 47.4265 2.27547 47.0008 2.47603 46.6111L17.8009 17.0833C18.2019 16.3193 18.7157 15.62 19.3249 15.0089C20.9971 16.1731 31.7499 23.0312 31.7499 40.2187Z" fill="#C6D8FB"/>
<path d="M107.675 15.009C106.003 16.1731 97.3667 23.0312 97.3667 40.2188V118.536C97.3667 120.221 96.6977 121.836 95.5068 123.027C94.3159 124.217 92.7008 124.887 91.0166 124.887H35.9826C34.2985 124.887 32.6833 124.217 31.4924 123.027C30.3015 121.836 29.6325 120.221 29.6325 118.536V40.2188C29.6325 23.0312 20.9964 16.1731 19.3242 15.009C19.9644 14.3551 20.7082 13.8116 21.5256 13.4003L43.0947 2.56281C43.9464 2.14041 44.9147 2.0138 45.8464 2.20297C47.2434 2.4993 49.6564 3.00731 52.7256 3.43065C56.293 3.95668 59.8937 4.22548 63.4996 4.23499C69.4389 4.1763 75.3556 3.49524 81.1528 2.20297C82.0846 2.0138 83.0528 2.14041 83.9045 2.56281L105.474 13.4003C106.291 13.8116 107.035 14.3551 107.675 15.009Z" fill="#6FAAFF"/>
<path d="M82.5502 2.16065C82.529 3.09199 81.9998 19.0519 63.4999 19.0519C53.9748 19.0519 49.2123 14.8185 46.8204 10.5851C45.3942 7.99604 44.5831 5.1135 44.4497 2.16065C44.9141 2.09003 45.3875 2.10438 45.8467 2.20298C47.2437 2.49932 49.6568 3.00733 52.726 3.43067C56.2934 3.95669 59.894 4.2255 63.4999 4.23501C69.4392 4.17632 75.3559 3.49526 81.1532 2.20298C81.6124 2.10438 82.0858 2.09003 82.5502 2.16065Z" fill="#B7D9FF"/>
<path d="M3.04501 52.9888L27.5161 64.8253V74.0859C27.5161 74.6473 27.7391 75.1856 28.1361 75.5826C28.533 75.9796 29.0714 76.2026 29.6328 76.2026C30.1942 76.2026 30.7326 75.9796 31.1295 75.5826C31.5265 75.1856 31.7495 74.6473 31.7495 74.0859V40.2188C31.7495 26.1089 26.1508 18.4888 22.7535 15.1592L42.6928 5.14517C43.7321 10.5195 47.7771 21.1685 63.4999 21.1685C79.2227 21.1685 83.2677 10.5216 84.307 5.14728L104.244 15.1592C100.847 18.4888 95.2503 26.1047 95.2503 40.2188V118.536C95.2503 119.659 94.8043 120.736 94.0104 121.53C93.2165 122.324 92.1397 122.77 91.0169 122.77H35.9829C34.8601 122.77 33.7833 122.324 32.9894 121.53C32.1955 120.736 31.7495 119.659 31.7495 118.536V84.6693C31.7495 84.108 31.5265 83.5696 31.1295 83.1726C30.7326 82.7757 30.1942 82.5526 29.6328 82.5526C29.0714 82.5526 28.533 82.7757 28.1361 83.1726C27.7391 83.5696 27.5161 84.108 27.5161 84.6693V118.536C27.5161 120.782 28.4081 122.936 29.996 124.523C31.5838 126.111 33.7374 127.003 35.9829 127.003H91.0169C93.2624 127.003 95.416 126.111 97.0038 124.523C98.5916 122.936 99.4837 120.782 99.4837 118.536V64.8253L123.957 52.9888C124.606 52.6733 125.186 52.231 125.661 51.688C126.137 51.145 126.499 50.5122 126.726 49.8271C126.953 49.1419 127.04 48.4182 126.983 47.6987C126.926 46.9791 126.726 46.2783 126.393 45.6375L111.079 16.1075C110.052 14.1228 108.421 12.5153 106.422 11.5164L84.8446 0.678943C83.5562 0.0230829 82.08 -0.164723 80.6684 0.147652C75.0296 1.39956 69.2757 2.06001 63.4999 2.11829C57.7046 2.05904 51.9314 1.39432 46.2742 0.134952C44.8794 -0.160091 43.4256 0.0319099 42.1552 0.678943L20.5734 11.5164C18.5737 12.5155 16.943 14.1239 15.9166 16.1096L0.606584 45.6375C0.274341 46.2784 0.0738217 46.9794 0.0168575 47.699C-0.0401066 48.4186 0.0476378 49.1424 0.274914 49.8276C0.50219 50.5128 0.864395 51.1455 1.34016 51.6884C1.81592 52.2314 2.39561 52.6735 3.04501 52.9888ZM122.638 47.587C122.71 47.7263 122.753 47.8785 122.766 48.0348C122.778 48.1911 122.759 48.3483 122.71 48.4972C122.661 48.6447 122.583 48.781 122.481 48.8977C122.378 49.0145 122.253 49.1093 122.113 49.1766L99.4837 60.1157V40.2188C99.4837 27.3069 104.511 20.7219 107.315 18.0528L122.638 47.587ZM80.1434 4.57578C79.3179 8.79858 76.0942 16.9351 63.4999 16.9351C50.9056 16.9351 47.6818 8.79646 46.8542 4.57578C52.3306 5.71547 57.9063 6.31034 63.4999 6.35168C69.0928 6.31089 74.6679 5.71602 80.1434 4.57578ZM4.36583 47.587L19.6843 18.0591C22.489 20.724 27.5161 27.3069 27.5161 40.2188V60.1157L4.88865 49.1766C4.74856 49.1097 4.62358 49.0149 4.52132 48.8981C4.41905 48.7813 4.34166 48.6449 4.29386 48.4972C4.24383 48.3485 4.22422 48.1913 4.23622 48.035C4.24822 47.8786 4.2937 47.7262 4.36583 47.587Z" fill="#428DFF"/>
</svg>
