<svg width="113" height="113" viewBox="0 0 113 113" fill="none" xmlns="http://www.w3.org/2000/svg">
<path d="M106.621 48.5773L97.4181 16.0534C96.2351 11.873 92.9967 8.58811 88.951 6.93615L74.3853 2.66599C71.0882 7.25263 64.9048 13.7916 56.4472 13.7916C46.176 13.7916 39.2585 4.1469 36.7923 0.0683119C35.5873 -0.081104 34.3589 0.0133569 33.1841 0.363833L17.4106 5.07209C13.2475 6.31465 10.0091 9.59959 8.82618 13.7799L0.228698 44.1634C-0.638444 47.2279 1.05369 50.4334 4.07334 51.446L16.0972 55.4782L16.7011 55.2014L19.2008 56.009L19.5075 56.6219V106.616C19.5075 110.142 22.3661 113 25.892 113H84.4088C85.2554 113 86.0153 112.439 86.2223 111.618C86.3476 111.12 86.4145 110.6 86.4145 110.064V61.8024L93.3867 56.6215L105.851 52.4416C106.638 51.3652 106.968 49.8024 106.621 48.5773Z" fill="#FA8084"/>
<path d="M90.4858 41.034C87.4655 42.0468 85.43 44.8764 85.43 48.062V109.306C85.43 110.683 84.9925 111.957 84.251 113H87.0027C90.5289 113 93.3872 110.142 93.3872 106.616V41.2626C93.3872 40.6718 92.8078 40.2551 92.2479 40.4429L90.4858 41.034Z" fill="#F8636F"/>
<path d="M112.666 44.1635L104.069 13.78C102.886 9.59968 99.6473 6.31473 95.4844 5.07218L79.7107 0.364364C78.5359 0.0136671 77.3075 -0.0805731 76.1025 0.0688428C75.5723 0.945475 74.8367 2.07901 73.9062 3.31891C74.2428 3.6524 74.4637 3.86383 74.4637 3.86383L87.5269 7.76255C91.6898 9.0051 94.9282 12.29 96.1112 16.4704L105.314 48.9943C105.807 50.7369 104.941 52.5535 103.327 53.2887L108.821 51.4463C111.841 50.4335 113.533 47.228 112.666 44.1635Z" fill="#F8636F"/>
<path d="M17.8038 38.3558C16.862 38.3558 16.0986 39.1192 16.0986 40.0609V55.4783L19.5089 56.622V40.0609C19.5089 39.1192 18.7455 38.3558 17.8038 38.3558Z" fill="#F8636F"/>
<path d="M76.8868 0.00610352C76.0856 0.03325 75.2873 0.164127 74.5149 0.409548L73.4506 0.747445C62.387 4.26103 50.5066 4.26103 39.443 0.747445L38.3787 0.409548C37.6063 0.164127 36.808 0.03325 36.0068 0.00610352C37.3366 2.4793 44.6977 15.0991 56.4468 15.0991C68.1959 15.0991 75.557 2.47952 76.8868 0.00610352Z" fill="#F84954"/>
</svg>
