<svg width="124" height="124" viewBox="0 0 124 124" fill="none" xmlns="http://www.w3.org/2000/svg">
<path d="M122.571 37.2671L85.8006 6.41339L79.8409 8.96096L56.8587 36.8663C55.4388 38.5584 42.1602 116 42.1602 116L50.5786 123.064C52.2708 124.484 54.7939 124.263 56.2138 122.571L123.064 42.9025C124.484 41.2101 124.263 38.687 122.571 37.2671Z" fill="#ECEAEC"/>
<path d="M59.9991 55.256V41.5291C59.9991 38.7079 60.993 35.9767 62.8065 33.8157L85.8 6.41338C84.1079 4.99343 81.5848 5.21406 80.1646 6.90647L59.9991 30.9387L13.3148 86.575C11.8949 88.2671 12.1155 90.7902 13.8079 92.2102L42.1596 116H51.9994C56.4176 116 59.9993 112.418 59.9993 108V60.4754L82.2258 79.125C82.6007 79.4394 83.0558 79.5937 83.5089 79.5937C84.0812 79.5937 84.6477 79.3515 85.0422 78.8787C85.753 78.033 85.6419 76.7712 84.7962 76.0623L59.9991 55.256Z" fill="#DAD8DB"/>
<path d="M52.0001 0H4.00002C4.00002 0 1.81259 1.79073 1.81259 3.99997L0.824219 107.012C0.824219 109.221 2.61519 111.012 4.82419 111.012H51.0117C53.2207 111.012 56.0001 108 56.0001 108V3.99997C56.0001 1.79073 54.2091 0 52.0001 0Z" fill="#FF8086"/>
<path d="M48.0001 58H7.99998C6.8944 58 6 57.1053 6 56C6 54.8944 6.89464 54 7.99998 54H47.9999C49.1055 54 49.9999 54.8946 49.9999 56C50.0001 57.1053 49.1055 58 48.0001 58Z" fill="#E5646E"/>
<path d="M28 88.0001C30.2091 88.0001 31.9999 86.2092 31.9999 84.0001C31.9999 81.791 30.2091 80.0001 28 80.0001C25.7908 80.0001 24 81.791 24 84.0001C24 86.2092 25.7908 88.0001 28 88.0001Z" fill="white"/>
<path d="M12 104C14.2091 104 15.9999 102.209 15.9999 99.9998C15.9999 97.7907 14.2091 95.9999 12 95.9999C9.79085 95.9999 8 97.7907 8 99.9998C8 102.209 9.79085 104 12 104Z" fill="white"/>
<path d="M44 47.9999C46.2091 47.9999 47.9999 46.209 47.9999 43.9999C47.9999 41.7908 46.2091 39.9999 44 39.9999C41.7908 39.9999 40 41.7908 40 43.9999C40 46.209 41.7908 47.9999 44 47.9999Z" fill="white"/>
<path d="M44 15.9999C46.2091 15.9999 47.9999 14.2091 47.9999 12C47.9999 9.79085 46.2091 8 44 8C41.7908 8 40 9.79085 40 12C40 14.2091 41.7908 15.9999 44 15.9999Z" fill="white"/>
<path d="M12 47.9999C14.2091 47.9999 15.9999 46.209 15.9999 43.9999C15.9999 41.7908 14.2091 39.9999 12 39.9999C9.79085 39.9999 8 41.7908 8 43.9999C8 46.209 9.79085 47.9999 12 47.9999Z" fill="white"/>
<path d="M12 15.9999C14.2091 15.9999 15.9999 14.209 15.9999 11.9999C15.9999 9.79078 14.2091 7.99994 12 7.99994C9.79085 7.99994 8 9.79078 8 11.9999C8 14.209 9.79085 15.9999 12 15.9999Z" fill="white"/>
<path d="M44 71.9999C46.2091 71.9999 47.9999 70.2091 47.9999 68C47.9999 65.7908 46.2091 64 44 64C41.7908 64 40 65.7908 40 68C40 70.2091 41.7908 71.9999 44 71.9999Z" fill="white"/>
<path d="M75.9033 59.5462C78.1124 59.5462 79.9033 57.7554 79.9033 55.5462C79.9033 53.3371 78.1124 51.5463 75.9033 51.5463C73.6942 51.5463 71.9033 53.3371 71.9033 55.5462C71.9033 57.7554 73.6942 59.5462 75.9033 59.5462Z" fill="#6F6571"/>
<path d="M96.4726 35.0326C98.6817 35.0326 100.473 33.2418 100.473 31.0327C100.473 28.8236 98.6817 27.0327 96.4726 27.0327C94.2635 27.0327 92.4727 28.8236 92.4727 31.0327C92.4727 33.2418 94.2635 35.0326 96.4726 35.0326Z" fill="#6F6571"/>
<path d="M72.7334 88.2158C74.9425 88.2158 76.7333 86.4249 76.7333 84.2158C76.7333 82.0067 74.9425 80.2158 72.7334 80.2158C70.5242 80.2158 68.7334 82.0067 68.7334 84.2158C68.7334 86.4249 70.5242 88.2158 72.7334 88.2158Z" fill="#6F6571"/>
<path d="M3.99997 99.9999V0C1.79098 0 0 1.79073 0 3.99997V108C0 110.209 1.79098 112 3.99997 112H52C54.209 112 56 110.209 56 108H11.9999C7.58168 108 3.99997 104.418 3.99997 99.9999Z" fill="#E5646E"/>
</svg>
