<svg width="126" height="128" viewBox="0 0 126 128" fill="none" xmlns="http://www.w3.org/2000/svg">
<path d="M83.1157 20.2606L42.6423 37.302L2.16895 20.2606C30.0317 8.5233 7.5583 18.0026 34.1216 6.79785H51.163C77.4708 17.8961 55.4234 8.5233 83.1157 20.2606Z" fill="#CAD9FC"/>
<path d="M123.589 73.515L83.116 90.5565L42.6426 73.515C70.2071 61.8843 48.3515 71.1292 74.5953 60.0523H91.6367L123.589 73.515Z" fill="#CAD9FC"/>
<path d="M83.1156 90.5565V125.683L2.16877 91.6003C2.16877 53.9174 1.99836 57.9008 2.55221 56.6227L83.1156 90.5565Z" fill="#E8EDFC"/>
<path d="M42.6423 37.302V73.5151L2.16895 56.4737V20.2606L42.6423 37.302Z" fill="#E8EDFC"/>
<path d="M83.116 20.2606V55.3873C77.8544 55.3873 74.1692 57.7092 74.5953 60.0737L65.329 63.908C64.8816 63.908 64.413 63.908 63.9444 63.908C59.0237 63.908 55.4236 65.9317 55.4236 68.1683L42.6426 73.5577V37.3447L83.116 20.2606Z" fill="#CAD9FC"/>
<path d="M123.59 108.642L83.1162 125.683V90.5565L123.206 73.6642C123.76 74.9423 123.59 70.7671 123.59 108.642Z" fill="#CAD9FC"/>
<path d="M51.1631 6.39317C51.1631 10.3766 41.0022 12.2086 35.9962 9.05589C31.459 6.24406 35.6341 2.13281 42.6424 2.13281C47.3501 2.13281 51.1631 4.04997 51.1631 6.39317Z" fill="#E8EDFC"/>
<path d="M31.9912 14.9138C31.9912 18.8972 21.8303 20.7292 16.8244 17.5765C12.2871 14.7647 16.4622 10.6534 23.4705 10.6534C28.1782 10.6534 31.9912 12.5706 31.9912 14.9138Z" fill="#E8EDFC"/>
<path d="M51.1631 23.4346C51.1631 27.418 41.0022 29.2499 35.9962 26.0973C31.459 23.2854 35.6341 19.1742 42.6424 19.1742C47.3501 19.1742 51.1631 21.0914 51.1631 23.4346Z" fill="#E8EDFC"/>
<path d="M70.335 14.9138C70.335 18.8972 60.174 20.7292 55.1681 17.5765C50.6308 14.7647 54.806 10.6534 61.8143 10.6534C66.522 10.6534 70.335 12.5706 70.335 14.9138Z" fill="#E8EDFC"/>
<path d="M91.6363 59.6476C91.6363 63.6311 81.4753 65.463 76.4694 62.3103C71.9321 59.4985 76.1073 55.3873 83.1155 55.3873C87.8232 55.3873 91.6363 57.3044 91.6363 59.6476Z" fill="#E8EDFC"/>
<path d="M72.4654 68.1683C72.4654 72.1517 62.3044 73.9837 57.2985 70.831C52.7612 68.0192 56.9364 63.908 63.9446 63.908C68.6523 63.908 72.4654 65.8251 72.4654 68.1683Z" fill="#E8EDFC"/>
<path d="M91.6363 76.689C91.6363 80.6724 81.4753 82.5044 76.4694 79.3517C71.9321 76.5399 76.1073 72.4286 83.1155 72.4286C87.8232 72.4286 91.6363 74.3458 91.6363 76.689Z" fill="#E8EDFC"/>
<path d="M110.808 68.1683C110.808 72.1517 100.647 73.9837 95.6413 70.831C91.104 68.0192 95.2791 63.908 102.287 63.908C106.995 63.908 110.808 65.8251 110.808 68.1683Z" fill="#E8EDFC"/>
<path d="M8.94243 56.6228L8.55899 57.5174V91.6003H2.16846V57.5174L2.55189 56.6228L2.16846 56.4737V20.2606L8.55899 22.9446V56.4737L8.94243 56.6228Z" fill="white"/>
<path d="M1.37354 93.5358L3.02655 89.6077L18.7388 96.2198L17.0857 100.148L1.37354 93.5358Z" fill="white"/>
<path d="M8.04755 94.0714C7.71058 94.8646 7.88481 95.7828 8.48897 96.3974C9.09312 97.0121 10.0081 97.2022 10.8071 96.8789C11.606 96.5557 12.1315 95.7828 12.1383 94.921C12.1451 94.0592 11.6319 93.2782 10.8381 92.9424C9.75573 92.4845 8.50705 92.9897 8.04755 94.0714Z" fill="#428DFF"/>
<path d="M42.6421 17.0442C36.5711 17.0442 31.9912 19.7921 31.9912 23.4347C31.9912 27.0773 36.5711 29.8253 42.6421 29.8253C48.7131 29.8253 53.293 27.0773 53.293 23.4347C53.293 19.7921 48.7131 17.0442 42.6421 17.0442ZM42.6421 25.5649C38.5096 25.5649 36.2516 23.9673 36.2516 23.4347C36.2516 22.9022 38.5096 21.3045 42.6421 21.3045C46.7747 21.3045 49.0326 22.9022 49.0326 23.4347C49.0326 23.9673 46.7747 25.5649 42.6421 25.5649Z" fill="#428DFF"/>
<path d="M83.1152 70.2986C77.0442 70.2986 72.4644 73.0465 72.4644 76.6891C72.4644 80.3317 77.0442 83.0797 83.1152 83.0797C89.1863 83.0797 93.7661 80.3317 93.7661 76.6891C93.7661 73.0465 89.1863 70.2986 83.1152 70.2986ZM83.1152 78.8193C78.9827 78.8193 76.7247 77.2217 76.7247 76.6891C76.7247 76.1566 78.9827 74.5589 83.1152 74.5589C87.2478 74.5589 89.5058 76.1566 89.5058 76.6891C89.5058 77.2217 87.2478 78.8193 83.1152 78.8193Z" fill="#428DFF"/>
<path d="M124.419 71.5554L112.597 66.5707C111.468 63.7589 107.421 61.7778 102.287 61.7778C100.774 61.7778 102.862 62.4808 93.5957 58.5826C92.9141 55.8986 89.6549 53.8749 85.2455 53.3849C85.2455 17.1719 85.4798 19.6003 84.6064 18.7482C84.1804 18.3222 84.8194 18.7482 72.1236 13.3163C70.9946 10.5044 66.9472 8.52338 61.8135 8.52338C60.3011 8.52338 62.3886 9.22634 53.1224 5.32811C51.2904 -1.76538 33.9507 -1.78668 32.1614 5.32811C22.9164 9.22634 25.004 8.52338 23.4703 8.52338C18.3365 8.52338 14.2892 10.5044 13.1602 13.3163C-0.366431 19.0252 1.06079 18.3222 0.59215 18.876C-0.217318 19.792 0.0383033 16.8524 0.0383033 91.6003C0.0383033 92.7768 0.992017 93.7305 2.16848 93.7305C3.34495 93.7305 4.29866 92.7768 4.29866 91.6003V59.6477C219.319 150.223 -105.661 13.3802 80.9851 91.9625V122.467L18.6987 96.2441C17.6857 96.008 16.6503 96.5381 16.2495 97.4979C15.8487 98.4577 16.1997 99.5666 17.0797 100.121C49.8206 113.903 40.0644 109.664 41.8324 110.538C96.9401 133.735 78.4502 125.896 82.3058 127.579C82.8368 127.804 83.4363 127.804 83.9673 127.579C127.913 109.877 124.803 110.538 125.357 109.728C125.611 109.425 125.741 109.037 125.719 108.642C125.719 71.3423 125.719 74.7506 125.719 74.1116C126.01 73.0519 125.447 71.9447 124.419 71.5554ZM102.287 66.0382C106.419 66.0382 108.677 67.6358 108.677 68.1684C108.677 68.7009 106.419 70.2986 102.287 70.2986C98.1543 70.2986 95.8963 68.7009 95.8963 68.1684C95.8963 67.6358 98.1543 66.0382 102.287 66.0382ZM89.5058 59.6477C89.5058 60.1802 87.2478 61.7778 83.1153 61.7778C78.9827 61.7778 76.7247 60.1802 76.7247 59.6477C76.7247 59.1151 78.9827 57.5175 83.1153 57.5175C87.2478 57.5175 89.5058 59.1151 89.5058 59.6477ZM61.8135 12.7837C65.946 12.7837 68.204 14.3814 68.204 14.9139C68.204 15.4465 65.946 17.0441 61.8135 17.0441C57.6809 17.0441 55.4229 15.4465 55.4229 14.9139C55.4229 14.3814 57.6809 12.7837 61.8135 12.7837ZM42.6419 4.26302C46.7744 4.26302 49.0324 5.86066 49.0324 6.3932C49.0324 6.92575 46.7744 8.52338 42.6419 8.52338C38.5093 8.52338 36.2513 6.92575 36.2513 6.3932C36.2513 5.86066 38.5093 4.26302 42.6419 4.26302ZM23.4703 12.7837C27.6028 12.7837 29.8608 14.3814 29.8608 14.9139C29.8608 15.4465 27.6028 17.0441 23.4703 17.0441C19.3377 17.0441 17.0797 15.4465 17.0797 14.9139C17.0797 14.3814 19.3377 12.7837 23.4703 12.7837ZM40.5117 70.2986L4.29866 55.0678V23.4346L40.5117 38.6654V70.2986ZM7.66434 20.2607L13.8206 17.6618C16.3309 20.2575 19.8709 21.5938 23.4703 21.3045C33.8655 21.3045 37.146 14.0618 31.1176 10.3979L33.2478 9.48196C37.146 13.8914 48.159 13.8914 51.9508 9.48196L54.0809 10.3979C48.0738 14.0831 51.546 21.3045 61.8135 21.3045C65.4128 21.5938 68.9529 20.2575 71.4632 17.6618L77.6194 20.2607L42.6419 34.9802L7.66434 20.2607ZM44.7721 38.708L80.9851 23.4346V53.2571C76.5756 53.7471 73.3165 55.7707 72.6348 58.4548C63.3898 62.4808 65.4774 61.7778 63.9437 61.7778C58.8099 61.7778 54.7626 63.7589 53.6336 66.5707L44.7721 70.2986V38.708ZM70.3342 68.1684C70.3342 68.7009 68.0762 70.2986 63.9437 70.2986C59.8111 70.2986 57.5531 68.7009 57.5531 68.1684C57.5531 67.6358 59.8111 66.0382 63.9437 66.0382C68.0762 66.0382 70.3342 67.6358 70.3342 68.1684ZM83.1153 88.2347L48.1377 73.5151L54.294 70.9163C58.746 76.7956 74.5946 75.3258 74.5946 68.1684C74.4746 66.2337 73.3288 64.511 71.591 63.6524L73.7212 62.7364C77.6194 67.1459 88.6324 67.1459 92.4242 62.7364L94.5543 63.6524C92.8495 64.5336 91.739 66.252 91.636 68.1684C91.636 75.3045 107.485 76.6891 111.937 70.9163L118.093 73.5151L83.1153 88.2347ZM121.458 107.236L85.2455 122.467V91.9625L121.458 76.6891V107.236Z" fill="#428DFF"/>
<path d="M73.7422 114.862C74.8245 115.332 76.0834 114.837 76.554 113.754C77.0246 112.672 76.5287 111.413 75.4463 110.942L28.5824 90.6418C27.5 90.1712 26.2411 90.6671 25.7705 91.7494C25.2999 92.8318 25.7959 94.0907 26.8782 94.5613L73.7422 114.862Z" fill="#428DFF"/>
<path d="M16.2278 89.9388C16.9279 90.2432 17.7373 90.151 18.351 89.6968C18.9647 89.2427 19.2895 88.4956 19.2031 87.7371C19.1166 86.9785 18.632 86.3237 17.9319 86.0193L11.5414 83.25C10.459 82.7794 9.20011 83.2754 8.72952 84.3577C8.25893 85.4401 8.75487 86.699 9.83721 87.1696L16.2278 89.9388Z" fill="#428DFF"/>
</svg>
